<svg width="32" height="32" viewBox="0 0 32 32" fill="none" xmlns="http://www.w3.org/2000/svg">
<mask id="mask0_127_12627" style="mask-type:alpha" maskUnits="userSpaceOnUse" x="0" y="0" width="32" height="32">
<rect width="32" height="32" fill="#D9D9D9"/>
</mask>
<g mask="url(#mask0_127_12627)">
<path d="M7.07695 27.3336C6.40344 27.3336 5.83335 27.1003 5.36669 26.6336C4.90002 26.1669 4.66669 25.5968 4.66669 24.9233V7.07726C4.66669 6.40375 4.90002 5.83366 5.36669 5.36699C5.83335 4.90033 6.40344 4.66699 7.07695 4.66699H24.923C25.5965 4.66699 26.1666 4.90033 26.6333 5.36699C27.1 5.83366 27.3333 6.40375 27.3333 7.07726V24.9233C27.3333 25.5968 27.1 26.1669 26.6333 26.6336C26.1666 27.1003 25.5965 27.3336 24.923 27.3336H7.07695ZM7.07695 25.3336H24.923C25.0256 25.3336 25.1196 25.2909 25.2051 25.2054C25.2906 25.1199 25.3333 25.0259 25.3333 24.9233V7.07726C25.3333 6.97468 25.2906 6.88065 25.2051 6.79516C25.1196 6.70969 25.0256 6.66696 24.923 6.66696H7.07695C6.97438 6.66696 6.88034 6.70969 6.79485 6.79516C6.70939 6.88065 6.66665 6.97468 6.66665 7.07726V24.9233C6.66665 25.0259 6.70939 25.1199 6.79485 25.2054C6.88034 25.2909 6.97438 25.3336 7.07695 25.3336Z" fill="#DDDDDD"/>
</g>
</svg>
