<svg width="24" height="24" viewBox="0 0 24 24" fill="none" xmlns="http://www.w3.org/2000/svg">
<g clip-path="url(#clip0_547_30058)">
<path d="M15.5935 22.4758C21.1051 20.3105 23.8688 13.9538 21.7663 8.27762C19.6638 2.60145 13.4914 -0.244716 7.97972 1.92053C2.46807 4.08578 -0.295597 10.4425 1.80689 16.1187C3.90938 21.7949 10.0819 24.641 15.5935 22.4758Z" fill="#FFDF00"/>
<g filter="url(#filter0_i_547_30058)">
<path d="M9 16H10.666V13.1568H11.7805C13.5704 13.1568 15 12.3351 15 10.5081C15 8.61622 13.5816 8 11.7355 8H9V16ZM10.666 11.8919V9.26486H11.6116C12.7599 9.26486 13.3677 9.57838 13.3677 10.5081C13.3677 11.427 12.8161 11.8919 11.6679 11.8919H10.666Z" fill="#FFB601"/>
</g>
<path d="M11.7815 21.4724C10.0043 21.4701 8.26761 20.9255 6.79081 19.9072C5.31401 18.889 4.16338 17.4429 3.48427 15.7515C2.80516 14.0601 2.62804 12.1994 2.97529 10.4044C3.32254 8.60939 4.17858 6.96066 5.43526 5.66646C6.69195 4.37226 8.29289 3.49067 10.0359 3.13305C11.7788 2.77544 13.5856 2.95784 15.228 3.65723C16.8703 4.35661 18.2745 5.54159 19.2633 7.06248C20.252 8.58336 20.7808 10.3719 20.783 12.2022C20.7795 14.6597 19.83 17.0155 18.1427 18.7532C16.4553 20.4909 14.1678 21.4688 11.7815 21.4724ZM11.7815 3.90983C10.1889 3.90939 8.63193 4.39535 7.3075 5.30625C5.98307 6.21715 4.95069 7.51208 4.34091 9.02727C3.73114 10.5425 3.57137 12.2098 3.88181 13.8185C4.19225 15.4273 4.95896 16.905 6.08496 18.0649C7.21096 19.2249 8.64569 20.0149 10.2077 20.335C11.7697 20.6552 13.3888 20.4911 14.8602 19.8635C16.3316 19.236 17.5893 18.1731 18.4742 16.8094C19.359 15.4457 19.8313 13.8423 19.8313 12.2022C19.829 10.004 18.9802 7.89658 17.4712 6.34204C15.9621 4.78751 13.916 3.91282 11.7815 3.90983Z" fill="#FFB601"/>
</g>
<defs>
<filter id="filter0_i_547_30058" x="9" y="8" width="6" height="8" filterUnits="userSpaceOnUse" color-interpolation-filters="sRGB">
<feFlood flood-opacity="0" result="BackgroundImageFix"/>
<feBlend mode="normal" in="SourceGraphic" in2="BackgroundImageFix" result="shape"/>
<feColorMatrix in="SourceAlpha" type="matrix" values="0 0 0 0 0 0 0 0 0 0 0 0 0 0 0 0 0 0 127 0" result="hardAlpha"/>
<feOffset/>
<feGaussianBlur stdDeviation="2"/>
<feComposite in2="hardAlpha" operator="arithmetic" k2="-1" k3="1"/>
<feColorMatrix type="matrix" values="0 0 0 0 1 0 0 0 0 0.51425 0 0 0 0 0.1625 0 0 0 0.25 0"/>
<feBlend mode="normal" in2="shape" result="effect1_innerShadow_547_30058"/>
</filter>
<clipPath id="clip0_547_30058">
<rect width="24" height="24" fill="white"/>
</clipPath>
</defs>
</svg>
