<svg width="49" height="35" viewBox="0 0 49 35" fill="none" xmlns="http://www.w3.org/2000/svg">
<g filter="url(#filter0_d_1051_34144)">
<path d="M20 21L30 21L25 27L20 21Z" fill="#6840FD"/>
<rect x="4" width="41" height="22" rx="5" fill="#6840FD"/>
<path d="M24.043 13.0195H19.9062V16.0898H18.4297V13.0195H14.3164V11.8008H24.043V13.0195ZM14.8086 10.0547C15.5117 9.97656 16.123 9.82227 16.6426 9.5918C17.166 9.36133 17.5742 9.0918 17.8672 8.7832C18.1641 8.4707 18.3438 8.14844 18.4062 7.81641H15.1953V6.64453H18.4297V5.42578H19.9062V6.64453H23.1523V7.81641H19.9531C20.0117 8.14062 20.1855 8.46094 20.4746 8.77734C20.7676 9.08984 21.1738 9.36133 21.6934 9.5918C22.2129 9.82227 22.8242 9.97656 23.5273 10.0547L22.9883 11.2266C22.1094 11.1289 21.3438 10.9102 20.6914 10.5703C20.043 10.2305 19.5391 9.81055 19.1797 9.31055C18.8203 9.81445 18.3125 10.2344 17.6562 10.5703C17.0039 10.9062 16.2344 11.125 15.3477 11.2266L14.8086 10.0547ZM28.6133 7.92188C28.6172 8.33594 28.7109 8.73633 28.8945 9.12305C29.0781 9.50586 29.3574 9.85156 29.7324 10.1602C30.1074 10.4688 30.5742 10.707 31.1328 10.875L30.418 12.0352C29.8359 11.8672 29.332 11.6113 28.9062 11.2676C28.4805 10.9199 28.1445 10.5078 27.8984 10.0312C27.6523 10.5469 27.3145 10.9922 26.8848 11.3672C26.459 11.7422 25.9453 12.0234 25.3438 12.2109L24.6172 11.0391C25.1758 10.8711 25.6426 10.627 26.0176 10.3066C26.3926 9.98633 26.6699 9.62109 26.8496 9.21094C27.0332 8.80078 27.125 8.37109 27.125 7.92188V7.83984H24.9805V6.66797H27.125V5.48438H28.6367V6.66797H30.7695V7.83984H28.6133V7.92188ZM26.5977 12.6562H28.0977V14.6953H33.9336V15.8906H26.5977V12.6562ZM30.418 8.53125H32.1875V5.42578H33.6758V13.3359H32.1875V9.73828H30.418V8.53125Z" fill="white"/>
</g>
<defs>
<filter id="filter0_d_1051_34144" x="0" y="0" width="49" height="35" filterUnits="userSpaceOnUse" color-interpolation-filters="sRGB">
<feFlood flood-opacity="0" result="BackgroundImageFix"/>
<feColorMatrix in="SourceAlpha" type="matrix" values="0 0 0 0 0 0 0 0 0 0 0 0 0 0 0 0 0 0 127 0" result="hardAlpha"/>
<feOffset dy="4"/>
<feGaussianBlur stdDeviation="2"/>
<feComposite in2="hardAlpha" operator="out"/>
<feColorMatrix type="matrix" values="0 0 0 0 0.407843 0 0 0 0 0.25098 0 0 0 0 0.992157 0 0 0 0.2 0"/>
<feBlend mode="normal" in2="BackgroundImageFix" result="effect1_dropShadow_1051_34144"/>
<feBlend mode="normal" in="SourceGraphic" in2="effect1_dropShadow_1051_34144" result="shape"/>
</filter>
</defs>
</svg>
