<svg width="430" height="311" viewBox="0 0 430 311" fill="none" xmlns="http://www.w3.org/2000/svg">
<g clip-path="url(#clip0_1051_32466)">
<circle cx="343" cy="140" r="140" fill="url(#paint0_linear_1051_32466)"/>
<path fill-rule="evenodd" clip-rule="evenodd" d="M143.458 111.001C145.515 111.037 147.411 112.38 148.469 114.55L232.249 286.297L222.054 293.82L143.209 132.189L59.014 294L49 286.117L138.365 114.37C139.474 112.239 141.4 110.964 143.458 111.001Z" fill="#FAF8FF"/>
<path fill-rule="evenodd" clip-rule="evenodd" d="M227.241 111.001C229.298 111.037 231.194 112.38 232.253 114.55L316.032 286.297L305.837 293.82L226.992 132.189L142.797 294L132.783 286.117L222.148 114.37C223.257 112.239 225.184 110.964 227.241 111.001Z" fill="#FAF8FF"/>
<path fill-rule="evenodd" clip-rule="evenodd" d="M227.152 111H411.467V125.624H227.152V111Z" fill="#FAF8FF"/>
<path fill-rule="evenodd" clip-rule="evenodd" d="M249.49 152.22L417.049 152.22V166.843L249.49 166.843V152.22Z" fill="#FAF8FF"/>
<path fill-rule="evenodd" clip-rule="evenodd" d="M265.893 193.437L423 193.437L423 208.06L265.893 208.06L265.893 193.437Z" fill="#FAF8FF"/>
<path fill-rule="evenodd" clip-rule="evenodd" d="M422.996 193.437L422.996 290.499L411.107 290.499L411.107 193.437L422.996 193.437Z" fill="#FAF8FF"/>
<path fill-rule="evenodd" clip-rule="evenodd" d="M422.998 290.5L304.988 290.5L304.988 275.876L422.998 275.876L422.998 290.5Z" fill="#FAF8FF"/>
<g clip-path="url(#clip1_1051_32466)">
<path d="M346.65 154.527C343.991 137.394 329.988 123.696 312.791 121.369C297.472 119.303 283.646 125.967 275.357 137.025C267.067 125.981 253.241 119.303 237.922 121.369C220.726 123.696 206.722 137.394 204.064 154.527C202.323 165.748 205.338 178.639 211.312 186.781H211.285L211.435 186.946C230.509 212.317 256.79 227.944 269.04 233.24C273.082 234.992 277.631 234.992 281.673 233.24C293.923 227.944 320.204 212.317 339.278 186.946L339.429 186.809H339.401C345.389 178.653 348.39 165.748 346.65 154.527Z" fill="url(#paint1_radial_1051_32466)"/>
<path d="M201.322 178.106C208.529 177.517 206.529 169.211 205.679 161.985C204.925 155.54 199.266 150.586 192.772 150.682C190.538 150.709 188.469 151.325 186.674 152.338C172.465 159.81 156.611 153.255 154.72 152.42C154.665 152.393 154.624 152.379 154.57 152.352C154.542 152.352 154.528 152.338 154.528 152.338C152.692 151.544 150.637 151.175 148.513 151.339C142.416 151.804 137.455 156.69 136.757 162.752C136.757 162.793 136.757 162.848 136.743 162.889C136.4 166.2 134.729 169.211 131.988 171.113C126.713 174.767 123.493 181.021 124.068 187.849C124.726 195.759 130.275 202.095 137.483 204.134C137.496 204.134 145.266 206.925 150.705 214.753C150.966 215.191 151.254 215.615 151.541 216.039C151.541 216.039 151.555 216.067 151.569 216.08C156.447 222.991 164.956 227.069 174.082 225.742C185.838 224.031 194.539 213.494 194.018 201.643C193.717 194.951 208.228 197.237 203.583 193.2L204.925 181.541L201.308 178.106H201.322Z" fill="url(#paint2_radial_1051_32466)"/>
<path d="M186.743 152.187C183.756 150.518 181.399 147.302 181.728 143.648C182.249 137.928 186.962 133.344 191.525 133.864C196.896 134.479 201.322 138.243 201.322 143.648C201.322 149.053 196.938 153.432 191.525 153.432" fill="url(#paint3_radial_1051_32466)"/>
<path d="M198.346 195.41L195.99 194.439C191.95 192.773 190.024 188.145 191.692 184.11L198.472 167.704L215.457 174.706L208.676 191.112C207.008 195.147 202.374 197.071 198.334 195.405L198.346 195.41Z" fill="url(#paint4_radial_1051_32466)"/>
<path d="M211.422 139.802C201.46 140.788 193.444 148.916 192.581 158.879C192.129 164.092 193.595 168.951 196.349 172.851L200.597 176.641C204.009 179.679 208.339 181.622 212.902 181.759C213.34 181.773 213.792 181.773 214.244 181.759C225.562 181.403 234.729 171.865 234.633 160.562C234.537 148.314 223.959 138.571 211.422 139.802Z" fill="#FFE2E1"/>
<path d="M213.571 139.706C221.861 139.706 229.041 144.496 232.467 151.461L220.025 146.028L208.734 149.354C206.734 149.942 205.199 151.461 204.391 153.391C203.253 156.086 200.568 157.975 197.457 157.975C195.758 157.975 194.196 157.414 192.949 156.456C193.812 152.268 195.923 148.533 198.882 145.659C202.678 141.964 207.857 139.692 213.585 139.692L213.571 139.706Z" fill="url(#paint5_radial_1051_32466)"/>
<path d="M198.375 159.727C199.074 156.703 197.197 153.692 194.169 152.994C191.141 152.296 188.126 154.171 187.427 157.196C186.728 160.22 188.606 163.23 191.634 163.928C192.524 164.134 193.401 164.12 194.237 163.915" fill="#FFE2E1"/>
<path d="M214.737 164.325C214.737 167.034 212.531 169.238 209.818 169.238C207.105 169.238 204.898 167.034 204.898 164.325C204.898 161.615 207.105 159.412 209.818 159.412C212.531 159.412 214.737 161.615 214.737 164.325Z" fill="#FFB9B4"/>
<path d="M233.153 165.667C233.153 168.376 230.947 170.579 228.234 170.579C225.521 170.579 223.314 168.376 223.314 165.667C223.314 162.957 225.521 160.754 228.234 160.754C230.947 160.754 233.153 162.957 233.153 165.667Z" fill="#FFB9B4"/>
<path d="M195.143 161.136C195.143 159.686 193.964 158.509 192.512 158.509" stroke="#363743" stroke-width="1.13971" stroke-linecap="round" stroke-linejoin="round"/>
<path d="M222.464 155.417L223.876 157.812C224.602 159.043 224.081 160.631 222.779 161.206L221.875 161.602" stroke="#363743" stroke-width="1.13971" stroke-linecap="round" stroke-linejoin="round"/>
<path d="M216.093 156.47C216.381 157.797 215.518 159.015 214.147 159.166C212.777 159.33 211.434 158.372 211.146 157.044" stroke="#363743" stroke-width="1.13971" stroke-linecap="round" stroke-linejoin="round"/>
<path d="M230.728 157.1C230.591 157.798 229.823 158.345 228.755 158.427C227.384 158.537 226.042 157.866 225.754 156.908" stroke="#363743" stroke-width="1.13971" stroke-linecap="round" stroke-linejoin="round"/>
<path d="M214.105 164.325C214.105 164.325 218.929 168.704 224.19 166.296" stroke="#363743" stroke-width="1.13971" stroke-linecap="round" stroke-linejoin="round"/>
<path d="M254.981 256.614C250.884 266.508 242.306 272.365 235.811 269.683C229.316 267 227.371 256.805 231.454 246.912C235.551 237.018 244.129 231.161 250.623 233.843C257.118 236.525 259.064 246.72 254.981 256.614Z" fill="#8783B3"/>
<path d="M238.935 330.77C237.277 330.77 235.592 330.482 233.948 329.867C226.521 327.116 222.739 318.878 225.493 311.461L242.498 265.673L211.832 263.798C203.926 263.319 197.91 256.518 198.39 248.635C198.87 240.739 205.666 234.718 213.572 235.211L244.964 237.127C249.349 237.387 253.391 238.55 256.967 240.548C269.176 247.39 274.493 261.868 269.628 274.978L252.391 321.41C250.253 327.184 244.772 330.756 238.949 330.756L238.935 330.77Z" fill="url(#paint6_radial_1051_32466)"/>
<path d="M248.582 233.309C248.76 233.336 248.952 233.363 249.13 233.404C248.952 233.377 248.76 233.35 248.582 233.309Z" fill="white"/>
<path d="M231.454 246.911C235.016 238.29 241.977 232.748 248.006 233.227C247.088 233.09 246.156 232.994 245.211 232.926L213.819 231.01C213.435 230.982 213.052 230.969 212.668 230.969C202.898 230.969 194.773 238.605 194.184 248.362C193.882 253.302 195.526 258.064 198.801 261.759C202.09 265.467 206.612 267.671 211.558 267.972L235.332 269.422C229.22 266.453 227.467 256.531 231.454 246.898V246.911Z" fill="url(#paint7_radial_1051_32466)"/>
<path d="M187.277 189.614C187.304 188.957 193.744 183.059 193.744 183.059L186.03 178.297C186.03 178.297 167.902 183.059 160.832 212.262C160.832 212.262 157.214 227.712 162.12 242.149C167.162 256.969 177.672 256.093 187.03 251.208L221.122 233.377" fill="url(#paint8_radial_1051_32466)"/>
<mask id="mask0_1051_32466" style="mask-type:luminance" maskUnits="userSpaceOnUse" x="159" y="178" width="63" height="77">
<path d="M187.277 189.614C187.304 188.957 193.744 183.059 193.744 183.059L186.03 178.297C186.03 178.297 167.902 183.059 160.832 212.262C160.832 212.262 157.214 227.712 162.12 242.149C167.162 256.969 177.672 256.093 187.03 251.208L221.122 233.377L187.277 189.628V189.614Z" fill="white"/>
</mask>
<g mask="url(#mask0_1051_32466)">
<path d="M334.262 150.258L339.414 155.403V154.637L334.646 149.875L338.51 146.016H337.742L334.262 149.492L330.782 146.016H330.014L333.878 149.875L326.671 157.073L319.464 149.875L323.341 146.002H322.574L319.094 149.478L315.613 146.002H314.846L318.724 149.875L311.516 157.073L304.309 149.875L308.173 146.002H307.406L303.925 149.478L300.445 146.002H299.677L303.541 149.875L296.334 157.073L289.127 149.875L292.991 146.016H292.223L288.743 149.492L285.263 146.016H284.495L288.373 149.875L281.166 157.073L273.958 149.875L277.836 146.002H277.069L273.588 149.478L270.108 146.002H269.341L273.218 149.875L266.011 157.073L258.803 149.875L262.681 146.002H261.914L258.433 149.478L254.953 146.002H254.186L258.05 149.875L250.842 157.073L243.635 149.875L247.513 146.002H246.745L243.265 149.478L239.785 146.002H239.017L242.895 149.875L235.688 157.073L228.48 149.875L232.344 146.016H231.577L228.097 149.492L224.616 146.016H223.849L227.713 149.875L220.506 157.073L213.298 149.875L217.162 146.002H216.395L212.914 149.478L209.434 146.002H208.667L212.531 149.875L205.323 157.073L198.116 149.875L201.98 146.016H201.213L197.732 149.492L194.252 146.016H193.485L197.349 149.875L190.141 157.073L182.934 149.875L186.798 146.002H186.031L182.55 149.478L179.07 146.002H178.302L182.18 149.875L174.973 157.073L167.765 149.875L171.643 146.002H170.876L167.395 149.478L163.915 146.002H163.148L167.025 149.875L159.818 157.073L152.611 149.875L156.475 146.016H155.707L152.227 149.492L148.747 146.016H147.979L151.843 149.875L144.636 157.073L137.428 149.875L141.306 146.002H140.539L137.058 149.478L133.592 146.016V146.782L136.661 149.847L133.592 152.913V153.679L137.058 150.217L144.266 157.415L137.058 164.613L133.592 161.151V161.917L136.661 164.982L133.592 168.048V168.814L137.058 165.352L144.266 172.55L137.058 179.748L133.592 176.286V177.052L136.661 180.117L133.592 183.183V183.949L137.058 180.487L144.266 187.685L137.058 194.883L133.592 191.421V192.187L136.661 195.253L133.592 198.318V199.084L137.058 195.622L144.266 202.82L137.058 210.018L133.592 206.556V207.322L136.661 210.388L133.592 213.453V214.219L137.058 210.757L144.266 217.955L137.058 225.153L133.592 221.691V222.457L136.661 225.523L133.592 228.588V229.354L137.058 225.892L144.266 233.09L137.058 240.288L133.592 236.826V237.592L136.661 240.658L133.592 243.723V244.489L137.058 241.027L144.266 248.225L137.058 255.423L133.592 251.961V252.728L136.661 255.793L133.592 258.858V259.625L137.058 256.162L144.266 263.36L137.058 270.558L133.592 267.096V267.863L136.661 270.928L133.592 273.993V274.76L137.058 271.297L144.266 278.495L137.058 285.694L133.592 282.231V282.998L136.661 286.063L133.592 289.128V289.895L137.058 286.432L144.266 293.631L143.882 294.014H145.417L145.033 293.631L152.241 286.432L159.448 293.631L159.064 294.014H160.599L160.215 293.631L167.423 286.432L174.63 293.631L174.247 294.014H175.795L175.411 293.631L182.619 286.432L189.826 293.631L189.442 294.014H190.991L190.607 293.631L197.814 286.432L205.022 293.631L204.638 294.014H206.173L205.789 293.631L212.997 286.432L220.204 293.631L219.82 294.014H221.355L220.971 293.631L228.179 286.432L235.386 293.631L235.003 294.014H236.537L236.154 293.631L243.361 286.432L250.568 293.631L250.185 294.014H251.733L251.349 293.631L258.557 286.432L265.764 293.631L265.381 294.014H266.929L266.545 293.631L273.753 286.432L280.96 293.631L280.576 294.014H282.111L281.727 293.631L288.935 286.432L296.142 293.631L295.759 294.014H297.293L296.91 293.631L304.117 286.432L311.324 293.631L310.941 294.014H312.475L312.092 293.631L319.299 286.432L326.507 293.631L326.123 294.014H327.658L327.274 293.631L334.481 286.432L339.633 291.578V290.812L334.865 286.049L339.633 281.287V280.521L334.481 285.666L327.274 278.468L334.481 271.27L339.633 276.415V275.649L334.865 270.887L339.633 266.125V265.358L334.481 270.504L327.274 263.306L334.481 256.108L339.633 261.253V260.487L334.865 255.724L339.633 250.962V250.196L334.481 255.341L327.274 248.143L334.481 240.945L339.633 246.091V245.324L334.865 240.562L339.633 235.8V235.033L334.481 240.179L327.274 232.981L334.481 225.783L339.633 230.928V230.162L334.865 225.4L339.633 220.637V219.871L334.481 225.016L327.274 217.818L334.481 210.62L339.633 215.766V214.999L334.865 210.237L339.633 205.475V204.709L334.481 209.854L327.274 202.656L334.481 195.458L339.633 200.603V199.837L334.865 195.075L339.633 190.312V189.546L334.481 194.691L327.274 187.493L334.481 180.295L339.633 185.441V184.674L334.865 179.912L339.633 175.15V174.384L334.481 179.529L327.274 172.331L334.481 165.133L339.633 170.278V169.512L334.865 164.75L339.633 159.988V159.221L334.481 164.367L327.274 157.169L334.481 149.97L334.262 150.258ZM319.08 150.258L326.287 157.456L319.08 164.654L311.872 157.456L319.08 150.258ZM311.489 278.4L304.281 271.202L311.489 264.004L318.696 271.202L311.489 278.4ZM319.08 271.585L326.287 278.783L319.08 285.981L311.872 278.783L319.08 271.585ZM152.419 271.202L159.626 264.004L166.834 271.202L159.626 278.4L152.419 271.202ZM159.243 278.783L152.035 285.981L144.828 278.783L152.035 271.585L159.243 278.783ZM296.307 263.224L289.099 256.025L296.307 248.827L303.514 256.025L296.307 263.224ZM303.898 256.409L311.105 263.607L303.898 270.805L296.69 263.607L303.898 256.409ZM167.601 256.025L174.808 248.827L182.016 256.025L174.808 263.224L167.601 256.025ZM174.425 263.607L167.217 270.805L160.01 263.607L167.217 256.409L174.425 263.607ZM281.111 248.047L273.903 240.849L281.111 233.651L288.318 240.849L281.111 248.047ZM288.702 241.233L295.909 248.431L288.702 255.629L281.494 248.431L288.702 241.233ZM182.783 240.849L189.99 233.651L197.198 240.849L189.99 248.047L182.783 240.849ZM189.607 248.431L182.399 255.629L175.192 248.431L182.399 241.233L189.607 248.431ZM265.929 232.871L258.721 225.673L265.929 218.475L273.136 225.673L265.929 232.871ZM273.52 226.056L280.727 233.254L273.52 240.453L266.312 233.254L273.52 226.056ZM197.979 225.673L205.186 218.475L212.394 225.673L205.186 232.871L197.979 225.673ZM204.803 233.254L197.595 240.453L190.388 233.254L197.595 226.056L204.803 233.254ZM250.746 217.695L243.539 210.497L250.746 203.299L257.954 210.497L250.746 217.695ZM258.338 210.88L265.545 218.078L258.338 225.276L251.13 218.078L258.338 210.88ZM250.363 218.078L243.155 225.276L235.948 218.078L243.155 210.88L250.363 218.078ZM235.564 217.695L228.357 210.497L235.564 203.299L242.772 210.497L235.564 217.695ZM235.181 218.078L227.973 225.276L220.766 218.078L227.973 210.88L235.181 218.078ZM220.382 217.695L213.175 210.497L220.382 203.299L227.59 210.497L220.382 217.695ZM219.999 218.078L212.791 225.276L205.584 218.078L212.791 210.88L219.999 218.078ZM205.2 217.695L197.993 210.497L205.2 203.299L212.407 210.497L205.2 217.695ZM204.816 218.078L197.609 225.276L190.402 218.078L197.609 210.88L204.816 218.078ZM212.791 226.043L219.999 233.241L212.791 240.439L205.584 233.241L212.791 226.043ZM213.175 225.66L220.382 218.461L227.59 225.66L220.382 232.858L213.175 225.66ZM227.973 226.043L235.181 233.241L227.973 240.439L220.766 233.241L227.973 226.043ZM228.357 225.66L235.564 218.461L242.772 225.66L235.564 232.858L228.357 225.66ZM243.155 226.043L250.363 233.241L243.155 240.439L235.948 233.241L243.155 226.043ZM243.539 225.66L250.746 218.461L257.954 225.66L250.746 232.858L243.539 225.66ZM258.338 226.043L265.545 233.241L258.338 240.439L251.13 233.241L258.338 226.043ZM266.312 218.078L273.52 210.88L280.727 218.078L273.52 225.276L266.312 218.078ZM265.929 217.695L258.721 210.497L265.929 203.299L273.136 210.497L265.929 217.695ZM266.312 202.916L273.52 195.718L280.727 202.916L273.52 210.114L266.312 202.916ZM265.929 202.533L258.721 195.335L265.929 188.137L273.136 195.335L265.929 202.533ZM265.545 202.916L258.338 210.114L251.13 202.916L258.338 195.718L265.545 202.916ZM250.746 202.533L243.539 195.335L250.746 188.137L257.954 195.335L250.746 202.533ZM250.363 202.916L243.155 210.114L235.948 202.916L243.155 195.718L250.363 202.916ZM235.564 202.533L228.357 195.335L235.564 188.137L242.772 195.335L235.564 202.533ZM235.181 202.916L227.973 210.114L220.766 202.916L227.973 195.718L235.181 202.916ZM220.382 202.533L213.175 195.335L220.382 188.137L227.59 195.335L220.382 202.533ZM219.999 202.916L212.791 210.114L205.584 202.916L212.791 195.718L219.999 202.916ZM205.2 202.533L197.993 195.335L205.2 188.137L212.407 195.335L205.2 202.533ZM204.816 202.916L197.609 210.114L190.402 202.916L197.609 195.718L204.816 202.916ZM190.018 202.533L182.81 195.335L190.018 188.137L197.225 195.335L190.018 202.533ZM189.634 202.916L182.427 210.114L175.219 202.916L182.427 195.718L189.634 202.916ZM190.018 203.299L197.225 210.497L190.018 217.695L182.81 210.497L190.018 203.299ZM189.634 218.078L182.427 225.276L175.219 218.078L182.427 210.88L189.634 218.078ZM190.018 218.461L197.225 225.66L190.018 232.858L182.81 225.66L190.018 218.461ZM189.634 233.241L182.427 240.439L175.219 233.241L182.427 226.043L189.634 233.241ZM197.609 241.205L204.816 248.403L197.609 255.601L190.402 248.403L197.609 241.205ZM197.993 240.822L205.2 233.624L212.407 240.822L205.2 248.02L197.993 240.822ZM212.791 241.205L219.999 248.403L212.791 255.601L205.584 248.403L212.791 241.205ZM213.175 240.822L220.382 233.624L227.59 240.822L220.382 248.02L213.175 240.822ZM227.973 241.205L235.181 248.403L227.973 255.601L220.766 248.403L227.973 241.205ZM228.357 240.822L235.564 233.624L242.772 240.822L235.564 248.02L228.357 240.822ZM243.155 241.205L250.363 248.403L243.155 255.601L235.948 248.403L243.155 241.205ZM243.539 240.822L250.746 233.624L257.954 240.822L250.746 248.02L243.539 240.822ZM258.338 241.205L265.545 248.403L258.338 255.601L251.13 248.403L258.338 241.205ZM258.721 240.822L265.929 233.624L273.136 240.822L265.929 248.02L258.721 240.822ZM273.52 241.205L280.727 248.403L273.52 255.601L266.312 248.403L273.52 241.205ZM281.494 233.241L288.702 226.043L295.909 233.241L288.702 240.439L281.494 233.241ZM281.111 232.858L273.903 225.66L281.111 218.461L288.318 225.66L281.111 232.858ZM281.494 218.078L288.702 210.88L295.909 218.078L288.702 225.276L281.494 218.078ZM281.111 217.695L273.903 210.497L281.111 203.299L288.318 210.497L281.111 217.695ZM281.494 202.916L288.702 195.718L295.909 202.916L288.702 210.114L281.494 202.916ZM281.111 202.533L273.903 195.335L281.111 188.137L288.318 195.335L281.111 202.533ZM281.494 187.753L288.702 180.555L295.909 187.753L288.702 194.951L281.494 187.753ZM281.111 187.37L273.903 180.172L281.111 172.974L288.318 180.172L281.111 187.37ZM280.727 187.753L273.52 194.951L266.312 187.753L273.52 180.555L280.727 187.753ZM265.929 187.37L258.721 180.172L265.929 172.974L273.136 180.172L265.929 187.37ZM265.545 187.753L258.338 194.951L251.13 187.753L258.338 180.555L265.545 187.753ZM250.746 187.37L243.539 180.172L250.746 172.974L257.954 180.172L250.746 187.37ZM250.363 187.753L243.155 194.951L235.948 187.753L243.155 180.555L250.363 187.753ZM235.564 187.37L228.357 180.172L235.564 172.974L242.772 180.172L235.564 187.37ZM235.181 187.753L227.973 194.951L220.766 187.753L227.973 180.555L235.181 187.753ZM220.382 187.37L213.175 180.172L220.382 172.974L227.59 180.172L220.382 187.37ZM219.999 187.753L212.791 194.951L205.584 187.753L212.791 180.555L219.999 187.753ZM205.2 187.37L197.993 180.172L205.2 172.974L212.407 180.172L205.2 187.37ZM204.816 187.753L197.609 194.951L190.402 187.753L197.609 180.555L204.816 187.753ZM190.018 187.37L182.81 180.172L190.018 172.974L197.225 180.172L190.018 187.37ZM189.634 187.753L182.427 194.951L175.219 187.753L182.427 180.555L189.634 187.753ZM174.836 187.37L167.628 180.172L174.836 172.974L182.043 180.172L174.836 187.37ZM174.452 187.753L167.245 194.951L160.037 187.753L167.245 180.555L174.452 187.753ZM174.836 188.137L182.043 195.335L174.836 202.533L167.628 195.335L174.836 188.137ZM174.452 202.916L167.245 210.114L160.037 202.916L167.245 195.718L174.452 202.916ZM174.836 203.299L182.043 210.497L174.836 217.695L167.628 210.497L174.836 203.299ZM174.452 218.078L167.245 225.276L160.037 218.078L167.245 210.88L174.452 218.078ZM174.836 218.461L182.043 225.66L174.836 232.858L167.628 225.66L174.836 218.461ZM174.452 233.241L167.245 240.439L160.037 233.241L167.245 226.043L174.452 233.241ZM174.836 233.624L182.043 240.822L174.836 248.02L167.628 240.822L174.836 233.624ZM174.452 248.403L167.245 255.601L160.037 248.403L167.245 241.205L174.452 248.403ZM182.427 256.368L189.634 263.566L182.427 270.764L175.219 263.566L182.427 256.368ZM182.81 255.984L190.018 248.786L197.225 255.984L190.018 263.183L182.81 255.984ZM197.609 256.368L204.816 263.566L197.609 270.764L190.402 263.566L197.609 256.368ZM197.993 255.984L205.2 248.786L212.407 255.984L205.2 263.183L197.993 255.984ZM212.791 256.368L219.999 263.566L212.791 270.764L205.584 263.566L212.791 256.368ZM213.175 255.984L220.382 248.786L227.59 255.984L220.382 263.183L213.175 255.984ZM227.973 256.368L235.181 263.566L227.973 270.764L220.766 263.566L227.973 256.368ZM228.357 255.984L235.564 248.786L242.772 255.984L235.564 263.183L228.357 255.984ZM243.155 256.368L250.363 263.566L243.155 270.764L235.948 263.566L243.155 256.368ZM243.539 255.984L250.746 248.786L257.954 255.984L250.746 263.183L243.539 255.984ZM258.338 256.368L265.545 263.566L258.338 270.764L251.13 263.566L258.338 256.368ZM258.721 255.984L265.929 248.786L273.136 255.984L265.929 263.183L258.721 255.984ZM273.52 256.368L280.727 263.566L273.52 270.764L266.312 263.566L273.52 256.368ZM273.903 255.984L281.111 248.786L288.318 255.984L281.111 263.183L273.903 255.984ZM288.702 256.368L295.909 263.566L288.702 270.764L281.494 263.566L288.702 256.368ZM296.677 248.403L303.884 241.205L311.091 248.403L303.884 255.601L296.677 248.403ZM296.293 248.02L289.086 240.822L296.293 233.624L303.5 240.822L296.293 248.02ZM296.677 233.241L303.884 226.043L311.091 233.241L303.884 240.439L296.677 233.241ZM296.293 232.858L289.086 225.66L296.293 218.461L303.5 225.66L296.293 232.858ZM296.677 218.078L303.884 210.88L311.091 218.078L303.884 225.276L296.677 218.078ZM296.293 217.695L289.086 210.497L296.293 203.299L303.5 210.497L296.293 217.695ZM296.677 202.916L303.884 195.718L311.091 202.916L303.884 210.114L296.677 202.916ZM296.293 202.533L289.086 195.335L296.293 188.137L303.5 195.335L296.293 202.533ZM296.677 187.753L303.884 180.555L311.091 187.753L303.884 194.951L296.677 187.753ZM296.293 187.37L289.086 180.172L296.293 172.974L303.5 180.172L296.293 187.37ZM296.677 172.591L303.884 165.393L311.091 172.591L303.884 179.789L296.677 172.591ZM296.293 172.208L289.086 165.01L296.293 157.812L303.5 165.01L296.293 172.208ZM295.909 172.591L288.702 179.789L281.494 172.591L288.702 165.393L295.909 172.591ZM281.111 172.208L273.903 165.01L281.111 157.812L288.318 165.01L281.111 172.208ZM280.727 172.591L273.52 179.789L266.312 172.591L273.52 165.393L280.727 172.591ZM265.929 172.208L258.721 165.01L265.929 157.812L273.136 165.01L265.929 172.208ZM265.545 172.591L258.338 179.789L251.13 172.591L258.338 165.393L265.545 172.591ZM250.746 172.208L243.539 165.01L250.746 157.812L257.954 165.01L250.746 172.208ZM250.363 172.591L243.155 179.789L235.948 172.591L243.155 165.393L250.363 172.591ZM235.564 172.208L228.357 165.01L235.564 157.812L242.772 165.01L235.564 172.208ZM235.181 172.591L227.973 179.789L220.766 172.591L227.973 165.393L235.181 172.591ZM220.382 172.208L213.175 165.01L220.382 157.812L227.59 165.01L220.382 172.208ZM219.999 172.591L212.791 179.789L205.584 172.591L212.791 165.393L219.999 172.591ZM205.2 172.208L197.993 165.01L205.2 157.812L212.407 165.01L205.2 172.208ZM204.816 172.591L197.609 179.789L190.402 172.591L197.609 165.393L204.816 172.591ZM190.018 172.208L182.81 165.01L190.018 157.812L197.225 165.01L190.018 172.208ZM189.634 172.591L182.427 179.789L175.219 172.591L182.427 165.393L189.634 172.591ZM174.836 172.208L167.628 165.01L174.836 157.812L182.043 165.01L174.836 172.208ZM174.452 172.591L167.245 179.789L160.037 172.591L167.245 165.393L174.452 172.591ZM159.654 172.208L152.446 165.01L159.654 157.812L166.861 165.01L159.654 172.208ZM159.27 172.591L152.062 179.789L144.855 172.591L152.062 165.393L159.27 172.591ZM159.654 172.974L166.861 180.172L159.654 187.37L152.446 180.172L159.654 172.974ZM159.27 187.753L152.062 194.951L144.855 187.753L152.062 180.555L159.27 187.753ZM159.654 188.137L166.861 195.335L159.654 202.533L152.446 195.335L159.654 188.137ZM159.27 202.916L152.062 210.114L144.855 202.916L152.062 195.718L159.27 202.916ZM159.654 203.299L166.861 210.497L159.654 217.695L152.446 210.497L159.654 203.299ZM159.27 218.078L152.062 225.276L144.855 218.078L152.062 210.88L159.27 218.078ZM159.654 218.461L166.861 225.66L159.654 232.858L152.446 225.66L159.654 218.461ZM159.27 233.241L152.062 240.439L144.855 233.241L152.062 226.043L159.27 233.241ZM159.654 233.624L166.861 240.822L159.654 248.02L152.446 240.822L159.654 233.624ZM159.27 248.403L152.062 255.601L144.855 248.403L152.062 241.205L159.27 248.403ZM159.654 248.786L166.861 255.984L159.654 263.183L152.446 255.984L159.654 248.786ZM159.27 263.566L152.062 270.764L144.855 263.566L152.062 256.368L159.27 263.566ZM167.245 271.53L174.452 278.728L167.245 285.926L160.037 278.728L167.245 271.53ZM167.628 271.147L174.836 263.949L182.043 271.147L174.836 278.345L167.628 271.147ZM182.427 271.53L189.634 278.728L182.427 285.926L175.219 278.728L182.427 271.53ZM182.81 271.147L190.018 263.949L197.225 271.147L190.018 278.345L182.81 271.147ZM197.609 271.53L204.816 278.728L197.609 285.926L190.402 278.728L197.609 271.53ZM197.993 271.147L205.2 263.949L212.407 271.147L205.2 278.345L197.993 271.147ZM212.791 271.53L219.999 278.728L212.791 285.926L205.584 278.728L212.791 271.53ZM213.175 271.147L220.382 263.949L227.59 271.147L220.382 278.345L213.175 271.147ZM227.973 271.53L235.181 278.728L227.973 285.926L220.766 278.728L227.973 271.53ZM228.357 271.147L235.564 263.949L242.772 271.147L235.564 278.345L228.357 271.147ZM243.155 271.53L250.363 278.728L243.155 285.926L235.948 278.728L243.155 271.53ZM243.539 271.147L250.746 263.949L257.954 271.147L250.746 278.345L243.539 271.147ZM258.338 271.53L265.545 278.728L258.338 285.926L251.13 278.728L258.338 271.53ZM258.721 271.147L265.929 263.949L273.136 271.147L265.929 278.345L258.721 271.147ZM273.52 271.53L280.727 278.728L273.52 285.926L266.312 278.728L273.52 271.53ZM273.903 271.147L281.111 263.949L288.318 271.147L281.111 278.345L273.903 271.147ZM288.702 271.53L295.909 278.728L288.702 285.926L281.494 278.728L288.702 271.53ZM289.086 271.147L296.293 263.949L303.5 271.147L296.293 278.345L289.086 271.147ZM303.884 271.53L311.091 278.728L303.884 285.926L296.677 278.728L303.884 271.53ZM311.859 263.566L319.066 256.368L326.274 263.566L319.066 270.764L311.859 263.566ZM311.475 263.183L304.268 255.984L311.475 248.786L318.683 255.984L311.475 263.183ZM311.859 248.403L319.066 241.205L326.274 248.403L319.066 255.601L311.859 248.403ZM311.475 248.02L304.268 240.822L311.475 233.624L318.683 240.822L311.475 248.02ZM311.859 233.241L319.066 226.043L326.274 233.241L319.066 240.439L311.859 233.241ZM311.475 232.858L304.268 225.66L311.475 218.461L318.683 225.66L311.475 232.858ZM311.859 218.078L319.066 210.88L326.274 218.078L319.066 225.276L311.859 218.078ZM311.475 217.695L304.268 210.497L311.475 203.299L318.683 210.497L311.475 217.695ZM311.859 202.916L319.066 195.718L326.274 202.916L319.066 210.114L311.859 202.916ZM311.475 202.533L304.268 195.335L311.475 188.137L318.683 195.335L311.475 202.533ZM311.859 187.753L319.066 180.555L326.274 187.753L319.066 194.951L311.859 187.753ZM311.475 187.37L304.268 180.172L311.475 172.974L318.683 180.172L311.475 187.37ZM311.859 172.591L319.066 165.393L326.274 172.591L319.066 179.789L311.859 172.591ZM311.475 172.208L304.268 165.01L311.475 157.812L318.683 165.01L311.475 172.208ZM303.884 150.23L311.091 157.429L303.884 164.627L296.677 157.429L303.884 150.23ZM288.702 150.23L295.909 157.429L288.702 164.627L281.494 157.429L288.702 150.23ZM273.52 150.23L280.727 157.429L273.52 164.627L266.312 157.429L273.52 150.23ZM258.338 150.23L265.545 157.429L258.338 164.627L251.13 157.429L258.338 150.23ZM243.155 150.23L250.363 157.429L243.155 164.627L235.948 157.429L243.155 150.23ZM227.973 150.23L235.181 157.429L227.973 164.627L220.766 157.429L227.973 150.23ZM212.791 150.23L219.999 157.429L212.791 164.627L205.584 157.429L212.791 150.23ZM197.609 150.23L204.816 157.429L197.609 164.627L190.402 157.429L197.609 150.23ZM182.427 150.23L189.634 157.429L182.427 164.627L175.219 157.429L182.427 150.23ZM167.245 150.23L174.452 157.429L167.245 164.627L160.037 157.429L167.245 150.23ZM152.062 150.23L159.27 157.429L152.062 164.627L144.855 157.429L152.062 150.23ZM137.264 165.01L144.471 157.812L151.679 165.01L144.471 172.208L137.264 165.01ZM137.264 180.172L144.471 172.974L151.679 180.172L144.471 187.37L137.264 180.172ZM137.264 195.335L144.471 188.137L151.679 195.335L144.471 202.533L137.264 195.335ZM137.264 210.497L144.471 203.299L151.679 210.497L144.471 217.695L137.264 210.497ZM137.264 225.66L144.471 218.461L151.679 225.66L144.471 232.858L137.264 225.66ZM137.264 240.822L144.471 233.624L151.679 240.822L144.471 248.02L137.264 240.822ZM137.264 255.984L144.471 248.786L151.679 255.984L144.471 263.183L137.264 255.984ZM137.264 271.147L144.471 263.949L151.679 271.147L144.471 278.345L137.264 271.147ZM144.471 293.507L137.264 286.309L144.471 279.111L151.679 286.309L144.471 293.507ZM159.654 293.507L152.446 286.309L159.654 279.111L166.861 286.309L159.654 293.507ZM174.836 293.507L167.628 286.309L174.836 279.111L182.043 286.309L174.836 293.507ZM190.018 293.507L182.81 286.309L190.018 279.111L197.225 286.309L190.018 293.507ZM205.2 293.507L197.993 286.309L205.2 279.111L212.407 286.309L205.2 293.507ZM220.382 293.507L213.175 286.309L220.382 279.111L227.59 286.309L220.382 293.507ZM235.564 293.507L228.357 286.309L235.564 279.111L242.772 286.309L235.564 293.507ZM250.746 293.507L243.539 286.309L250.746 279.111L257.954 286.309L250.746 293.507ZM265.929 293.507L258.721 286.309L265.929 279.111L273.136 286.309L265.929 293.507ZM281.111 293.507L273.903 286.309L281.111 279.111L288.318 286.309L281.111 293.507ZM296.293 293.507L289.086 286.309L296.293 279.111L303.5 286.309L296.293 293.507ZM311.475 293.507L304.268 286.309L311.475 279.111L318.683 286.309L311.475 293.507ZM333.865 286.309L326.657 293.507L319.45 286.309L326.657 279.111L333.865 286.309ZM333.865 271.147L326.657 278.345L319.45 271.147L326.657 263.949L333.865 271.147ZM333.865 255.984L326.657 263.183L319.45 255.984L326.657 248.786L333.865 255.984ZM333.865 240.822L326.657 248.02L319.45 240.822L326.657 233.624L333.865 240.822ZM333.865 225.66L326.657 232.858L319.45 225.66L326.657 218.461L333.865 225.66ZM333.865 210.497L326.657 217.695L319.45 210.497L326.657 203.299L333.865 210.497ZM333.865 195.335L326.657 202.533L319.45 195.335L326.657 188.137L333.865 195.335ZM333.865 180.172L326.657 187.37L319.45 180.172L326.657 172.974L333.865 180.172ZM333.865 165.01L326.657 172.208L319.45 165.01L326.657 157.812L333.865 165.01Z" fill="#7EBDC6"/>
</g>
<path d="M231.098 259.487C227.001 269.381 218.423 275.238 211.928 272.556C205.433 269.874 203.488 259.679 207.571 249.785C211.668 239.891 220.246 234.034 226.741 236.716C233.235 239.398 235.181 249.593 231.098 259.487Z" fill="#8783B3"/>
<path d="M215.052 333.644C213.394 333.644 211.709 333.356 210.065 332.741C202.638 329.99 198.856 321.752 201.61 314.335L218.615 268.547L187.949 266.672C180.043 266.193 174.028 259.405 174.507 251.509C174.987 243.613 181.783 237.592 189.689 238.085L221.081 240.001C225.466 240.261 229.508 241.424 233.085 243.422C245.293 250.264 250.61 264.742 245.746 277.852L228.508 324.284C226.37 330.059 220.89 333.63 215.066 333.63L215.052 333.644Z" fill="url(#paint9_radial_1051_32466)"/>
<path d="M224.697 236.183C224.875 236.21 225.067 236.237 225.245 236.278C225.067 236.251 224.875 236.224 224.697 236.183Z" fill="white"/>
<path d="M207.571 249.785C211.134 241.164 218.094 235.622 224.123 236.101C223.205 235.964 222.274 235.868 221.328 235.8L189.936 233.884C189.553 233.856 189.169 233.843 188.785 233.843C179.015 233.843 170.89 241.479 170.301 251.236C169.999 256.176 171.644 260.938 174.918 264.633C178.207 268.341 182.729 270.545 187.675 270.846L211.449 272.296C205.338 269.327 203.584 259.419 207.571 249.772V249.785Z" fill="white"/>
<path d="M274.382 223.319L266.763 222.567C266.763 222.567 258.131 221.39 257.473 221.349C256.815 221.308 250.526 226.522 250.238 226.809L252.622 238.509C254.102 241.547 260.063 240.398 260.063 240.398C263.365 240.261 266.585 239.344 269.463 237.743H269.476L271.792 235.759L273.902 231.366L276.711 225.126L274.368 223.319H274.382Z" fill="#FFE2E1"/>
<path d="M270.67 233.268C271.917 232.802 273.301 233.432 273.767 234.677C274.232 235.922 273.602 237.304 272.355 237.77C265.285 240.397 259.146 240.466 258.516 240.466H258.475L256.652 240.507" fill="url(#paint10_radial_1051_32466)"/>
<path d="M273.986 228.766C275.233 228.3 276.616 228.93 277.082 230.175C277.548 231.42 276.918 232.802 275.671 233.268C271.519 234.814 267.628 235.649 264.613 236.087" fill="url(#paint11_radial_1051_32466)"/>
<path d="M276.218 223.825C277.465 223.36 278.849 223.989 279.315 225.235C279.781 226.48 279.15 227.862 277.904 228.327C272.656 230.271 267.778 231.256 264.16 231.748" fill="url(#paint12_radial_1051_32466)"/>
<path d="M257.213 223.661C257.213 223.661 257.213 223.661 257.227 223.661C257.446 223.661 264.585 223.634 272.696 220.609C273.943 220.144 275.327 220.774 275.793 222.019C276.259 223.264 275.629 224.646 274.382 225.112C269.997 226.74 265.9 227.575 262.817 228.013" fill="url(#paint13_radial_1051_32466)"/>
<path d="M276.068 228.971C276.507 229.244 276.877 229.655 277.069 230.189C277.535 231.434 276.904 232.816 275.657 233.281C271.506 234.828 267.614 235.662 264.6 236.1" stroke="#D96E6D" stroke-width="0.854779" stroke-linecap="round" stroke-linejoin="round"/>
<path d="M276.218 223.825C277.465 223.36 278.849 223.989 279.315 225.235C279.781 226.48 279.15 227.862 277.904 228.327C272.656 230.271 267.778 231.256 264.16 231.748" stroke="#D96E6D" stroke-width="0.854779" stroke-linecap="round" stroke-linejoin="round"/>
<path d="M257.213 223.661C257.213 223.661 257.213 223.661 257.227 223.661C257.446 223.661 264.585 223.634 272.696 220.609C273.943 220.144 275.327 220.774 275.793 222.019C276.259 223.264 275.629 224.646 274.382 225.112C269.997 226.74 265.9 227.575 262.817 228.013" stroke="#D96E6D" stroke-width="0.854779" stroke-linecap="round" stroke-linejoin="round"/>
<path d="M231.165 223.36C235.125 215.725 235.221 207.924 231.384 205.94C227.548 203.956 221.245 208.554 217.285 216.19C213.654 223.224 213.284 230.367 216.23 233.008C216.586 233.241 216.956 233.473 217.312 233.706C221.162 235.375 227.287 230.832 231.151 223.36H231.165Z" fill="url(#paint14_radial_1051_32466)"/>
<path d="M258.228 224.797C260.612 224.428 263.599 223.757 266.764 222.581C268.094 222.088 268.724 220.555 268.08 219.255C267.532 218.147 266.162 217.682 264.997 218.119C263.065 218.831 261.201 219.324 259.557 219.679C258.173 219.967 257.132 220.063 255.378 219.57C252.596 218.804 250.472 220.008 249.376 219.789C233.194 216.573 222.081 206.679 215.189 198.031C208.502 189.656 198.609 184.579 188.154 183.977V203.792C192.621 204.353 196.8 206.679 199.719 210.347C214.476 228.848 234.509 239.413 256.666 240.521" fill="url(#paint15_radial_1051_32466)"/>
<path d="M185.043 209.279C185.153 209.279 185.262 209.279 185.386 209.279C185.605 209.279 185.824 209.265 186.057 209.265C189.578 209.265 193.031 210.976 195.32 213.836C201.472 221.554 208.515 227.985 216.243 233.035C213.297 230.394 213.667 223.251 217.298 216.217C221.053 208.964 226.917 204.475 230.781 205.721V205.461C226.164 202.04 222.45 198.167 219.559 194.541C211.447 184.373 198.362 175.519 186.03 178.297C186.002 178.297 185.975 178.297 185.947 178.297" fill="#67AAB6"/>
<mask id="mask1_1051_32466" style="mask-type:luminance" maskUnits="userSpaceOnUse" x="185" y="177" width="46" height="57">
<path d="M185.043 209.279C185.153 209.279 185.262 209.279 185.386 209.279C185.605 209.279 185.824 209.265 186.057 209.265C189.578 209.265 193.031 210.976 195.32 213.836C201.472 221.554 208.515 227.985 216.243 233.035C213.297 230.394 213.667 223.251 217.298 216.217C221.053 208.964 226.917 204.475 230.781 205.721V205.461C226.164 202.04 222.45 198.167 219.559 194.541C211.447 184.373 198.362 175.519 186.03 178.297C186.002 178.297 185.975 178.297 185.947 178.297" fill="white"/>
</mask>
<g mask="url(#mask1_1051_32466)">
<path d="M334.262 150.258L339.414 155.403V154.637L334.646 149.875L338.51 146.016H337.742L334.262 149.492L330.782 146.016H330.014L333.878 149.875L326.671 157.073L319.464 149.875L323.341 146.002H322.574L319.094 149.478L315.613 146.002H314.846L318.724 149.875L311.516 157.073L304.309 149.875L308.173 146.002H307.406L303.925 149.478L300.445 146.002H299.677L303.541 149.875L296.334 157.073L289.127 149.875L292.991 146.016H292.223L288.743 149.492L285.263 146.016H284.495L288.373 149.875L281.166 157.073L273.958 149.875L277.836 146.002H277.069L273.588 149.478L270.108 146.002H269.341L273.218 149.875L266.011 157.073L258.803 149.875L262.681 146.002H261.914L258.433 149.478L254.953 146.002H254.186L258.05 149.875L250.842 157.073L243.635 149.875L247.513 146.002H246.745L243.265 149.478L239.785 146.002H239.017L242.895 149.875L235.688 157.073L228.48 149.875L232.344 146.016H231.577L228.097 149.492L224.616 146.016H223.849L227.713 149.875L220.506 157.073L213.298 149.875L217.162 146.002H216.395L212.914 149.478L209.434 146.002H208.667L212.531 149.875L205.323 157.073L198.116 149.875L201.98 146.016H201.213L197.732 149.492L194.252 146.016H193.485L197.349 149.875L190.141 157.073L182.934 149.875L186.798 146.002H186.031L182.55 149.478L179.07 146.002H178.302L182.18 149.875L174.973 157.073L167.765 149.875L171.643 146.002H170.876L167.395 149.478L163.915 146.002H163.148L167.025 149.875L159.818 157.073L152.611 149.875L156.475 146.016H155.707L152.227 149.492L148.747 146.016H147.979L151.843 149.875L144.636 157.073L137.428 149.875L141.306 146.002H140.539L137.058 149.478L133.592 146.016V146.782L136.661 149.847L133.592 152.913V153.679L137.058 150.217L144.266 157.415L137.058 164.613L133.592 161.151V161.917L136.661 164.982L133.592 168.048V168.814L137.058 165.352L144.266 172.55L137.058 179.748L133.592 176.286V177.052L136.661 180.117L133.592 183.183V183.949L137.058 180.487L144.266 187.685L137.058 194.883L133.592 191.421V192.187L136.661 195.253L133.592 198.318V199.084L137.058 195.622L144.266 202.82L137.058 210.018L133.592 206.556V207.322L136.661 210.388L133.592 213.453V214.219L137.058 210.757L144.266 217.955L137.058 225.153L133.592 221.691V222.457L136.661 225.523L133.592 228.588V229.354L137.058 225.892L144.266 233.09L137.058 240.288L133.592 236.826V237.592L136.661 240.658L133.592 243.723V244.489L137.058 241.027L144.266 248.225L137.058 255.423L133.592 251.961V252.728L136.661 255.793L133.592 258.858V259.625L137.058 256.162L144.266 263.36L137.058 270.558L133.592 267.096V267.863L136.661 270.928L133.592 273.993V274.76L137.058 271.297L144.266 278.495L137.058 285.694L133.592 282.231V282.998L136.661 286.063L133.592 289.128V289.895L137.058 286.432L144.266 293.631L143.882 294.014H145.417L145.033 293.631L152.241 286.432L159.448 293.631L159.064 294.014H160.599L160.215 293.631L167.423 286.432L174.63 293.631L174.247 294.014H175.795L175.411 293.631L182.619 286.432L189.826 293.631L189.442 294.014H190.991L190.607 293.631L197.814 286.432L205.022 293.631L204.638 294.014H206.173L205.789 293.631L212.997 286.432L220.204 293.631L219.82 294.014H221.355L220.971 293.631L228.179 286.432L235.386 293.631L235.003 294.014H236.537L236.154 293.631L243.361 286.432L250.568 293.631L250.185 294.014H251.733L251.349 293.631L258.557 286.432L265.764 293.631L265.381 294.014H266.929L266.545 293.631L273.753 286.432L280.96 293.631L280.576 294.014H282.111L281.727 293.631L288.935 286.432L296.142 293.631L295.759 294.014H297.293L296.91 293.631L304.117 286.432L311.324 293.631L310.941 294.014H312.475L312.092 293.631L319.299 286.432L326.507 293.631L326.123 294.014H327.658L327.274 293.631L334.481 286.432L339.633 291.578V290.812L334.865 286.049L339.633 281.287V280.521L334.481 285.666L327.274 278.468L334.481 271.27L339.633 276.415V275.649L334.865 270.887L339.633 266.125V265.358L334.481 270.504L327.274 263.306L334.481 256.108L339.633 261.253V260.487L334.865 255.724L339.633 250.962V250.196L334.481 255.341L327.274 248.143L334.481 240.945L339.633 246.091V245.324L334.865 240.562L339.633 235.8V235.033L334.481 240.179L327.274 232.981L334.481 225.783L339.633 230.928V230.162L334.865 225.4L339.633 220.637V219.871L334.481 225.016L327.274 217.818L334.481 210.62L339.633 215.766V214.999L334.865 210.237L339.633 205.475V204.709L334.481 209.854L327.274 202.656L334.481 195.458L339.633 200.603V199.837L334.865 195.075L339.633 190.312V189.546L334.481 194.691L327.274 187.493L334.481 180.295L339.633 185.441V184.674L334.865 179.912L339.633 175.15V174.384L334.481 179.529L327.274 172.331L334.481 165.133L339.633 170.278V169.512L334.865 164.75L339.633 159.988V159.221L334.481 164.367L327.274 157.169L334.481 149.97L334.262 150.258ZM319.08 150.258L326.287 157.456L319.08 164.654L311.872 157.456L319.08 150.258ZM311.489 278.4L304.281 271.202L311.489 264.004L318.696 271.202L311.489 278.4ZM319.08 271.585L326.287 278.783L319.08 285.981L311.872 278.783L319.08 271.585ZM152.419 271.202L159.626 264.004L166.834 271.202L159.626 278.4L152.419 271.202ZM159.243 278.783L152.035 285.981L144.828 278.783L152.035 271.585L159.243 278.783ZM296.307 263.224L289.099 256.025L296.307 248.827L303.514 256.025L296.307 263.224ZM303.898 256.409L311.105 263.607L303.898 270.805L296.69 263.607L303.898 256.409ZM167.601 256.025L174.808 248.827L182.016 256.025L174.808 263.224L167.601 256.025ZM174.425 263.607L167.217 270.805L160.01 263.607L167.217 256.409L174.425 263.607ZM281.111 248.047L273.903 240.849L281.111 233.651L288.318 240.849L281.111 248.047ZM288.702 241.233L295.909 248.431L288.702 255.629L281.494 248.431L288.702 241.233ZM182.783 240.849L189.99 233.651L197.198 240.849L189.99 248.047L182.783 240.849ZM189.607 248.431L182.399 255.629L175.192 248.431L182.399 241.233L189.607 248.431ZM265.929 232.871L258.721 225.673L265.929 218.475L273.136 225.673L265.929 232.871ZM273.52 226.056L280.727 233.254L273.52 240.453L266.312 233.254L273.52 226.056ZM197.979 225.673L205.186 218.475L212.394 225.673L205.186 232.871L197.979 225.673ZM204.803 233.254L197.595 240.453L190.388 233.254L197.595 226.056L204.803 233.254ZM250.746 217.695L243.539 210.497L250.746 203.299L257.954 210.497L250.746 217.695ZM258.338 210.88L265.545 218.078L258.338 225.276L251.13 218.078L258.338 210.88ZM250.363 218.078L243.155 225.276L235.948 218.078L243.155 210.88L250.363 218.078ZM235.564 217.695L228.357 210.497L235.564 203.299L242.772 210.497L235.564 217.695ZM235.181 218.078L227.973 225.276L220.766 218.078L227.973 210.88L235.181 218.078ZM220.382 217.695L213.175 210.497L220.382 203.299L227.59 210.497L220.382 217.695ZM219.999 218.078L212.791 225.276L205.584 218.078L212.791 210.88L219.999 218.078ZM205.2 217.695L197.993 210.497L205.2 203.299L212.407 210.497L205.2 217.695ZM204.816 218.078L197.609 225.276L190.402 218.078L197.609 210.88L204.816 218.078ZM212.791 226.043L219.999 233.241L212.791 240.439L205.584 233.241L212.791 226.043ZM213.175 225.66L220.382 218.461L227.59 225.66L220.382 232.858L213.175 225.66ZM227.973 226.043L235.181 233.241L227.973 240.439L220.766 233.241L227.973 226.043ZM228.357 225.66L235.564 218.461L242.772 225.66L235.564 232.858L228.357 225.66ZM243.155 226.043L250.363 233.241L243.155 240.439L235.948 233.241L243.155 226.043ZM243.539 225.66L250.746 218.461L257.954 225.66L250.746 232.858L243.539 225.66ZM258.338 226.043L265.545 233.241L258.338 240.439L251.13 233.241L258.338 226.043ZM266.312 218.078L273.52 210.88L280.727 218.078L273.52 225.276L266.312 218.078ZM265.929 217.695L258.721 210.497L265.929 203.299L273.136 210.497L265.929 217.695ZM266.312 202.916L273.52 195.718L280.727 202.916L273.52 210.114L266.312 202.916ZM265.929 202.533L258.721 195.335L265.929 188.137L273.136 195.335L265.929 202.533ZM265.545 202.916L258.338 210.114L251.13 202.916L258.338 195.718L265.545 202.916ZM250.746 202.533L243.539 195.335L250.746 188.137L257.954 195.335L250.746 202.533ZM250.363 202.916L243.155 210.114L235.948 202.916L243.155 195.718L250.363 202.916ZM235.564 202.533L228.357 195.335L235.564 188.137L242.772 195.335L235.564 202.533ZM235.181 202.916L227.973 210.114L220.766 202.916L227.973 195.718L235.181 202.916ZM220.382 202.533L213.175 195.335L220.382 188.137L227.59 195.335L220.382 202.533ZM219.999 202.916L212.791 210.114L205.584 202.916L212.791 195.718L219.999 202.916ZM205.2 202.533L197.993 195.335L205.2 188.137L212.407 195.335L205.2 202.533ZM204.816 202.916L197.609 210.114L190.402 202.916L197.609 195.718L204.816 202.916ZM190.018 202.533L182.81 195.335L190.018 188.137L197.225 195.335L190.018 202.533ZM189.634 202.916L182.427 210.114L175.219 202.916L182.427 195.718L189.634 202.916ZM190.018 203.299L197.225 210.497L190.018 217.695L182.81 210.497L190.018 203.299ZM189.634 218.078L182.427 225.276L175.219 218.078L182.427 210.88L189.634 218.078ZM190.018 218.461L197.225 225.66L190.018 232.858L182.81 225.66L190.018 218.461ZM189.634 233.241L182.427 240.439L175.219 233.241L182.427 226.043L189.634 233.241ZM197.609 241.205L204.816 248.403L197.609 255.601L190.402 248.403L197.609 241.205ZM197.993 240.822L205.2 233.624L212.407 240.822L205.2 248.02L197.993 240.822ZM212.791 241.205L219.999 248.403L212.791 255.601L205.584 248.403L212.791 241.205ZM213.175 240.822L220.382 233.624L227.59 240.822L220.382 248.02L213.175 240.822ZM227.973 241.205L235.181 248.403L227.973 255.601L220.766 248.403L227.973 241.205ZM228.357 240.822L235.564 233.624L242.772 240.822L235.564 248.02L228.357 240.822ZM243.155 241.205L250.363 248.403L243.155 255.601L235.948 248.403L243.155 241.205ZM243.539 240.822L250.746 233.624L257.954 240.822L250.746 248.02L243.539 240.822ZM258.338 241.205L265.545 248.403L258.338 255.601L251.13 248.403L258.338 241.205ZM258.721 240.822L265.929 233.624L273.136 240.822L265.929 248.02L258.721 240.822ZM273.52 241.205L280.727 248.403L273.52 255.601L266.312 248.403L273.52 241.205ZM281.494 233.241L288.702 226.043L295.909 233.241L288.702 240.439L281.494 233.241ZM281.111 232.858L273.903 225.66L281.111 218.461L288.318 225.66L281.111 232.858ZM281.494 218.078L288.702 210.88L295.909 218.078L288.702 225.276L281.494 218.078ZM281.111 217.695L273.903 210.497L281.111 203.299L288.318 210.497L281.111 217.695ZM281.494 202.916L288.702 195.718L295.909 202.916L288.702 210.114L281.494 202.916ZM281.111 202.533L273.903 195.335L281.111 188.137L288.318 195.335L281.111 202.533ZM281.494 187.753L288.702 180.555L295.909 187.753L288.702 194.951L281.494 187.753ZM281.111 187.37L273.903 180.172L281.111 172.974L288.318 180.172L281.111 187.37ZM280.727 187.753L273.52 194.951L266.312 187.753L273.52 180.555L280.727 187.753ZM265.929 187.37L258.721 180.172L265.929 172.974L273.136 180.172L265.929 187.37ZM265.545 187.753L258.338 194.951L251.13 187.753L258.338 180.555L265.545 187.753ZM250.746 187.37L243.539 180.172L250.746 172.974L257.954 180.172L250.746 187.37ZM250.363 187.753L243.155 194.951L235.948 187.753L243.155 180.555L250.363 187.753ZM235.564 187.37L228.357 180.172L235.564 172.974L242.772 180.172L235.564 187.37ZM235.181 187.753L227.973 194.951L220.766 187.753L227.973 180.555L235.181 187.753ZM220.382 187.37L213.175 180.172L220.382 172.974L227.59 180.172L220.382 187.37ZM219.999 187.753L212.791 194.951L205.584 187.753L212.791 180.555L219.999 187.753ZM205.2 187.37L197.993 180.172L205.2 172.974L212.407 180.172L205.2 187.37ZM204.816 187.753L197.609 194.951L190.402 187.753L197.609 180.555L204.816 187.753ZM190.018 187.37L182.81 180.172L190.018 172.974L197.225 180.172L190.018 187.37ZM189.634 187.753L182.427 194.951L175.219 187.753L182.427 180.555L189.634 187.753ZM174.836 187.37L167.628 180.172L174.836 172.974L182.043 180.172L174.836 187.37ZM174.452 187.753L167.245 194.951L160.037 187.753L167.245 180.555L174.452 187.753ZM174.836 188.137L182.043 195.335L174.836 202.533L167.628 195.335L174.836 188.137ZM174.452 202.916L167.245 210.114L160.037 202.916L167.245 195.718L174.452 202.916ZM174.836 203.299L182.043 210.497L174.836 217.695L167.628 210.497L174.836 203.299ZM174.452 218.078L167.245 225.276L160.037 218.078L167.245 210.88L174.452 218.078ZM174.836 218.461L182.043 225.66L174.836 232.858L167.628 225.66L174.836 218.461ZM174.452 233.241L167.245 240.439L160.037 233.241L167.245 226.043L174.452 233.241ZM174.836 233.624L182.043 240.822L174.836 248.02L167.628 240.822L174.836 233.624ZM174.452 248.403L167.245 255.601L160.037 248.403L167.245 241.205L174.452 248.403ZM182.427 256.368L189.634 263.566L182.427 270.764L175.219 263.566L182.427 256.368ZM182.81 255.984L190.018 248.786L197.225 255.984L190.018 263.183L182.81 255.984ZM197.609 256.368L204.816 263.566L197.609 270.764L190.402 263.566L197.609 256.368ZM197.993 255.984L205.2 248.786L212.407 255.984L205.2 263.183L197.993 255.984ZM212.791 256.368L219.999 263.566L212.791 270.764L205.584 263.566L212.791 256.368ZM213.175 255.984L220.382 248.786L227.59 255.984L220.382 263.183L213.175 255.984ZM227.973 256.368L235.181 263.566L227.973 270.764L220.766 263.566L227.973 256.368ZM228.357 255.984L235.564 248.786L242.772 255.984L235.564 263.183L228.357 255.984ZM243.155 256.368L250.363 263.566L243.155 270.764L235.948 263.566L243.155 256.368ZM243.539 255.984L250.746 248.786L257.954 255.984L250.746 263.183L243.539 255.984ZM258.338 256.368L265.545 263.566L258.338 270.764L251.13 263.566L258.338 256.368ZM258.721 255.984L265.929 248.786L273.136 255.984L265.929 263.183L258.721 255.984ZM273.52 256.368L280.727 263.566L273.52 270.764L266.312 263.566L273.52 256.368ZM273.903 255.984L281.111 248.786L288.318 255.984L281.111 263.183L273.903 255.984ZM288.702 256.368L295.909 263.566L288.702 270.764L281.494 263.566L288.702 256.368ZM296.677 248.403L303.884 241.205L311.091 248.403L303.884 255.601L296.677 248.403ZM296.293 248.02L289.086 240.822L296.293 233.624L303.5 240.822L296.293 248.02ZM296.677 233.241L303.884 226.043L311.091 233.241L303.884 240.439L296.677 233.241ZM296.293 232.858L289.086 225.66L296.293 218.461L303.5 225.66L296.293 232.858ZM296.677 218.078L303.884 210.88L311.091 218.078L303.884 225.276L296.677 218.078ZM296.293 217.695L289.086 210.497L296.293 203.299L303.5 210.497L296.293 217.695ZM296.677 202.916L303.884 195.718L311.091 202.916L303.884 210.114L296.677 202.916ZM296.293 202.533L289.086 195.335L296.293 188.137L303.5 195.335L296.293 202.533ZM296.677 187.753L303.884 180.555L311.091 187.753L303.884 194.951L296.677 187.753ZM296.293 187.37L289.086 180.172L296.293 172.974L303.5 180.172L296.293 187.37ZM296.677 172.591L303.884 165.393L311.091 172.591L303.884 179.789L296.677 172.591ZM296.293 172.208L289.086 165.01L296.293 157.812L303.5 165.01L296.293 172.208ZM295.909 172.591L288.702 179.789L281.494 172.591L288.702 165.393L295.909 172.591ZM281.111 172.208L273.903 165.01L281.111 157.812L288.318 165.01L281.111 172.208ZM280.727 172.591L273.52 179.789L266.312 172.591L273.52 165.393L280.727 172.591ZM265.929 172.208L258.721 165.01L265.929 157.812L273.136 165.01L265.929 172.208ZM265.545 172.591L258.338 179.789L251.13 172.591L258.338 165.393L265.545 172.591ZM250.746 172.208L243.539 165.01L250.746 157.812L257.954 165.01L250.746 172.208ZM250.363 172.591L243.155 179.789L235.948 172.591L243.155 165.393L250.363 172.591ZM235.564 172.208L228.357 165.01L235.564 157.812L242.772 165.01L235.564 172.208ZM235.181 172.591L227.973 179.789L220.766 172.591L227.973 165.393L235.181 172.591ZM220.382 172.208L213.175 165.01L220.382 157.812L227.59 165.01L220.382 172.208ZM219.999 172.591L212.791 179.789L205.584 172.591L212.791 165.393L219.999 172.591ZM205.2 172.208L197.993 165.01L205.2 157.812L212.407 165.01L205.2 172.208ZM204.816 172.591L197.609 179.789L190.402 172.591L197.609 165.393L204.816 172.591ZM190.018 172.208L182.81 165.01L190.018 157.812L197.225 165.01L190.018 172.208ZM189.634 172.591L182.427 179.789L175.219 172.591L182.427 165.393L189.634 172.591ZM174.836 172.208L167.628 165.01L174.836 157.812L182.043 165.01L174.836 172.208ZM174.452 172.591L167.245 179.789L160.037 172.591L167.245 165.393L174.452 172.591ZM159.654 172.208L152.446 165.01L159.654 157.812L166.861 165.01L159.654 172.208ZM159.27 172.591L152.062 179.789L144.855 172.591L152.062 165.393L159.27 172.591ZM159.654 172.974L166.861 180.172L159.654 187.37L152.446 180.172L159.654 172.974ZM159.27 187.753L152.062 194.951L144.855 187.753L152.062 180.555L159.27 187.753ZM159.654 188.137L166.861 195.335L159.654 202.533L152.446 195.335L159.654 188.137ZM159.27 202.916L152.062 210.114L144.855 202.916L152.062 195.718L159.27 202.916ZM159.654 203.299L166.861 210.497L159.654 217.695L152.446 210.497L159.654 203.299ZM159.27 218.078L152.062 225.276L144.855 218.078L152.062 210.88L159.27 218.078ZM159.654 218.461L166.861 225.66L159.654 232.858L152.446 225.66L159.654 218.461ZM159.27 233.241L152.062 240.439L144.855 233.241L152.062 226.043L159.27 233.241ZM159.654 233.624L166.861 240.822L159.654 248.02L152.446 240.822L159.654 233.624ZM159.27 248.403L152.062 255.601L144.855 248.403L152.062 241.205L159.27 248.403ZM159.654 248.786L166.861 255.984L159.654 263.183L152.446 255.984L159.654 248.786ZM159.27 263.566L152.062 270.764L144.855 263.566L152.062 256.368L159.27 263.566ZM167.245 271.53L174.452 278.728L167.245 285.926L160.037 278.728L167.245 271.53ZM167.628 271.147L174.836 263.949L182.043 271.147L174.836 278.345L167.628 271.147ZM182.427 271.53L189.634 278.728L182.427 285.926L175.219 278.728L182.427 271.53ZM182.81 271.147L190.018 263.949L197.225 271.147L190.018 278.345L182.81 271.147ZM197.609 271.53L204.816 278.728L197.609 285.926L190.402 278.728L197.609 271.53ZM197.993 271.147L205.2 263.949L212.407 271.147L205.2 278.345L197.993 271.147ZM212.791 271.53L219.999 278.728L212.791 285.926L205.584 278.728L212.791 271.53ZM213.175 271.147L220.382 263.949L227.59 271.147L220.382 278.345L213.175 271.147ZM227.973 271.53L235.181 278.728L227.973 285.926L220.766 278.728L227.973 271.53ZM228.357 271.147L235.564 263.949L242.772 271.147L235.564 278.345L228.357 271.147ZM243.155 271.53L250.363 278.728L243.155 285.926L235.948 278.728L243.155 271.53ZM243.539 271.147L250.746 263.949L257.954 271.147L250.746 278.345L243.539 271.147ZM258.338 271.53L265.545 278.728L258.338 285.926L251.13 278.728L258.338 271.53ZM258.721 271.147L265.929 263.949L273.136 271.147L265.929 278.345L258.721 271.147ZM273.52 271.53L280.727 278.728L273.52 285.926L266.312 278.728L273.52 271.53ZM273.903 271.147L281.111 263.949L288.318 271.147L281.111 278.345L273.903 271.147ZM288.702 271.53L295.909 278.728L288.702 285.926L281.494 278.728L288.702 271.53ZM289.086 271.147L296.293 263.949L303.5 271.147L296.293 278.345L289.086 271.147ZM303.884 271.53L311.091 278.728L303.884 285.926L296.677 278.728L303.884 271.53ZM311.859 263.566L319.066 256.368L326.274 263.566L319.066 270.764L311.859 263.566ZM311.475 263.183L304.268 255.984L311.475 248.786L318.683 255.984L311.475 263.183ZM311.859 248.403L319.066 241.205L326.274 248.403L319.066 255.601L311.859 248.403ZM311.475 248.02L304.268 240.822L311.475 233.624L318.683 240.822L311.475 248.02ZM311.859 233.241L319.066 226.043L326.274 233.241L319.066 240.439L311.859 233.241ZM311.475 232.858L304.268 225.66L311.475 218.461L318.683 225.66L311.475 232.858ZM311.859 218.078L319.066 210.88L326.274 218.078L319.066 225.276L311.859 218.078ZM311.475 217.695L304.268 210.497L311.475 203.299L318.683 210.497L311.475 217.695ZM311.859 202.916L319.066 195.718L326.274 202.916L319.066 210.114L311.859 202.916ZM311.475 202.533L304.268 195.335L311.475 188.137L318.683 195.335L311.475 202.533ZM311.859 187.753L319.066 180.555L326.274 187.753L319.066 194.951L311.859 187.753ZM311.475 187.37L304.268 180.172L311.475 172.974L318.683 180.172L311.475 187.37ZM311.859 172.591L319.066 165.393L326.274 172.591L319.066 179.789L311.859 172.591ZM311.475 172.208L304.268 165.01L311.475 157.812L318.683 165.01L311.475 172.208ZM303.884 150.23L311.091 157.429L303.884 164.627L296.677 157.429L303.884 150.23ZM288.702 150.23L295.909 157.429L288.702 164.627L281.494 157.429L288.702 150.23ZM273.52 150.23L280.727 157.429L273.52 164.627L266.312 157.429L273.52 150.23ZM258.338 150.23L265.545 157.429L258.338 164.627L251.13 157.429L258.338 150.23ZM243.155 150.23L250.363 157.429L243.155 164.627L235.948 157.429L243.155 150.23ZM227.973 150.23L235.181 157.429L227.973 164.627L220.766 157.429L227.973 150.23ZM212.791 150.23L219.999 157.429L212.791 164.627L205.584 157.429L212.791 150.23ZM197.609 150.23L204.816 157.429L197.609 164.627L190.402 157.429L197.609 150.23ZM182.427 150.23L189.634 157.429L182.427 164.627L175.219 157.429L182.427 150.23ZM167.245 150.23L174.452 157.429L167.245 164.627L160.037 157.429L167.245 150.23ZM152.062 150.23L159.27 157.429L152.062 164.627L144.855 157.429L152.062 150.23ZM137.264 165.01L144.471 157.812L151.679 165.01L144.471 172.208L137.264 165.01ZM137.264 180.172L144.471 172.974L151.679 180.172L144.471 187.37L137.264 180.172ZM137.264 195.335L144.471 188.137L151.679 195.335L144.471 202.533L137.264 195.335ZM137.264 210.497L144.471 203.299L151.679 210.497L144.471 217.695L137.264 210.497ZM137.264 225.66L144.471 218.461L151.679 225.66L144.471 232.858L137.264 225.66ZM137.264 240.822L144.471 233.624L151.679 240.822L144.471 248.02L137.264 240.822ZM137.264 255.984L144.471 248.786L151.679 255.984L144.471 263.183L137.264 255.984ZM137.264 271.147L144.471 263.949L151.679 271.147L144.471 278.345L137.264 271.147ZM144.471 293.507L137.264 286.309L144.471 279.111L151.679 286.309L144.471 293.507ZM159.654 293.507L152.446 286.309L159.654 279.111L166.861 286.309L159.654 293.507ZM174.836 293.507L167.628 286.309L174.836 279.111L182.043 286.309L174.836 293.507ZM190.018 293.507L182.81 286.309L190.018 279.111L197.225 286.309L190.018 293.507ZM205.2 293.507L197.993 286.309L205.2 279.111L212.407 286.309L205.2 293.507ZM220.382 293.507L213.175 286.309L220.382 279.111L227.59 286.309L220.382 293.507ZM235.564 293.507L228.357 286.309L235.564 279.111L242.772 286.309L235.564 293.507ZM250.746 293.507L243.539 286.309L250.746 279.111L257.954 286.309L250.746 293.507ZM265.929 293.507L258.721 286.309L265.929 279.111L273.136 286.309L265.929 293.507ZM281.111 293.507L273.903 286.309L281.111 279.111L288.318 286.309L281.111 293.507ZM296.293 293.507L289.086 286.309L296.293 279.111L303.5 286.309L296.293 293.507ZM311.475 293.507L304.268 286.309L311.475 279.111L318.683 286.309L311.475 293.507ZM333.865 286.309L326.657 293.507L319.45 286.309L326.657 279.111L333.865 286.309ZM333.865 271.147L326.657 278.345L319.45 271.147L326.657 263.949L333.865 271.147ZM333.865 255.984L326.657 263.183L319.45 255.984L326.657 248.786L333.865 255.984ZM333.865 240.822L326.657 248.02L319.45 240.822L326.657 233.624L333.865 240.822ZM333.865 225.66L326.657 232.858L319.45 225.66L326.657 218.461L333.865 225.66ZM333.865 210.497L326.657 217.695L319.45 210.497L326.657 203.299L333.865 210.497ZM333.865 195.335L326.657 202.533L319.45 195.335L326.657 188.137L333.865 195.335ZM333.865 180.172L326.657 187.37L319.45 180.172L326.657 172.974L333.865 180.172ZM333.865 165.01L326.657 172.208L319.45 165.01L326.657 157.812L333.865 165.01Z" fill="#7EBDC6"/>
</g>
<path d="M258.229 224.797C260.613 224.428 263.6 223.757 266.765 222.58C268.094 222.088 268.724 220.555 268.08 219.255" stroke="#D96E6D" stroke-width="0.854779" stroke-linecap="round" stroke-linejoin="round"/>
<path d="M337.935 171.488L354.919 164.486L361.7 180.892C363.368 184.927 361.442 189.556 357.401 191.221L355.045 192.193C351.005 193.858 346.371 191.934 344.703 187.899L337.922 171.493L337.935 171.488Z" fill="url(#paint16_radial_1051_32466)"/>
<path d="M341.99 136.559C351.951 137.545 359.967 145.673 360.83 155.636C361.283 160.849 359.816 165.707 357.062 169.607L352.815 173.398C349.403 176.436 345.073 178.379 340.51 178.516C340.071 178.53 339.619 178.53 339.167 178.516C327.849 178.16 318.682 168.622 318.778 157.319C318.874 145.071 329.452 135.328 341.99 136.559Z" fill="#FFE2E1"/>
<path d="M339.839 136.45C331.549 136.45 324.369 141.24 320.943 148.205L333.385 142.772L344.676 146.098C346.676 146.686 348.211 148.205 349.019 150.135C350.157 152.831 352.842 154.719 355.953 154.719C357.652 154.719 359.214 154.158 360.461 153.2C359.598 149.013 357.487 145.277 354.528 142.403C350.732 138.708 345.553 136.437 339.825 136.437L339.839 136.45Z" fill="#363743"/>
<path d="M355.035 156.484C354.336 153.46 356.213 150.449 359.241 149.751C362.269 149.053 365.284 150.928 365.983 153.952C366.682 156.977 364.804 159.987 361.776 160.685C360.886 160.89 360.009 160.877 359.173 160.671" fill="#FFE2E1"/>
<path d="M343.593 165.994C346.31 165.994 348.512 163.795 348.512 161.082C348.512 158.368 346.31 156.169 343.593 156.169C340.876 156.169 338.674 158.368 338.674 161.082C338.674 163.795 340.876 165.994 343.593 165.994Z" fill="#FFB9B4"/>
<path d="M320.258 162.423C320.258 165.132 322.464 167.335 325.177 167.335C327.89 167.335 330.096 165.132 330.096 162.423C330.096 159.713 327.89 157.51 325.177 157.51C322.464 157.51 320.258 159.713 320.258 162.423Z" fill="#FFB9B4"/>
<path d="M358.27 157.893C358.27 156.442 359.448 155.266 360.9 155.266" stroke="#363743" stroke-width="1.13971" stroke-linecap="round" stroke-linejoin="round"/>
<path d="M330.946 152.174L329.535 154.569C328.809 155.8 329.329 157.388 330.631 157.962L331.535 158.359" stroke="#363743" stroke-width="1.13971" stroke-linecap="round" stroke-linejoin="round"/>
<path d="M339.304 161.082C339.304 161.082 334.48 165.461 329.219 163.053" stroke="#363743" stroke-width="1.13971" stroke-linecap="round" stroke-linejoin="round"/>
<path d="M298.43 253.371C302.527 263.265 311.105 269.122 317.6 266.439C324.095 263.757 326.041 253.562 321.957 243.668C317.86 233.775 309.283 227.918 302.788 230.6C296.293 233.282 294.347 243.477 298.43 253.371Z" fill="#8783B3"/>
<path d="M301.034 318.18L283.797 271.749C278.932 258.639 284.249 244.161 296.458 237.318C300.048 235.307 304.09 234.157 308.461 233.897L339.853 231.981C347.759 231.489 354.555 237.51 355.035 245.406C355.514 253.302 349.499 260.089 341.593 260.568L310.927 262.443L327.932 308.231C330.686 315.648 326.904 323.887 319.477 326.637C317.833 327.253 316.148 327.54 314.49 327.54C308.666 327.54 303.185 323.969 301.048 318.194L301.034 318.18Z" fill="url(#paint17_radial_1051_32466)"/>
<path d="M304.829 230.065C304.651 230.093 304.459 230.12 304.281 230.161C304.459 230.134 304.651 230.106 304.829 230.065Z" fill="white"/>
<path d="M321.957 243.668C318.394 235.047 311.433 229.505 305.404 229.984C306.322 229.847 307.254 229.751 308.2 229.682L339.592 227.767C339.975 227.739 340.359 227.726 340.743 227.726C350.512 227.726 358.638 235.362 359.227 245.119C359.528 250.059 357.884 254.821 354.609 258.516C351.321 262.224 346.799 264.427 341.852 264.729L318.079 266.179C324.19 263.21 325.944 253.302 321.957 243.654V243.668Z" fill="url(#paint18_radial_1051_32466)"/>
<path d="M366.134 186.371C366.106 185.714 359.666 179.816 359.666 179.816L367.381 175.054C367.381 175.054 385.509 179.816 392.579 209.019C392.579 209.019 396.197 224.469 391.291 238.906C386.249 253.726 375.739 252.85 366.38 247.965L332.289 230.134" fill="url(#paint19_radial_1051_32466)"/>
<path d="M322.313 256.244C326.41 266.138 334.988 271.995 341.483 269.312C347.978 266.63 349.923 256.435 345.84 246.541C341.743 236.648 333.165 230.791 326.671 233.473C320.176 236.155 318.23 246.35 322.313 256.244Z" fill="#363743"/>
<path d="M324.917 321.054L307.679 274.623C302.815 261.513 308.132 247.035 320.34 240.192C323.93 238.181 327.973 237.031 332.344 236.771L363.736 234.855C371.642 234.363 378.438 240.384 378.918 248.28C379.397 256.176 373.382 262.963 365.476 263.442L334.81 265.317L351.815 311.105C354.569 318.523 350.787 326.761 343.36 329.511C341.716 330.127 340.031 330.414 338.373 330.414C332.549 330.414 327.068 326.843 324.931 321.068L324.917 321.054Z" fill="url(#paint20_radial_1051_32466)"/>
<path d="M328.712 232.939C328.534 232.967 328.342 232.994 328.164 233.035C328.342 233.008 328.534 232.981 328.712 232.939Z" fill="white"/>
<path d="M345.839 246.542C342.277 237.921 335.316 232.379 329.287 232.858C330.205 232.721 331.137 232.625 332.082 232.556L363.474 230.641C363.858 230.613 364.242 230.6 364.625 230.6C374.395 230.6 382.521 238.236 383.11 247.993C383.411 252.933 381.767 257.695 378.492 261.39C375.204 265.098 370.682 267.301 365.735 267.603L341.962 269.053C348.073 266.084 349.827 256.162 345.839 246.528V246.542Z" fill="white"/>
<path d="M279.029 220.075L286.647 219.323C286.647 219.323 295.28 218.146 295.937 218.105C296.595 218.064 302.884 223.277 303.172 223.565L300.788 235.265C299.308 238.303 293.348 237.154 293.348 237.154C290.045 237.017 286.825 236.1 283.948 234.499H283.934L281.618 232.515L279.508 228.122L276.699 221.882L279.042 220.075H279.029Z" fill="#FFE2E1"/>
<path d="M282.74 230.011C281.494 229.545 280.11 230.175 279.644 231.42C279.178 232.665 279.808 234.048 281.055 234.513C288.125 237.14 294.264 237.209 294.894 237.209H294.935L296.758 237.25" fill="url(#paint21_radial_1051_32466)"/>
<path d="M279.426 225.522C278.179 225.057 276.795 225.687 276.329 226.932C275.863 228.177 276.494 229.559 277.741 230.025C281.892 231.571 285.784 232.406 288.798 232.844" fill="url(#paint22_radial_1051_32466)"/>
<path d="M277.192 220.569C275.945 220.104 274.561 220.733 274.095 221.979C273.629 223.224 274.259 224.606 275.506 225.071C280.754 227.028 285.632 228 289.25 228.493" fill="url(#paint23_radial_1051_32466)"/>
<path d="M296.197 220.418C296.197 220.418 296.197 220.418 296.183 220.418C295.964 220.418 288.825 220.39 280.713 217.366C279.466 216.901 278.082 217.53 277.616 218.776C277.15 220.021 277.781 221.403 279.028 221.868C283.412 223.497 287.509 224.332 290.592 224.769" fill="url(#paint24_radial_1051_32466)"/>
<path d="M277.343 225.728C276.905 226.001 276.535 226.412 276.343 226.945C275.877 228.191 276.507 229.573 277.754 230.038C281.906 231.585 285.797 232.419 288.812 232.857" stroke="#D96E6D" stroke-width="0.854779" stroke-linecap="round" stroke-linejoin="round"/>
<path d="M277.192 220.569C275.945 220.104 274.561 220.733 274.095 221.979C273.629 223.224 274.259 224.606 275.506 225.071C280.754 227.028 285.632 228 289.25 228.493" stroke="#D96E6D" stroke-width="0.854779" stroke-linecap="round" stroke-linejoin="round"/>
<path d="M296.197 220.418C296.197 220.418 296.197 220.418 296.183 220.418C295.964 220.418 288.825 220.39 280.713 217.366C279.466 216.901 278.082 217.53 277.616 218.776C277.15 220.021 277.781 221.403 279.028 221.868C283.412 223.497 287.509 224.332 290.592 224.769" stroke="#D96E6D" stroke-width="0.854779" stroke-linecap="round" stroke-linejoin="round"/>
<path d="M322.245 220.116C318.286 212.48 318.19 204.68 322.026 202.696C325.863 200.712 332.166 205.31 336.126 212.946C339.757 219.979 340.127 227.123 337.181 229.764C336.825 229.997 336.455 230.229 336.099 230.462C332.248 232.131 326.123 227.588 322.259 220.116H322.245Z" fill="#363743"/>
<path d="M295.182 221.553C292.798 221.184 289.811 220.513 286.646 219.336C285.317 218.844 284.686 217.311 285.33 216.011C285.879 214.903 287.249 214.437 288.413 214.875C290.345 215.587 292.209 216.08 293.853 216.435C295.237 216.723 296.279 216.819 298.032 216.326C300.814 215.56 302.938 216.764 304.034 216.545C320.217 213.329 331.329 203.435 338.221 194.786C344.908 186.411 354.801 181.335 365.256 180.732V200.548C360.789 201.109 356.61 203.435 353.691 207.102C338.934 225.604 318.901 236.168 296.744 237.277" fill="url(#paint25_radial_1051_32466)"/>
<path d="M368.367 206.036C368.258 206.036 368.148 206.036 368.025 206.036C367.805 206.036 367.586 206.022 367.353 206.022C363.832 206.022 360.379 207.732 358.09 210.593C351.938 218.311 344.895 224.742 337.167 229.792C340.113 227.151 339.743 220.007 336.112 212.974C332.358 205.721 326.493 201.232 322.629 202.478V202.218C327.247 198.796 330.96 194.924 333.851 191.297C341.963 181.13 355.049 172.276 367.381 175.054C367.408 175.054 367.435 175.054 367.463 175.054" fill="#969EE8"/>
<path d="M295.182 221.554C292.798 221.184 289.811 220.514 286.646 219.337C285.317 218.844 284.686 217.312 285.33 216.012" stroke="#D96E6D" stroke-width="0.854779" stroke-linecap="round" stroke-linejoin="round"/>
<path d="M336.454 153.186C336.166 154.513 337.029 155.731 338.399 155.881C339.77 156.046 341.113 155.088 341.4 153.76" stroke="#363743" stroke-width="1.13971" stroke-linecap="round" stroke-linejoin="round"/>
<path d="M322.108 153.282C321.82 154.61 322.684 155.814 324.054 155.978C325.424 156.142 326.767 155.184 327.055 153.857" stroke="#363743" stroke-width="1.13971" stroke-linecap="round" stroke-linejoin="round"/>
</g>
<path d="M98.82 128.98C99.11 128.25 99.47 127.54 99.95 126.92C102.01 124.23 105.24 122.5 108.88 122.5C114.87 122.5 119.77 127.2 120.09 133.11C120.8 132.79 121.59 132.6 122.42 132.6C122.88 132.6 123.33 132.66 123.76 132.77C125.5 129.74 128.77 127.69 132.52 127.69C136.27 127.69 139.71 129.85 141.42 133.01C142.02 134.13 143.28 134.79 144.52 134.52C144.86 134.45 151.38 133.35 151.38 140.12H89.5L91.6 138.51C94.82 136.04 97.32 132.74 98.82 128.97V128.98Z" stroke="#E8E7FF" stroke-width="2" stroke-linecap="round" stroke-linejoin="round"/>
<path d="M388.82 78.98C389.11 78.25 389.47 77.54 389.95 76.92C392.01 74.23 395.24 72.5 398.88 72.5C404.87 72.5 409.77 77.2 410.09 83.11C410.8 82.79 411.59 82.6 412.42 82.6C412.88 82.6 413.33 82.66 413.76 82.77C415.5 79.74 418.77 77.69 422.52 77.69C426.27 77.69 429.71 79.85 431.42 83.01C432.02 84.13 433.28 84.79 434.52 84.52C434.86 84.45 441.38 83.35 441.38 90.12H379.5L381.6 88.51C384.82 86.04 387.32 82.74 388.82 78.97V78.98Z" stroke="#E8E7FF" stroke-width="2" stroke-linecap="round" stroke-linejoin="round"/>
<g clip-path="url(#clip2_1051_32466)">
<path d="M407.906 215.259C409.219 216.677 411.438 216.764 412.853 215.453C414.274 214.143 414.361 211.929 413.047 210.518C411.733 209.101 409.514 209.014 408.1 210.324C406.679 211.635 406.592 213.848 407.906 215.259Z" fill="url(#paint26_radial_1051_32466)"/>
<path d="M409.608 211.942C409.086 212.423 409.052 213.239 409.535 213.761C410.017 214.282 410.835 214.316 411.358 213.834C411.881 213.353 411.914 212.537 411.432 212.016C410.949 211.494 410.131 211.461 409.608 211.942Z" fill="white"/>
<path d="M375.484 221.532C376.798 222.949 379.016 223.036 380.431 221.726C381.845 220.415 381.939 218.202 380.625 216.791C379.311 215.373 377.093 215.286 375.678 216.597C374.257 217.907 374.17 220.121 375.484 221.532Z" fill="url(#paint27_radial_1051_32466)"/>
<path d="M377.179 218.214C376.656 218.696 376.622 219.512 377.105 220.033C377.588 220.555 378.405 220.588 378.928 220.107C379.451 219.625 379.485 218.81 379.002 218.288C378.519 217.766 377.701 217.733 377.179 218.214Z" fill="white"/>
<path d="M343.978 240.71C343.623 240.757 343.375 241.084 343.422 241.439C343.469 241.793 343.797 242.04 344.152 241.994C344.508 241.947 344.756 241.619 344.709 241.265C344.662 240.91 344.333 240.663 343.978 240.71Z" fill="white"/>
<path d="M335.566 236.33C335.211 236.377 334.963 236.704 335.01 237.059C335.057 237.413 335.385 237.661 335.74 237.614C336.095 237.567 336.344 237.239 336.297 236.885C336.25 236.531 335.921 236.283 335.566 236.33Z" fill="white"/>
<path d="M112.998 208.752C112.89 206.827 111.228 205.356 109.298 205.463C107.367 205.57 105.892 207.228 106 209.154C106.107 211.08 107.769 212.551 109.7 212.444C111.63 212.337 113.105 210.678 112.998 208.752Z" fill="url(#paint28_radial_1051_32466)"/>
<path d="M109.58 210.237C110.29 210.197 110.833 209.588 110.793 208.879C110.753 208.171 110.143 207.629 109.432 207.669C108.722 207.709 108.179 208.318 108.219 209.027C108.259 209.735 108.869 210.277 109.58 210.237Z" fill="white"/>
<path d="M142.035 224.467C141.927 222.541 140.265 221.07 138.335 221.177C136.404 221.284 134.929 222.943 135.037 224.869C135.144 226.794 136.806 228.266 138.737 228.159C140.667 228.052 142.142 226.393 142.035 224.467Z" fill="url(#paint29_radial_1051_32466)"/>
<path d="M138.611 225.952C139.321 225.912 139.864 225.303 139.824 224.594C139.784 223.885 139.174 223.344 138.463 223.384C137.753 223.424 137.21 224.033 137.25 224.741C137.29 225.45 137.9 225.992 138.611 225.952Z" fill="white"/>
<path d="M128.676 175.11C128.984 175.297 129.379 175.204 129.567 174.903C129.755 174.595 129.661 174.201 129.359 174.014C129.058 173.826 128.656 173.92 128.468 174.221C128.28 174.522 128.374 174.923 128.676 175.11Z" fill="white"/>
<path d="M132.377 183.824C132.678 184.011 133.081 183.918 133.268 183.617C133.456 183.316 133.362 182.915 133.061 182.727C132.759 182.54 132.357 182.634 132.169 182.935C131.981 183.242 132.075 183.637 132.377 183.824Z" fill="white"/>
</g>
</g>
<defs>
<linearGradient id="paint0_linear_1051_32466" x1="343" y1="54" x2="343" y2="302.5" gradientUnits="userSpaceOnUse">
<stop stop-color="#F5F1FF"/>
<stop offset="1" stop-color="#FAF8FF" stop-opacity="0"/>
</linearGradient>
<radialGradient id="paint1_radial_1051_32466" cx="0" cy="0" r="1" gradientUnits="userSpaceOnUse" gradientTransform="translate(324.671 263.866) scale(159.55 159.343)">
<stop stop-color="#FF828C"/>
<stop offset="0.2" stop-color="#FF858F"/>
<stop offset="0.39" stop-color="#FF919A"/>
<stop offset="0.57" stop-color="#FFA4AB"/>
</radialGradient>
<radialGradient id="paint2_radial_1051_32466" cx="0" cy="0" r="1" gradientUnits="userSpaceOnUse" gradientTransform="translate(205.748 184.962) scale(63.3732 63.2909)">
<stop offset="0.12" stop-color="#575CA5"/>
<stop offset="0.85" stop-color="#6A7BBF"/>
</radialGradient>
<radialGradient id="paint3_radial_1051_32466" cx="0" cy="0" r="1" gradientUnits="userSpaceOnUse" gradientTransform="translate(205.378 147.247) scale(29.09 29.0522)">
<stop offset="0.12" stop-color="#575CA5"/>
<stop offset="0.85" stop-color="#6A7BBF"/>
</radialGradient>
<radialGradient id="paint4_radial_1051_32466" cx="0" cy="0" r="1" gradientUnits="userSpaceOnUse" gradientTransform="translate(213.609 180.827) scale(15.3603 15.3403)">
<stop offset="0.49" stop-color="#FF9E9F"/>
<stop offset="1" stop-color="#FFE2E1"/>
</radialGradient>
<radialGradient id="paint5_radial_1051_32466" cx="0" cy="0" r="1" gradientUnits="userSpaceOnUse" gradientTransform="translate(194.128 173.726) scale(39.8737 39.822)">
<stop offset="0.12" stop-color="#575CA5"/>
<stop offset="0.85" stop-color="#6A7BBF"/>
</radialGradient>
<radialGradient id="paint6_radial_1051_32466" cx="0" cy="0" r="1" gradientUnits="userSpaceOnUse" gradientTransform="translate(215.874 255.614) scale(80.6655 80.5608)">
<stop offset="0.37" stop-color="#FF9E9F"/>
<stop offset="0.89" stop-color="#FFE2E1"/>
</radialGradient>
<radialGradient id="paint7_radial_1051_32466" cx="0" cy="0" r="1" gradientUnits="userSpaceOnUse" gradientTransform="translate(216.313 240.438) scale(31.2413 31.2007)">
<stop stop-color="#8F98C9"/>
<stop offset="0.65" stop-color="white"/>
</radialGradient>
<radialGradient id="paint8_radial_1051_32466" cx="0" cy="0" r="1" gradientUnits="userSpaceOnUse" gradientTransform="translate(215.504 217.298) scale(33.4062 33.3629)">
<stop offset="0.13" stop-color="#467084"/>
<stop offset="1" stop-color="#67AAB6"/>
</radialGradient>
<radialGradient id="paint9_radial_1051_32466" cx="0" cy="0" r="1" gradientUnits="userSpaceOnUse" gradientTransform="translate(175.179 248.321) scale(93.3812 93.26)">
<stop offset="0.18" stop-color="#FF9E9F"/>
<stop offset="0.79" stop-color="#FFE2E1"/>
</radialGradient>
<radialGradient id="paint10_radial_1051_32466" cx="0" cy="0" r="1" gradientUnits="userSpaceOnUse" gradientTransform="translate(273.999 230.777) scale(10.8248 10.8108)">
<stop offset="0.18" stop-color="#FF9E9F"/>
<stop offset="1" stop-color="#FFE2E1"/>
</radialGradient>
<radialGradient id="paint11_radial_1051_32466" cx="0" cy="0" r="1" gradientUnits="userSpaceOnUse" gradientTransform="translate(280.508 210.059) scale(21.6085 21.5805)">
<stop offset="0.18" stop-color="#FF9E9F"/>
<stop offset="0.28" stop-color="#FFB5B5"/>
<stop offset="0.4" stop-color="#FFC8C8"/>
<stop offset="0.54" stop-color="#FFD7D6"/>
<stop offset="0.71" stop-color="#FFDFDE"/>
<stop offset="1" stop-color="#FFE2E1"/>
</radialGradient>
<radialGradient id="paint12_radial_1051_32466" cx="0" cy="0" r="1" gradientUnits="userSpaceOnUse" gradientTransform="translate(280.507 210.058) scale(21.6085 21.5805)">
<stop offset="0.18" stop-color="#FF9E9F"/>
<stop offset="0.28" stop-color="#FFB5B5"/>
<stop offset="0.4" stop-color="#FFC8C8"/>
<stop offset="0.54" stop-color="#FFD7D6"/>
<stop offset="0.71" stop-color="#FFDFDE"/>
<stop offset="1" stop-color="#FFE2E1"/>
</radialGradient>
<radialGradient id="paint13_radial_1051_32466" cx="0" cy="0" r="1" gradientUnits="userSpaceOnUse" gradientTransform="translate(280.507 210.059) scale(21.6085 21.5805)">
<stop offset="0.18" stop-color="#FF9E9F"/>
<stop offset="0.28" stop-color="#FFB5B5"/>
<stop offset="0.4" stop-color="#FFC8C8"/>
<stop offset="0.54" stop-color="#FFD7D6"/>
<stop offset="0.71" stop-color="#FFDFDE"/>
<stop offset="1" stop-color="#FFE2E1"/>
</radialGradient>
<radialGradient id="paint14_radial_1051_32466" cx="0" cy="0" r="1" gradientUnits="userSpaceOnUse" gradientTransform="translate(202.377 198.564) scale(86.6123 86.4999)">
<stop offset="0.34" stop-color="#467084"/>
<stop offset="1" stop-color="#67AAB6"/>
</radialGradient>
<radialGradient id="paint15_radial_1051_32466" cx="0" cy="0" r="1" gradientUnits="userSpaceOnUse" gradientTransform="translate(201.87 201.069) scale(52.9594 52.8907)">
<stop offset="0.18" stop-color="#FF9E9F"/>
<stop offset="0.79" stop-color="#FFE2E1"/>
</radialGradient>
<radialGradient id="paint16_radial_1051_32466" cx="0" cy="0" r="1" gradientUnits="userSpaceOnUse" gradientTransform="translate(339.81 177.557) rotate(-180) scale(15.3603 15.3403)">
<stop offset="0.49" stop-color="#FF9E9F"/>
<stop offset="1" stop-color="#FFE2E1"/>
</radialGradient>
<radialGradient id="paint17_radial_1051_32466" cx="0" cy="0" r="1" gradientUnits="userSpaceOnUse" gradientTransform="translate(337.537 252.371) rotate(180) scale(80.6655 80.5608)">
<stop offset="0.37" stop-color="#FF9E9F"/>
<stop offset="0.89" stop-color="#FFE2E1"/>
</radialGradient>
<radialGradient id="paint18_radial_1051_32466" cx="0" cy="0" r="1" gradientUnits="userSpaceOnUse" gradientTransform="translate(337.098 237.195) rotate(180) scale(31.2413 31.2007)">
<stop stop-color="#8F98C9"/>
<stop offset="0.65" stop-color="white"/>
</radialGradient>
<radialGradient id="paint19_radial_1051_32466" cx="0" cy="0" r="1" gradientUnits="userSpaceOnUse" gradientTransform="translate(334.221 225.194) scale(50.1641 50.099)">
<stop offset="0.17" stop-color="#757ED6"/>
<stop offset="0.71" stop-color="#969EE8"/>
</radialGradient>
<radialGradient id="paint20_radial_1051_32466" cx="0" cy="0" r="1" gradientUnits="userSpaceOnUse" gradientTransform="translate(378.233 245.064) rotate(-180) scale(93.3812 93.26)">
<stop offset="0.18" stop-color="#FF9E9F"/>
<stop offset="0.79" stop-color="#FFE2E1"/>
</radialGradient>
<radialGradient id="paint21_radial_1051_32466" cx="0" cy="0" r="1" gradientUnits="userSpaceOnUse" gradientTransform="translate(279.411 227.534) rotate(180) scale(10.8248 10.8108)">
<stop offset="0.18" stop-color="#FF9E9F"/>
<stop offset="1" stop-color="#FFE2E1"/>
</radialGradient>
<radialGradient id="paint22_radial_1051_32466" cx="0" cy="0" r="1" gradientUnits="userSpaceOnUse" gradientTransform="translate(272.917 206.802) rotate(180) scale(21.6085 21.5805)">
<stop offset="0.18" stop-color="#FF9E9F"/>
<stop offset="0.28" stop-color="#FFB5B5"/>
<stop offset="0.4" stop-color="#FFC8C8"/>
<stop offset="0.54" stop-color="#FFD7D6"/>
<stop offset="0.71" stop-color="#FFDFDE"/>
<stop offset="1" stop-color="#FFE2E1"/>
</radialGradient>
<radialGradient id="paint23_radial_1051_32466" cx="0" cy="0" r="1" gradientUnits="userSpaceOnUse" gradientTransform="translate(272.916 206.803) rotate(180) scale(21.6085 21.5805)">
<stop offset="0.18" stop-color="#FF9E9F"/>
<stop offset="0.28" stop-color="#FFB5B5"/>
<stop offset="0.4" stop-color="#FFC8C8"/>
<stop offset="0.54" stop-color="#FFD7D6"/>
<stop offset="0.71" stop-color="#FFDFDE"/>
<stop offset="1" stop-color="#FFE2E1"/>
</radialGradient>
<radialGradient id="paint24_radial_1051_32466" cx="0" cy="0" r="1" gradientUnits="userSpaceOnUse" gradientTransform="translate(272.916 206.802) rotate(180) scale(21.6085 21.5805)">
<stop offset="0.18" stop-color="#FF9E9F"/>
<stop offset="0.28" stop-color="#FFB5B5"/>
<stop offset="0.4" stop-color="#FFC8C8"/>
<stop offset="0.54" stop-color="#FFD7D6"/>
<stop offset="0.71" stop-color="#FFDFDE"/>
<stop offset="1" stop-color="#FFE2E1"/>
</radialGradient>
<radialGradient id="paint25_radial_1051_32466" cx="0" cy="0" r="1" gradientUnits="userSpaceOnUse" gradientTransform="translate(351.54 197.811) rotate(180) scale(52.9594 52.8907)">
<stop offset="0.18" stop-color="#FF9E9F"/>
<stop offset="0.79" stop-color="#FFE2E1"/>
</radialGradient>
<radialGradient id="paint26_radial_1051_32466" cx="0" cy="0" r="1" gradientUnits="userSpaceOnUse" gradientTransform="translate(410.639 212.68) rotate(-132.799) scale(5.39565 5.39667)">
<stop stop-color="#F1FFFF" stop-opacity="0"/>
<stop offset="0.11" stop-color="#F1FFFF" stop-opacity="0.02"/>
<stop offset="0.24" stop-color="#F1FFFF" stop-opacity="0.07"/>
<stop offset="0.37" stop-color="#F1FFFF" stop-opacity="0.15"/>
<stop offset="0.5" stop-color="#F1FFFF" stop-opacity="0.27"/>
<stop offset="0.63" stop-color="#F1FFFF" stop-opacity="0.43"/>
<stop offset="0.77" stop-color="#F1FFFF" stop-opacity="0.62"/>
<stop offset="0.91" stop-color="#F1FFFF" stop-opacity="0.83"/>
<stop offset="1" stop-color="#F1FFFF"/>
</radialGradient>
<radialGradient id="paint27_radial_1051_32466" cx="0" cy="0" r="1" gradientUnits="userSpaceOnUse" gradientTransform="translate(378.21 218.951) rotate(-132.799) scale(5.39566 5.39667)">
<stop stop-color="#F1FFFF" stop-opacity="0"/>
<stop offset="0.11" stop-color="#F1FFFF" stop-opacity="0.02"/>
<stop offset="0.24" stop-color="#F1FFFF" stop-opacity="0.07"/>
<stop offset="0.37" stop-color="#F1FFFF" stop-opacity="0.15"/>
<stop offset="0.5" stop-color="#F1FFFF" stop-opacity="0.27"/>
<stop offset="0.63" stop-color="#F1FFFF" stop-opacity="0.43"/>
<stop offset="0.77" stop-color="#F1FFFF" stop-opacity="0.62"/>
<stop offset="0.91" stop-color="#F1FFFF" stop-opacity="0.83"/>
<stop offset="1" stop-color="#F1FFFF"/>
</radialGradient>
<radialGradient id="paint28_radial_1051_32466" cx="0" cy="0" r="1" gradientUnits="userSpaceOnUse" gradientTransform="translate(109.281 208.972) rotate(86.7121) scale(5.38971 5.40262)">
<stop stop-color="#F1FFFF" stop-opacity="0"/>
<stop offset="0.11" stop-color="#F1FFFF" stop-opacity="0.02"/>
<stop offset="0.24" stop-color="#F1FFFF" stop-opacity="0.07"/>
<stop offset="0.37" stop-color="#F1FFFF" stop-opacity="0.15"/>
<stop offset="0.5" stop-color="#F1FFFF" stop-opacity="0.27"/>
<stop offset="0.63" stop-color="#F1FFFF" stop-opacity="0.43"/>
<stop offset="0.77" stop-color="#F1FFFF" stop-opacity="0.62"/>
<stop offset="0.91" stop-color="#F1FFFF" stop-opacity="0.83"/>
<stop offset="1" stop-color="#F1FFFF"/>
</radialGradient>
<radialGradient id="paint29_radial_1051_32466" cx="0" cy="0" r="1" gradientUnits="userSpaceOnUse" gradientTransform="translate(138.315 224.687) rotate(86.7121) scale(5.38971 5.40262)">
<stop stop-color="#F1FFFF" stop-opacity="0"/>
<stop offset="0.11" stop-color="#F1FFFF" stop-opacity="0.02"/>
<stop offset="0.24" stop-color="#F1FFFF" stop-opacity="0.07"/>
<stop offset="0.37" stop-color="#F1FFFF" stop-opacity="0.15"/>
<stop offset="0.5" stop-color="#F1FFFF" stop-opacity="0.27"/>
<stop offset="0.63" stop-color="#F1FFFF" stop-opacity="0.43"/>
<stop offset="0.77" stop-color="#F1FFFF" stop-opacity="0.62"/>
<stop offset="0.91" stop-color="#F1FFFF" stop-opacity="0.83"/>
<stop offset="1" stop-color="#F1FFFF"/>
</radialGradient>
<clipPath id="clip0_1051_32466">
<rect width="430" height="311" fill="white"/>
</clipPath>
<clipPath id="clip1_1051_32466">
<rect width="278" height="126" fill="white" transform="translate(124 121)"/>
</clipPath>
<clipPath id="clip2_1051_32466">
<rect width="350" height="99" fill="white" transform="translate(106 143)"/>
</clipPath>
</defs>
</svg>
