<svg width="91" height="25" viewBox="0 0 91 25" fill="none" xmlns="http://www.w3.org/2000/svg">
<path opacity="0.6" d="M14.1365 23.392V24.392H15.53L15.0839 23.0718L14.1365 23.392ZM11.8005 16.48L12.7479 16.1598L12.5181 15.48H11.8005V16.48ZM5.4645 16.48V15.48H4.75934L4.52256 16.1442L5.4645 16.48ZM3.0005 23.392L2.05856 23.0562L1.58238 24.392H3.0005L3.0005 23.392ZM5.4005 23.392H6.4005V22.392H5.4005V23.392ZM5.4005 24L5.4005 25H6.4005L6.4005 24H5.4005ZM0.5045 24H-0.4955L-0.4955 25H0.5045L0.5045 24ZM0.5045 23.392L0.5045 22.392H-0.4955L-0.4955 23.392H0.5045ZM2.0085 23.392L2.0085 24.392H2.70399L2.946 23.74L2.0085 23.392ZM10.1685 1.408V0.407999L9.47301 0.407999L9.231 1.06002L10.1685 1.408ZM12.7925 1.408L13.7313 1.06362L13.4908 0.407999L12.7925 0.407999V1.408ZM20.8565 23.392L19.9177 23.7364L20.1582 24.392H20.8565V23.392ZM22.3285 23.392H23.3285V22.392H22.3285V23.392ZM22.3285 24V25H23.3285V24H22.3285ZM11.8645 24L10.8645 24V25L11.8645 25V24ZM11.8645 23.392V22.392L10.8645 22.392V23.392L11.8645 23.392ZM8.7605 7.392L9.70955 7.07686L8.79706 4.32891L7.81925 7.0543L8.7605 7.392ZM5.7525 15.776L4.81125 15.4383L4.33131 16.776H5.7525V15.776ZM11.5445 15.776L11.5445 16.776H12.9303L12.4935 15.4609L11.5445 15.776ZM15.0839 23.0718L12.7479 16.1598L10.8531 16.8002L13.1891 23.7122L15.0839 23.0718ZM11.8005 15.48L5.4645 15.48V17.48L11.8005 17.48L11.8005 15.48ZM4.52256 16.1442L2.05856 23.0562L3.94244 23.7278L6.40644 16.8158L4.52256 16.1442ZM3.0005 24.392H5.4005V22.392H3.0005L3.0005 24.392ZM4.4005 23.392V24H6.4005V23.392H4.4005ZM5.4005 23H0.5045L0.5045 25H5.4005L5.4005 23ZM1.5045 24V23.392H-0.4955L-0.4955 24H1.5045ZM0.5045 24.392H2.0085L2.0085 22.392H0.5045L0.5045 24.392ZM2.946 23.74L11.106 1.75598L9.231 1.06002L1.071 23.044L2.946 23.74ZM10.1685 2.408L12.7925 2.408V0.407999L10.1685 0.407999V2.408ZM11.8537 1.75237L19.9177 23.7364L21.7953 23.0476L13.7313 1.06362L11.8537 1.75237ZM20.8565 24.392H22.3285V22.392H20.8565V24.392ZM21.3285 23.392V24H23.3285V23.392H21.3285ZM22.3285 23H11.8645V25H22.3285V23ZM12.8645 24V23.392L10.8645 23.392V24L12.8645 24ZM11.8645 24.392H14.1365V22.392H11.8645V24.392ZM7.81925 7.0543L4.81125 15.4383L6.69375 16.1137L9.70175 7.7297L7.81925 7.0543ZM5.7525 16.776L11.5445 16.776L11.5445 14.776H5.7525V16.776ZM12.4935 15.4609L9.70955 7.07686L7.81146 7.70714L10.5955 16.0911L12.4935 15.4609ZM30.5633 -1.90735e-06L31.5633 -1.90735e-06V-1L30.5633 -1V-1.90735e-06ZM30.5633 11.2H29.5633L31.4786 11.6027L30.5633 11.2ZM30.3713 22.112L31.3342 21.8424L29.3782 21.9942L30.3713 22.112ZM30.1473 24V25H31.0356L31.1403 24.1178L30.1473 24ZM22.8512 24H21.8512V25H22.8512V24ZM22.8512 23.424V22.424H21.8512V23.424H22.8512ZM24.6112 23.424V24.424H25.6112V23.424H24.6112ZM24.6112 0.575998L25.6112 0.575998V-0.424002L24.6112 -0.424002V0.575998ZM22.8512 0.575998L21.8512 0.575998V1.576L22.8512 1.576V0.575998ZM22.8512 -1.90735e-06V-1L21.8512 -1V-1.90735e-06L22.8512 -1.90735e-06ZM33.0592 8.824C31.9722 8.824 31.0638 9.46705 30.4726 10.4079C29.8851 11.3428 29.5633 12.6227 29.5633 14.144H31.5633C31.5633 12.8813 31.8334 12.0012 32.1659 11.4721C32.4947 10.949 32.8343 10.824 33.0592 10.824V8.824ZM29.5633 14.144V20.096H31.5633V14.144H29.5633ZM29.5633 20.096C29.5633 21.0835 29.7707 22.0931 30.2338 22.893C30.7071 23.7105 31.5128 24.392 32.6432 24.392V22.392C32.4297 22.392 32.1954 22.2895 31.9647 21.891C31.7238 21.4749 31.5633 20.8365 31.5633 20.096H29.5633ZM32.6432 24.392C33.2594 24.392 33.838 24.196 34.3011 23.7403C34.7314 23.3169 34.9809 22.7478 35.141 22.1513C35.4565 20.9763 35.5312 19.262 35.5312 17.056H33.5312C33.5312 19.298 33.446 20.7517 33.2095 21.6327C33.0936 22.0642 32.9691 22.2451 32.8984 22.3147C32.8605 22.352 32.8111 22.392 32.6432 22.392V24.392ZM35.5312 17.056V15.392H33.5312V17.056H35.5312ZM35.5312 15.392C35.5312 13.1518 35.4407 11.6259 35.1662 10.6462C35.0258 10.1452 34.8059 9.66476 34.4159 9.31503C33.9958 8.93823 33.5051 8.824 33.0592 8.824V10.824C33.1574 10.824 33.1227 10.8418 33.0806 10.804C33.0686 10.7932 33.1487 10.8588 33.2403 11.1858C33.4298 11.8621 33.5312 13.1202 33.5312 15.392H35.5312ZM29.5633 -1.90735e-06L29.5633 11.2H31.5633L31.5633 -1.90735e-06L29.5633 -1.90735e-06ZM31.4786 11.6027C31.7869 10.9019 32.1561 10.3854 32.6423 10.0364C33.1194 9.69402 33.7999 9.448 34.8512 9.448V7.448C33.4706 7.448 32.3591 7.77798 31.4762 8.41156C30.6024 9.03861 30.0436 9.89813 29.6479 10.7973L31.4786 11.6027ZM34.8512 9.448C36.4261 9.448 37.5708 9.97265 38.3552 10.9904C39.1737 12.0526 39.7073 13.7904 39.7073 16.416H41.7073C41.7073 13.5696 41.1368 11.3234 39.9393 9.76959C38.7077 8.17134 36.9244 7.448 34.8512 7.448V9.448ZM39.7073 16.416C39.7073 19.0427 39.1652 20.7379 38.283 21.7704C37.4286 22.7703 36.1051 23.32 34.1152 23.32V25.32C36.4774 25.32 38.4499 24.6537 39.8035 23.0696C41.1293 21.5181 41.7073 19.2613 41.7073 16.416H39.7073ZM34.1152 23.32C33.0777 23.32 32.4646 23.1722 32.0868 22.952C31.7572 22.76 31.5054 22.4538 31.3342 21.8424L29.4083 22.3816C29.6851 23.3702 30.2013 24.168 31.0797 24.68C31.9099 25.1638 32.9448 25.32 34.1152 25.32V23.32ZM29.3782 21.9942L29.1542 23.8822L31.1403 24.1178L31.3643 22.2298L29.3782 21.9942ZM30.1473 23H22.8512V25H30.1473V23ZM23.8512 24V23.424H21.8512V24H23.8512ZM22.8512 24.424H24.6112V22.424H22.8512V24.424ZM25.6112 23.424L25.6112 0.575998L23.6112 0.575998L23.6112 23.424H25.6112ZM24.6112 -0.424002L22.8512 -0.424002V1.576L24.6112 1.576V-0.424002ZM23.8512 0.575998V-1.90735e-06L21.8512 -1.90735e-06V0.575998L23.8512 0.575998ZM22.8512 0.999998L30.5633 0.999998V-1L22.8512 -1V0.999998ZM52.9997 17.696V14.976H50.9997V17.696H52.9997ZM52.9997 14.976C52.9997 13.2806 52.9811 11.6668 52.7013 10.4754C52.5599 9.87333 52.328 9.26466 51.9037 8.79648C51.443 8.28803 50.8265 8.024 50.1118 8.024V10.024C50.293 10.024 50.3605 10.072 50.4218 10.1395C50.5195 10.2473 50.6476 10.4787 50.7542 10.9326C50.9704 11.8532 50.9997 13.2154 50.9997 14.976H52.9997ZM50.1118 8.024C49.3845 8.024 48.7444 8.26812 48.2526 8.77207C47.7935 9.24244 47.5399 9.86187 47.3854 10.4823C47.0816 11.7019 47.0638 13.365 47.0638 15.136H49.0638C49.0638 13.291 49.0939 11.8981 49.3261 10.9657C49.4396 10.5101 49.576 10.2796 49.6839 10.1689C49.7591 10.0919 49.863 10.024 50.1118 10.024V8.024ZM47.0638 15.136V17.632H49.0638V15.136H47.0638ZM47.0638 17.632C47.0638 19.4446 47.0734 21.1104 47.3683 22.3174C47.5189 22.9334 47.7692 23.5491 48.231 24.015C48.725 24.5134 49.3639 24.744 50.0798 24.744V22.744C49.8196 22.744 49.7185 22.6746 49.6515 22.607C49.5523 22.5069 49.4206 22.2906 49.3112 21.8426C49.0861 20.9216 49.0638 19.5314 49.0638 17.632H47.0638ZM50.0798 24.744C50.718 24.744 51.3291 24.5732 51.8229 24.1231C52.2921 23.6954 52.5432 23.1157 52.693 22.5262C52.9828 21.3853 52.9997 19.7277 52.9997 17.696H50.9997C50.9997 19.8243 50.9687 21.1907 50.7545 22.0338C50.6523 22.4363 50.5374 22.5886 50.4756 22.6449C50.4384 22.6788 50.3535 22.744 50.0798 22.744V24.744ZM42.9198 16.448C42.9198 14.0259 43.638 12.3179 44.8171 11.2082C46.0059 10.0894 47.8016 9.448 50.2077 9.448V7.448C47.4619 7.448 45.1136 8.18262 43.4464 9.7518C41.7695 11.3301 40.9198 13.6221 40.9198 16.448H42.9198ZM50.2077 9.448C52.7568 9.448 54.4404 10.0484 55.4934 11.0758C56.5416 12.0984 57.1438 13.719 57.1438 16.16H59.1438C59.1438 13.417 58.4659 11.1816 56.8901 9.64422C55.3191 8.1116 53.0347 7.448 50.2077 7.448V9.448ZM57.1438 16.16C57.1438 18.6481 56.5658 20.3921 55.4921 21.5178C54.427 22.6345 52.704 23.32 50.0158 23.32V25.32C53.0235 25.32 55.3645 24.5495 56.9394 22.8982C58.5057 21.2559 59.1438 18.9199 59.1438 16.16H57.1438ZM50.0158 23.32C47.4996 23.32 45.7648 22.6483 44.6568 21.5468C43.5493 20.4459 42.9198 18.7683 42.9198 16.448H40.9198C40.9198 19.1197 41.6502 21.3781 43.2467 22.9652C44.8427 24.5517 47.1559 25.32 50.0158 25.32V23.32ZM77.7588 24V25H78.7588V24H77.7588ZM70.4628 24L69.4739 24.149L69.6021 25H70.4628V24ZM70.1107 21.664L71.0996 21.515L70.5546 17.898L69.1836 21.2892L70.1107 21.664ZM60.6387 9.344L61.6387 9.344V8.344L60.6387 8.344V9.344ZM58.8467 9.344H57.8467V10.344H58.8467V9.344ZM58.8467 8.768V7.768L57.8467 7.768V8.768H58.8467ZM66.5908 8.768H67.5908V7.768H66.5908V8.768ZM70.0468 9.344H71.0468V8.344H70.0468V9.344ZM68.5748 9.344H67.5748V10.344H68.5748V9.344ZM68.5748 8.768V7.768H67.5748V8.768H68.5748ZM75.9987 8.768H76.9987V7.768H75.9987V8.768ZM75.9987 23.424H74.9987V24.424H75.9987V23.424ZM77.7588 23.424H78.7588V22.424H77.7588V23.424ZM77.7588 23L70.4628 23V25L77.7588 25V23ZM71.4516 23.851L71.0996 21.515L69.1219 21.813L69.4739 24.149L71.4516 23.851ZM69.1836 21.2892C68.919 21.9438 68.609 22.4095 68.14 22.7321C67.6668 23.0576 66.9104 23.32 65.5987 23.32V25.32C67.1671 25.32 68.3627 25.0064 69.2735 24.3799C70.1885 23.7505 70.6945 22.8882 71.0379 22.0388L69.1836 21.2892ZM65.5987 23.32C64.2621 23.32 63.3179 22.9896 62.7032 22.3863C62.0921 21.7865 61.6387 20.7515 61.6387 18.976H59.6387C59.6387 21.0725 60.1774 22.7095 61.3022 23.8137C62.4236 24.9144 63.9594 25.32 65.5987 25.32V23.32ZM61.6387 18.976V9.344L59.6387 9.344V18.976H61.6387ZM60.6387 8.344H58.8467V10.344H60.6387V8.344ZM59.8467 9.344V8.768H57.8467V9.344H59.8467ZM58.8467 9.768L66.5908 9.768V7.768L58.8467 7.768V9.768ZM65.5908 8.768V19.744H67.5908V8.768H65.5908ZM65.5908 19.744C65.5908 21.088 65.6758 22.0742 65.9679 22.7358C66.133 23.1098 66.3878 23.4388 66.7711 23.6492C67.1324 23.8474 67.5015 23.88 67.7747 23.88V21.88C67.648 21.88 67.6691 21.8606 67.7334 21.8958C67.8197 21.9432 67.8285 21.9982 67.7976 21.9282C67.6977 21.7018 67.5908 21.12 67.5908 19.744H65.5908ZM67.7747 23.88C68.8044 23.88 69.6676 23.3349 70.2309 22.4624C70.7766 21.617 71.0468 20.4719 71.0468 19.136H69.0468C69.0468 20.2321 68.8209 20.959 68.5506 21.3776C68.2979 21.7691 68.0251 21.88 67.7747 21.88V23.88ZM71.0468 19.136V9.344H69.0468V19.136H71.0468ZM70.0468 8.344H68.5748V10.344H70.0468V8.344ZM69.5748 9.344V8.768H67.5748V9.344H69.5748ZM68.5748 9.768L75.9987 9.768V7.768L68.5748 7.768V9.768ZM74.9987 8.768V23.424H76.9987V8.768H74.9987ZM75.9987 24.424L77.7588 24.424V22.424L75.9987 22.424V24.424ZM76.7588 23.424V24L78.7588 24V23.424L76.7588 23.424ZM80.0137 9.344H81.0137V8.344H80.0137V9.344ZM78.2538 9.344H77.2538V10.344H78.2538V9.344ZM78.2538 8.768V7.768H77.2538V8.768H78.2538ZM80.0137 8.768V9.768H81.0137V8.768H80.0137ZM80.0137 4.64L79.7737 3.66925L79.0137 3.85718V4.64H80.0137ZM85.9658 3.168H86.9658V1.89056L85.7257 2.19725L85.9658 3.168ZM85.9658 8.768H84.9658V9.768H85.9658V8.768ZM90.1257 8.768H91.1257V7.768H90.1257V8.768ZM90.1257 9.344V10.344H91.1257V9.344H90.1257ZM85.9658 9.344V8.344H84.9658V9.344H85.9658ZM90.1578 19.456L90.2746 18.4628L89.2957 18.3477L89.1664 19.3248L90.1578 19.456ZM90.7018 19.52L91.6952 19.6346L91.8095 18.6434L90.8186 18.5268L90.7018 19.52ZM81.0137 19.424V9.344H79.0137V19.424H81.0137ZM80.0137 8.344H78.2538V10.344H80.0137V8.344ZM79.2538 9.344V8.768H77.2538V9.344H79.2538ZM78.2538 9.768H80.0137V7.768H78.2538V9.768ZM81.0137 8.768V4.64L79.0137 4.64V8.768H81.0137ZM80.2538 5.61075L86.2058 4.13875L85.7257 2.19725L79.7737 3.66925L80.2538 5.61075ZM84.9658 3.168V8.768H86.9658V3.168H84.9658ZM85.9658 9.768H90.1257V7.768H85.9658V9.768ZM89.1257 8.768V9.344H91.1257V8.768H89.1257ZM90.1257 8.344H85.9658V10.344H90.1257V8.344ZM84.9658 9.344V20.128H86.9658V9.344H84.9658ZM84.9658 20.128C84.9658 21.0764 85.0305 21.9895 85.3314 22.6877C85.4921 23.0606 85.7391 23.419 86.1188 23.6773C86.502 23.938 86.9369 24.04 87.3737 24.04V22.04C87.2506 22.04 87.2295 22.014 87.2437 22.0237C87.2544 22.031 87.2194 22.0154 87.1681 21.8963C87.045 21.6105 86.9658 21.0676 86.9658 20.128H84.9658ZM87.3737 24.04C88.4961 24.04 89.402 23.5063 90.0338 22.664C90.641 21.8543 90.9922 20.773 91.1491 19.5872L89.1664 19.3248C89.0353 20.315 88.7625 21.0257 88.4338 21.464C88.1295 21.8697 87.7874 22.04 87.3737 22.04V24.04ZM90.0409 20.4492L90.5849 20.5132L90.8186 18.5268L90.2746 18.4628L90.0409 20.4492ZM89.7083 19.4054C89.5733 20.5753 89.2725 21.5311 88.6858 22.1923C88.1333 22.8148 87.1969 23.32 85.4538 23.32V25.32C87.6146 25.32 89.1582 24.6732 90.1817 23.5197C91.171 22.4049 91.5422 20.9607 91.6952 19.6346L89.7083 19.4054ZM85.4538 23.32C83.9243 23.32 82.8428 23.0864 82.1484 22.562C81.5175 22.0855 81.0137 21.2153 81.0137 19.424H79.0137C79.0137 21.6007 79.646 23.1785 80.9431 24.158C82.1767 25.0896 83.8152 25.32 85.4538 25.32V23.32Z" fill="white"/>
</svg>
