<svg width="354" height="198" viewBox="0 0 354 198" fill="none" xmlns="http://www.w3.org/2000/svg">
<path d="M35.7505 114.07H20.7705V156.51H35.7505V114.07Z" fill="#947FE0"/>
<path d="M55.3302 94.0501C55.3302 80.0701 43.2602 45.3 28.3702 45.3C13.4802 45.3 1.41016 80.0701 1.41016 94.0501C1.41016 108.03 13.4802 119.37 28.3702 119.37C43.2602 119.37 55.3302 108.03 55.3302 94.0501Z" fill="#BEABFF"/>
<path d="M278.041 114.07H263.061V156.51H278.041V114.07Z" fill="#947FE0"/>
<path d="M297.62 94.0501C297.62 80.0701 285.55 45.3 270.66 45.3C255.77 45.3 243.7 80.0601 243.7 94.0501C243.7 108.04 255.77 119.37 270.66 119.37C285.55 119.37 297.62 108.03 297.62 94.0501Z" fill="#BEABFF"/>
<path d="M320.43 118.3H306.94V156.51H320.43V118.3Z" fill="#947FE0"/>
<path d="M338.05 100.28C338.05 87.6899 327.18 56.3899 313.78 56.3899C300.38 56.3899 289.51 87.6899 289.51 100.28C289.51 112.87 300.38 123.08 313.78 123.08C327.18 123.08 338.05 112.87 338.05 100.28Z" fill="#BEABFF"/>
<path d="M352.58 152.65H5.32031V196.89H352.58V152.65Z" fill="#ECE7FF"/>
<path d="M136.38 79.6901C136.38 79.6901 125.5 89.4201 121.86 92.6501C118.22 95.8801 113.2 99.4701 108.36 98.8901C104.33 98.4101 100.78 96.0801 97.5198 93.6601C89.1298 87.4101 78.1298 70.9001 78.1298 70.9001C74.6498 65.0601 73.9898 58.9801 78.7098 55.5201C83.4298 52.0601 87.4598 52.3501 90.2498 55.2101C93.6698 58.7201 91.5398 62.5001 91.5398 62.5001C94.6498 67.1901 98.3898 71.4601 102.63 75.1601C103.9 76.2701 105.27 77.3501 106.91 77.7501C110.27 78.5601 117.73 71.9401 120.38 69.7301" fill="#FC5862"/>
<path d="M136.38 79.6901C136.38 79.6901 125.5 89.4201 121.86 92.6501C118.22 95.8801 113.2 99.4701 108.36 98.8901C104.33 98.4101 100.78 96.0801 97.5198 93.6601C89.1298 87.4101 78.1298 70.9001 78.1298 70.9001C74.6498 65.0601 73.9898 58.9801 78.7098 55.5201C83.4298 52.0601 87.4598 52.3501 90.2498 55.2101C93.6698 58.7201 91.5398 62.5001 91.5398 62.5001C94.6498 67.1901 98.3898 71.4601 102.63 75.1601C103.9 76.2701 105.27 77.3501 106.91 77.7501C110.27 78.5601 117.73 71.9401 120.38 69.7301" stroke="white" stroke-width="2" stroke-miterlimit="10"/>
<path d="M167.76 112.42C184.66 115.95 203.15 109.42 214.46 95.9199C216.25 93.7799 218.16 91.3099 220.87 90.9699C222.19 90.8099 223.53 91.1999 224.75 91.7799C229.07 93.8699 232 98.3199 233.45 103.04C234.9 107.76 235.08 112.78 235.24 117.73C235.4 122.67 234.94 128.74 230.64 130.82C227.3 132.44 223.15 130.5 220.95 127.41C218.75 124.32 218.03 120.39 217.43 116.6C203.96 127.03 182.18 131.88 165.42 133.2C158.82 133.72 146.12 123.14 152.69 97.7999" fill="#FC5862"/>
<path d="M167.76 112.42C184.66 115.95 203.15 109.42 214.46 95.9199C216.25 93.7799 218.16 91.3099 220.87 90.9699C222.19 90.8099 223.53 91.1999 224.75 91.7799C229.07 93.8699 232 98.3199 233.45 103.04C234.9 107.76 235.08 112.78 235.24 117.73C235.4 122.67 234.94 128.74 230.64 130.82C227.3 132.44 223.15 130.5 220.95 127.41C218.75 124.32 218.03 120.39 217.43 116.6C203.96 127.03 182.18 131.88 165.42 133.2C158.82 133.72 146.12 123.14 152.69 97.7999" stroke="white" stroke-width="2" stroke-miterlimit="10"/>
<path d="M198.96 6.77011C191.02 6.91011 183.6 9.11011 177.19 12.8401C169.07 5.73011 158.39 1.50011 146.75 1.71011C121.9 2.15011 103.05 22.6601 102.55 47.5101C101.86 81.7201 161.02 122.3 161.02 122.3C161.02 122.3 239.4 106.37 244.76 50.9801C247.15 26.2401 223.81 6.34011 198.96 6.78011V6.77011Z" fill="#FC5862" stroke="white" stroke-width="2" stroke-miterlimit="10"/>
<path d="M163.14 106.63C162.37 124.11 176.27 149.96 187.07 163.72C183.3 164.44 179.39 165.28 176.36 167.64C173.34 170.01 171.51 174.36 173.22 177.8C175.42 182.22 181.5 182.56 186.43 182.26C191.37 181.97 196.39 181.66 201.07 180.04C205.75 178.41 210.12 175.26 212.09 170.72C212.64 169.45 213 168.04 212.79 166.67C212.38 163.86 209.85 161.93 207.66 160.12C193.85 148.69 186.8 129.62 189.86 111.96" fill="#FC5862"/>
<path d="M163.14 106.63C162.37 124.11 176.27 149.96 187.07 163.72C183.3 164.44 179.39 165.28 176.36 167.64C173.34 170.01 171.51 174.36 173.22 177.8C175.42 182.22 181.5 182.56 186.43 182.26C191.37 181.97 196.39 181.66 201.07 180.04C205.75 178.41 210.12 175.26 212.09 170.72C212.64 169.45 213 168.04 212.79 166.67C212.38 163.86 209.85 161.93 207.66 160.12C193.85 148.69 186.8 129.62 189.86 111.96" stroke="white" stroke-width="2" stroke-miterlimit="10"/>
<path d="M229.07 38.27C229.07 38.27 236.1 49.7 238.44 54.28C240.78 58.86 241.77 64.4 239.9 69.19C238.34 73.18 235.03 76.2 231.69 78.89C223.08 85.82 205.42 92.55 205.42 92.55C198.53 94.56 192.14 93.63 189.85 87.89C187.56 82.16 188.92 78.1 192.58 76.01C197.07 73.44 200.37 76.61 200.37 76.61C205.99 74.67 211.34 71.97 216.25 68.62C217.72 67.62 219.19 66.5 220.03 64.93C221.74 61.71 220.26 57.78 218.7 54.48" fill="#FC5862"/>
<path d="M229.07 38.27C229.07 38.27 236.1 49.7 238.44 54.28C240.78 58.86 241.77 64.4 239.9 69.19C238.34 73.18 235.03 76.2 231.69 78.89C223.08 85.82 205.42 92.55 205.42 92.55C198.53 94.56 192.14 93.63 189.85 87.89C187.56 82.16 188.92 78.1 192.58 76.01C197.07 73.44 200.37 76.61 200.37 76.61C205.99 74.67 211.34 71.97 216.25 68.62C217.72 67.62 219.19 66.5 220.03 64.93C221.74 61.71 220.26 57.78 218.7 54.48" stroke="white" stroke-width="2" stroke-miterlimit="10"/>
<path d="M150.233 28.8135C151.371 29.1119 152.239 30.5462 151.789 32.2612C151.339 33.9762 149.878 34.7995 148.741 34.501C147.603 34.2026 146.735 32.7683 147.185 31.0533C147.635 29.3383 149.095 28.515 150.233 28.8135Z" fill="#373D49" stroke="#373D49" stroke-width="2"/>
<path d="M165.676 30.4827C166.814 30.7811 167.682 32.2154 167.232 33.9304C166.782 35.6454 165.322 36.4687 164.184 36.1702C163.047 35.8718 162.178 34.4375 162.628 32.7225C163.078 31.0075 164.539 30.1842 165.676 30.4827Z" fill="#373D49" stroke="#373D49" stroke-width="2"/>
<path d="M153.71 41.09C152.86 40.24 151.69 39.71 150.39 39.71C147.8 39.71 145.7 41.81 145.7 44.4C145.7 46.21 146.72 47.77 148.22 48.55C146.72 49.33 145.7 50.9 145.7 52.7C145.7 55.29 147.8 57.39 150.39 57.39C151.63 57.39 152.76 56.91 153.6 56.12" stroke="#373D49" stroke-width="2" stroke-miterlimit="10"/>
<path d="M233.531 0.570048C235.631 1.07005 236.941 3.18005 236.441 5.28005C235.941 7.38005 233.831 8.69005 231.731 8.19005C229.631 7.69005 223.641 2.26005 223.641 2.26005C223.641 2.26005 231.421 0.080048 233.531 0.570048Z" fill="url(#paint0_linear_3244_35872)"/>
<path d="M249.581 8.3301C251.531 9.2701 252.351 11.6101 251.411 13.5601C250.471 15.5101 248.131 16.3301 246.181 15.3901C244.231 14.4501 239.561 7.8601 239.561 7.8601C239.561 7.8601 247.631 7.4001 249.581 8.3401V8.3301Z" fill="url(#paint1_linear_3244_35872)"/>
<path d="M262.221 23.31C263.611 24.96 263.4 27.43 261.74 28.83C260.08 30.23 257.621 30.01 256.221 28.35C254.821 26.69 253.271 18.76 253.271 18.76C253.271 18.76 260.82 21.65 262.21 23.31H262.221Z" fill="url(#paint2_linear_3244_35872)"/>
<defs>
<linearGradient id="paint0_linear_3244_35872" x1="224.369" y1="1.82221" x2="233.069" y2="10.2745" gradientUnits="userSpaceOnUse">
<stop stop-color="#FFD380"/>
<stop offset="1" stop-color="#FF7A40"/>
</linearGradient>
<linearGradient id="paint1_linear_3244_35872" x1="240.251" y1="9.11117" x2="249.16" y2="17.0805" gradientUnits="userSpaceOnUse">
<stop stop-color="#FFD380"/>
<stop offset="1" stop-color="#FF7A40"/>
</linearGradient>
<linearGradient id="paint2_linear_3244_35872" x1="253.827" y1="20.6262" x2="263.947" y2="25.9595" gradientUnits="userSpaceOnUse">
<stop stop-color="#FFD380"/>
<stop offset="1" stop-color="#FF7A40"/>
</linearGradient>
</defs>
</svg>
