<svg width="210" height="210" viewBox="0 0 210 210" fill="none" xmlns="http://www.w3.org/2000/svg">
<path d="M53.1214 164.116L53.8351 164.748L57.8317 160.237L56.9564 159.462L57.183 159.206L61.5596 163.083L61.3329 163.339L60.4576 162.564L52.5599 171.478L53.4352 172.254L53.2086 172.51L49.1418 168.907C46.3273 166.413 45.2432 164.924 46.985 162.958C48.4404 161.315 49.7317 161.594 51.2665 162.737L51.3023 162.697C50.015 161.22 50.0178 160.213 51.4017 158.651L52.034 157.937C52.8094 157.062 53.0434 156.716 52.6664 156.382C52.424 156.168 52.1265 156.096 51.0209 156.992L50.8159 156.762C52.3779 155.406 53.1009 155.349 54.3533 156.459C56.05 157.962 56.0472 158.969 54.3651 160.868L53.4942 161.851C52.6471 162.807 52.3943 163.472 53.1214 164.116ZM49.934 169.152L53.6085 165.004L53.1775 164.623C52.1811 163.74 51.1802 163.839 49.8918 165.293L49.5458 165.683C48.2096 167.192 48.547 167.923 49.4896 168.758L49.934 169.152Z" fill="white"/>
<path d="M48.3145 156.654C45.9036 158.622 43.5019 157.842 41.9204 155.905C40.134 153.718 40.4726 151.885 42.6173 150.273L45.8259 154.203L46.3694 153.759C48.0138 152.417 48.8897 151.214 47.786 149.862C46.944 148.831 45.7202 148.669 44.3968 149.238L44.2338 148.953C45.694 148.295 47.2054 148.269 48.8211 150.248C50.8464 152.729 50.3352 155.004 48.3145 156.654ZM45.5358 154.417L44.3639 152.981L43.681 153.539C42.2178 154.734 41.821 155.243 42.2876 155.815C42.6858 156.302 43.3758 156.18 44.853 154.974L45.5358 154.417Z" fill="white"/>
<path d="M38.52 143.007L38.2591 142.555L37.0594 143.248C35.0807 144.39 34.6655 144.858 35.0253 145.482C35.1873 145.762 35.5728 146.142 36.0713 145.854C36.196 145.782 36.3338 145.661 36.4692 145.5L36.2443 145.11C36.4019 144.915 36.5774 144.752 36.8735 144.581C37.6057 144.158 38.4306 144.471 38.8803 145.25C39.438 146.216 39.1242 146.896 38.3608 147.337C37.052 148.092 35.7877 147.306 34.5643 145.187C33.1521 142.741 33.3609 141.519 35.62 140.215L38.7828 138.389C39.4216 138.02 39.4851 137.734 39.3321 137.469C39.1702 137.189 38.7213 137.095 37.3676 137.772L37.2482 137.53C39.1628 136.528 40.0254 136.799 40.799 138.139C41.5276 139.401 41.5429 140.327 40.8874 140.955C41.7792 140.772 42.4451 140.99 43.0748 142.081C43.7045 143.171 44.0789 144.575 42.5209 145.475C40.9473 146.383 39.8063 145.235 38.52 143.007ZM41.8399 141.381C41.669 141.085 40.9545 140.999 39.9574 141.575L38.5084 142.411L38.5714 142.52C38.9492 143.175 39.5965 143.216 40.5469 142.668L40.7962 142.524C41.918 141.876 42.0108 141.677 41.8399 141.381Z" fill="white"/>
<path d="M36.6435 130.577C36.4585 130.089 35.7323 129.595 34.4707 130.073L30.8036 131.464C29.8953 131.808 29.205 132.474 29.4857 133.214C29.7983 134.039 30.8545 133.83 33.1927 132.944L34.0675 132.612C36.4393 131.712 36.9178 131.3 36.6435 130.577ZM36.6755 128.987L35.5682 129.618C36.5432 129.653 37.2967 130.117 37.7943 131.429C38.5024 133.297 37.6201 134.978 34.7941 136.05C31.9512 137.128 30.1589 136.461 29.3423 134.308C28.9468 133.265 29.0199 132.544 29.4266 132.044L24.4642 133.926L24.8534 134.952L24.5506 135.067L22.9557 130.861L35.2691 126.191L34.9565 125.367L35.2592 125.252L36.6755 128.987Z" fill="white"/>
<path d="M19.8665 105.299L19.6731 100.5L20.0146 100.486L20.0545 101.474L31.9546 100.995L31.9148 100.006L32.2563 99.9925L32.4772 105.475L32.1357 105.489L32.0959 104.5L20.8608 104.953L20.8637 105.025L32.549 107.255L32.6395 109.502L21.1365 113.134L21.1394 113.206L32.4284 112.751L32.3885 111.763L32.7301 111.749L32.8286 114.194L32.487 114.207L32.4472 113.219L20.5471 113.698L20.5869 114.687L20.2454 114.701L20.0498 109.847L29.2111 107.083L19.8665 105.299Z" fill="white"/>
<path d="M29.6487 94.4259L28.1306 94.2416C26.2018 94.0074 24.8022 93.8918 24.6808 94.8919C24.5485 95.9814 25.9351 96.2041 27.9532 96.4491L29.3462 96.6183C31.4179 96.8698 32.7617 96.9968 32.894 95.9073C33.0176 94.8893 31.9704 94.7078 29.6487 94.4259ZM28.2691 99.9671C25.3401 99.6114 24.0167 97.6747 24.3658 94.7993C24.7302 91.7989 26.3145 90.5415 29.2078 90.8928C32.1367 91.2484 33.5971 92.8031 33.2111 95.9821C32.8468 98.9825 31.0551 100.305 28.2691 99.9671Z" fill="white"/>
<path d="M28.11 80.605C27.8698 81.4345 28.8887 82.5725 30.4439 83.023L35.0751 84.3644L35.4304 83.1375L35.7415 83.2276L34.1798 88.619L33.8688 88.5289L34.1441 87.5785L26.5407 85.3762L26.2654 86.3266L25.9544 86.2365L27.1607 82.072L28.8196 82.5525C27.6828 81.886 27.3583 80.7432 27.6586 79.7063C27.9539 78.6868 28.7248 78.0298 30.0381 78.4102C31.0231 78.6955 31.5296 79.4041 31.2593 80.3372C30.924 81.495 30.038 81.8378 28.9162 81.1195L29.0964 80.4974C28.488 79.9466 28.2151 80.2421 28.11 80.605Z" fill="white"/>
<path d="M33.7835 75.7171C30.9716 74.3828 30.6464 71.8787 31.7184 69.6195C32.9293 67.0677 34.73 66.588 37.1056 67.8346L34.9306 72.4182L35.5645 72.7189C37.4825 73.629 38.9447 73.9047 39.6928 72.3281C40.2636 71.1253 39.8853 69.9501 38.8034 68.9987L38.991 68.7293C40.2114 69.7664 40.8831 71.1206 39.7879 73.4286C38.4151 76.3217 36.1403 76.8354 33.7835 75.7171ZM34.6133 72.2477L35.4077 70.5735L34.6112 70.1956C32.9046 69.3858 32.274 69.2459 31.9578 69.9123C31.6879 70.4812 32.094 71.0522 33.8169 71.8697L34.6133 72.2477Z" fill="white"/>
<path d="M79.5466 30.0184L78.6422 30.3203L80.5507 36.037L81.6599 35.6667L81.7682 35.9909L76.2221 37.8425L76.1139 37.5183L77.2231 37.1479L73.4516 25.8511L72.3424 26.2214L72.2342 25.8972L77.3877 24.1766C80.9543 22.986 82.7861 22.7917 83.6178 25.2831C84.3129 27.365 83.4258 28.344 81.6682 29.1014L81.6853 29.1526C83.6081 28.7763 84.4788 29.2822 85.1396 31.2617L85.4416 32.1661C85.8119 33.2754 85.9941 33.6508 86.4719 33.4912C86.7791 33.3887 86.9895 33.1667 86.7669 31.7616L87.0684 31.6989C87.4619 33.7297 87.1493 34.3841 85.5623 34.9139C83.4122 35.6318 82.5415 35.1258 81.7382 32.7197L81.3223 31.474C80.9178 30.2624 80.4681 29.7107 79.5466 30.0184ZM76.7793 24.7402L78.5339 29.9961L79.08 29.8138C80.3428 29.3922 80.7577 28.4761 80.1424 26.6331L79.9772 26.1382C79.3391 24.2269 78.5369 24.1534 77.3424 24.5521L76.7793 24.7402Z" fill="white"/>
<path d="M88.413 29.5871C87.9137 26.515 89.7898 24.8249 92.2581 24.4238C95.046 23.9707 96.4638 25.1802 96.7872 27.8434L91.7796 28.6572L91.8921 29.3497C92.2327 31.4451 92.8364 32.8052 94.5589 32.5252C95.873 32.3117 96.6252 31.3328 96.7937 29.9019L97.122 29.9033C96.9618 31.4968 96.2288 32.8189 93.7072 33.2287C90.5464 33.7424 88.8314 32.1619 88.413 29.5871ZM91.7396 28.2992L93.5687 28.0019L93.4272 27.1318C93.1242 25.2672 92.8812 24.6688 92.1531 24.7871C91.5316 24.8881 91.2923 25.5467 91.5982 27.429L91.7396 28.2992Z" fill="white"/>
<path d="M105.197 28.1374H105.719V26.7522C105.719 24.4674 105.521 23.8737 104.801 23.8737C104.477 23.8737 103.956 24.0176 103.956 24.5933C103.956 24.7372 103.991 24.9171 104.063 25.115H104.513C104.603 25.3489 104.657 25.5828 104.657 25.9246C104.657 26.7702 103.974 27.3279 103.074 27.3279C101.959 27.3279 101.527 26.7162 101.527 25.8346C101.527 24.3234 102.84 23.6218 105.287 23.6218C108.111 23.6218 109.065 24.4134 109.065 27.022V30.6741C109.065 31.4117 109.281 31.6096 109.587 31.6096C109.91 31.6096 110.216 31.2678 110.306 29.7566L110.576 29.7746C110.486 31.9335 109.82 32.5451 108.273 32.5451C106.816 32.5451 106.006 32.0954 105.791 31.2138C105.503 32.0774 104.981 32.5451 103.722 32.5451C102.462 32.5451 101.059 32.1673 101.059 30.3683C101.059 28.5512 102.624 28.1374 105.197 28.1374ZM104.945 31.8255C105.287 31.8255 105.719 31.2498 105.719 30.0984V28.4253H105.593C104.837 28.4253 104.477 28.965 104.477 30.0624V30.3503C104.477 31.6456 104.603 31.8255 104.945 31.8255Z" fill="white"/>
<path d="M116.831 32.5178C117.346 32.6015 118.137 32.2197 118.354 30.8879L118.983 27.0167C119.139 26.0578 118.907 25.1271 118.126 25.0001C117.256 24.8587 116.908 25.8776 116.507 28.3459L116.357 29.2693C115.95 31.7731 116.068 32.3937 116.831 32.5178ZM118.192 33.3405L118.199 32.0657C117.682 32.893 116.903 33.3131 115.518 33.088C113.546 32.7677 112.531 31.1628 113.016 28.1796C113.504 25.1785 114.978 23.9599 117.251 24.3293C118.352 24.5082 118.939 24.9318 119.169 25.5342L120.021 20.2957L118.937 20.1197L118.989 19.8L123.429 20.5215L121.316 33.5201L122.186 33.6615L122.134 33.9811L118.192 33.3405Z" fill="white"/>
<path d="M147.111 30.6275L151.364 32.8598L151.206 33.1625L150.329 32.7026L144.795 43.2482L145.671 43.7081L145.512 44.0108L140.653 41.4608L140.812 41.1581L141.688 41.6179L146.914 31.6617L146.85 31.6283L139.076 40.633L137.085 39.588L139.691 27.8098L139.627 27.7764L134.377 37.7804L135.253 38.2402L135.094 38.5429L132.927 37.4058L133.086 37.1032L133.962 37.563L139.497 27.0174L138.621 26.5576L138.78 26.2549L143.081 28.5123L140.894 37.8281L147.111 30.6275Z" fill="white"/>
<path d="M151.636 44.5355L152.555 43.313C153.722 41.7597 154.522 40.6055 153.717 40.0002C152.839 39.341 151.953 40.4304 150.732 42.0556L149.889 43.1774C148.635 44.8458 147.854 45.9461 148.731 46.6054C149.551 47.2214 150.231 46.4053 151.636 44.5355ZM147.527 40.5702C149.3 38.2115 151.639 38.0337 153.954 39.7738C156.371 41.5895 156.668 43.5903 154.917 45.9203C153.144 48.279 151.068 48.7664 148.508 46.8426C146.091 45.0269 145.841 42.8139 147.527 40.5702Z" fill="white"/>
<path d="M164.375 50.1133C163.777 49.4905 162.282 49.804 161.115 50.9256L157.637 54.2656L158.522 55.1868L158.289 55.4111L154.4 51.3629L154.634 51.1386L155.319 51.8522L161.028 46.3687L160.343 45.6551L160.576 45.4308L163.58 48.5577L162.334 49.7541C163.48 49.1028 164.632 49.3932 165.379 50.1717C166.115 50.9373 166.298 51.9334 165.312 52.8806C164.573 53.5909 163.706 53.6753 163.033 52.9746C162.198 52.1053 162.344 51.1667 163.527 50.5543L163.975 51.0214C164.757 50.7699 164.637 50.3858 164.375 50.1133Z" fill="white"/>
<path d="M165.772 57.4709C168.333 55.7029 170.664 56.6733 172.085 58.7313C173.689 61.0559 173.204 62.8552 170.937 64.2891L168.055 60.1138L167.478 60.5124C165.73 61.7184 164.761 62.8469 165.752 64.2831C166.508 65.3787 167.715 65.6387 169.08 65.1775L169.219 65.4746C167.711 66.013 166.202 65.9176 164.751 63.8152C162.932 61.1797 163.625 58.9528 165.772 57.4709ZM168.361 59.9243L169.414 61.4493L170.139 60.9485C171.694 59.8754 172.131 59.3993 171.711 58.7922C171.354 58.274 170.656 58.3402 169.087 59.4235L168.361 59.9243Z" fill="white"/>
<path d="M182.466 119.952L182.657 119.018L176.752 117.813L176.518 118.958L176.183 118.89L177.353 113.161L177.688 113.23L177.454 114.375L189.123 116.758L189.357 115.612L189.692 115.68L188.605 121.004C187.853 124.688 187.105 126.371 184.531 125.846C182.381 125.407 181.977 124.149 182.2 122.248L182.147 122.237C181.511 124.091 180.638 124.592 178.593 124.174L177.659 123.984C176.513 123.75 176.097 123.72 175.996 124.213C175.931 124.531 176.018 124.824 177.346 125.334L177.25 125.626C175.294 124.952 174.884 124.354 175.219 122.714C175.672 120.493 176.546 119.992 179.031 120.5L180.318 120.762C181.569 121.018 182.272 120.904 182.466 119.952ZM188.421 120.195L182.992 119.086L182.877 119.651C182.61 120.955 183.196 121.772 185.1 122.161L185.611 122.265C187.586 122.668 188.05 122.01 188.302 120.777L188.421 120.195Z" fill="white"/>
<path d="M178.406 127.846C181.316 128.95 181.842 131.42 180.955 133.758C179.954 136.399 178.197 137.022 175.729 135.97L177.528 131.227L176.872 130.978C174.887 130.225 173.408 130.068 172.789 131.7C172.317 132.944 172.788 134.085 173.943 134.947L173.778 135.23C172.478 134.295 171.7 132.999 172.605 130.61C173.741 127.616 175.967 126.921 178.406 127.846ZM177.858 131.371L177.201 133.104L178.026 133.416C179.792 134.086 180.432 134.175 180.693 133.485C180.916 132.896 180.466 132.36 178.683 131.684L177.858 131.371Z" fill="white"/>
<path d="M171.486 143.152L171.225 143.603L172.425 144.296C174.403 145.438 175.017 145.564 175.376 144.941C175.538 144.66 175.675 144.136 175.176 143.849C175.051 143.777 174.878 143.718 174.67 143.681L174.445 144.071C174.198 144.032 173.968 143.962 173.672 143.791C172.94 143.368 172.799 142.497 173.249 141.718C173.806 140.752 174.552 140.684 175.315 141.125C176.624 141.88 176.575 143.368 175.352 145.487C173.939 147.933 172.777 148.363 170.518 147.059L167.355 145.233C166.716 144.864 166.437 144.952 166.284 145.217C166.122 145.498 166.265 145.933 167.529 146.767L167.379 146.992C165.554 145.834 165.357 144.952 166.131 143.612C166.859 142.35 167.654 141.874 168.525 142.128C167.921 141.446 167.777 140.761 168.406 139.67C169.036 138.58 170.065 137.553 171.623 138.453C173.197 139.361 172.772 140.924 171.486 143.152ZM168.418 141.089C168.247 141.385 168.53 142.047 169.527 142.623L170.976 143.459L171.039 143.35C171.417 142.696 171.129 142.115 170.179 141.566L169.929 141.422C168.808 140.774 168.589 140.793 168.418 141.089Z" fill="white"/>
<path d="M161.659 150.992C161.329 151.396 161.264 152.272 162.31 153.125L165.348 155.606C166.1 156.22 167.022 156.485 167.523 155.872C168.08 155.189 167.372 154.378 165.435 152.797L164.71 152.205C162.745 150.601 162.149 150.393 161.659 150.992ZM160.266 151.759L161.367 152.402C160.909 151.541 160.935 150.656 161.822 149.569C163.085 148.022 164.983 147.946 167.324 149.857C169.679 151.78 169.998 153.666 168.541 155.449C167.836 156.313 167.175 156.61 166.538 156.508L170.649 159.865L171.343 159.015L171.594 159.22L168.75 162.704L158.549 154.375L157.991 155.058L157.741 154.853L160.266 151.759Z" fill="white"/>
<path d="M148.156 178.16L144.096 180.728L143.914 180.439L144.75 179.91L138.384 169.844L137.548 170.373L137.365 170.084L142.003 167.151L142.186 167.44L141.35 167.969L147.359 177.472L147.42 177.434L143.508 166.199L145.409 164.997L154.306 173.143L154.367 173.104L148.329 163.555L147.493 164.084L147.31 163.795L149.378 162.488L149.56 162.776L148.724 163.305L155.09 173.371L155.926 172.842L156.109 173.131L152.003 175.728L145.029 169.176L148.156 178.16Z" fill="white"/>
<path d="M133.849 175.125L134.448 176.532C135.21 178.319 135.809 179.589 136.736 179.194C137.746 178.764 137.245 177.452 136.449 175.582L135.899 174.291C135.081 172.371 134.519 171.144 133.509 171.574C132.566 171.976 132.932 172.973 133.849 175.125ZM139.337 173.549C140.494 176.264 139.478 178.378 136.813 179.513C134.033 180.698 132.152 179.955 131.009 177.273C129.853 174.559 130.469 172.517 133.415 171.262C136.196 170.077 138.237 170.967 139.337 173.549Z" fill="white"/>
<path d="M122.649 183.368C123.487 183.161 123.963 181.71 123.576 180.138L122.422 175.456L121.182 175.762L121.104 175.448L126.554 174.104L126.632 174.419L125.671 174.656L127.565 182.342L128.526 182.105L128.604 182.419L124.394 183.457L123.981 181.78C123.972 183.098 123.144 183.95 122.096 184.208C121.066 184.462 120.111 184.123 119.784 182.796C119.539 181.8 119.899 181.007 120.842 180.775C122.013 180.486 122.752 181.082 122.691 182.413L122.062 182.568C121.89 183.37 122.282 183.458 122.649 183.368Z" fill="white"/>
<path d="M115.579 180.899C115.829 184.001 113.823 185.535 111.331 185.736C108.515 185.963 107.199 184.644 107.091 181.963L112.148 181.555L112.092 180.856C111.921 178.74 111.429 177.335 109.689 177.476C108.362 177.583 107.534 178.498 107.25 179.911L106.923 179.883C107.211 178.308 108.048 177.049 110.595 176.843C113.787 176.585 115.369 178.299 115.579 180.899ZM112.159 181.915L110.312 182.064L110.383 182.943C110.535 184.826 110.729 185.442 111.464 185.382C112.092 185.332 112.384 184.695 112.23 182.794L112.159 181.915Z" fill="white"/>
<path fill-rule="evenodd" clip-rule="evenodd" d="M88.577 91.5753C88.9407 91.5806 89.2759 91.7735 89.4631 92.0855L104.275 116.772L102.473 117.854L88.533 94.621L73.6474 117.88L71.877 116.747L87.6766 92.0597C87.8727 91.7533 88.2133 91.5701 88.577 91.5753Z" fill="white"/>
<path fill-rule="evenodd" clip-rule="evenodd" d="M103.39 91.5753C103.753 91.5806 104.088 91.7735 104.276 92.0855L119.088 116.772L117.285 117.854L103.346 94.621L88.4599 117.88L86.6895 116.747L102.489 92.0597C102.685 91.7533 103.026 91.5701 103.39 91.5753Z" fill="white"/>
<path fill-rule="evenodd" clip-rule="evenodd" d="M103.374 91.5752H135.961V93.6772H103.374V91.5752Z" fill="white"/>
<path fill-rule="evenodd" clip-rule="evenodd" d="M107.323 97.5002L136.948 97.5002V99.6023H107.323V97.5002Z" fill="white"/>
<path fill-rule="evenodd" clip-rule="evenodd" d="M110.223 103.424L138 103.424L138 105.526L110.223 105.526L110.223 103.424Z" fill="white"/>
<path fill-rule="evenodd" clip-rule="evenodd" d="M137.999 103.424L137.999 117.376L135.897 117.376L135.897 103.424L137.999 103.424Z" fill="white"/>
<path fill-rule="evenodd" clip-rule="evenodd" d="M137.999 117.376L117.135 117.376L117.135 115.274L137.999 115.274L137.999 117.376Z" fill="white"/>
</svg>
