<svg width="233" height="42" viewBox="0 0 233 42" fill="none" xmlns="http://www.w3.org/2000/svg">
<path d="M38.9959 20.728C38.9959 36.52 29.4199 41 16.0359 41H0.187871V39.936H3.88387L3.88387 2.864L0.187871 2.864L0.187871 1.8L17.4919 1.8C31.3239 1.8 38.9959 6.784 38.9959 20.728ZM14.8039 39.936H16.9319C24.4919 39.936 27.4599 35.064 27.4599 22.52V19.272C27.4599 5.664 23.9879 2.864 16.1479 2.864H14.8039L14.8039 39.936ZM58.8133 29.968V25.208C58.8133 19.16 58.6453 14.792 55.5093 14.792C52.0933 14.792 51.9253 19.16 51.9253 25.488V29.856C51.9253 36.352 52.0373 40.552 55.4533 40.552C58.6453 40.552 58.8133 37.248 58.8133 29.968ZM41.1733 27.784C41.1733 18.6 46.6613 13.784 55.6773 13.784C65.0853 13.784 69.5653 18.208 69.5653 27.28C69.5653 36.464 65.3093 41.56 55.3413 41.56C45.9333 41.56 41.1733 36.52 41.1733 27.784ZM70.1236 14.344L83.6196 14.344V19.496C84.5716 16.696 86.4196 13.784 91.9636 13.784C97.1716 13.784 100.644 16.36 100.644 23.136V39.992H103.78V41H87.9316V39.992H90.2276V21.792C90.2276 17.032 89.5556 16.472 88.1556 16.472C85.8036 16.472 83.6196 20 83.6196 24.536V39.992H86.0276V41H70.1236V39.992H73.2036V15.352H70.1236V14.344ZM116.839 27.84H118.463V23.528C118.463 16.416 117.847 14.568 115.607 14.568C114.599 14.568 112.975 15.016 112.975 16.808C112.975 17.256 113.087 17.816 113.311 18.432H114.711C114.991 19.16 115.159 19.888 115.159 20.952C115.159 23.584 113.031 25.32 110.231 25.32C106.759 25.32 105.415 23.416 105.415 20.672C105.415 15.968 109.503 13.784 117.119 13.784C125.911 13.784 128.879 16.248 128.879 24.368V35.736C128.879 38.032 129.551 38.648 130.503 38.648C131.511 38.648 132.463 37.584 132.743 32.88L133.583 32.936C133.303 39.656 131.231 41.56 126.415 41.56C121.879 41.56 119.359 40.16 118.687 37.416C117.791 40.104 116.167 41.56 112.247 41.56C108.327 41.56 103.959 40.384 103.959 34.784C103.959 29.128 108.831 27.84 116.839 27.84ZM116.055 39.32C117.119 39.32 118.463 37.528 118.463 33.944V28.736H118.071C115.719 28.736 114.599 30.416 114.599 33.832V34.728C114.599 38.76 114.991 39.32 116.055 39.32ZM134.993 32.992V15.352H131.913V14.344H134.993V7.12L145.409 4.544V14.344L152.689 14.344V15.352H145.409V34.224C145.409 37.528 145.913 39.32 147.873 39.32C150.561 39.32 152.241 36.856 152.745 33.048L153.697 33.16C153.193 37.528 151.345 41.56 144.513 41.56C138.969 41.56 134.993 39.936 134.993 32.992ZM155.856 5.272C155.856 2.528 157.368 0.0639997 161.568 0.0639997C165.04 0.0639997 167.112 1.8 167.112 5.216C167.112 8.184 165.488 10.48 161.456 10.48C156.92 10.48 155.856 7.624 155.856 5.272ZM152.888 14.344L166.608 14.344V39.992H169.744V41L153.112 41V39.992L156.192 39.992V15.352H152.888V14.344ZM187.854 29.968V25.208C187.854 19.16 187.686 14.792 184.55 14.792C181.134 14.792 180.966 19.16 180.966 25.488V29.856C180.966 36.352 181.078 40.552 184.494 40.552C187.686 40.552 187.854 37.248 187.854 29.968ZM170.214 27.784C170.214 18.6 175.702 13.784 184.718 13.784C194.126 13.784 198.606 18.208 198.606 27.28C198.606 36.464 194.35 41.56 184.382 41.56C174.974 41.56 170.214 36.52 170.214 27.784ZM199.164 14.344L212.66 14.344V19.496C213.612 16.696 215.46 13.784 221.004 13.784C226.212 13.784 229.684 16.36 229.684 23.136V39.992H232.82V41H216.972V39.992H219.268V21.792C219.268 17.032 218.596 16.472 217.196 16.472C214.844 16.472 212.66 20 212.66 24.536V39.992H215.068V41H199.164V39.992H202.244V15.352H199.164V14.344Z" fill="white"/>
<path d="M0.187871 41H-0.812129L-0.812129 42H0.187871L0.187871 41ZM0.187871 39.936L0.187871 38.936H-0.812129L-0.812129 39.936H0.187871ZM3.88387 39.936L3.88387 40.936H4.88387L4.88387 39.936H3.88387ZM3.88387 2.864H4.88387V1.864H3.88387V2.864ZM0.187871 2.864H-0.812129L-0.812129 3.864H0.187871L0.187871 2.864ZM0.187871 1.8L0.187871 0.799997L-0.812129 0.799997L-0.812129 1.8H0.187871ZM14.8039 39.936H13.8039V40.936H14.8039V39.936ZM14.8039 2.864V1.864L13.8039 1.864V2.864L14.8039 2.864ZM37.9959 20.728C37.9959 28.4118 35.6777 33.1386 31.9294 35.9901C28.1235 38.8855 22.6521 40 16.0359 40V42C22.8036 42 28.8122 40.8745 33.1403 37.5819C37.5261 34.2454 39.9959 28.8362 39.9959 20.728H37.9959ZM16.0359 40H0.187871L0.187871 42H16.0359V40ZM1.18787 41V39.936H-0.812129L-0.812129 41H1.18787ZM0.187871 40.936H3.88387L3.88387 38.936H0.187871L0.187871 40.936ZM4.88387 39.936L4.88387 2.864L2.88387 2.864L2.88387 39.936H4.88387ZM3.88387 1.864L0.187871 1.864L0.187871 3.864L3.88387 3.864V1.864ZM1.18787 2.864V1.8L-0.812129 1.8L-0.812129 2.864L1.18787 2.864ZM0.187871 2.8L17.4919 2.8V0.799997L0.187871 0.799997L0.187871 2.8ZM17.4919 2.8C24.3229 2.8 29.4161 4.0375 32.797 6.80843C36.1341 9.54344 37.9959 13.9373 37.9959 20.728H39.9959C39.9959 13.5746 38.0217 8.50456 34.0648 5.26157C30.1517 2.05449 24.4929 0.799997 17.4919 0.799997V2.8ZM14.8039 40.936H16.9319V38.936H14.8039V40.936ZM16.9319 40.936C18.9253 40.936 20.6885 40.6153 22.2038 39.8779C23.7311 39.1347 24.9507 37.9949 25.8863 36.45C27.7246 33.4141 28.4599 28.8198 28.4599 22.52H26.4599C26.4599 28.7642 25.7112 32.8779 24.1755 35.414C23.424 36.6551 22.4842 37.5173 21.3287 38.0796C20.1612 38.6477 18.7185 38.936 16.9319 38.936V40.936ZM28.4599 22.52V19.272H26.4599V22.52H28.4599ZM28.4599 19.272C28.4599 12.4552 27.6063 8.04444 25.5363 5.35506C23.393 2.57035 20.1485 1.864 16.1479 1.864V3.864C19.9873 3.864 22.3988 4.55764 23.9514 6.57493C25.5775 8.68756 26.4599 12.4808 26.4599 19.272H28.4599ZM16.1479 1.864H14.8039V3.864H16.1479V1.864ZM13.8039 2.864L13.8039 39.936H15.8039L15.8039 2.864L13.8039 2.864ZM59.8133 29.968V25.208H57.8133V29.968H59.8133ZM59.8133 25.208C59.8133 22.2166 59.7766 19.4868 59.3108 17.5034C59.0764 16.5053 58.7096 15.5817 58.0895 14.8975C57.433 14.173 56.56 13.792 55.5093 13.792V15.792C56.0266 15.792 56.3506 15.957 56.6076 16.2405C56.901 16.5643 57.1642 17.1107 57.3638 17.9606C57.766 19.6732 57.8133 22.1514 57.8133 25.208H59.8133ZM55.5093 13.792C54.4161 13.792 53.4969 14.1531 52.7925 14.8749C52.1208 15.5632 51.721 16.5014 51.466 17.5253C50.9612 19.5519 50.9253 22.361 50.9253 25.488H52.9253C52.9253 22.287 52.9734 19.7481 53.4067 18.0087C53.6206 17.1496 53.9033 16.6003 54.2239 16.2718C54.5117 15.9769 54.8945 15.792 55.5093 15.792V13.792ZM50.9253 25.488V29.856H52.9253V25.488H50.9253ZM50.9253 29.856C50.9253 33.0606 50.947 35.8724 51.4369 37.8774C51.6849 38.8924 52.0785 39.8201 52.7507 40.4982C53.4551 41.2089 54.3715 41.552 55.4533 41.552V39.552C54.8272 39.552 54.4485 39.3701 54.1712 39.0903C53.8616 38.7779 53.5867 38.2496 53.3797 37.4026C52.9597 35.6836 52.9253 33.1474 52.9253 29.856H50.9253ZM55.4533 41.552C56.4335 41.552 57.3056 41.2927 57.9986 40.6611C58.6669 40.0519 59.0553 39.1977 59.2995 38.2362C59.7783 36.3513 59.8133 33.5597 59.8133 29.968H57.8133C57.8133 33.6563 57.7643 36.1567 57.3611 37.7438C57.1643 38.5183 56.9122 38.9451 56.6513 39.1829C56.415 39.3983 56.0691 39.552 55.4533 39.552V41.552ZM42.1733 27.784C42.1733 23.3939 43.4796 20.1859 45.7297 18.0682C47.9894 15.9414 51.3391 14.784 55.6773 14.784V12.784C50.9995 12.784 47.0972 14.0346 44.3589 16.6118C41.611 19.1981 40.1733 22.9901 40.1733 27.784H42.1733ZM55.6773 14.784C60.2424 14.784 63.4139 15.8584 65.451 17.8458C67.4832 19.8284 68.5653 22.895 68.5653 27.28H70.5653C70.5653 22.593 69.4074 18.9116 66.8476 16.4142C64.2927 13.9216 60.5202 12.784 55.6773 12.784V14.784ZM68.5653 27.28C68.5653 31.7361 67.5313 35.0101 65.4677 37.1738C63.4126 39.3285 60.1655 40.56 55.3413 40.56V42.56C60.4851 42.56 64.35 41.2435 66.915 38.5542C69.4713 35.8739 70.5653 32.0079 70.5653 27.28H68.5653ZM55.3413 40.56C50.8092 40.56 47.5563 39.3483 45.4343 37.2388C43.3129 35.1299 42.1733 31.9763 42.1733 27.784H40.1733C40.1733 32.3277 41.4137 36.0621 44.0243 38.6572C46.6343 41.2517 50.4654 42.56 55.3413 42.56V40.56ZM70.1236 14.344V13.344H69.1236V14.344H70.1236ZM83.6196 14.344H84.6196V13.344H83.6196V14.344ZM83.6196 19.496H82.6196L84.5663 19.8179L83.6196 19.496ZM100.644 39.992H99.6436V40.992H100.644V39.992ZM103.78 39.992H104.78V38.992H103.78V39.992ZM103.78 41V42H104.78V41H103.78ZM87.9316 41H86.9316V42H87.9316V41ZM87.9316 39.992V38.992H86.9316V39.992H87.9316ZM90.2276 39.992V40.992H91.2276V39.992H90.2276ZM83.6196 39.992H82.6196V40.992H83.6196V39.992ZM86.0276 39.992H87.0276V38.992H86.0276V39.992ZM86.0276 41V42H87.0276V41H86.0276ZM70.1236 41H69.1236V42H70.1236V41ZM70.1236 39.992V38.992H69.1236V39.992H70.1236ZM73.2036 39.992V40.992H74.2036V39.992H73.2036ZM73.2036 15.352H74.2036V14.352H73.2036V15.352ZM70.1236 15.352H69.1236V16.352H70.1236V15.352ZM70.1236 15.344L83.6196 15.344V13.344L70.1236 13.344V15.344ZM82.6196 14.344V19.496H84.6196V14.344H82.6196ZM84.5663 19.8179C85.0161 18.495 85.6403 17.2632 86.7155 16.3534C87.773 15.4586 89.3763 14.784 91.9636 14.784V12.784C89.0068 12.784 86.9141 13.5654 85.4236 14.8266C83.9508 16.0728 83.175 17.697 82.6728 19.1741L84.5663 19.8179ZM91.9636 14.784C94.4162 14.784 96.2904 15.3903 97.5561 16.6327C98.8182 17.8715 99.6436 19.9085 99.6436 23.136H101.644C101.644 19.5875 100.733 16.9485 98.9571 15.2053C97.1847 13.4656 94.7189 12.784 91.9636 12.784V14.784ZM99.6436 23.136V39.992H101.644V23.136H99.6436ZM100.644 40.992H103.78V38.992H100.644V40.992ZM102.78 39.992V41H104.78V39.992H102.78ZM103.78 40H87.9316V42H103.78V40ZM88.9316 41V39.992H86.9316V41H88.9316ZM87.9316 40.992H90.2276V38.992H87.9316V40.992ZM91.2276 39.992V21.792H89.2276V39.992H91.2276ZM91.2276 21.792C91.2276 19.4355 91.0726 17.8881 90.6227 16.9241C90.3733 16.3896 90.011 15.9805 89.5087 15.7353C89.0418 15.5073 88.5528 15.472 88.1556 15.472V17.472C88.4583 17.472 88.5783 17.5067 88.6312 17.5325C88.6486 17.541 88.7168 17.5694 88.8104 17.7699C89.0465 18.2759 89.2276 19.3885 89.2276 21.792H91.2276ZM88.1556 15.472C86.457 15.472 85.0565 16.7212 84.1404 18.3015C83.1998 19.924 82.6196 22.1181 82.6196 24.536H84.6196C84.6196 22.4179 85.1313 20.58 85.8707 19.3045C86.6346 17.9868 87.5022 17.472 88.1556 17.472V15.472ZM82.6196 24.536V39.992H84.6196V24.536H82.6196ZM83.6196 40.992H86.0276V38.992H83.6196V40.992ZM85.0276 39.992V41H87.0276V39.992H85.0276ZM86.0276 40H70.1236V42H86.0276V40ZM71.1236 41V39.992H69.1236V41H71.1236ZM70.1236 40.992H73.2036V38.992H70.1236V40.992ZM74.2036 39.992V15.352H72.2036V39.992H74.2036ZM73.2036 14.352L70.1236 14.352V16.352H73.2036V14.352ZM71.1236 15.352V14.344L69.1236 14.344V15.352H71.1236ZM118.463 27.84V28.84H119.463V27.84H118.463ZM113.311 18.432L112.372 18.7737L112.611 19.432H113.311V18.432ZM114.711 18.432L115.645 18.073L115.398 17.432H114.711V18.432ZM132.743 32.88L132.81 31.8822L131.805 31.8152L131.745 32.8206L132.743 32.88ZM133.583 32.936L134.583 32.9776L134.623 32.0031L133.65 31.9382L133.583 32.936ZM118.687 37.416L119.659 37.1781L118.834 33.8125L117.739 37.0998L118.687 37.416ZM118.463 28.736H119.463V27.736H118.463V28.736ZM116.839 28.84H118.463V26.84H116.839V28.84ZM119.463 27.84V23.528H117.463V27.84H119.463ZM119.463 23.528C119.463 19.9966 119.317 17.5992 118.827 16.0751C118.575 15.2884 118.198 14.6253 117.605 14.1728C117.002 13.713 116.304 13.568 115.607 13.568V15.568C116.03 15.568 116.249 15.654 116.392 15.7629C116.544 15.8792 116.742 16.1226 116.923 16.6868C117.302 17.8648 117.463 19.9474 117.463 23.528H119.463ZM115.607 13.568C114.986 13.568 114.123 13.701 113.379 14.1705C112.577 14.677 111.975 15.5458 111.975 16.808H113.975C113.975 16.2782 114.185 16.027 114.447 15.8615C114.768 15.659 115.22 15.568 115.607 15.568V13.568ZM111.975 16.808C111.975 17.4074 112.122 18.0866 112.372 18.7737L114.251 18.0903C114.053 17.5454 113.975 17.1046 113.975 16.808H111.975ZM113.311 19.432H114.711V17.432H113.311V19.432ZM113.778 18.791C114.016 19.4093 114.159 20.0159 114.159 20.952H116.159C116.159 19.7601 115.967 18.9107 115.645 18.073L113.778 18.791ZM114.159 20.952C114.159 21.9785 113.753 22.7942 113.091 23.3667C112.417 23.9495 111.429 24.32 110.231 24.32V26.32C111.834 26.32 113.309 25.8225 114.4 24.8793C115.502 23.9258 116.159 22.5575 116.159 20.952H114.159ZM110.231 24.32C108.674 24.32 107.774 23.8969 107.25 23.34C106.715 22.7715 106.415 21.8955 106.415 20.672H104.415C104.415 22.1925 104.787 23.6405 105.793 24.71C106.809 25.7911 108.316 26.32 110.231 26.32V24.32ZM106.415 20.672C106.415 18.6792 107.245 17.2873 108.909 16.3311C110.658 15.3268 113.374 14.784 117.119 14.784V12.784C113.249 12.784 110.113 13.3332 107.913 14.5969C105.63 15.9087 104.415 17.9608 104.415 20.672H106.415ZM117.119 14.784C121.489 14.784 124.09 15.4124 125.633 16.7795C127.139 18.1139 127.879 20.3792 127.879 24.368H129.879C129.879 20.2368 129.135 17.2101 126.959 15.2825C124.821 13.3876 121.542 12.784 117.119 12.784V14.784ZM127.879 24.368V35.736H129.879V24.368H127.879ZM127.879 35.736C127.879 36.9397 128.048 37.909 128.496 38.5985C129.009 39.3871 129.773 39.648 130.503 39.648V37.648C130.281 37.648 130.233 37.6009 130.173 37.5075C130.047 37.315 129.879 36.8283 129.879 35.736H127.879ZM130.503 39.648C130.946 39.648 131.408 39.526 131.832 39.2136C132.241 38.9124 132.556 38.4788 132.802 37.9513C133.284 36.92 133.6 35.3219 133.742 32.9394L131.745 32.8206C131.607 35.1421 131.307 36.428 130.99 37.1047C130.838 37.4312 130.708 37.5576 130.646 37.6029C130.6 37.637 130.565 37.648 130.503 37.648V39.648ZM132.677 33.8778L133.517 33.9338L133.65 31.9382L132.81 31.8822L132.677 33.8778ZM132.584 32.8944C132.446 36.2104 131.865 38.0645 130.949 39.1084C130.078 40.1001 128.72 40.56 126.415 40.56V42.56C128.927 42.56 131.012 42.0679 132.452 40.4276C133.846 38.8395 134.441 36.3816 134.583 32.9776L132.584 32.8944ZM126.415 40.56C124.232 40.56 122.655 40.2201 121.578 39.6375C120.542 39.0769 119.927 38.2719 119.659 37.1781L117.716 37.6539C118.12 39.3041 119.101 40.5711 120.627 41.3965C122.112 42.1999 124.063 42.56 126.415 42.56V40.56ZM117.739 37.0998C117.33 38.3253 116.799 39.1412 116.031 39.6746C115.252 40.2153 114.095 40.56 112.247 40.56V42.56C114.32 42.56 115.934 42.1767 117.172 41.3174C118.42 40.4508 119.149 39.1947 119.636 37.7322L117.739 37.0998ZM112.247 40.56C110.354 40.56 108.509 40.2697 107.165 39.4253C105.902 38.6317 104.959 37.2742 104.959 34.784H102.959C102.959 37.8938 104.2 39.9243 106.101 41.1187C107.921 42.2623 110.221 42.56 112.247 42.56V40.56ZM104.959 34.784C104.959 33.5157 105.231 32.5713 105.69 31.849C106.148 31.1277 106.842 30.5504 107.817 30.0982C109.819 29.17 112.841 28.84 116.839 28.84V26.84C112.83 26.84 109.412 27.154 106.976 28.2838C105.732 28.8606 104.707 29.6658 104.002 30.7767C103.297 31.8867 102.959 33.2243 102.959 34.784H104.959ZM116.055 40.32C117.15 40.32 118.014 39.4535 118.544 38.4397C119.107 37.3643 119.463 35.8508 119.463 33.944H117.463C117.463 35.6212 117.147 36.7957 116.772 37.5123C116.365 38.2905 116.025 38.32 116.055 38.32V40.32ZM119.463 33.944V28.736H117.463V33.944H119.463ZM118.463 27.736H118.071V29.736H118.463V27.736ZM118.071 27.736C116.621 27.736 115.416 28.276 114.626 29.442C113.885 30.5341 113.599 32.0485 113.599 33.832H115.599C115.599 32.1995 115.873 31.1659 116.281 30.564C116.639 30.036 117.169 29.736 118.071 29.736V27.736ZM113.599 33.832V34.728H115.599V33.832H113.599ZM113.599 34.728C113.599 36.7136 113.688 38.0388 113.987 38.8736C114.151 39.3303 114.413 39.7476 114.852 40.0195C115.273 40.2801 115.719 40.32 116.055 40.32V38.32C115.859 38.32 115.858 38.2899 115.906 38.3195C115.972 38.3604 115.937 38.3857 115.87 38.1984C115.707 37.7452 115.599 36.7744 115.599 34.728H113.599ZM134.993 15.352H135.993V14.352H134.993V15.352ZM131.913 15.352H130.913V16.352H131.913V15.352ZM131.913 14.344V13.344H130.913V14.344H131.913ZM134.993 14.344V15.344H135.993V14.344H134.993ZM134.993 7.12L134.753 6.14925L133.993 6.33718V7.12H134.993ZM145.409 4.544H146.409V3.26656L145.169 3.57325L145.409 4.544ZM145.409 14.344H144.409V15.344H145.409V14.344ZM152.689 14.344H153.689V13.344H152.689V14.344ZM152.689 15.352V16.352H153.689V15.352H152.689ZM145.409 15.352V14.352H144.409V15.352H145.409ZM152.745 33.048L152.862 32.0548L151.883 31.9397L151.754 32.9168L152.745 33.048ZM153.697 33.16L154.691 33.2746L154.805 32.2834L153.814 32.1669L153.697 33.16ZM135.993 32.992V15.352H133.993V32.992H135.993ZM134.993 14.352H131.913V16.352H134.993V14.352ZM132.913 15.352V14.344H130.913V15.352H132.913ZM131.913 15.344H134.993V13.344H131.913V15.344ZM135.993 14.344V7.12H133.993V14.344H135.993ZM135.234 8.09075L145.65 5.51475L145.169 3.57325L134.753 6.14925L135.234 8.09075ZM144.409 4.544V14.344H146.409V4.544L144.409 4.544ZM145.409 15.344H152.689V13.344L145.409 13.344V15.344ZM151.689 14.344V15.352H153.689V14.344H151.689ZM152.689 14.352L145.409 14.352V16.352H152.689V14.352ZM144.409 15.352V34.224H146.409V15.352H144.409ZM144.409 34.224C144.409 35.8804 144.528 37.3395 144.988 38.4067C145.228 38.9641 145.581 39.4628 146.099 39.8152C146.621 40.17 147.227 40.32 147.873 40.32V38.32C147.54 38.32 147.348 38.246 147.224 38.1615C147.096 38.0747 146.956 37.9189 146.825 37.6153C146.543 36.9605 146.409 35.8716 146.409 34.224H144.409ZM147.873 40.32C149.572 40.32 150.946 39.5224 151.928 38.212C152.887 36.9343 153.472 35.181 153.737 33.1792L151.754 32.9168C151.515 34.723 151.008 36.1057 150.328 37.012C149.673 37.8857 148.863 38.32 147.873 38.32V40.32ZM152.629 34.0411L153.581 34.1532L153.814 32.1669L152.862 32.0548L152.629 34.0411ZM152.704 33.0454C152.461 35.1513 151.908 37.0071 150.73 38.3343C149.587 39.6228 147.721 40.56 144.513 40.56V42.56C148.138 42.56 150.612 41.4812 152.226 39.6617C153.807 37.8809 154.43 35.5367 154.691 33.2746L152.704 33.0454ZM144.513 40.56C141.796 40.56 139.695 40.1524 138.277 39.082C136.923 38.0595 135.993 36.2713 135.993 32.992H133.993C133.993 36.6567 135.052 39.1525 137.072 40.678C139.028 42.1556 141.687 42.56 144.513 42.56V40.56ZM152.888 14.344V13.344H151.888V14.344H152.888ZM166.608 14.344H167.608V13.344H166.608V14.344ZM166.608 39.992H165.608V40.992H166.608V39.992ZM169.744 39.992H170.744V38.992H169.744V39.992ZM169.744 41V42H170.744V41H169.744ZM153.112 41H152.112V42H153.112V41ZM153.112 39.992V38.992H152.112V39.992H153.112ZM156.192 39.992V40.992H157.192V39.992H156.192ZM156.192 15.352H157.192V14.352H156.192V15.352ZM152.888 15.352H151.888V16.352H152.888V15.352ZM156.856 5.272C156.856 4.07315 157.186 3.04606 157.866 2.32453C158.533 1.61589 159.668 1.064 161.568 1.064V-0.936C159.269 -0.936 157.548 -0.255893 156.409 0.953468C155.283 2.14994 154.856 3.72684 154.856 5.272L156.856 5.272ZM161.568 1.064C163.151 1.064 164.263 1.45969 164.972 2.10066C165.664 2.72675 166.112 3.71516 166.112 5.216L168.112 5.216C168.112 3.30084 167.525 1.71325 166.313 0.617333C165.118 -0.463692 163.458 -0.936 161.568 -0.936V1.064ZM166.112 5.216C166.112 6.52623 165.755 7.56201 165.076 8.26736C164.405 8.96452 163.283 9.48 161.456 9.48V11.48C163.662 11.48 165.368 10.8475 166.517 9.65464C167.658 8.46999 168.112 6.87376 168.112 5.216L166.112 5.216ZM161.456 9.48C159.411 9.48 158.326 8.84677 157.726 8.12098C157.097 7.35906 156.856 6.32017 156.856 5.272L154.856 5.272C154.856 6.57582 155.148 8.14094 156.185 9.39502C157.251 10.6852 158.966 11.48 161.456 11.48V9.48ZM152.888 15.344L166.608 15.344V13.344L152.888 13.344V15.344ZM165.608 14.344V39.992H167.608V14.344H165.608ZM166.608 40.992H169.744V38.992H166.608V40.992ZM168.744 39.992V41H170.744V39.992H168.744ZM169.744 40L153.112 40V42L169.744 42V40ZM154.112 41V39.992L152.112 39.992V41L154.112 41ZM153.112 40.992L156.192 40.992V38.992L153.112 38.992V40.992ZM157.192 39.992V15.352H155.192V39.992H157.192ZM156.192 14.352H152.888V16.352H156.192V14.352ZM153.888 15.352V14.344H151.888V15.352H153.888ZM188.854 29.968V25.208H186.854V29.968H188.854ZM188.854 25.208C188.854 22.2166 188.817 19.4868 188.351 17.5034C188.117 16.5053 187.75 15.5817 187.13 14.8975C186.474 14.173 185.601 13.792 184.55 13.792V15.792C185.067 15.792 185.391 15.957 185.648 16.2405C185.942 16.5643 186.205 17.1107 186.404 17.9606C186.807 19.6732 186.854 22.1514 186.854 25.208H188.854ZM184.55 13.792C183.457 13.792 182.538 14.1531 181.833 14.8749C181.161 15.5632 180.762 16.5014 180.507 17.5253C180.002 19.5519 179.966 22.361 179.966 25.488H181.966C181.966 22.287 182.014 19.7481 182.447 18.0087C182.661 17.1496 182.944 16.6003 183.264 16.2718C183.552 15.9769 183.935 15.792 184.55 15.792V13.792ZM179.966 25.488V29.856H181.966V25.488H179.966ZM179.966 29.856C179.966 33.0606 179.988 35.8724 180.478 37.8774C180.726 38.8924 181.119 39.8201 181.791 40.4982C182.496 41.2089 183.412 41.552 184.494 41.552V39.552C183.868 39.552 183.489 39.3701 183.212 39.0903C182.902 38.7779 182.627 38.2496 182.42 37.4026C182 35.6836 181.966 33.1474 181.966 29.856H179.966ZM184.494 41.552C185.474 41.552 186.346 41.2927 187.039 40.6611C187.708 40.0519 188.096 39.1977 188.34 38.2362C188.819 36.3513 188.854 33.5597 188.854 29.968H186.854C186.854 33.6563 186.805 36.1567 186.402 37.7438C186.205 38.5183 185.953 38.9451 185.692 39.1829C185.456 39.3983 185.11 39.552 184.494 39.552V41.552ZM171.214 27.784C171.214 23.3939 172.52 20.1859 174.77 18.0682C177.03 15.9414 180.38 14.784 184.718 14.784V12.784C180.04 12.784 176.138 14.0346 173.4 16.6118C170.652 19.1981 169.214 22.9901 169.214 27.784H171.214ZM184.718 14.784C189.283 14.784 192.455 15.8584 194.492 17.8458C196.524 19.8284 197.606 22.895 197.606 27.28H199.606C199.606 22.593 198.448 18.9116 195.888 16.4142C193.333 13.9216 189.561 12.784 184.718 12.784V14.784ZM197.606 27.28C197.606 31.7361 196.572 35.0101 194.508 37.1738C192.453 39.3285 189.206 40.56 184.382 40.56V42.56C189.526 42.56 193.391 41.2435 195.956 38.5542C198.512 35.8739 199.606 32.0079 199.606 27.28H197.606ZM184.382 40.56C179.85 40.56 176.597 39.3483 174.475 37.2388C172.354 35.1299 171.214 31.9763 171.214 27.784H169.214C169.214 32.3277 170.454 36.0621 173.065 38.6572C175.675 41.2517 179.506 42.56 184.382 42.56V40.56ZM199.164 14.344V13.344H198.164V14.344H199.164ZM212.66 14.344H213.66V13.344H212.66V14.344ZM212.66 19.496H211.66L213.607 19.8179L212.66 19.496ZM229.684 39.992H228.684V40.992H229.684V39.992ZM232.82 39.992H233.82V38.992H232.82V39.992ZM232.82 41V42H233.82V41H232.82ZM216.972 41H215.972V42H216.972V41ZM216.972 39.992V38.992H215.972V39.992H216.972ZM219.268 39.992V40.992H220.268V39.992H219.268ZM212.66 39.992H211.66V40.992H212.66V39.992ZM215.068 39.992H216.068V38.992H215.068V39.992ZM215.068 41V42H216.068V41H215.068ZM199.164 41H198.164V42H199.164V41ZM199.164 39.992V38.992H198.164V39.992H199.164ZM202.244 39.992V40.992H203.244V39.992H202.244ZM202.244 15.352H203.244V14.352H202.244V15.352ZM199.164 15.352H198.164V16.352H199.164V15.352ZM199.164 15.344L212.66 15.344V13.344L199.164 13.344V15.344ZM211.66 14.344V19.496H213.66V14.344H211.66ZM213.607 19.8179C214.057 18.495 214.681 17.2632 215.756 16.3534C216.814 15.4586 218.417 14.784 221.004 14.784V12.784C218.047 12.784 215.955 13.5654 214.464 14.8266C212.991 16.0728 212.216 17.697 211.713 19.1741L213.607 19.8179ZM221.004 14.784C223.457 14.784 225.331 15.3903 226.597 16.6327C227.859 17.8715 228.684 19.9085 228.684 23.136H230.684C230.684 19.5875 229.774 16.9485 227.998 15.2053C226.225 13.4656 223.76 12.784 221.004 12.784V14.784ZM228.684 23.136V39.992H230.684V23.136H228.684ZM229.684 40.992H232.82V38.992H229.684V40.992ZM231.82 39.992V41H233.82V39.992H231.82ZM232.82 40H216.972V42H232.82V40ZM217.972 41V39.992H215.972V41H217.972ZM216.972 40.992H219.268V38.992H216.972V40.992ZM220.268 39.992V21.792H218.268V39.992H220.268ZM220.268 21.792C220.268 19.4355 220.113 17.8881 219.663 16.9241C219.414 16.3896 219.052 15.9805 218.549 15.7353C218.082 15.5073 217.593 15.472 217.196 15.472V17.472C217.499 17.472 217.619 17.5067 217.672 17.5325C217.689 17.541 217.757 17.5694 217.851 17.7699C218.087 18.2759 218.268 19.3885 218.268 21.792H220.268ZM217.196 15.472C215.498 15.472 214.097 16.7212 213.181 18.3015C212.24 19.924 211.66 22.1181 211.66 24.536H213.66C213.66 22.4179 214.172 20.58 214.911 19.3045C215.675 17.9868 216.543 17.472 217.196 17.472V15.472ZM211.66 24.536V39.992H213.66V24.536H211.66ZM212.66 40.992H215.068V38.992H212.66V40.992ZM214.068 39.992V41H216.068V39.992H214.068ZM215.068 40H199.164V42H215.068V40ZM200.164 41V39.992H198.164V41H200.164ZM199.164 40.992H202.244V38.992H199.164V40.992ZM203.244 39.992V15.352H201.244V39.992H203.244ZM202.244 14.352H199.164V16.352H202.244V14.352ZM200.164 15.352V14.344H198.164V15.352H200.164Z" fill="#7F40FF" fill-opacity="0.6"/>
</svg>
