<svg width="749" height="134" viewBox="0 0 749 134" fill="none" xmlns="http://www.w3.org/2000/svg">
<path opacity="0.4" d="M0.675325 132H-0.324675V133H0.675325L0.675325 132ZM0.675325 128.58V127.58H-0.324675L-0.324675 128.58H0.675325ZM12.5553 128.58V129.58H13.5553V128.58H12.5553ZM12.5553 9.41999L13.5553 9.41999V8.41999L12.5553 8.41999V9.41999ZM0.675325 9.41999H-0.324675L-0.324675 10.42H0.675325V9.41999ZM0.675325 5.99999L0.675325 4.99999H-0.324675V5.99999H0.675325ZM47.6553 128.58H46.6553V129.58H47.6553V128.58ZM47.6553 9.41999V8.41999H46.6553V9.41999H47.6553ZM124.415 66.84C124.415 92.0078 116.796 107.957 104.042 117.659C91.231 127.406 73.0496 131 51.6153 131V133C73.2011 133 91.9197 129.395 105.253 119.251C118.645 109.063 126.415 92.4322 126.415 66.84H124.415ZM51.6153 131H0.675325L0.675325 133H51.6153V131ZM1.67532 132V128.58H-0.324675L-0.324675 132H1.67532ZM0.675325 129.58H12.5553V127.58H0.675325V129.58ZM13.5553 128.58L13.5553 9.41999L11.5553 9.41999L11.5553 128.58H13.5553ZM12.5553 8.41999L0.675325 8.41999V10.42L12.5553 10.42V8.41999ZM1.67532 9.41999V5.99999L-0.324675 5.99999L-0.324675 9.41999L1.67532 9.41999ZM0.675325 6.99999L56.2953 6.99999V4.99999L0.675325 4.99999L0.675325 6.99999ZM56.2953 6.99999C78.4403 6.99999 95.4375 10.9965 106.894 20.3859C118.307 29.7394 124.415 44.6113 124.415 66.84H126.415C126.415 44.2486 120.194 28.7006 108.162 18.8391C96.1731 9.01349 78.6103 4.99999 56.2953 4.99999V6.99999ZM47.6553 129.58H54.4953V127.58H47.6553V129.58ZM54.4953 129.58C60.6737 129.58 65.9865 128.585 70.472 126.402C74.9694 124.214 78.5799 120.857 81.3832 116.228C86.957 107.023 89.3353 92.7878 89.3353 72.6H87.3353C87.3353 92.7322 84.9436 106.487 79.6724 115.192C77.0532 119.518 73.7225 122.596 69.5968 124.604C65.4592 126.617 60.4669 127.58 54.4953 127.58V129.58ZM89.3353 72.6V62.16H87.3353V72.6H89.3353ZM89.3353 62.16C89.3353 40.2772 86.5597 26.7834 80.3978 18.7776C74.1624 10.6763 64.6559 8.41999 51.9753 8.41999V10.42C64.4947 10.42 73.1682 12.6636 78.8129 19.9974C84.5309 27.4266 87.3353 40.3028 87.3353 62.16H89.3353ZM51.9753 8.41999H47.6553V10.42H51.9753V8.41999ZM46.6553 9.41999L46.6553 128.58H48.6553L48.6553 9.41999H46.6553ZM190.114 96.54L190.114 81.24H188.114L188.114 96.54H190.114ZM190.114 81.24C190.114 71.5526 189.985 63.0568 188.558 56.9814C187.843 53.9373 186.779 51.3862 185.147 49.586C183.479 47.7455 181.281 46.76 178.494 46.76V48.76C180.748 48.76 182.397 49.5295 183.665 50.929C184.97 52.3688 185.931 54.5427 186.611 57.4386C187.974 63.2432 188.114 71.4874 188.114 81.24H190.114ZM178.494 46.76C175.51 46.76 173.149 47.7256 171.346 49.5731C169.576 51.3871 168.421 53.9721 167.646 57.0808C166.103 63.2769 165.974 72.007 165.974 82.14H167.974C167.974 71.933 168.115 63.4731 169.587 57.5642C170.32 54.6204 171.359 52.4242 172.778 50.97C174.164 49.5494 175.988 48.76 178.494 48.76V46.76ZM165.974 82.14L165.974 96.18H167.974L167.974 82.14H165.974ZM165.974 96.18C165.974 106.577 166.058 115.309 167.555 121.437C168.307 124.514 169.441 127.054 171.2 128.828C172.991 130.636 175.341 131.56 178.314 131.56V129.56C175.797 129.56 173.985 128.797 172.62 127.42C171.224 126.011 170.209 123.871 169.498 120.963C168.071 115.121 167.974 106.663 167.974 96.18H165.974ZM178.314 131.56C181.061 131.56 183.282 130.843 185.004 129.274C186.701 127.727 187.798 125.455 188.531 122.571C189.986 116.842 190.114 108.192 190.114 96.54H188.114C188.114 108.288 187.972 116.648 186.593 122.079C185.908 124.775 184.946 126.62 183.657 127.796C182.391 128.949 180.697 129.56 178.314 129.56V131.56ZM133.414 89.52C133.414 74.9619 137.758 64.0039 145.542 56.6782C153.335 49.3434 164.714 45.52 179.034 45.52V43.52C164.374 43.52 152.443 47.4366 144.171 55.2218C135.89 63.0161 131.414 74.5581 131.414 89.52H133.414ZM179.034 45.52C194.015 45.52 204.875 49.0434 211.996 55.9908C219.112 62.9334 222.674 73.471 222.674 87.9H224.674C224.674 73.169 221.036 62.0166 213.393 54.5592C205.754 47.1066 194.293 43.52 179.034 43.52V45.52ZM222.674 87.9C222.674 102.524 219.284 113.703 212.106 121.23C204.936 128.748 193.814 132.8 177.954 132.8V134.8C194.134 134.8 205.873 130.662 213.553 122.61C221.224 114.567 224.674 102.796 224.674 87.9H222.674ZM177.954 132.8C163.006 132.8 151.91 128.798 144.549 121.481C137.189 114.164 133.414 103.384 133.414 89.52H131.414C131.414 103.736 135.29 115.096 143.139 122.899C150.988 130.702 162.662 134.8 177.954 134.8V132.8ZM225.469 46.32V45.32H224.469V46.32H225.469ZM268.849 46.32H269.849V45.32H268.849V46.32ZM268.849 62.88H267.849L269.795 63.2019L268.849 62.88ZM323.569 128.76H322.569V129.76H323.569V128.76ZM333.649 128.76H334.649V127.76H333.649V128.76ZM333.649 132V133H334.649V132H333.649ZM282.709 132H281.709V133H282.709V132ZM282.709 128.76V127.76H281.709V128.76H282.709ZM290.089 128.76V129.76H291.089V128.76H290.089ZM268.849 128.76H267.849V129.76H268.849V128.76ZM276.589 128.76H277.589V127.76H276.589V128.76ZM276.589 132V133H277.589V132H276.589ZM225.469 132H224.469V133H225.469V132ZM225.469 128.76V127.76H224.469V128.76H225.469ZM235.369 128.76V129.76H236.369V128.76H235.369ZM235.369 49.56H236.369V48.56H235.369V49.56ZM225.469 49.56H224.469V50.56H225.469V49.56ZM225.469 47.32L268.849 47.32V45.32L225.469 45.32V47.32ZM267.849 46.32V62.88H269.849V46.32H267.849ZM269.795 63.2019C271.299 58.779 273.473 54.3852 277.37 51.0884C281.248 47.8066 286.943 45.52 295.669 45.52V43.52C286.574 43.52 280.389 45.9134 276.078 49.5616C271.784 53.1948 269.458 57.981 267.902 62.5581L269.795 63.2019ZM295.669 45.52C303.887 45.52 310.566 47.5523 315.196 52.0961C319.821 56.6365 322.569 63.8505 322.569 74.58H324.569C324.569 63.5295 321.736 55.7135 316.597 50.6688C311.461 45.6276 304.19 43.52 295.669 43.52V45.52ZM322.569 74.58V128.76H324.569V74.58H322.569ZM323.569 129.76H333.649V127.76H323.569V129.76ZM332.649 128.76V132H334.649V128.76H332.649ZM333.649 131H282.709V133H333.649V131ZM283.709 132V128.76H281.709V132H283.709ZM282.709 129.76H290.089V127.76H282.709V129.76ZM291.089 128.76V70.26H289.089V128.76H291.089ZM291.089 70.26C291.089 62.6335 290.562 58.1411 289.352 55.5496C288.723 54.2014 287.884 53.3079 286.806 52.7817C285.764 52.2728 284.601 52.16 283.429 52.16V54.16C284.506 54.16 285.301 54.2722 285.929 54.5789C286.522 54.8684 287.067 55.3811 287.54 56.3954C288.536 58.5289 289.089 62.5865 289.089 70.26H291.089ZM283.429 52.16C279.126 52.16 275.215 55.3622 272.438 60.151C269.638 64.982 267.849 71.64 267.849 79.08H269.849C269.849 71.9399 271.569 65.638 274.169 61.154C276.793 56.6278 280.171 54.16 283.429 54.16V52.16ZM267.849 79.08V128.76H269.849V79.08H267.849ZM268.849 129.76H276.589V127.76H268.849V129.76ZM275.589 128.76V132H277.589V128.76H275.589ZM276.589 131L225.469 131V133L276.589 133V131ZM226.469 132V128.76H224.469V132H226.469ZM225.469 129.76H235.369V127.76H225.469V129.76ZM236.369 128.76L236.369 49.56H234.369L234.369 128.76H236.369ZM235.369 48.56H225.469V50.56H235.369V48.56ZM226.469 49.56V46.32H224.469V49.56H226.469ZM380.847 89.7V90.7H381.847V89.7H380.847ZM364.287 59.46L363.347 59.8017L363.586 60.46H364.287V59.46ZM368.787 59.46L369.72 59.101L369.473 58.46H368.787V59.46ZM426.747 105.9L426.813 104.902L425.808 104.835L425.748 105.841L426.747 105.9ZM429.447 106.08L430.446 106.122L430.486 105.147L429.513 105.082L429.447 106.08ZM381.567 120.48L382.538 120.242L381.714 116.877L380.618 120.164L381.567 120.48ZM380.847 92.58H381.847V91.58H380.847V92.58ZM375.627 90.7H380.847V88.7H375.627V90.7ZM381.847 89.7V75.84H379.847V89.7H381.847ZM381.847 75.84C381.847 64.4346 381.359 57.0772 379.909 52.5616C379.175 50.2792 378.164 48.6124 376.745 47.5303C375.317 46.4408 373.604 46.04 371.667 46.04V48.04C373.33 48.04 374.564 48.3817 375.532 49.1204C376.51 49.8663 377.343 51.1133 378.005 53.1733C379.344 57.3428 379.847 64.3854 379.847 75.84H381.847ZM371.667 46.04C369.93 46.04 367.609 46.421 365.688 47.6345C363.708 48.885 362.207 50.9938 362.207 54.24H364.207C364.207 51.7262 365.316 50.235 366.756 49.3255C368.254 48.379 370.164 48.04 371.667 48.04V46.04ZM362.207 54.24C362.207 55.8314 362.601 57.7506 363.347 59.8017L365.226 59.1183C364.532 57.2094 364.207 55.5286 364.207 54.24H362.207ZM364.287 60.46H368.787V58.46H364.287V60.46ZM367.853 59.819C368.711 62.0493 369.227 64.2679 369.227 67.56H371.227C371.227 64.0121 370.662 61.5507 369.72 59.101L367.853 59.819ZM369.227 67.56C369.227 71.5005 367.642 74.7342 365.027 76.9962C362.401 79.2685 358.684 80.6 354.387 80.6V82.6C359.089 82.6 363.293 81.1415 366.336 78.5088C369.391 75.8658 371.227 72.0795 371.227 67.56H369.227ZM354.387 80.6C348.986 80.6 345.419 79.1229 343.19 76.7525C340.951 74.3705 339.907 70.9215 339.907 66.66H337.907C337.907 71.2185 339.023 75.2395 341.733 78.1225C344.454 81.0171 348.627 82.6 354.387 82.6V80.6ZM339.907 66.66C339.907 59.4592 342.999 54.2543 349.035 50.7871C355.154 47.2718 364.349 45.52 376.527 45.52V43.52C364.224 43.52 354.609 45.2782 348.038 49.0529C341.384 52.8757 337.907 58.7408 337.907 66.66H339.907ZM376.527 45.52C390.63 45.52 399.741 47.5124 405.361 52.491C410.944 57.4369 413.327 65.5612 413.327 78.54H415.327C415.327 65.4187 412.939 56.5331 406.687 50.994C400.472 45.4876 390.683 43.52 376.527 43.52V45.52ZM413.327 78.54V115.08H415.327V78.54H413.327ZM413.327 115.08C413.327 118.826 413.867 121.407 414.951 123.073C416.1 124.838 417.763 125.44 419.547 125.44V123.44C418.271 123.44 417.324 123.052 416.627 121.982C415.866 120.813 415.327 118.714 415.327 115.08H413.327ZM419.547 125.44C420.547 125.44 421.559 125.171 422.505 124.475C423.435 123.79 424.242 122.736 424.93 121.263C426.295 118.341 427.293 113.55 427.745 105.959L425.748 105.841C425.3 113.37 424.318 117.849 423.118 120.417C422.524 121.689 421.902 122.435 421.319 122.864C420.752 123.282 420.166 123.44 419.547 123.44V125.44ZM426.68 106.898L429.38 107.078L429.513 105.082L426.813 104.902L426.68 106.898ZM428.447 106.038C427.999 116.794 426.116 123.422 422.643 127.38C419.215 131.286 414.043 132.8 406.407 132.8V134.8C414.25 134.8 420.149 133.254 424.146 128.7C428.097 124.198 429.994 116.966 430.446 106.122L428.447 106.038ZM406.407 132.8C399.201 132.8 393.718 131.685 389.805 129.568C385.932 127.473 383.55 124.374 382.538 120.242L380.595 120.718C381.743 125.406 384.491 128.967 388.853 131.327C393.175 133.665 399.032 134.8 406.407 134.8V132.8ZM380.618 120.164C379.217 124.365 377.291 127.475 374.291 129.559C371.281 131.649 367.054 132.8 360.867 132.8V134.8C367.279 134.8 371.963 133.611 375.432 131.201C378.912 128.785 381.036 125.235 382.515 120.796L380.618 120.164ZM360.867 132.8C354.633 132.8 348.201 131.859 343.354 128.813C338.588 125.819 335.227 120.71 335.227 112.02H333.227C333.227 121.33 336.886 127.111 342.29 130.507C347.613 133.851 354.5 134.8 360.867 134.8V132.8ZM335.227 112.02C335.227 107.621 336.173 104.15 337.92 101.399C339.666 98.6491 342.263 96.5412 345.695 94.9497C352.61 91.743 362.762 90.7 375.627 90.7V88.7C362.751 88.7 352.203 89.727 344.853 93.1353C341.153 94.8513 338.226 97.1871 336.232 100.327C334.238 103.465 333.227 107.329 333.227 112.02H335.227ZM373.107 127.6C375.379 127.6 377.576 125.742 379.145 122.744C380.746 119.684 381.847 115.195 381.847 109.32H379.847C379.847 114.965 378.787 119.116 377.373 121.816C375.927 124.578 374.254 125.6 373.107 125.6V127.6ZM381.847 109.32V92.58H379.847V109.32H381.847ZM380.847 91.58H379.587V93.58H380.847V91.58ZM379.587 91.58C375.533 91.58 372.405 93.05 370.344 96.0915C368.333 99.0591 367.427 103.394 367.427 108.96H369.427C369.427 103.546 370.32 99.6909 371.999 97.2135C373.628 94.81 376.081 93.58 379.587 93.58V91.58ZM367.427 108.96V111.84H369.427V108.96H367.427ZM367.427 111.84C367.427 118.29 367.732 122.157 368.543 124.418C368.962 125.587 369.554 126.439 370.406 126.966C371.239 127.483 372.182 127.6 373.107 127.6V125.6C372.322 125.6 371.824 125.492 371.459 125.266C371.113 125.051 370.748 124.643 370.425 123.742C369.751 121.863 369.427 118.35 369.427 111.84H367.427ZM433.979 49.56H434.979V48.56H433.979V49.56ZM424.079 49.56H423.079V50.56H424.079V49.56ZM424.079 46.32V45.32H423.079V46.32H424.079ZM433.979 46.32V47.32H434.979V46.32H433.979ZM433.979 23.1L433.739 22.1292L432.979 22.3172V23.1H433.979ZM467.459 14.82H468.459V13.5426L467.219 13.8492L467.459 14.82ZM467.459 46.32H466.459V47.32H467.459V46.32ZM490.859 46.32H491.859V45.32H490.859V46.32ZM490.859 49.56V50.56H491.859V49.56H490.859ZM467.459 49.56V48.56H466.459V49.56H467.459ZM491.039 106.44L491.156 105.447L490.177 105.332L490.048 106.309L491.039 106.44ZM494.099 106.8L495.092 106.915L495.207 105.923L494.216 105.807L494.099 106.8ZM434.979 106.26V49.56H432.979V106.26H434.979ZM433.979 48.56H424.079V50.56H433.979V48.56ZM425.079 49.56V46.32H423.079V49.56H425.079ZM424.079 47.32H433.979V45.32H424.079V47.32ZM434.979 46.32V23.1H432.979V46.32H434.979ZM434.219 24.0707L467.699 15.7907L467.219 13.8492L433.739 22.1292L434.219 24.0707ZM466.459 14.82V46.32H468.459V14.82H466.459ZM467.459 47.32H490.859V45.32H467.459V47.32ZM489.859 46.32V49.56H491.859V46.32H489.859ZM490.859 48.56H467.459V50.56H490.859V48.56ZM466.459 49.56V110.22H468.459V49.56H466.459ZM466.459 110.22C466.459 115.534 466.857 119.814 468.138 122.788C468.789 124.299 469.688 125.522 470.921 126.361C472.158 127.202 473.647 127.6 475.379 127.6V125.6C473.961 125.6 472.885 125.278 472.046 124.707C471.203 124.134 470.516 123.254 469.975 121.997C468.871 119.436 468.459 115.526 468.459 110.22H466.459ZM475.379 127.6C480.053 127.6 483.845 125.438 486.641 121.71C489.413 118.014 491.207 112.789 492.03 106.571L490.048 106.309C489.251 112.331 487.535 117.186 485.041 120.51C482.573 123.802 479.345 125.6 475.379 125.6V127.6ZM490.922 107.433L493.982 107.793L494.216 105.807L491.156 105.447L490.922 107.433ZM493.106 106.685C492.305 113.627 490.45 120.133 486.218 124.901C482.021 129.631 475.35 132.8 464.579 132.8V134.8C475.768 134.8 483.046 131.489 487.714 126.229C492.348 121.007 494.273 114.013 495.092 106.915L493.106 106.685ZM464.579 132.8C455.723 132.8 448.352 131.493 443.199 127.602C438.11 123.759 434.979 117.227 434.979 106.26H432.979C432.979 117.613 436.238 124.851 441.994 129.198C447.686 133.497 455.614 134.8 464.579 134.8V132.8ZM491.499 46.32V45.32H490.499V46.32H491.499ZM535.599 46.32H536.599V45.32H535.599V46.32ZM535.599 128.76H534.599V129.76H535.599V128.76ZM545.679 128.76H546.679V127.76H545.679V128.76ZM545.679 132V133H546.679V132H545.679ZM492.219 132H491.219V133H492.219V132ZM492.219 128.76V127.76H491.219V128.76H492.219ZM502.119 128.76V129.76H503.119V128.76H502.119ZM502.119 49.56H503.119V48.56H502.119V49.56ZM491.499 49.56H490.499V50.56H491.499V49.56ZM502.039 17.16C502.039 12.9232 503.205 9.01306 505.884 6.16803C508.551 3.33589 512.848 1.42 519.399 1.42V-0.580001C512.45 -0.580001 507.566 1.46411 504.428 4.79697C501.302 8.11694 500.039 12.5768 500.039 17.16H502.039ZM519.399 1.42C524.825 1.42 529.006 2.77669 531.823 5.32416C534.623 7.85674 536.219 11.6971 536.219 16.98L538.219 16.98C538.219 11.2828 536.484 6.84324 533.165 3.84083C529.861 0.853306 525.133 -0.580001 519.399 -0.580001V1.42ZM536.219 16.98C536.219 21.5762 534.963 25.526 532.268 28.3239C529.582 31.1135 525.329 32.9 519.039 32.9V34.9C525.709 34.9 530.545 32.9965 533.709 29.7111C536.865 26.434 538.219 21.9238 538.219 16.98L536.219 16.98ZM519.039 32.9C511.972 32.9 507.786 30.6858 505.342 27.728C502.868 24.7341 502.039 20.8122 502.039 17.16H500.039C500.039 21.0678 500.92 25.5159 503.8 29.002C506.711 32.5242 511.526 34.9 519.039 34.9V32.9ZM491.499 47.32L535.599 47.32V45.32L491.499 45.32V47.32ZM534.599 46.32V128.76H536.599V46.32H534.599ZM535.599 129.76H545.679V127.76H535.599V129.76ZM544.679 128.76V132H546.679V128.76H544.679ZM545.679 131H492.219V133H545.679V131ZM493.219 132V128.76H491.219V132H493.219ZM492.219 129.76H502.119V127.76H492.219V129.76ZM503.119 128.76V49.56H501.119V128.76H503.119ZM502.119 48.56H491.499V50.56H502.119V48.56ZM492.499 49.56V46.32H490.499V49.56H492.499ZM604.888 96.54V81.24H602.888V96.54H604.888ZM604.888 81.24C604.888 71.5526 604.758 63.0568 603.331 56.9814C602.616 53.9373 601.552 51.3862 599.921 49.586C598.253 47.7455 596.054 46.76 593.268 46.76V48.76C595.521 48.76 597.17 49.5295 598.439 50.929C599.743 52.3688 600.704 54.5427 601.384 57.4386C602.747 63.2432 602.888 71.4874 602.888 81.24H604.888ZM593.268 46.76C590.283 46.76 587.923 47.7256 586.12 49.5731C584.35 51.3871 583.194 53.9721 582.42 57.0808C580.877 63.2769 580.748 72.007 580.748 82.14H582.748C582.748 71.933 582.889 63.4731 584.361 57.5642C585.094 54.6204 586.132 52.4242 587.551 50.97C588.938 49.5494 590.762 48.76 593.268 48.76V46.76ZM580.748 82.14V96.18H582.748V82.14H580.748ZM580.748 96.18C580.748 106.577 580.831 115.309 582.329 121.437C583.081 124.514 584.214 127.054 585.973 128.828C587.765 130.636 590.115 131.56 593.088 131.56V129.56C590.571 129.56 588.758 128.797 587.394 127.42C585.997 126.011 584.982 123.871 584.272 120.963C582.844 115.121 582.748 106.663 582.748 96.18H580.748ZM593.088 131.56C595.835 131.56 598.055 130.843 599.777 129.274C601.474 127.727 602.572 125.455 603.304 122.571C604.76 116.842 604.888 108.192 604.888 96.54H602.888C602.888 108.288 602.746 116.648 601.366 122.079C600.681 124.775 599.72 126.62 598.43 127.796C597.165 128.949 595.47 129.56 593.088 129.56V131.56ZM548.188 89.52C548.188 74.9619 552.532 64.0039 560.316 56.6782C568.109 49.3434 579.488 45.52 593.808 45.52V43.52C579.148 43.52 567.217 47.4366 558.945 55.2218C550.663 63.0161 546.188 74.5581 546.188 89.52H548.188ZM593.808 45.52C608.789 45.52 619.648 49.0434 626.769 55.9908C633.886 62.9334 637.448 73.471 637.448 87.9H639.448C639.448 73.169 635.81 62.0166 628.166 54.5592C620.527 47.1066 609.067 43.52 593.808 43.52V45.52ZM637.448 87.9C637.448 102.524 634.058 113.703 626.879 121.23C619.709 128.748 608.588 132.8 592.728 132.8V134.8C608.907 134.8 620.646 130.662 628.326 122.61C635.998 114.567 639.448 102.796 639.448 87.9H637.448ZM592.728 132.8C577.78 132.8 566.684 128.798 559.323 121.481C551.962 114.164 548.188 103.384 548.188 89.52H546.188C546.188 103.736 550.063 115.096 557.913 122.899C565.762 130.702 577.436 134.8 592.728 134.8V132.8ZM640.242 46.32V45.32H639.242V46.32H640.242ZM683.622 46.32H684.622V45.32H683.622V46.32ZM683.622 62.88H682.622L684.569 63.2019L683.622 62.88ZM738.342 128.76H737.342V129.76H738.342V128.76ZM748.422 128.76H749.422V127.76H748.422V128.76ZM748.422 132V133H749.422V132H748.422ZM697.482 132H696.482V133H697.482V132ZM697.482 128.76V127.76H696.482V128.76H697.482ZM704.862 128.76V129.76H705.862V128.76H704.862ZM683.622 128.76H682.622V129.76H683.622V128.76ZM691.362 128.76H692.362V127.76H691.362V128.76ZM691.362 132V133H692.362V132H691.362ZM640.242 132H639.242V133H640.242V132ZM640.242 128.76V127.76H639.242V128.76H640.242ZM650.142 128.76V129.76H651.142V128.76H650.142ZM650.142 49.56H651.142V48.56H650.142V49.56ZM640.242 49.56H639.242V50.56H640.242V49.56ZM640.242 47.32L683.622 47.32V45.32L640.242 45.32V47.32ZM682.622 46.32V62.88H684.622V46.32H682.622ZM684.569 63.2019C686.073 58.779 688.247 54.3852 692.143 51.0884C696.021 47.8066 701.717 45.52 710.442 45.52V43.52C701.347 43.52 695.163 45.9134 690.851 49.5616C686.557 53.1948 684.232 57.981 682.675 62.5581L684.569 63.2019ZM710.442 45.52C718.661 45.52 725.34 47.5523 729.969 52.0961C734.595 56.6365 737.342 63.8505 737.342 74.58H739.342C739.342 63.5295 736.509 55.7135 731.37 50.6688C726.234 45.6276 718.963 43.52 710.442 43.52V45.52ZM737.342 74.58V128.76H739.342V74.58H737.342ZM738.342 129.76H748.422V127.76H738.342V129.76ZM747.422 128.76V132H749.422V128.76H747.422ZM748.422 131H697.482V133H748.422V131ZM698.482 132V128.76H696.482V132H698.482ZM697.482 129.76H704.862V127.76H697.482V129.76ZM705.862 128.76V70.26H703.862V128.76H705.862ZM705.862 70.26C705.862 62.6335 705.335 58.1411 704.126 55.5496C703.497 54.2014 702.658 53.3079 701.58 52.7817C700.538 52.2728 699.374 52.16 698.202 52.16V54.16C699.28 54.16 700.074 54.2722 700.702 54.5789C701.295 54.8684 701.84 55.3811 702.313 56.3954C703.309 58.5289 703.862 62.5865 703.862 70.26H705.862ZM698.202 52.16C693.899 52.16 689.988 55.3622 687.212 60.151C684.411 64.982 682.622 71.64 682.622 79.08H684.622C684.622 71.9399 686.343 65.638 688.942 61.154C691.566 56.6278 694.945 54.16 698.202 54.16V52.16ZM682.622 79.08V128.76H684.622V79.08H682.622ZM683.622 129.76H691.362V127.76H683.622V129.76ZM690.362 128.76V132H692.362V128.76H690.362ZM691.362 131H640.242V133H691.362V131ZM641.242 132V128.76H639.242V132H641.242ZM640.242 129.76H650.142V127.76H640.242V129.76ZM651.142 128.76V49.56H649.142V128.76H651.142ZM650.142 48.56H640.242V50.56H650.142V48.56ZM641.242 49.56V46.32H639.242V49.56H641.242Z" fill="#7F40FF" fill-opacity="0.6"/>
</svg>
