<svg width="304" height="218" viewBox="0 0 304 218" fill="none" xmlns="http://www.w3.org/2000/svg">
<g filter="url(#filter0_d_4830_39329)">
<rect x="12" y="12" width="280" height="194" rx="12" fill="white"/>
<mask id="mask0_4830_39329" style="mask-type:alpha" maskUnits="userSpaceOnUse" x="28" y="31" width="20" height="20">
<rect x="28" y="31" width="20" height="20" fill="#D9D9D9"/>
</mask>
<g mask="url(#mask0_4830_39329)">
<path d="M38 50.166L35.5 47.666H32.1667C31.7083 47.666 31.316 47.5028 30.9896 47.1764C30.6632 46.85 30.5 46.4577 30.5 45.9993V34.3327C30.5 33.8743 30.6632 33.482 30.9896 33.1556C31.316 32.8292 31.7083 32.666 32.1667 32.666H43.8333C44.2917 32.666 44.684 32.8292 45.0104 33.1556C45.3368 33.482 45.5 33.8743 45.5 34.3327V45.9993C45.5 46.4577 45.3368 46.85 45.0104 47.1764C44.684 47.5028 44.2917 47.666 43.8333 47.666H40.5L38 50.166ZM38 40.9993C38.8056 40.9993 39.4931 40.7146 40.0625 40.1452C40.6319 39.5757 40.9167 38.8882 40.9167 38.0827C40.9167 37.2771 40.6319 36.5896 40.0625 36.0202C39.4931 35.4507 38.8056 35.166 38 35.166C37.1944 35.166 36.5069 35.4507 35.9375 36.0202C35.3681 36.5896 35.0833 37.2771 35.0833 38.0827C35.0833 38.8882 35.3681 39.5757 35.9375 40.1452C36.5069 40.7146 37.1944 40.9993 38 40.9993ZM32.1667 45.9993H43.8333V45.041C43.0833 44.3049 42.2118 43.725 41.2188 43.3014C40.2257 42.8778 39.1528 42.666 38 42.666C36.8472 42.666 35.7743 42.8778 34.7812 43.3014C33.7882 43.725 32.9167 44.3049 32.1667 45.041V45.9993Z" fill="#6840FD"/>
</g>
<path d="M68.375 48.4375H66.3594V34.2188H68.375V48.4375ZM64.8281 37.125H63.5625V43.3047C64.1302 43.263 64.7448 43.2031 65.4062 43.125L65.5 44.6094C64.1562 44.8333 62.7708 44.9818 61.3438 45.0547C59.9167 45.1224 58.3281 45.1615 56.5781 45.1719L56.3906 43.5469L58.0312 43.5312V37.125H56.7812V35.5312H64.8281V37.125ZM61.625 43.4297V37.125H59.9688V43.4922L61.625 43.4297ZM81.8438 42.3906H71.7812V35.4062H81.7344V37.0156H73.75V40.7969H81.8438V42.3906ZM83.2656 46.7031H70.25V45.0625H83.2656V46.7031ZM97.0938 46.7812H84.0781V45.125H97.0938V46.7812ZM96 37.0625H94V41.375H95.9375V42.9375H85.1562V41.375H87.0625V37.0625H85.0938V35.4688H96V37.0625ZM92.0312 41.375V37.0625H89.0625V41.375H92.0312ZM110.922 46.8594H97.9062V45.2188H103.391V43.0781H99.4062V38.2969H107.453V36.7344H99.3906V35.1406H109.422V39.8594H101.406V41.4531H109.75V43.0781H105.375V45.2188H110.922V46.8594ZM123.672 41.5156H121.672V34.2188H123.672V41.5156ZM123.672 45.875H116V46.7656H124.062V48.3438H114.031V44.4531H121.703V43.625H114V42.0781H123.672V45.875ZM120.078 36.6094H118.906V39.4453C119.51 39.3984 120.083 39.3438 120.625 39.2812L120.719 40.7031C118.51 41.0573 115.667 41.2344 112.188 41.2344L111.969 39.6719L113.5 39.6562V36.6094H112.344V35.0938H120.078V36.6094ZM116.984 39.5625V36.6094H115.406V39.6172L116.984 39.5625ZM137.469 48.4688H135.453V34.2188H137.469V48.4688ZM129.75 35.2188C130.464 35.2188 131.102 35.4271 131.664 35.8438C132.232 36.2604 132.677 36.8516 133 37.6172C133.323 38.3828 133.484 39.2708 133.484 40.2812C133.484 41.3021 133.323 42.1979 133 42.9688C132.677 43.7344 132.232 44.3255 131.664 44.7422C131.102 45.1536 130.464 45.3594 129.75 45.3594C129.021 45.3594 128.37 45.1536 127.797 44.7422C127.224 44.3255 126.776 43.7344 126.453 42.9688C126.135 42.1979 125.979 41.3021 125.984 40.2812C125.979 39.2708 126.135 38.3828 126.453 37.6172C126.776 36.8516 127.224 36.2604 127.797 35.8438C128.37 35.4271 129.021 35.2188 129.75 35.2188ZM129.75 37.0156C129.38 37.0156 129.055 37.1432 128.773 37.3984C128.497 37.6484 128.284 38.0182 128.133 38.5078C127.982 38.9974 127.906 39.5885 127.906 40.2812C127.906 40.9792 127.982 41.5729 128.133 42.0625C128.284 42.5521 128.497 42.9219 128.773 43.1719C129.055 43.4219 129.38 43.5469 129.75 43.5469C130.115 43.5469 130.432 43.4219 130.703 43.1719C130.974 42.9167 131.185 42.5443 131.336 42.0547C131.487 41.5651 131.562 40.974 131.562 40.2812C131.562 39.5938 131.487 39.0052 131.336 38.5156C131.185 38.0208 130.971 37.6484 130.695 37.3984C130.424 37.1432 130.109 37.0156 129.75 37.0156ZM150.672 38.3125H152.594V39.9844H150.672V44.7031H148.672V34.2344H150.672V38.3125ZM151.219 48.1875H141.5V43.8594H143.516V46.5938H151.219V48.1875ZM146.422 39.5469H141.891V41.0469C143.104 41.0417 144.146 41.0078 145.016 40.9453C145.885 40.8828 146.76 40.7708 147.641 40.6094L147.859 42.2188C146.896 42.3958 145.919 42.513 144.93 42.5703C143.945 42.6276 142.672 42.6562 141.109 42.6562H139.906V38.0469H144.484V36.6875H139.891V35.0938H146.422V39.5469ZM155.703 43.4375C155.708 42.8125 155.766 42.3073 155.875 41.9219C155.984 41.5312 156.141 41.2188 156.344 40.9844C156.552 40.75 156.828 40.526 157.172 40.3125C157.552 40.0625 157.844 39.8099 158.047 39.5547C158.255 39.2995 158.359 39.0052 158.359 38.6719C158.359 38.4167 158.299 38.1927 158.18 38C158.06 37.8021 157.896 37.6484 157.688 37.5391C157.479 37.4297 157.25 37.375 157 37.375C156.75 37.375 156.516 37.4297 156.297 37.5391C156.083 37.6484 155.909 37.8099 155.773 38.0234C155.643 38.2318 155.573 38.4844 155.562 38.7812H153.344C153.359 38.0729 153.529 37.4766 153.852 36.9922C154.18 36.5026 154.617 36.138 155.164 35.8984C155.716 35.6536 156.333 35.5312 157.016 35.5312C157.74 35.5312 158.383 35.6536 158.945 35.8984C159.508 36.1432 159.945 36.4974 160.258 36.9609C160.576 37.4193 160.734 37.9635 160.734 38.5938C160.734 39.2083 160.589 39.7344 160.297 40.1719C160.01 40.6094 159.594 40.9896 159.047 41.3125C158.74 41.5 158.495 41.6875 158.312 41.875C158.135 42.0573 158 42.2734 157.906 42.5234C157.818 42.7734 157.771 43.0781 157.766 43.4375V43.6094H155.703V43.4375ZM156.781 47.1406C156.542 47.1406 156.32 47.0807 156.117 46.9609C155.914 46.8411 155.753 46.6823 155.633 46.4844C155.518 46.2812 155.464 46.0625 155.469 45.8281C155.464 45.5938 155.518 45.3776 155.633 45.1797C155.753 44.9818 155.914 44.8255 156.117 44.7109C156.32 44.5911 156.542 44.5312 156.781 44.5312C157.005 44.5312 157.216 44.5911 157.414 44.7109C157.617 44.8255 157.779 44.9818 157.898 45.1797C158.018 45.3776 158.078 45.5938 158.078 45.8281C158.078 46.0625 158.018 46.2812 157.898 46.4844C157.779 46.6823 157.617 46.8411 157.414 46.9609C157.216 47.0807 157.005 47.1406 156.781 47.1406Z" fill="#6840FD"/>
<path d="M32.5664 66.2207C32.5664 66.918 32.7077 67.6152 32.9902 68.3125C33.2728 69.0052 33.6533 69.625 34.1318 70.1719C34.6149 70.7188 35.1413 71.1335 35.7109 71.416L35.0547 72.2773C34.3848 71.9264 33.7832 71.4115 33.25 70.7324C32.7214 70.0534 32.3226 69.2923 32.0537 68.4492C31.7848 69.347 31.3792 70.1582 30.8369 70.8828C30.2946 71.6029 29.6816 72.1452 28.998 72.5098L28.3145 71.6484C28.9023 71.3613 29.4378 70.9307 29.9209 70.3564C30.4085 69.7777 30.7936 69.126 31.0762 68.4014C31.3633 67.6722 31.5091 66.9453 31.5137 66.2207V64.0059H32.5664V66.2207ZM37.8984 67.8887H39.9355V68.8184H37.8984V75.1074H36.832V62.9531H37.8984V67.8887ZM51.3007 73.5215H40.1718V72.6328H45.1484V69.6523H46.2011V72.6328H51.3007V73.5215ZM46.2284 64.7168C46.2284 65.3639 46.4517 65.986 46.8984 66.583C47.3495 67.18 47.9237 67.6859 48.621 68.1006C49.3228 68.5107 50.0338 68.7773 50.7538 68.9004L50.2753 69.7891C49.6464 69.6615 49.0289 69.4404 48.4228 69.126C47.8167 68.8115 47.2698 68.4196 46.7821 67.9502C46.2991 67.4808 45.9299 66.9635 45.6747 66.3984C45.4195 66.9635 45.0504 67.4808 44.5673 67.9502C44.0842 68.4196 43.5396 68.8115 42.9335 69.126C42.332 69.4404 41.7167 69.6615 41.0878 69.7891L40.6093 68.9004C41.3293 68.7773 42.0357 68.5107 42.7284 68.1006C43.4257 67.6859 43.9954 67.1823 44.4374 66.5898C44.884 65.9928 45.1073 65.3685 45.1073 64.7168V63.7871H46.2284V64.7168ZM61.3534 66.9727H63.1854V67.875H61.3534V72.0723H60.287V62.9668H61.3534V66.9727ZM59.1248 65.332H51.8787V64.457H54.9686V62.9668H56.035V64.457H59.1248V65.332ZM55.5018 66.002C56.076 66.002 56.5819 66.0954 57.0194 66.2822C57.4614 66.4691 57.8055 66.7334 58.0516 67.0752C58.2977 67.417 58.423 67.8158 58.4276 68.2715C58.423 68.7227 58.2977 69.1169 58.0516 69.4541C57.8055 69.7913 57.4614 70.0534 57.0194 70.2402C56.5819 70.4225 56.076 70.5137 55.5018 70.5137C54.923 70.5137 54.4103 70.4225 53.9637 70.2402C53.5217 70.0534 53.1776 69.7913 52.9315 69.4541C52.6899 69.1169 52.5715 68.7227 52.576 68.2715C52.5715 67.8158 52.6899 67.417 52.9315 67.0752C53.1776 66.7334 53.5217 66.4691 53.9637 66.2822C54.4103 66.0954 54.923 66.002 55.5018 66.002ZM55.5018 66.8496C55.1235 66.8496 54.7886 66.9089 54.4969 67.0273C54.2098 67.1413 53.9865 67.3076 53.827 67.5264C53.672 67.7406 53.5968 67.9889 53.6014 68.2715C53.5968 68.554 53.672 68.8024 53.827 69.0166C53.9865 69.2262 54.2098 69.388 54.4969 69.502C54.7886 69.6159 55.1235 69.6706 55.5018 69.666C55.8755 69.6706 56.2059 69.6159 56.493 69.502C56.7847 69.388 57.0103 69.2262 57.1698 69.0166C57.3293 68.8024 57.4113 68.554 57.4159 68.2715C57.4113 67.9889 57.3293 67.7406 57.1698 67.5264C57.0103 67.3076 56.7847 67.1413 56.493 67.0273C56.2059 66.9089 55.8755 66.8496 55.5018 66.8496ZM61.9139 74.8477H53.7518V71.3477H54.8045V73.9453H61.9139V74.8477ZM70.6989 66.2207C70.6989 66.918 70.8402 67.6152 71.1227 68.3125C71.4053 69.0052 71.7858 69.625 72.2643 70.1719C72.7474 70.7188 73.2738 71.1335 73.8434 71.416L73.1872 72.2773C72.5173 71.9264 71.9157 71.4115 71.3825 70.7324C70.8539 70.0534 70.4551 69.2923 70.1862 68.4492C69.9173 69.347 69.5117 70.1582 68.9694 70.8828C68.4271 71.6029 67.8141 72.1452 67.1305 72.5098L66.447 71.6484C67.0348 71.3613 67.5703 70.9307 68.0534 70.3564C68.541 69.7777 68.9261 69.126 69.2087 68.4014C69.4958 67.6722 69.6416 66.9453 69.6462 66.2207V64.0059H70.6989V66.2207ZM76.0309 67.8887H78.068V68.8184H76.0309V75.1074H74.9645V62.9531H76.0309V67.8887ZM88.3258 75.1348H87.2457V62.9531H88.3258V75.1348ZM81.859 63.8965C82.4605 63.901 82.996 64.0788 83.4654 64.4297C83.9348 64.776 84.3017 65.2682 84.566 65.9062C84.8303 66.5443 84.9625 67.2871 84.9625 68.1348C84.9625 68.9824 84.8303 69.7253 84.566 70.3633C84.3017 71.0013 83.9348 71.4935 83.4654 71.8398C82.996 72.1862 82.4605 72.3594 81.859 72.3594C81.2574 72.3594 80.7197 72.1862 80.2457 71.8398C79.7763 71.4935 79.4094 71.0013 79.1451 70.3633C78.8854 69.7253 78.7555 68.9824 78.7555 68.1348C78.7555 67.2871 78.8854 66.5443 79.1451 65.9062C79.4094 65.2682 79.7763 64.776 80.2457 64.4297C80.7151 64.0788 81.2529 63.901 81.859 63.8965ZM81.859 64.8535C81.4534 64.8581 81.0934 64.9971 80.7789 65.2705C80.469 65.5394 80.2275 65.9222 80.0543 66.4189C79.8811 66.9111 79.7945 67.4831 79.7945 68.1348C79.7945 68.7865 79.8811 69.3607 80.0543 69.8574C80.2275 70.3496 80.4713 70.7301 80.7857 70.999C81.1002 71.2679 81.4579 71.4023 81.859 71.4023C82.26 71.4023 82.6178 71.2679 82.9322 70.999C83.2467 70.7301 83.4905 70.3496 83.6637 69.8574C83.8369 69.3607 83.9234 68.7865 83.9234 68.1348C83.9234 67.4831 83.8369 66.9111 83.6637 66.4189C83.4905 65.9222 83.2467 65.5394 82.9322 65.2705C82.6223 64.9971 82.2646 64.8581 81.859 64.8535ZM99.8277 70.4043H91.4195V64.0059H99.6909V64.9082H92.5132V66.7129H99.4312V67.5742H92.5132V69.5293H99.8277V70.4043ZM101.113 73.5215H89.9839V72.6328H101.113V73.5215ZM112.081 75.1074H111.042V62.9531H112.081V75.1074ZM109.634 74.4922H108.609V68.5859H107.043C107.007 69.3698 106.877 70.0511 106.654 70.6299C106.43 71.2041 106.127 71.6484 105.745 71.9629C105.362 72.2728 104.922 72.4277 104.425 72.4277C103.901 72.4277 103.441 72.2568 103.044 71.915C102.652 71.5687 102.349 71.0765 102.135 70.4385C101.921 69.8005 101.814 69.0553 101.814 68.2031C101.814 67.3509 101.921 66.6058 102.135 65.9678C102.349 65.3298 102.652 64.8398 103.044 64.498C103.441 64.1517 103.901 63.9785 104.425 63.9785C104.913 63.9785 105.346 64.1289 105.724 64.4297C106.102 64.7305 106.403 65.1611 106.626 65.7217C106.854 66.2822 106.991 66.9408 107.037 67.6973H108.609V63.2129H109.634V74.4922ZM104.425 64.9902C104.097 64.9902 103.812 65.1201 103.571 65.3799C103.329 65.6396 103.142 66.0133 103.01 66.501C102.883 66.984 102.821 67.5514 102.826 68.2031C102.821 68.8548 102.883 69.4222 103.01 69.9053C103.142 70.3883 103.329 70.7598 103.571 71.0195C103.817 71.2793 104.102 71.4069 104.425 71.4023C104.749 71.4069 105.031 71.2793 105.273 71.0195C105.519 70.7598 105.708 70.3883 105.84 69.9053C105.972 69.4222 106.039 68.8548 106.039 68.2031C106.039 67.5469 105.972 66.9772 105.84 66.4941C105.708 66.0111 105.521 65.6396 105.28 65.3799C105.038 65.1201 104.753 64.9902 104.425 64.9902ZM117.622 66.2207C117.622 66.9408 117.764 67.6517 118.046 68.3535C118.329 69.0553 118.712 69.6797 119.195 70.2266C119.678 70.7689 120.211 71.1745 120.794 71.4434L120.152 72.3184C119.464 71.9629 118.848 71.4411 118.306 70.7529C117.764 70.0648 117.358 69.2878 117.089 68.4219C116.816 69.3379 116.408 70.1605 115.866 70.8896C115.328 71.6188 114.715 72.168 114.027 72.5371L113.329 71.6758C113.917 71.3887 114.455 70.958 114.943 70.3838C115.43 69.805 115.815 69.151 116.098 68.4219C116.385 67.6882 116.529 66.9544 116.529 66.2207V64.0059H117.622V66.2207ZM123.419 75.1348H122.353V67.9844H119.468V67.1094H122.353V62.9531H123.419V75.1348ZM138.507 75.1074H137.482V68.7363H135.691V74.4785H134.706V63.2266H135.691V67.8477H137.482V62.9531H138.507V75.1074ZM133.12 65.332H129.634V71.1836C130.532 71.179 131.293 71.154 131.917 71.1084C132.546 71.0583 133.18 70.9694 133.818 70.8418L133.913 71.7441C133.221 71.8854 132.537 71.9811 131.863 72.0312C131.193 72.0768 130.354 72.0996 129.347 72.0996H128.568V64.4434H133.12V65.332ZM143.775 63.7461C144.408 63.7507 144.971 63.8737 145.463 64.1152C145.96 64.3522 146.347 64.6872 146.625 65.1201C146.903 65.5531 147.042 66.0475 147.042 66.6035C147.042 67.1048 146.928 67.5583 146.7 67.9639C146.472 68.3649 146.151 68.6908 145.736 68.9414C145.322 69.1921 144.845 69.3493 144.308 69.4131V71.4844C145.666 71.416 146.86 71.3021 147.89 71.1426L147.972 71.9355C146.75 72.1634 145.504 72.3092 144.233 72.373C142.966 72.4368 141.56 72.4688 140.015 72.4688L139.864 71.5664C141.295 71.5664 142.416 71.5527 143.228 71.5254V69.4131C142.685 69.3493 142.207 69.1921 141.792 68.9414C141.377 68.6862 141.056 68.3581 140.828 67.957C140.6 67.556 140.489 67.1048 140.493 66.6035C140.489 66.0475 140.625 65.5553 140.903 65.127C141.186 64.694 141.576 64.3568 142.072 64.1152C142.574 63.8737 143.141 63.7507 143.775 63.7461ZM143.775 64.6895C143.346 64.6895 142.961 64.7715 142.619 64.9355C142.282 65.0951 142.018 65.3206 141.826 65.6123C141.635 65.8994 141.541 66.2298 141.546 66.6035C141.541 66.9772 141.635 67.3099 141.826 67.6016C142.018 67.8932 142.282 68.1211 142.619 68.2852C142.961 68.4447 143.346 68.5221 143.775 68.5176C144.198 68.5221 144.579 68.4447 144.916 68.2852C145.253 68.1211 145.515 67.8932 145.702 67.6016C145.894 67.3099 145.989 66.9772 145.989 66.6035C145.989 66.2298 145.894 65.8994 145.702 65.6123C145.515 65.3206 145.253 65.0951 144.916 64.9355C144.579 64.7715 144.198 64.6895 143.775 64.6895ZM149.763 75.1348H148.696V62.9531H149.763V75.1348ZM155.7 65.1953C155.7 65.7194 155.826 66.2275 156.076 66.7197C156.327 67.2074 156.678 67.6426 157.129 68.0254C157.585 68.4036 158.106 68.6953 158.694 68.9004L158.134 69.748C157.455 69.502 156.858 69.1374 156.343 68.6543C155.832 68.1712 155.445 67.6152 155.181 66.9863C154.916 67.6882 154.515 68.3057 153.978 68.8389C153.44 69.3721 152.811 69.7708 152.091 70.0352L151.53 69.1875C152.123 68.9733 152.654 68.6634 153.123 68.2578C153.592 67.8477 153.959 67.3783 154.224 66.8496C154.488 66.3164 154.62 65.7695 154.62 65.209V64.6758H151.872V63.8008H158.421V64.6758H155.7V65.1953ZM161.552 75.1074H160.472V71.7715H153.376V70.8828H161.552V75.1074ZM161.552 70.2402H160.472V67.041H158.038V66.1387H160.472V62.9531H161.552V70.2402ZM173.19 71.8535H172.124V62.9668H173.19V71.8535ZM173.573 74.8477H165.343V70.9512H166.409V73.9453H173.573V74.8477ZM166.628 63.8145C167.229 63.8145 167.772 63.9421 168.255 64.1973C168.742 64.4479 169.123 64.8011 169.396 65.2568C169.674 65.708 169.813 66.2207 169.813 66.7949C169.813 67.3783 169.674 67.8978 169.396 68.3535C169.123 68.8047 168.742 69.1579 168.255 69.4131C167.772 69.6637 167.229 69.7891 166.628 69.7891C166.026 69.7891 165.482 69.6637 164.994 69.4131C164.511 69.1579 164.13 68.8047 163.852 68.3535C163.579 67.8978 163.442 67.3783 163.442 66.7949C163.442 66.2207 163.579 65.708 163.852 65.2568C164.13 64.8011 164.511 64.4479 164.994 64.1973C165.482 63.9421 166.026 63.8145 166.628 63.8145ZM166.628 64.7578C166.222 64.7578 165.855 64.8444 165.527 65.0176C165.204 65.1908 164.949 65.4323 164.762 65.7422C164.579 66.0521 164.491 66.403 164.495 66.7949C164.491 67.1914 164.579 67.5469 164.762 67.8613C164.949 68.1712 165.204 68.4128 165.527 68.5859C165.855 68.7591 166.222 68.8457 166.628 68.8457C167.024 68.8457 167.384 68.7591 167.708 68.5859C168.036 68.4128 168.294 68.1712 168.48 67.8613C168.667 67.5469 168.761 67.1914 168.761 66.7949C168.761 66.4076 168.667 66.0589 168.48 65.749C168.294 65.4391 168.036 65.1976 167.708 65.0244C167.384 64.8467 167.024 64.7578 166.628 64.7578ZM187.417 66.0703H189.235V66.9863H187.417V70.1309H186.337V62.9531H187.417V66.0703ZM187.417 73.125H180.595V74.2051H187.882V74.9707H179.528V72.4004H186.35V71.4434H179.501V70.6777H187.417V73.125ZM177.874 69.0371C179.277 69.0371 180.376 69.0257 181.169 69.0029V68.251C180.449 68.1963 179.881 68.0299 179.467 67.752C179.052 67.474 178.845 67.1048 178.845 66.6445C178.845 66.3164 178.961 66.0339 179.193 65.7969C179.426 65.5599 179.756 65.3799 180.184 65.2568C180.613 65.1338 181.114 65.0723 181.688 65.0723C182.267 65.0723 182.771 65.1338 183.199 65.2568C183.627 65.3799 183.958 65.5599 184.19 65.7969C184.423 66.0339 184.541 66.3164 184.546 66.6445C184.541 67.1003 184.334 67.4671 183.924 67.7451C183.518 68.0231 182.955 68.1917 182.235 68.251V68.9688C183.534 68.9049 184.651 68.8047 185.585 68.668L185.68 69.3926C184.518 69.5794 183.311 69.7025 182.057 69.7617C180.804 69.8164 179.451 69.8438 177.997 69.8438L177.874 69.0371ZM185.216 64.6621H178.175V63.8828H181.169V62.8438H182.235V63.8828H185.216V64.6621ZM181.688 65.7832C181.123 65.7923 180.679 65.8721 180.355 66.0225C180.032 66.1729 179.87 66.3802 179.87 66.6445C179.87 66.918 180.034 67.1367 180.362 67.3008C180.69 67.4648 181.132 67.5469 181.688 67.5469C182.249 67.5469 182.693 67.4648 183.021 67.3008C183.354 67.1367 183.52 66.918 183.52 66.6445C183.52 66.3802 183.356 66.1729 183.028 66.0225C182.7 65.8721 182.253 65.7923 181.688 65.7832ZM200.696 69.8301H189.608V68.9688H194.626V67.5469H191.016V63.5273H199.315V64.3887H192.069V66.6719H199.397V67.5469H195.665V68.9688H200.696V69.8301ZM195.145 70.7188C196.011 70.7188 196.756 70.8053 197.381 70.9785C198.009 71.1471 198.49 71.3955 198.823 71.7236C199.156 72.0518 199.324 72.446 199.329 72.9062C199.324 73.3711 199.156 73.7676 198.823 74.0957C198.49 74.4238 198.012 74.6722 197.387 74.8408C196.763 75.014 196.016 75.1029 195.145 75.1074C194.27 75.1029 193.518 75.014 192.889 74.8408C192.26 74.6722 191.78 74.4238 191.447 74.0957C191.114 73.7676 190.948 73.3711 190.948 72.9062C190.948 72.446 191.114 72.0518 191.447 71.7236C191.78 71.3955 192.26 71.1471 192.889 70.9785C193.518 70.8053 194.27 70.7188 195.145 70.7188ZM195.145 71.5664C194.498 71.5664 193.94 71.6211 193.47 71.7305C193.006 71.8353 192.65 71.988 192.404 72.1885C192.158 72.389 192.037 72.6283 192.042 72.9062C192.037 73.1888 192.158 73.4303 192.404 73.6309C192.65 73.8314 193.006 73.984 193.47 74.0889C193.94 74.1937 194.498 74.2461 195.145 74.2461C195.788 74.2461 196.342 74.1937 196.806 74.0889C197.271 73.984 197.627 73.8314 197.873 73.6309C198.123 73.4258 198.249 73.1842 198.249 72.9062C198.249 72.6283 198.123 72.389 197.873 72.1885C197.627 71.988 197.269 71.8353 196.8 71.7305C196.335 71.6211 195.783 71.5664 195.145 71.5664ZM208.028 64.9355V65.127C208.019 65.8516 207.992 66.5739 207.946 67.2939C207.9 68.0094 207.809 68.832 207.673 69.7617L206.592 69.666C206.738 68.7637 206.834 67.957 206.88 67.2461C206.925 66.5306 206.948 65.8424 206.948 65.1816H201.848V64.3066H208.028V64.9355ZM204.842 71.4707C206.342 71.416 207.673 71.3203 208.835 71.1836L208.889 71.9902C207.827 72.1589 206.709 72.2751 205.533 72.3389C204.357 72.3981 203.138 72.4277 201.876 72.4277H201.301L201.165 71.5391C202.327 71.5299 203.202 71.5186 203.79 71.5049V67.7793H204.842V71.4707ZM210.667 68.0391H212.635V68.9688H210.667V75.1074H209.6V62.9531H210.667V68.0391ZM34.6719 86.2246C34.6673 87.4779 34.4941 88.6377 34.1523 89.7041C33.8105 90.7705 33.2295 91.764 32.4092 92.6846C31.5934 93.6051 30.4974 94.4095 29.1211 95.0977L28.5059 94.2773C29.5996 93.7305 30.5042 93.1107 31.2197 92.418C31.9398 91.7207 32.4935 90.9528 32.8809 90.1143L28.7383 90.5039L28.5469 89.5742L33.209 89.2666C33.4232 88.5921 33.5553 87.8743 33.6055 87.1133H29.1621V86.2246H34.6719ZM38.5547 97.1074H37.4883V90.7363H34.6309V89.8477H37.4883V84.9531H38.5547V97.1074ZM51.287 92.8828H48.4433V97.2031H47.3769V92.8828H44.082V97.2031H43.0155V92.8828H40.1581V91.9941H51.287V92.8828ZM49.8378 90.3535H41.5937V85.623H49.8378V90.3535ZM42.6464 89.4922H48.7714V86.498H42.6464V89.4922ZM61.8729 97.1074H60.8065V84.9531H61.8729V97.1074ZM53.6971 93.0469C55.7524 93.0378 57.6893 92.8418 59.5077 92.459L59.658 93.375C58.6235 93.5892 57.6164 93.7441 56.6366 93.8398C55.6567 93.931 54.6541 93.9766 53.6287 93.9766H52.6444V86.1562H53.6971V93.0469ZM68.8904 86.4023C68.8813 87.6647 68.7195 88.7858 68.405 89.7656H70.3533V85.2812H71.3787V96.4922H70.3533V90.6543H68.0564C67.3181 92.2767 66.0421 93.5846 64.2283 94.5781L63.613 93.8125C65.3539 92.8646 66.5548 91.6204 67.2156 90.0801L63.7498 90.4355L63.5857 89.4785L67.5164 89.2324C67.6895 88.6263 67.7966 87.9792 67.8377 87.291H64.1736V86.4023H68.8904ZM73.9353 97.1074H72.9099V84.9531H73.9353V97.1074ZM85.2321 97.1348H84.152V84.9531H85.2321V97.1348ZM78.7653 85.8965C79.3669 85.901 79.9024 86.0788 80.3718 86.4297C80.8412 86.776 81.208 87.2682 81.4723 87.9062C81.7367 88.5443 81.8688 89.2871 81.8688 90.1348C81.8688 90.9824 81.7367 91.7253 81.4723 92.3633C81.208 93.0013 80.8412 93.4935 80.3718 93.8398C79.9024 94.1862 79.3669 94.3594 78.7653 94.3594C78.1637 94.3594 77.626 94.1862 77.152 93.8398C76.6826 93.4935 76.3158 93.0013 76.0514 92.3633C75.7917 91.7253 75.6618 90.9824 75.6618 90.1348C75.6618 89.2871 75.7917 88.5443 76.0514 87.9062C76.3158 87.2682 76.6826 86.776 77.152 86.4297C77.6214 86.0788 78.1592 85.901 78.7653 85.8965ZM78.7653 86.8535C78.3597 86.8581 77.9997 86.9971 77.6852 87.2705C77.3753 87.5394 77.1338 87.9222 76.9606 88.4189C76.7874 88.9111 76.7009 89.4831 76.7009 90.1348C76.7009 90.7865 76.7874 91.3607 76.9606 91.8574C77.1338 92.3496 77.3776 92.7301 77.6921 92.999C78.0065 93.2679 78.3643 93.4023 78.7653 93.4023C79.1664 93.4023 79.5241 93.2679 79.8386 92.999C80.153 92.7301 80.3968 92.3496 80.57 91.8574C80.7432 91.3607 80.8298 90.7865 80.8298 90.1348C80.8298 89.4831 80.7432 88.9111 80.57 88.4189C80.3968 87.9222 80.153 87.5394 79.8386 87.2705C79.5287 86.9971 79.1709 86.8581 78.7653 86.8535ZM91.0465 87.209C91.0465 87.7923 91.1718 88.3597 91.4225 88.9111C91.6731 89.4626 92.024 89.9525 92.4752 90.3809C92.9264 90.8047 93.4436 91.1328 94.027 91.3652L93.4254 92.1992C92.76 91.9212 92.1744 91.5179 91.6686 90.9893C91.1673 90.4606 90.789 89.8499 90.5338 89.1572C90.274 89.9046 89.8798 90.5632 89.3512 91.1328C88.8271 91.6979 88.2119 92.1263 87.5055 92.418L86.9176 91.5566C87.5146 91.3242 88.0455 90.987 88.5104 90.5449C88.9752 90.1029 89.3375 89.5924 89.5973 89.0137C89.857 88.4349 89.9892 87.8333 89.9938 87.209V85.6504H91.0465V87.209ZM96.9664 94.0449H95.8863V90.1484H93.3844V89.2734H95.8863V87.6602H93.3844V86.7715H95.8863V84.9668H96.9664V94.0449ZM97.2398 96.8477H89.1051V93.1016H90.1852V95.9453H97.2398V96.8477ZM104.107 85.1719C105.009 85.1719 105.782 85.2539 106.424 85.418C107.067 85.5775 107.557 85.8145 107.894 86.1289C108.231 86.4388 108.4 86.8171 108.4 87.2637C108.4 87.9473 108.026 88.4714 107.279 88.8359C106.531 89.2005 105.474 89.3874 104.107 89.3965C103.205 89.3919 102.43 89.3076 101.783 89.1436C101.14 88.9795 100.648 88.7402 100.306 88.4258C99.9689 88.1068 99.8003 87.7194 99.8003 87.2637C99.8003 86.8171 99.9689 86.4388 100.306 86.1289C100.648 85.8145 101.14 85.5775 101.783 85.418C102.43 85.2539 103.205 85.1719 104.107 85.1719ZM104.107 85.9785C103.437 85.9785 102.863 86.0309 102.384 86.1357C101.906 86.236 101.541 86.3841 101.291 86.5801C101.04 86.7715 100.917 86.9993 100.921 87.2637C100.917 87.6829 101.193 88.0065 101.749 88.2344C102.305 88.4622 103.091 88.5762 104.107 88.5762C105.119 88.5762 105.905 88.4622 106.465 88.2344C107.026 88.0065 107.306 87.6829 107.306 87.2637C107.306 86.9993 107.179 86.7715 106.923 86.5801C106.668 86.3887 106.301 86.2406 105.823 86.1357C105.344 86.0309 104.772 85.9785 104.107 85.9785ZM109.644 91.0918H98.5698V90.2168H109.644V91.0918ZM108.222 94.8652H101.003V96.123H108.591V96.9707H99.937V94.0723H107.169V92.9648H99.9097V92.1445H108.222V94.8652ZM117.718 87.5645C117.718 88.1022 117.85 88.6195 118.115 89.1162C118.379 89.6084 118.748 90.0413 119.222 90.415C119.696 90.7842 120.234 91.0645 120.835 91.2559L120.288 92.1172C119.577 91.8757 118.953 91.5156 118.415 91.0371C117.878 90.5586 117.472 89.998 117.199 89.3555C116.934 90.0482 116.529 90.6566 115.982 91.1807C115.439 91.7048 114.806 92.099 114.081 92.3633L113.521 91.502C114.122 91.2878 114.66 90.9801 115.134 90.5791C115.608 90.1781 115.977 89.7178 116.242 89.1982C116.506 88.6742 116.638 88.1296 116.638 87.5645V86.8535H113.794V85.9785H120.521V86.8535H117.718V87.5645ZM123.378 93.8809H122.312V84.9668H123.378V93.8809ZM123.761 96.8477H115.531V93.0332H116.597V95.9453H123.761V96.8477ZM135.345 92.6504H134.32V89.1641H132.693V92.2129H131.681V85.1992H132.693V88.2754H134.32V84.9531H135.345V92.6504ZM131.189 87.2773H124.954V86.416H127.552V85.0488H128.618V86.416H131.189V87.2773ZM128.085 87.9336C128.596 87.9336 129.047 88.0202 129.439 88.1934C129.835 88.362 130.143 88.6035 130.362 88.918C130.58 89.2279 130.692 89.5924 130.697 90.0117C130.692 90.4219 130.58 90.7842 130.362 91.0986C130.143 91.4085 129.835 91.6501 129.439 91.8232C129.047 91.9919 128.596 92.0762 128.085 92.0762C127.579 92.0762 127.128 91.9919 126.732 91.8232C126.335 91.6501 126.028 91.4085 125.809 91.0986C125.59 90.7842 125.483 90.4219 125.488 90.0117C125.483 89.597 125.59 89.2324 125.809 88.918C126.028 88.6035 126.333 88.362 126.725 88.1934C127.121 88.0202 127.575 87.9336 128.085 87.9336ZM128.085 88.7266C127.766 88.7266 127.481 88.7812 127.231 88.8906C126.985 88.9954 126.791 89.1458 126.65 89.3418C126.513 89.5378 126.445 89.7611 126.445 90.0117C126.445 90.2578 126.513 90.4766 126.65 90.668C126.791 90.8594 126.985 91.0075 127.231 91.1123C127.481 91.2171 127.766 91.2695 128.085 91.2695C128.404 91.2695 128.687 91.2171 128.933 91.1123C129.184 91.0075 129.377 90.8594 129.514 90.668C129.655 90.4766 129.726 90.2578 129.726 90.0117C129.726 89.7611 129.655 89.5378 129.514 89.3418C129.377 89.1458 129.184 88.9954 128.933 88.8906C128.687 88.7812 128.404 88.7266 128.085 88.7266ZM131.325 92.8555C132.178 92.8555 132.909 92.9398 133.52 93.1084C134.13 93.2725 134.598 93.514 134.921 93.833C135.249 94.152 135.413 94.5371 135.413 94.9883C135.413 95.4258 135.249 95.8018 134.921 96.1162C134.598 96.4307 134.128 96.6699 133.513 96.834C132.902 96.998 132.173 97.0801 131.325 97.0801C130.478 97.0801 129.746 96.998 129.131 96.834C128.52 96.6699 128.053 96.4307 127.73 96.1162C127.406 95.8018 127.247 95.4258 127.251 94.9883C127.247 94.5371 127.406 94.152 127.73 93.833C128.053 93.514 128.52 93.2725 129.131 93.1084C129.742 92.9398 130.473 92.8555 131.325 92.8555ZM131.325 93.7031C130.697 93.6986 130.157 93.7464 129.705 93.8467C129.254 93.9424 128.908 94.0882 128.666 94.2842C128.429 94.4801 128.313 94.7148 128.318 94.9883C128.313 95.2526 128.429 95.4782 128.666 95.665C128.908 95.8519 129.254 95.9954 129.705 96.0957C130.161 96.196 130.701 96.2461 131.325 96.2461C131.95 96.2461 132.488 96.196 132.939 96.0957C133.39 95.9954 133.736 95.8519 133.978 95.665C134.219 95.4782 134.342 95.2526 134.347 94.9883C134.342 94.5736 134.074 94.2546 133.54 94.0312C133.012 93.8034 132.273 93.694 131.325 93.7031ZM146.204 87.8652H148.05V88.7539H146.204V91.6387H145.138V84.9121H146.204V87.8652ZM146.204 94.9609H139.532V96.1504H146.655V96.9707H138.48V94.168H145.138V93.0742H138.452V92.2676H146.204V94.9609ZM143.976 86.9219H136.73V86.0605H139.82V84.8301H140.886V86.0605H143.976V86.9219ZM140.353 87.4688C140.936 87.4688 141.446 87.5508 141.884 87.7148C142.326 87.8743 142.668 88.1045 142.909 88.4053C143.151 88.7061 143.274 89.0592 143.279 89.4648C143.274 89.8704 143.151 90.2236 142.909 90.5244C142.668 90.8252 142.326 91.0576 141.884 91.2217C141.446 91.3812 140.936 91.4609 140.353 91.4609C139.765 91.4609 139.248 91.3812 138.801 91.2217C138.359 91.0576 138.017 90.8252 137.776 90.5244C137.539 90.2236 137.422 89.8704 137.427 89.4648C137.422 89.0592 137.539 88.7061 137.776 88.4053C138.017 88.1045 138.359 87.8743 138.801 87.7148C139.248 87.5508 139.765 87.4688 140.353 87.4688ZM140.353 88.2617C139.974 88.2617 139.64 88.3118 139.348 88.4121C139.061 88.5124 138.837 88.6536 138.678 88.8359C138.523 89.0182 138.448 89.2279 138.452 89.4648C138.448 89.7064 138.523 89.9183 138.678 90.1006C138.837 90.2783 139.061 90.415 139.348 90.5107C139.635 90.6064 139.97 90.6543 140.353 90.6543C140.932 90.6543 141.394 90.5495 141.74 90.3398C142.087 90.1257 142.262 89.834 142.267 89.4648C142.262 89.2233 142.18 89.0137 142.021 88.8359C141.861 88.6536 141.638 88.5124 141.351 88.4121C141.064 88.3118 140.731 88.2617 140.353 88.2617ZM159.528 89.9297H161.005V84.9531H162.03V97.1074H161.005V90.8184H159.528V96.5059H158.53V85.2266H159.528V89.9297ZM154.483 87.3867H152.843V93.0264C153.458 92.999 154.032 92.9193 154.565 92.7871L154.661 93.7031C154.215 93.8034 153.811 93.8672 153.451 93.8945C153.091 93.9219 152.715 93.9355 152.323 93.9355H151.845V86.498H154.483V87.3867ZM157.71 87.3867H155.987V93.0264C156.721 93.0081 157.382 92.9147 157.97 92.7461L158.065 93.6621C157.619 93.7806 157.204 93.8558 156.821 93.8877C156.443 93.9196 156.006 93.9355 155.509 93.9355H155.017V86.498H157.71V87.3867ZM170.323 88.2207C170.323 88.918 170.464 89.6152 170.747 90.3125C171.03 91.0052 171.41 91.625 171.889 92.1719C172.372 92.7188 172.898 93.1335 173.468 93.416L172.811 94.2773C172.141 93.9264 171.54 93.4115 171.007 92.7324C170.478 92.0534 170.079 91.2923 169.81 90.4492C169.542 91.347 169.136 92.1582 168.594 92.8828C168.051 93.6029 167.438 94.1452 166.755 94.5098L166.071 93.6484C166.659 93.3613 167.195 92.9307 167.678 92.3564C168.165 91.7777 168.55 91.126 168.833 90.4014C169.12 89.6722 169.266 88.9453 169.27 88.2207V86.0059H170.323V88.2207ZM175.655 89.8887H177.692V90.8184H175.655V97.1074H174.589V84.9531H175.655V89.8887ZM189.003 91.8574H177.929V90.9688H180.677V89.2598C180.184 89.0684 179.808 88.82 179.549 88.5146C179.289 88.2048 179.159 87.847 179.159 87.4414C179.159 86.9674 179.332 86.5618 179.679 86.2246C180.025 85.8874 180.519 85.6299 181.162 85.4521C181.809 85.2744 182.577 85.1855 183.466 85.1855C184.345 85.1855 185.106 85.2744 185.749 85.4521C186.396 85.6299 186.893 85.8874 187.239 86.2246C187.585 86.5618 187.759 86.9674 187.759 87.4414C187.759 87.8424 187.629 88.1979 187.369 88.5078C187.114 88.8132 186.742 89.0615 186.255 89.2529V90.9688H189.003V91.8574ZM183.466 92.7871C184.336 92.7871 185.083 92.8691 185.708 93.0332C186.332 93.1973 186.811 93.4411 187.143 93.7646C187.476 94.0837 187.645 94.4733 187.649 94.9336C187.645 95.3893 187.476 95.7767 187.143 96.0957C186.811 96.4193 186.332 96.6631 185.708 96.8271C185.083 96.9958 184.336 97.0801 183.466 97.0801C182.586 97.0801 181.832 96.9958 181.203 96.8271C180.579 96.6631 180.1 96.4193 179.767 96.0957C179.435 95.7767 179.268 95.3893 179.268 94.9336C179.268 94.4733 179.432 94.0837 179.761 93.7646C180.093 93.4411 180.574 93.1973 181.203 93.0332C181.832 92.8691 182.586 92.7871 183.466 92.7871ZM183.466 93.6074C182.481 93.6165 181.716 93.7373 181.169 93.9697C180.626 94.1976 180.358 94.5189 180.362 94.9336C180.358 95.207 180.478 95.4417 180.724 95.6377C180.971 95.8337 181.326 95.984 181.791 96.0889C182.26 96.1937 182.818 96.2461 183.466 96.2461C184.104 96.2461 184.655 96.1937 185.12 96.0889C185.589 95.984 185.947 95.8337 186.193 95.6377C186.444 95.4417 186.569 95.207 186.569 94.9336C186.569 94.5189 186.293 94.1976 185.742 93.9697C185.195 93.7373 184.436 93.6165 183.466 93.6074ZM183.466 86.0332C182.809 86.0332 182.24 86.0902 181.757 86.2041C181.274 86.318 180.902 86.4821 180.642 86.6963C180.387 86.9059 180.262 87.1543 180.266 87.4414C180.262 87.7331 180.387 87.986 180.642 88.2002C180.902 88.4098 181.271 88.5716 181.75 88.6855C182.233 88.7949 182.805 88.8496 183.466 88.8496C184.122 88.8496 184.689 88.7949 185.168 88.6855C185.646 88.5716 186.015 88.4098 186.275 88.2002C186.535 87.986 186.665 87.7331 186.665 87.4414C186.665 87.1543 186.535 86.9059 186.275 86.6963C186.015 86.4821 185.644 86.318 185.161 86.2041C184.682 86.0902 184.117 86.0332 183.466 86.0332ZM185.188 90.9688V89.5469C184.664 89.638 184.09 89.6836 183.466 89.6836C182.841 89.6836 182.267 89.638 181.743 89.5469V90.9688H185.188ZM196.854 91.0918H194.188V93.4844C195.478 93.4342 196.649 93.3477 197.702 93.2246L197.784 94.0312C196.581 94.209 195.328 94.3275 194.024 94.3867C192.721 94.4414 191.322 94.4688 189.827 94.4688L189.676 93.5664C191.007 93.5664 192.156 93.5527 193.122 93.5254V91.0918H190.606V86.1152H196.8V86.9902H191.659V90.2031H196.854V91.0918ZM199.575 97.1348H198.509V84.9531H199.575V97.1348ZM211.118 89.5059H202.792V85.4043H203.858V88.6445H211.118V89.5059ZM212.403 92.0352H201.274V91.1602H212.403V92.0352ZM211.186 96.8066H202.723V93.2793H203.79V95.918H211.186V96.8066ZM32.5664 110.221C32.5664 110.918 32.7077 111.615 32.9902 112.312C33.2728 113.005 33.6533 113.625 34.1318 114.172C34.6149 114.719 35.1413 115.133 35.7109 115.416L35.0547 116.277C34.3848 115.926 33.7832 115.411 33.25 114.732C32.7214 114.053 32.3226 113.292 32.0537 112.449C31.7848 113.347 31.3792 114.158 30.8369 114.883C30.2946 115.603 29.6816 116.145 28.998 116.51L28.3145 115.648C28.9023 115.361 29.4378 114.931 29.9209 114.356C30.4085 113.778 30.7936 113.126 31.0762 112.401C31.3633 111.672 31.5091 110.945 31.5137 110.221V108.006H32.5664V110.221ZM37.8984 111.889H39.9355V112.818H37.8984V119.107H36.832V106.953H37.8984V111.889ZM51.246 113.857H40.1718V112.969H42.9198V111.26C42.4277 111.068 42.0517 110.82 41.7919 110.515C41.5321 110.205 41.4023 109.847 41.4023 109.441C41.4023 108.967 41.5754 108.562 41.9218 108.225C42.2682 107.887 42.7626 107.63 43.4052 107.452C44.0523 107.274 44.8202 107.186 45.7089 107.186C46.5885 107.186 47.3495 107.274 47.9921 107.452C48.6392 107.63 49.136 107.887 49.4823 108.225C49.8287 108.562 50.0019 108.967 50.0019 109.441C50.0019 109.842 49.872 110.198 49.6122 110.508C49.357 110.813 48.9856 111.062 48.498 111.253V112.969H51.246V113.857ZM45.7089 114.787C46.5793 114.787 47.3267 114.869 47.9511 115.033C48.5754 115.197 49.054 115.441 49.3866 115.765C49.7193 116.084 49.8879 116.473 49.8925 116.934C49.8879 117.389 49.7193 117.777 49.3866 118.096C49.054 118.419 48.5754 118.663 47.9511 118.827C47.3267 118.996 46.5793 119.08 45.7089 119.08C44.8293 119.08 44.0751 118.996 43.4462 118.827C42.8219 118.663 42.3433 118.419 42.0107 118.096C41.678 117.777 41.5116 117.389 41.5116 116.934C41.5116 116.473 41.6757 116.084 42.0038 115.765C42.3365 115.441 42.8173 115.197 43.4462 115.033C44.0751 114.869 44.8293 114.787 45.7089 114.787ZM45.7089 115.607C44.7245 115.617 43.9589 115.737 43.412 115.97C42.8697 116.198 42.6008 116.519 42.6054 116.934C42.6008 117.207 42.7216 117.442 42.9677 117.638C43.2138 117.834 43.5693 117.984 44.0341 118.089C44.5035 118.194 45.0618 118.246 45.7089 118.246C46.3469 118.246 46.8984 118.194 47.3632 118.089C47.8326 117.984 48.1904 117.834 48.4364 117.638C48.6871 117.442 48.8124 117.207 48.8124 116.934C48.8124 116.519 48.5367 116.198 47.9853 115.97C47.4384 115.737 46.6796 115.617 45.7089 115.607ZM45.7089 108.033C45.0527 108.033 44.483 108.09 43.9999 108.204C43.5168 108.318 43.1454 108.482 42.8857 108.696C42.6305 108.906 42.5051 109.154 42.5097 109.441C42.5051 109.733 42.6305 109.986 42.8857 110.2C43.1454 110.41 43.5146 110.572 43.9931 110.686C44.4762 110.795 45.0481 110.85 45.7089 110.85C46.3652 110.85 46.9325 110.795 47.4111 110.686C47.8896 110.572 48.2587 110.41 48.5185 110.2C48.7782 109.986 48.9081 109.733 48.9081 109.441C48.9081 109.154 48.7782 108.906 48.5185 108.696C48.2587 108.482 47.8873 108.318 47.4042 108.204C46.9257 108.09 46.3606 108.033 45.7089 108.033ZM47.4316 112.969V111.547C46.9075 111.638 46.3333 111.684 45.7089 111.684C45.0846 111.684 44.5103 111.638 43.9862 111.547V112.969H47.4316ZM55.9666 110.686C55.9621 111.324 56.0988 111.973 56.3768 112.634C56.6593 113.29 57.0422 113.885 57.5252 114.418C58.0083 114.947 58.5415 115.348 59.1248 115.621L58.5096 116.469C57.8306 116.141 57.2176 115.639 56.6707 114.965C56.1284 114.29 55.7183 113.538 55.4403 112.709C55.258 113.301 55.0073 113.864 54.6883 114.397C54.3693 114.931 54.0047 115.402 53.5946 115.812C53.1844 116.218 52.7537 116.537 52.3026 116.77L51.6463 115.922C52.2251 115.644 52.7629 115.222 53.2596 114.657C53.7609 114.092 54.1597 113.459 54.4559 112.757C54.7567 112.055 54.9093 111.365 54.9139 110.686V109.1H52.0838V108.211H58.701V109.1H55.9666V110.686ZM61.2577 111.875H63.2948V112.791H61.2577V119.107H60.1912V106.953H61.2577V111.875ZM67.5095 107.842C68.143 107.842 68.7058 107.963 69.198 108.204C69.6948 108.446 70.0821 108.783 70.3601 109.216C70.6381 109.649 70.7771 110.143 70.7771 110.699C70.7771 111.255 70.6381 111.75 70.3601 112.183C70.0821 112.616 69.6948 112.953 69.198 113.194C68.7058 113.436 68.143 113.557 67.5095 113.557C66.8761 113.557 66.3087 113.436 65.8074 113.194C65.3106 112.953 64.921 112.616 64.6384 112.183C64.3604 111.75 64.2237 111.255 64.2283 110.699C64.2237 110.143 64.3604 109.649 64.6384 109.216C64.921 108.783 65.3106 108.446 65.8074 108.204C66.3087 107.963 66.8761 107.842 67.5095 107.842ZM67.5095 108.785C67.0811 108.785 66.6961 108.867 66.3543 109.031C66.017 109.191 65.7527 109.416 65.5613 109.708C65.3699 109.995 65.2765 110.326 65.281 110.699C65.2765 111.073 65.3699 111.406 65.5613 111.697C65.7527 111.984 66.017 112.21 66.3543 112.374C66.6961 112.534 67.0811 112.613 67.5095 112.613C67.9334 112.613 68.3139 112.534 68.6511 112.374C68.9884 112.21 69.2504 111.984 69.4373 111.697C69.6287 111.406 69.7244 111.073 69.7244 110.699C69.7244 110.326 69.6287 109.995 69.4373 109.708C69.2504 109.416 68.9884 109.191 68.6511 109.031C68.3139 108.867 67.9334 108.785 67.5095 108.785ZM73.4978 119.135H72.4314V106.953H73.4978V119.135ZM63.5994 115.539C65.1762 115.539 66.6095 115.514 67.8992 115.464C69.1935 115.414 70.4353 115.302 71.6248 115.129L71.7068 115.922C70.4854 116.15 69.239 116.296 67.9675 116.359C66.7006 116.423 65.2947 116.455 63.7498 116.455L63.5994 115.539ZM88.6949 119.107H87.6695V112.736H85.8785V118.479H84.8941V107.227H85.8785V111.848H87.6695V106.953H88.6949V119.107ZM83.3082 109.332H79.8219V115.184C80.7197 115.179 81.4807 115.154 82.1051 115.108C82.734 115.058 83.3674 114.969 84.0055 114.842L84.1012 115.744C83.4085 115.885 82.7249 115.981 82.0504 116.031C81.3805 116.077 80.5419 116.1 79.5348 116.1H78.7555V108.443H83.3082V109.332ZM101.113 117.617H89.9839V116.729H93.0874V113.83H90.9956V112.941H92.896V108.977H90.9683V108.088H100.046V108.977H98.1187V112.941H100.019V113.83H97.9273V116.729H101.113V117.617ZM97.0659 112.941V108.977H93.9624V112.941H97.0659ZM96.8609 116.729V113.83H94.1675V116.729H96.8609ZM105.888 109.195C105.888 109.719 106.013 110.228 106.264 110.72C106.515 111.207 106.866 111.643 107.317 112.025C107.773 112.404 108.294 112.695 108.882 112.9L108.322 113.748C107.643 113.502 107.046 113.137 106.531 112.654C106.02 112.171 105.633 111.615 105.369 110.986C105.104 111.688 104.703 112.306 104.165 112.839C103.628 113.372 102.999 113.771 102.279 114.035L101.718 113.188C102.311 112.973 102.842 112.663 103.311 112.258C103.78 111.848 104.147 111.378 104.412 110.85C104.676 110.316 104.808 109.77 104.808 109.209V108.676H102.06V107.801H108.609V108.676H105.888V109.195ZM111.74 119.107H110.66V115.771H103.564V114.883H111.74V119.107ZM111.74 114.24H110.66V111.041H108.226V110.139H110.66V106.953H111.74V114.24ZM123.378 115.854H122.312V106.967H123.378V115.854ZM123.761 118.848H115.531V114.951H116.597V117.945H123.761V118.848ZM116.816 107.814C117.417 107.814 117.96 107.942 118.443 108.197C118.93 108.448 119.311 108.801 119.584 109.257C119.862 109.708 120.001 110.221 120.001 110.795C120.001 111.378 119.862 111.898 119.584 112.354C119.311 112.805 118.93 113.158 118.443 113.413C117.96 113.664 117.417 113.789 116.816 113.789C116.214 113.789 115.67 113.664 115.182 113.413C114.699 113.158 114.318 112.805 114.04 112.354C113.767 111.898 113.63 111.378 113.63 110.795C113.63 110.221 113.767 109.708 114.04 109.257C114.318 108.801 114.699 108.448 115.182 108.197C115.67 107.942 116.214 107.814 116.816 107.814ZM116.816 108.758C116.41 108.758 116.043 108.844 115.715 109.018C115.392 109.191 115.136 109.432 114.95 109.742C114.767 110.052 114.678 110.403 114.683 110.795C114.678 111.191 114.767 111.547 114.95 111.861C115.136 112.171 115.392 112.413 115.715 112.586C116.043 112.759 116.41 112.846 116.816 112.846C117.212 112.846 117.572 112.759 117.896 112.586C118.224 112.413 118.481 112.171 118.668 111.861C118.855 111.547 118.949 111.191 118.949 110.795C118.949 110.408 118.855 110.059 118.668 109.749C118.481 109.439 118.224 109.198 117.896 109.024C117.572 108.847 117.212 108.758 116.816 108.758ZM139.245 117.549H128.116V116.633H139.245V117.549ZM138.179 109.072H136.251V113.324H138.152V114.199H129.128V113.324H131.029V109.072H129.101V108.184H138.179V109.072ZM135.198 113.324V109.072H132.095V113.324H135.198ZM150.925 117.604H139.796V116.701H144.8V114.404H141.191V110.658H148.464V108.744H141.163V107.855H149.517V111.533H142.257V113.516H149.804V114.404H145.853V116.701H150.925V117.604ZM161.524 113.27H160.444V106.953H161.524V113.27ZM161.524 116.756H154.661V118.096H161.989V118.971H153.608V115.949H160.458V114.719H153.567V113.857H161.524V116.756ZM158.599 108.648H157.368V111.759C157.938 111.722 158.549 111.665 159.2 111.588L159.255 112.381C158.138 112.545 156.931 112.661 155.632 112.729C154.338 112.798 153.066 112.832 151.817 112.832L151.681 111.943L153.239 111.93V108.648H152.022V107.787H158.599V108.648ZM154.278 111.909C155.199 111.882 155.883 111.854 156.329 111.827V108.648H154.278V111.909ZM176.325 114.199H175.245V111.014H172.798V110.125H175.245V106.953H176.325V114.199ZM172.292 114.582C173.135 114.582 173.862 114.671 174.473 114.849C175.083 115.026 175.55 115.284 175.874 115.621C176.202 115.958 176.366 116.364 176.366 116.838C176.366 117.312 176.202 117.717 175.874 118.055C175.55 118.396 175.083 118.656 174.473 118.834C173.862 119.012 173.135 119.103 172.292 119.107C171.449 119.103 170.722 119.012 170.111 118.834C169.501 118.656 169.031 118.396 168.703 118.055C168.379 117.717 168.218 117.312 168.218 116.838C168.218 116.364 168.379 115.958 168.703 115.621C169.031 115.284 169.501 115.026 170.111 114.849C170.722 114.671 171.449 114.582 172.292 114.582ZM172.292 115.416C171.677 115.416 171.141 115.473 170.685 115.587C170.23 115.701 169.881 115.865 169.64 116.079C169.398 116.293 169.28 116.546 169.284 116.838C169.28 117.125 169.398 117.376 169.64 117.59C169.881 117.799 170.23 117.961 170.685 118.075C171.141 118.189 171.677 118.246 172.292 118.246C172.907 118.246 173.44 118.189 173.891 118.075C174.347 117.961 174.696 117.799 174.937 117.59C175.179 117.376 175.3 117.125 175.3 116.838C175.3 116.546 175.179 116.293 174.937 116.079C174.696 115.865 174.347 115.701 173.891 115.587C173.44 115.473 172.907 115.416 172.292 115.416ZM170.474 109.182C170.474 109.706 170.599 110.214 170.849 110.706C171.1 111.194 171.451 111.629 171.902 112.012C172.358 112.39 172.88 112.682 173.468 112.887L172.907 113.748C172.228 113.502 171.631 113.137 171.116 112.654C170.606 112.171 170.221 111.613 169.961 110.979C169.696 111.69 169.293 112.319 168.751 112.866C168.213 113.409 167.584 113.816 166.864 114.09L166.304 113.229C166.901 113.01 167.434 112.695 167.903 112.285C168.373 111.87 168.737 111.394 168.997 110.856C169.261 110.319 169.393 109.765 169.393 109.195V108.744H166.645V107.842H173.194V108.744H170.474V109.182ZM189.057 117.549H177.929V116.66H182.932V114.035H179.241V107.814H180.321V110.016H186.637V107.814H187.69V114.035H183.985V116.66H189.057V117.549ZM186.637 113.16V110.891H180.321V113.16H186.637ZM200.723 113.447H189.594V112.6H200.723V113.447ZM199.329 117.002H192.028V118.164H199.725V118.943H190.948V116.264H198.262V115.225H190.934V114.418H199.329V117.002ZM199.288 109.838H192.11V110.904H199.507V111.684H191.044V109.1H198.208V108.102H191.003V107.322H199.288V109.838ZM213.883 109.592H215.715V110.494H213.883V113.146H212.817V106.953H213.883V109.592ZM210.52 112.504H204.901V107.65H210.52V112.504ZM205.954 111.643H209.481V108.525H205.954V111.643ZM213.883 116.688H207.211V118.082H214.335V118.943H206.159V115.867H212.817V114.582H206.131V113.721H213.883V116.688ZM225.563 110.07H227.395V110.986H225.563V114.021H224.497V106.953H225.563V110.07ZM218.946 115.854H224.497V114.555H225.563V118.943H217.879V114.555H218.946V115.854ZM224.497 118.082V116.701H218.946V118.082H224.497ZM223.334 109.1H216.088V108.211H219.178V106.844H220.245V108.211H223.334V109.1ZM219.711 109.66C220.29 109.66 220.798 109.749 221.236 109.927C221.678 110.1 222.02 110.348 222.261 110.672C222.507 110.991 222.633 111.365 222.637 111.793C222.633 112.221 222.507 112.597 222.261 112.921C222.02 113.24 221.678 113.488 221.236 113.666C220.798 113.839 220.29 113.926 219.711 113.926C219.128 113.926 218.613 113.839 218.166 113.666C217.724 113.488 217.383 113.24 217.141 112.921C216.9 112.597 216.781 112.221 216.786 111.793C216.781 111.365 216.9 110.991 217.141 110.672C217.383 110.348 217.724 110.1 218.166 109.927C218.613 109.749 219.128 109.66 219.711 109.66ZM219.711 110.494C219.333 110.49 218.998 110.542 218.707 110.651C218.419 110.756 218.196 110.909 218.037 111.109C217.882 111.31 217.806 111.538 217.811 111.793C217.806 112.053 217.882 112.283 218.037 112.483C218.196 112.679 218.419 112.832 218.707 112.941C218.998 113.051 219.333 113.105 219.711 113.105C220.085 113.105 220.416 113.051 220.703 112.941C220.994 112.832 221.22 112.679 221.379 112.483C221.539 112.283 221.621 112.053 221.625 111.793C221.621 111.533 221.537 111.305 221.373 111.109C221.213 110.909 220.99 110.756 220.703 110.651C220.416 110.542 220.085 110.49 219.711 110.494ZM237.762 119.107H236.696V106.953H237.762V119.107ZM229.586 115.047C231.642 115.038 233.579 114.842 235.397 114.459L235.547 115.375C234.513 115.589 233.506 115.744 232.526 115.84C231.546 115.931 230.543 115.977 229.518 115.977H228.534V108.156H229.586V115.047ZM248.826 111.766H250.864V112.668H248.826V119.135H247.76V106.953H248.826V111.766ZM245.627 109.031H241.02V115.184C242.155 115.184 243.146 115.152 243.993 115.088C244.841 115.024 245.705 114.91 246.584 114.746L246.721 115.676C245.823 115.84 244.941 115.949 244.076 116.004C243.21 116.059 242.155 116.086 240.91 116.086H239.953V108.143H245.627V109.031ZM252.385 118.082C252.225 118.082 252.077 118.043 251.941 117.966C251.808 117.884 251.701 117.774 251.619 117.638C251.542 117.501 251.505 117.353 251.51 117.193C251.505 117.038 251.542 116.895 251.619 116.763C251.701 116.626 251.808 116.519 251.941 116.441C252.077 116.359 252.225 116.318 252.385 116.318C252.54 116.318 252.683 116.359 252.816 116.441C252.952 116.519 253.059 116.626 253.137 116.763C253.219 116.895 253.26 117.038 253.26 117.193C253.26 117.353 253.219 117.501 253.137 117.638C253.059 117.774 252.952 117.884 252.816 117.966C252.683 118.043 252.54 118.082 252.385 118.082Z" fill="#666666"/>
<path d="M39.6211 161.521H28.4922V160.633H33.4688V157.652H34.5215V160.633H39.6211V161.521ZM34.5488 152.717C34.5488 153.364 34.7721 153.986 35.2188 154.583C35.6699 155.18 36.2441 155.686 36.9414 156.101C37.6432 156.511 38.3542 156.777 39.0742 156.9L38.5957 157.789C37.9668 157.661 37.3493 157.44 36.7432 157.126C36.137 156.812 35.5902 156.42 35.1025 155.95C34.6195 155.481 34.2503 154.964 33.9951 154.398C33.7399 154.964 33.3708 155.481 32.8877 155.95C32.4046 156.42 31.86 156.812 31.2539 157.126C30.6523 157.44 30.0371 157.661 29.4082 157.789L28.9297 156.9C29.6497 156.777 30.3561 156.511 31.0488 156.101C31.7461 155.686 32.3158 155.182 32.7578 154.59C33.2044 153.993 33.4277 153.368 33.4277 152.717V151.787H34.5488V152.717ZM50.5487 163.107H49.496V156.75H47.8144V162.506H46.789V151.281H47.8144V155.861H49.496V150.953H50.5487V163.107ZM45.4081 152.539C45.399 154.23 45.0413 155.752 44.3349 157.105C43.6331 158.454 42.4596 159.585 40.8144 160.496L40.1855 159.744C42.7695 158.304 44.1594 156.199 44.3554 153.428H40.6503V152.539H45.4081ZM58.3866 152.73H53.6424V154.262H58.0448V155.137H53.6424V156.736C55.0233 156.736 56.1216 156.716 56.9373 156.675C57.7531 156.629 58.5689 156.54 59.3846 156.408L59.494 157.283C58.6418 157.42 57.7918 157.511 56.9442 157.557C56.0965 157.602 54.964 157.625 53.5467 157.625H52.5623V151.855H58.3866V152.73ZM61.8866 158.5H60.8202V150.967H61.8866V158.5ZM57.8534 158.678C58.6919 158.673 59.4188 158.757 60.034 158.931C60.6493 159.099 61.1209 159.35 61.4491 159.683C61.7772 160.011 61.9412 160.405 61.9412 160.865C61.9412 161.335 61.7772 161.733 61.4491 162.062C61.1209 162.394 60.6493 162.647 60.034 162.82C59.4233 162.993 58.6965 163.08 57.8534 163.08C56.992 163.08 56.2537 162.993 55.6385 162.82C55.0233 162.652 54.5516 162.401 54.2235 162.068C53.8999 161.736 53.7381 161.335 53.7381 160.865C53.7381 160.405 53.8999 160.011 54.2235 159.683C54.5516 159.35 55.0233 159.099 55.6385 158.931C56.2583 158.757 56.9966 158.673 57.8534 158.678ZM57.8534 159.525C57.2199 159.525 56.673 159.58 56.2127 159.689C55.757 159.794 55.4084 159.947 55.1668 160.147C54.9253 160.348 54.8045 160.587 54.8045 160.865C54.8045 161.152 54.9253 161.398 55.1668 161.604C55.4084 161.809 55.757 161.964 56.2127 162.068C56.673 162.178 57.2199 162.232 57.8534 162.232C58.4732 162.232 59.0109 162.178 59.4666 162.068C59.9224 161.959 60.2733 161.802 60.5194 161.597C60.7655 161.392 60.8885 161.148 60.8885 160.865C60.8885 160.592 60.7655 160.355 60.5194 160.154C60.2733 159.949 59.9201 159.794 59.4598 159.689C59.0041 159.58 58.4686 159.525 57.8534 159.525ZM69.0681 151.172C69.9705 151.172 70.7429 151.254 71.3855 151.418C72.0281 151.577 72.518 151.814 72.8552 152.129C73.1925 152.439 73.3611 152.817 73.3611 153.264C73.3611 153.947 72.9874 154.471 72.24 154.836C71.4926 155.201 70.4353 155.387 69.0681 155.396C68.1658 155.392 67.391 155.308 66.7439 155.144C66.1013 154.979 65.6091 154.74 65.2673 154.426C64.9301 154.107 64.7615 153.719 64.7615 153.264C64.7615 152.817 64.9301 152.439 65.2673 152.129C65.6091 151.814 66.1013 151.577 66.7439 151.418C67.391 151.254 68.1658 151.172 69.0681 151.172ZM69.0681 151.979C68.3982 151.979 67.824 152.031 67.3455 152.136C66.867 152.236 66.5024 152.384 66.2517 152.58C66.0011 152.771 65.878 152.999 65.8826 153.264C65.878 153.683 66.1537 154.007 66.7097 154.234C67.2657 154.462 68.0519 154.576 69.0681 154.576C70.0798 154.576 70.866 154.462 71.4265 154.234C71.9871 154.007 72.2673 153.683 72.2673 153.264C72.2673 152.999 72.1397 152.771 71.8845 152.58C71.6293 152.389 71.2625 152.241 70.7839 152.136C70.3054 152.031 69.7335 151.979 69.0681 151.979ZM74.6052 157.092H63.531V156.217H74.6052V157.092ZM73.1834 160.865H65.9646V162.123H73.5525V162.971H64.8982V160.072H72.1306V158.965H64.8709V158.145H73.1834V160.865ZM82.6793 153.564C82.6793 154.102 82.8115 154.619 83.0758 155.116C83.3401 155.608 83.7092 156.041 84.1832 156.415C84.6572 156.784 85.1949 157.064 85.7965 157.256L85.2496 158.117C84.5387 157.876 83.9143 157.516 83.3766 157.037C82.8388 156.559 82.4332 155.998 82.1598 155.355C81.8954 156.048 81.4898 156.657 80.943 157.181C80.4007 157.705 79.7672 158.099 79.0426 158.363L78.482 157.502C79.0836 157.288 79.6214 156.98 80.0953 156.579C80.5693 156.178 80.9384 155.718 81.2027 155.198C81.4671 154.674 81.5992 154.13 81.5992 153.564V152.854H78.7555V151.979H85.482V152.854H82.6793V153.564ZM88.3395 159.881H87.273V150.967H88.3395V159.881ZM88.7223 162.848H80.4918V159.033H81.5582V161.945H88.7223V162.848ZM100.306 158.65H99.2808V155.164H97.6538V158.213H96.6421V151.199H97.6538V154.275H99.2808V150.953H100.306V158.65ZM96.1499 153.277H89.9155V152.416H92.5132V151.049H93.5796V152.416H96.1499V153.277ZM93.0464 153.934C93.5568 153.934 94.008 154.02 94.3999 154.193C94.7964 154.362 95.104 154.604 95.3228 154.918C95.5415 155.228 95.6532 155.592 95.6577 156.012C95.6532 156.422 95.5415 156.784 95.3228 157.099C95.104 157.409 94.7964 157.65 94.3999 157.823C94.008 157.992 93.5568 158.076 93.0464 158.076C92.5405 158.076 92.0894 157.992 91.6929 157.823C91.2964 157.65 90.9888 157.409 90.77 157.099C90.5513 156.784 90.4442 156.422 90.4487 156.012C90.4442 155.597 90.5513 155.232 90.77 154.918C90.9888 154.604 91.2941 154.362 91.6861 154.193C92.0825 154.02 92.536 153.934 93.0464 153.934ZM93.0464 154.727C92.7274 154.727 92.4426 154.781 92.1919 154.891C91.9458 154.995 91.7521 155.146 91.6109 155.342C91.4741 155.538 91.4058 155.761 91.4058 156.012C91.4058 156.258 91.4741 156.477 91.6109 156.668C91.7521 156.859 91.9458 157.007 92.1919 157.112C92.4426 157.217 92.7274 157.27 93.0464 157.27C93.3654 157.27 93.648 157.217 93.8941 157.112C94.1447 157.007 94.3384 156.859 94.4751 156.668C94.6164 156.477 94.687 156.258 94.687 156.012C94.687 155.761 94.6164 155.538 94.4751 155.342C94.3384 155.146 94.1447 154.995 93.8941 154.891C93.648 154.781 93.3654 154.727 93.0464 154.727ZM96.2866 158.855C97.1389 158.855 97.8703 158.94 98.481 159.108C99.0917 159.272 99.5588 159.514 99.8823 159.833C100.21 160.152 100.375 160.537 100.375 160.988C100.375 161.426 100.21 161.802 99.8823 162.116C99.5588 162.431 99.0894 162.67 98.4741 162.834C97.8635 162.998 97.1343 163.08 96.2866 163.08C95.439 163.08 94.7075 162.998 94.0923 162.834C93.4816 162.67 93.0145 162.431 92.6909 162.116C92.3674 161.802 92.2079 161.426 92.2124 160.988C92.2079 160.537 92.3674 160.152 92.6909 159.833C93.0145 159.514 93.4816 159.272 94.0923 159.108C94.703 158.94 95.4344 158.855 96.2866 158.855ZM96.2866 159.703C95.6577 159.699 95.1177 159.746 94.6665 159.847C94.2154 159.942 93.869 160.088 93.6275 160.284C93.3905 160.48 93.2743 160.715 93.2788 160.988C93.2743 161.253 93.3905 161.478 93.6275 161.665C93.869 161.852 94.2154 161.995 94.6665 162.096C95.1223 162.196 95.6623 162.246 96.2866 162.246C96.911 162.246 97.4487 162.196 97.8999 162.096C98.3511 161.995 98.6974 161.852 98.939 161.665C99.1805 161.478 99.3036 161.253 99.3081 160.988C99.3036 160.574 99.0347 160.255 98.5015 160.031C97.9728 159.803 97.2346 159.694 96.2866 159.703ZM111.165 153.865H113.011V154.754H111.165V157.639H110.099V150.912H111.165V153.865ZM111.165 160.961H104.494V162.15H111.617V162.971H103.441V160.168H110.099V159.074H103.414V158.268H111.165V160.961ZM108.937 152.922H101.691V152.061H104.781V150.83H105.847V152.061H108.937V152.922ZM105.314 153.469C105.897 153.469 106.408 153.551 106.845 153.715C107.287 153.874 107.629 154.104 107.871 154.405C108.112 154.706 108.235 155.059 108.24 155.465C108.235 155.87 108.112 156.224 107.871 156.524C107.629 156.825 107.287 157.058 106.845 157.222C106.408 157.381 105.897 157.461 105.314 157.461C104.726 157.461 104.209 157.381 103.762 157.222C103.32 157.058 102.978 156.825 102.737 156.524C102.5 156.224 102.384 155.87 102.388 155.465C102.384 155.059 102.5 154.706 102.737 154.405C102.978 154.104 103.32 153.874 103.762 153.715C104.209 153.551 104.726 153.469 105.314 153.469ZM105.314 154.262C104.936 154.262 104.601 154.312 104.309 154.412C104.022 154.512 103.799 154.654 103.639 154.836C103.484 155.018 103.409 155.228 103.414 155.465C103.409 155.706 103.484 155.918 103.639 156.101C103.799 156.278 104.022 156.415 104.309 156.511C104.596 156.606 104.931 156.654 105.314 156.654C105.893 156.654 106.355 156.549 106.702 156.34C107.048 156.126 107.223 155.834 107.228 155.465C107.223 155.223 107.141 155.014 106.982 154.836C106.822 154.654 106.599 154.512 106.312 154.412C106.025 154.312 105.692 154.262 105.314 154.262ZM124.49 155.93H125.966V150.953H126.991V163.107H125.966V156.818H124.49V162.506H123.491V151.227H124.49V155.93ZM119.445 153.387H117.804V159.026C118.419 158.999 118.993 158.919 119.527 158.787L119.622 159.703C119.176 159.803 118.772 159.867 118.412 159.895C118.052 159.922 117.676 159.936 117.284 159.936H116.806V152.498H119.445V153.387ZM122.671 153.387H120.949V159.026C121.682 159.008 122.343 158.915 122.931 158.746L123.027 159.662C122.58 159.781 122.165 159.856 121.783 159.888C121.404 159.92 120.967 159.936 120.47 159.936H119.978V152.498H122.671V153.387ZM137.946 155.506H129.62V151.404H130.687V154.645H137.946V155.506ZM139.232 158.035H128.103V157.16H139.232V158.035ZM138.015 162.807H129.552V159.279H130.618V161.918H138.015V162.807ZM148.96 153.934H142.862V153.059H145.392V151.322H146.458V153.059H148.96V153.934ZM145.911 154.754C146.417 154.754 146.868 154.872 147.265 155.109C147.666 155.342 147.978 155.668 148.201 156.087C148.429 156.506 148.545 156.982 148.55 157.516C148.545 158.053 148.429 158.534 148.201 158.958C147.978 159.377 147.666 159.708 147.265 159.949C146.868 160.186 146.417 160.305 145.911 160.305C145.41 160.305 144.961 160.186 144.564 159.949C144.168 159.708 143.858 159.375 143.635 158.951C143.411 158.527 143.3 158.049 143.3 157.516C143.3 156.987 143.411 156.513 143.635 156.094C143.858 155.67 144.168 155.342 144.564 155.109C144.961 154.872 145.41 154.754 145.911 154.754ZM145.911 155.656C145.597 155.661 145.312 155.745 145.057 155.909C144.806 156.069 144.61 156.29 144.469 156.572C144.328 156.85 144.257 157.165 144.257 157.516C144.257 157.871 144.328 158.19 144.469 158.473C144.615 158.755 144.813 158.976 145.064 159.136C145.314 159.291 145.597 159.366 145.911 159.361C146.23 159.366 146.517 159.291 146.772 159.136C147.028 158.976 147.228 158.755 147.374 158.473C147.52 158.19 147.593 157.871 147.593 157.516C147.593 157.165 147.52 156.85 147.374 156.572C147.228 156.29 147.028 156.069 146.772 155.909C146.517 155.745 146.23 155.661 145.911 155.656ZM153.239 163.107H152.214V156.969H150.601V162.506H149.589V151.254H150.601V156.08H152.214V150.953H153.239V163.107ZM164.085 154.125H165.903V155.027H164.085V158.213H163.005V150.953H164.085V154.125ZM160.175 158.445C160.995 158.445 161.706 158.539 162.308 158.726C162.909 158.908 163.372 159.172 163.695 159.519C164.019 159.865 164.181 160.277 164.181 160.756C164.181 161.243 164.019 161.66 163.695 162.007C163.372 162.358 162.909 162.624 162.308 162.807C161.711 162.989 161 163.08 160.175 163.08C159.345 163.08 158.628 162.989 158.021 162.807C157.42 162.624 156.955 162.358 156.627 162.007C156.303 161.66 156.142 161.243 156.142 160.756C156.142 160.277 156.303 159.865 156.627 159.519C156.955 159.172 157.422 158.908 158.028 158.726C158.634 158.539 159.35 158.445 160.175 158.445ZM160.175 159.334C159.569 159.329 159.04 159.384 158.589 159.498C158.142 159.612 157.798 159.778 157.557 159.997C157.315 160.211 157.194 160.464 157.194 160.756C157.194 161.052 157.315 161.312 157.557 161.535C157.798 161.754 158.142 161.923 158.589 162.041C159.04 162.16 159.569 162.219 160.175 162.219C160.776 162.219 161.3 162.16 161.747 162.041C162.194 161.923 162.538 161.754 162.779 161.535C163.021 161.312 163.142 161.052 163.142 160.756C163.142 160.464 163.021 160.211 162.779 159.997C162.538 159.778 162.194 159.612 161.747 159.498C161.3 159.384 160.776 159.329 160.175 159.334ZM160.53 152.771H156.183V156.34C157.481 156.331 158.53 156.299 159.327 156.244C160.125 156.185 160.913 156.076 161.692 155.916L161.802 156.805C160.991 156.969 160.172 157.078 159.348 157.133C158.523 157.188 157.431 157.215 156.073 157.215H155.13V151.883H160.53V152.771ZM180.471 161.549H169.343V160.633H180.471V161.549ZM179.405 153.072H177.477V157.324H179.378V158.199H170.354V157.324H172.255V153.072H170.327V152.184H179.405V153.072ZM176.425 157.324V153.072H173.321V157.324H176.425ZM192.151 161.604H181.022V160.701H186.026V158.404H182.417V154.658H189.69V152.744H182.389V151.855H190.743V155.533H183.483V157.516H191.03V158.404H187.079V160.701H192.151V161.604ZM202.751 157.27H201.671V150.953H202.751V157.27ZM202.751 160.756H195.887V162.096H203.215V162.971H194.835V159.949H201.684V158.719H194.794V157.857H202.751V160.756ZM199.825 152.648H198.594V155.759C199.164 155.722 199.775 155.665 200.426 155.588L200.481 156.381C199.365 156.545 198.157 156.661 196.858 156.729C195.564 156.798 194.292 156.832 193.044 156.832L192.907 155.943L194.465 155.93V152.648H193.249V151.787H199.825V152.648ZM195.505 155.909C196.425 155.882 197.109 155.854 197.555 155.827V152.648H195.505V155.909ZM214.403 163.135H213.323V150.953H214.403V163.135ZM207.936 151.896C208.538 151.901 209.073 152.079 209.543 152.43C210.012 152.776 210.379 153.268 210.643 153.906C210.907 154.544 211.04 155.287 211.04 156.135C211.04 156.982 210.907 157.725 210.643 158.363C210.379 159.001 210.012 159.493 209.543 159.84C209.073 160.186 208.538 160.359 207.936 160.359C207.335 160.359 206.797 160.186 206.323 159.84C205.853 159.493 205.487 159.001 205.222 158.363C204.962 157.725 204.833 156.982 204.833 156.135C204.833 155.287 204.962 154.544 205.222 153.906C205.487 153.268 205.853 152.776 206.323 152.43C206.792 152.079 207.33 151.901 207.936 151.896ZM207.936 152.854C207.53 152.858 207.17 152.997 206.856 153.271C206.546 153.539 206.305 153.922 206.131 154.419C205.958 154.911 205.872 155.483 205.872 156.135C205.872 156.786 205.958 157.361 206.131 157.857C206.305 158.35 206.548 158.73 206.863 158.999C207.177 159.268 207.535 159.402 207.936 159.402C208.337 159.402 208.695 159.268 209.009 158.999C209.324 158.73 209.568 158.35 209.741 157.857C209.914 157.361 210.001 156.786 210.001 156.135C210.001 155.483 209.914 154.911 209.741 154.419C209.568 153.922 209.324 153.539 209.009 153.271C208.699 152.997 208.342 152.858 207.936 152.854ZM32.5664 176.221C32.5664 176.918 32.7077 177.615 32.9902 178.312C33.2728 179.005 33.6533 179.625 34.1318 180.172C34.6149 180.719 35.1413 181.133 35.7109 181.416L35.0547 182.277C34.3848 181.926 33.7832 181.411 33.25 180.732C32.7214 180.053 32.3226 179.292 32.0537 178.449C31.7848 179.347 31.3792 180.158 30.8369 180.883C30.2946 181.603 29.6816 182.145 28.998 182.51L28.3145 181.648C28.9023 181.361 29.4378 180.931 29.9209 180.356C30.4085 179.778 30.7936 179.126 31.0762 178.401C31.3633 177.672 31.5091 176.945 31.5137 176.221V174.006H32.5664V176.221ZM37.8984 177.889H39.9355V178.818H37.8984V185.107H36.832V172.953H37.8984V177.889ZM51.246 179.857H40.1718V178.969H42.9198V177.26C42.4277 177.068 42.0517 176.82 41.7919 176.515C41.5321 176.205 41.4023 175.847 41.4023 175.441C41.4023 174.967 41.5754 174.562 41.9218 174.225C42.2682 173.887 42.7626 173.63 43.4052 173.452C44.0523 173.274 44.8202 173.186 45.7089 173.186C46.5885 173.186 47.3495 173.274 47.9921 173.452C48.6392 173.63 49.136 173.887 49.4823 174.225C49.8287 174.562 50.0019 174.967 50.0019 175.441C50.0019 175.842 49.872 176.198 49.6122 176.508C49.357 176.813 48.9856 177.062 48.498 177.253V178.969H51.246V179.857ZM45.7089 180.787C46.5793 180.787 47.3267 180.869 47.9511 181.033C48.5754 181.197 49.054 181.441 49.3866 181.765C49.7193 182.084 49.8879 182.473 49.8925 182.934C49.8879 183.389 49.7193 183.777 49.3866 184.096C49.054 184.419 48.5754 184.663 47.9511 184.827C47.3267 184.996 46.5793 185.08 45.7089 185.08C44.8293 185.08 44.0751 184.996 43.4462 184.827C42.8219 184.663 42.3433 184.419 42.0107 184.096C41.678 183.777 41.5116 183.389 41.5116 182.934C41.5116 182.473 41.6757 182.084 42.0038 181.765C42.3365 181.441 42.8173 181.197 43.4462 181.033C44.0751 180.869 44.8293 180.787 45.7089 180.787ZM45.7089 181.607C44.7245 181.617 43.9589 181.737 43.412 181.97C42.8697 182.198 42.6008 182.519 42.6054 182.934C42.6008 183.207 42.7216 183.442 42.9677 183.638C43.2138 183.834 43.5693 183.984 44.0341 184.089C44.5035 184.194 45.0618 184.246 45.7089 184.246C46.3469 184.246 46.8984 184.194 47.3632 184.089C47.8326 183.984 48.1904 183.834 48.4364 183.638C48.6871 183.442 48.8124 183.207 48.8124 182.934C48.8124 182.519 48.5367 182.198 47.9853 181.97C47.4384 181.737 46.6796 181.617 45.7089 181.607ZM45.7089 174.033C45.0527 174.033 44.483 174.09 43.9999 174.204C43.5168 174.318 43.1454 174.482 42.8857 174.696C42.6305 174.906 42.5051 175.154 42.5097 175.441C42.5051 175.733 42.6305 175.986 42.8857 176.2C43.1454 176.41 43.5146 176.572 43.9931 176.686C44.4762 176.795 45.0481 176.85 45.7089 176.85C46.3652 176.85 46.9325 176.795 47.4111 176.686C47.8896 176.572 48.2587 176.41 48.5185 176.2C48.7782 175.986 48.9081 175.733 48.9081 175.441C48.9081 175.154 48.7782 174.906 48.5185 174.696C48.2587 174.482 47.8873 174.318 47.4042 174.204C46.9257 174.09 46.3606 174.033 45.7089 174.033ZM47.4316 178.969V177.547C46.9075 177.638 46.3333 177.684 45.7089 177.684C45.0846 177.684 44.5103 177.638 43.9862 177.547V178.969H47.4316ZM59.0975 179.092H56.4315V181.484C57.7212 181.434 58.8924 181.348 59.9452 181.225L60.0272 182.031C58.8241 182.209 57.5708 182.327 56.2674 182.387C54.964 182.441 53.5649 182.469 52.0702 182.469L51.9198 181.566C53.2505 181.566 54.3989 181.553 55.3651 181.525V179.092H52.8495V174.115H59.0428V174.99H53.9022V178.203H59.0975V179.092ZM61.8182 185.135H60.7518V172.953H61.8182V185.135ZM67.8787 176.686C67.8787 177.355 68.0268 178.023 68.323 178.688C68.6192 179.349 69.018 179.939 69.5193 180.459C70.0252 180.974 70.5766 181.361 71.1736 181.621L70.572 182.469C69.8565 182.141 69.2117 181.646 68.6375 180.985C68.0632 180.32 67.6349 179.57 67.3523 178.736C67.0698 179.63 66.6414 180.438 66.0672 181.163C65.4975 181.883 64.8663 182.419 64.1736 182.77L63.531 181.922C64.1052 181.644 64.6407 181.225 65.1375 180.664C65.6388 180.104 66.0398 179.472 66.3406 178.771C66.6414 178.064 66.794 177.369 66.7986 176.686V175.1H63.9275V174.211H70.7771V175.1H67.8787V176.686ZM73.5525 185.107H72.4724V172.953H73.5525V185.107ZM81.6949 173.65C82.2965 173.65 82.8365 173.771 83.315 174.013C83.7936 174.25 84.1695 174.582 84.443 175.011C84.7164 175.435 84.8531 175.915 84.8531 176.453C84.8531 176.995 84.7164 177.481 84.443 177.909C84.1695 178.333 83.7936 178.666 83.315 178.907C82.8365 179.144 82.2965 179.265 81.6949 179.27C81.0934 179.265 80.551 179.144 80.068 178.907C79.5895 178.666 79.2135 178.333 78.94 177.909C78.6666 177.481 78.5322 176.995 78.5367 176.453C78.5322 175.915 78.6666 175.435 78.94 175.011C79.2135 174.582 79.5895 174.25 80.068 174.013C80.551 173.771 81.0934 173.65 81.6949 173.65ZM81.6949 174.553C81.303 174.553 80.9452 174.635 80.6217 174.799C80.2981 174.963 80.0429 175.191 79.8561 175.482C79.6738 175.77 79.5849 176.093 79.5895 176.453C79.5849 176.818 79.6738 177.148 79.8561 177.444C80.0429 177.736 80.2981 177.966 80.6217 178.135C80.9452 178.299 81.303 178.381 81.6949 178.381C82.0914 178.381 82.4492 178.299 82.7682 178.135C83.0917 177.966 83.3447 177.736 83.527 177.444C83.7092 177.153 83.8004 176.822 83.8004 176.453C83.8004 176.093 83.7092 175.77 83.527 175.482C83.3447 175.191 83.0917 174.963 82.7682 174.799C82.4492 174.635 82.0914 174.553 81.6949 174.553ZM87.8063 175.701H89.6383V176.59H87.8063V179.037H86.7398V172.953H87.8063V175.701ZM80.6422 183.897C81.5855 183.861 82.4195 183.722 83.1441 183.48L83.3082 184.342C82.7796 184.52 82.2577 184.636 81.7428 184.69C81.2278 184.75 80.706 184.779 80.1773 184.779H79.6031V180.35H80.6422V183.897ZM89.023 181.238H82.8844V180.404H85.441V179.324H86.4938V180.404H89.023V181.238ZM85.9469 181.648C86.3889 181.648 86.7809 181.719 87.1227 181.86C87.469 182.002 87.7379 182.202 87.9293 182.462C88.1253 182.722 88.2255 183.025 88.2301 183.371C88.2255 183.717 88.1253 184.018 87.9293 184.273C87.7379 184.533 87.469 184.731 87.1227 184.868C86.7809 185.009 86.3889 185.08 85.9469 185.08C85.5003 185.08 85.1061 185.009 84.7643 184.868C84.4225 184.731 84.1559 184.533 83.9645 184.273C83.7776 184.018 83.6865 183.717 83.691 183.371C83.6865 183.025 83.7776 182.722 83.9645 182.462C84.1559 182.202 84.4225 182.002 84.7643 181.86C85.1061 181.719 85.5003 181.648 85.9469 181.648ZM85.9469 182.428C85.6962 182.428 85.4729 182.469 85.277 182.551C85.081 182.628 84.926 182.74 84.8121 182.886C84.7027 183.027 84.648 183.189 84.648 183.371C84.648 183.654 84.7688 183.882 85.0104 184.055C85.2519 184.228 85.5641 184.314 85.9469 184.314C86.3342 184.314 86.6464 184.228 86.8834 184.055C87.1249 183.886 87.2457 183.658 87.2457 183.371C87.2457 183.093 87.1249 182.868 86.8834 182.694C86.6419 182.517 86.3297 182.428 85.9469 182.428ZM92.4585 181.676H98.5288V180.254H99.6089V184.943H91.3921V180.254H92.4585V181.676ZM98.5288 184.082V182.523H92.4585V184.082H98.5288ZM101.058 179.393H89.9839V178.504H101.058V179.393ZM96.0816 173.664C96.0816 174.147 96.2912 174.612 96.7105 175.059C97.1297 175.501 97.6743 175.877 98.3443 176.187C99.0187 176.492 99.7137 176.69 100.429 176.781L100.033 177.643C99.3993 177.547 98.784 177.381 98.187 177.144C97.5946 176.902 97.0659 176.601 96.6011 176.241C96.1362 175.881 95.7785 175.48 95.5279 175.038C95.2772 175.48 94.9172 175.881 94.4478 176.241C93.9829 176.601 93.4543 176.902 92.8618 177.144C92.2694 177.381 91.6564 177.547 91.023 177.643L90.6128 176.781C91.342 176.686 92.0415 176.487 92.7114 176.187C93.3859 175.881 93.9305 175.51 94.3452 175.072C94.7645 174.63 94.9741 174.161 94.9741 173.664V173.09H96.0816V173.664ZM111.685 185.107H110.619V172.953H111.685V185.107ZM103.509 181.047C105.565 181.038 107.501 180.842 109.32 180.459L109.47 181.375C108.436 181.589 107.428 181.744 106.449 181.84C105.469 181.931 104.466 181.977 103.441 181.977H102.456V174.156H103.509V181.047ZM122.749 177.766H124.786V178.668H122.749V185.135H121.683V172.953H122.749V177.766ZM119.55 175.031H114.943V181.184C116.077 181.184 117.069 181.152 117.916 181.088C118.764 181.024 119.628 180.91 120.507 180.746L120.644 181.676C119.746 181.84 118.864 181.949 117.998 182.004C117.133 182.059 116.077 182.086 114.833 182.086H113.876V174.143H119.55V175.031ZM126.308 184.082C126.148 184.082 126 184.043 125.864 183.966C125.731 183.884 125.624 183.774 125.542 183.638C125.465 183.501 125.428 183.353 125.433 183.193C125.428 183.038 125.465 182.895 125.542 182.763C125.624 182.626 125.731 182.519 125.864 182.441C126 182.359 126.148 182.318 126.308 182.318C126.463 182.318 126.606 182.359 126.739 182.441C126.875 182.519 126.982 182.626 127.06 182.763C127.142 182.895 127.183 183.038 127.183 183.193C127.183 183.353 127.142 183.501 127.06 183.638C126.982 183.774 126.875 183.884 126.739 183.966C126.606 184.043 126.463 184.082 126.308 184.082Z" fill="#999999"/>
</g>
<defs>
<filter id="filter0_d_4830_39329" x="0" y="0" width="304" height="218" filterUnits="userSpaceOnUse" color-interpolation-filters="sRGB">
<feFlood flood-opacity="0" result="BackgroundImageFix"/>
<feColorMatrix in="SourceAlpha" type="matrix" values="0 0 0 0 0 0 0 0 0 0 0 0 0 0 0 0 0 0 127 0" result="hardAlpha"/>
<feOffset/>
<feGaussianBlur stdDeviation="6"/>
<feComposite in2="hardAlpha" operator="out"/>
<feColorMatrix type="matrix" values="0 0 0 0 0 0 0 0 0 0 0 0 0 0 0 0 0 0 0.12 0"/>
<feBlend mode="normal" in2="BackgroundImageFix" result="effect1_dropShadow_4830_39329"/>
<feBlend mode="normal" in="SourceGraphic" in2="effect1_dropShadow_4830_39329" result="shape"/>
</filter>
</defs>
</svg>
