<svg width="32" height="33" viewBox="0 0 32 33" fill="none" xmlns="http://www.w3.org/2000/svg">
<mask id="mask0_3255_6281" style="mask-type:alpha" maskUnits="userSpaceOnUse" x="0" y="0" width="32" height="33">
<rect y="0.390137" width="32" height="32" fill="white"/>
</mask>
<g mask="url(#mask0_3255_6281)">
<path d="M21.9241 2H10.0859C5.62212 2 2 5.61711 2 10.0809V21.9191C2 26.3879 5.61711 30 10.0859 30H21.9241C26.3879 30 30.005 26.3879 30.005 21.9191V10.0809C30.005 5.61711 26.3879 2 21.9241 2ZM27.43 22.1295C27.43 25.0904 25.0252 27.4951 22.0644 27.4951H9.94561C6.98479 27.4951 4.58007 25.0904 4.58007 22.1295V10.0107C4.58007 7.04491 6.98479 4.6452 9.94561 4.6452H22.0644C25.0252 4.6452 27.43 7.04992 27.43 10.0107V22.1295Z" fill="white"/>
<path d="M16.0026 8.80371C11.9897 8.80371 8.73828 12.0601 8.73828 16.073C8.73828 20.0859 11.9897 23.3373 16.0026 23.3373C20.0154 23.3373 23.2718 20.0809 23.2718 16.073C23.2718 12.0651 20.0154 8.80371 16.0026 8.80371ZM16.0026 20.7822C13.4024 20.7822 11.2933 18.6731 11.2933 16.073C11.2933 13.4729 13.4024 11.3587 16.0026 11.3587C18.6027 11.3587 20.7118 13.4679 20.7118 16.073C20.7118 18.6781 18.6027 20.7822 16.0026 20.7822Z" fill="white"/>
<path d="M23.5127 6.83447C22.5808 6.83447 21.8193 7.59096 21.8193 8.5278C21.8193 9.46464 22.5808 10.2211 23.5127 10.2211C24.4445 10.2211 25.206 9.46464 25.206 8.5278C25.206 7.59096 24.4495 6.83447 23.5127 6.83447Z" fill="white"/>
</g>
</svg>
