<svg width="20" height="20" viewBox="0 0 20 20" fill="none" xmlns="http://www.w3.org/2000/svg">
<path d="M15.4617 10.6339C15.4405 8.10867 17.5325 6.87778 17.6299 6.82278C16.4442 5.09699 14.6062 4.86011 13.9583 4.84319C12.4126 4.68248 10.9177 5.76533 10.13 5.76533C9.32963 5.76533 8.11843 4.86011 6.80989 4.88551C5.12864 4.91087 3.55752 5.88377 2.69785 7.38961C0.919206 10.4647 2.24473 14.9822 3.95137 17.4694C4.80254 18.6876 5.79777 20.0454 7.10211 19.9988C8.37677 19.9481 8.85532 19.1867 10.3926 19.1867C11.9171 19.1867 12.366 19.9988 13.6958 19.9692C15.0636 19.9481 15.9275 18.7468 16.7491 17.5201C17.7358 16.1243 18.1297 14.7496 18.1466 14.6819C18.1127 14.6607 15.4871 13.6583 15.4617 10.6339ZM12.9504 3.20623C13.6365 2.34758 14.1065 1.18437 13.9752 0C12.9843 0.0422761 11.7392 0.685219 11.0278 1.52276C10.3968 2.26298 9.82932 3.47271 9.97757 4.61056C11.0871 4.69092 12.2347 4.04797 12.9504 3.20623Z" fill="black"/>
</svg>
