<svg width="32" height="33" viewBox="0 0 32 33" fill="none" xmlns="http://www.w3.org/2000/svg">
<g clip-path="url(#clip0_3255_6307)">
<path d="M32 26.4511C32 29.6701 29.3943 32.2716 26.1795 32.2716H5.81626C2.60568 32.2716 0 29.6701 0 26.4511V6.32472C0 3.11415 2.60568 0.512695 5.81626 0.512695H26.1795C29.3943 0.512695 32 3.11415 32 6.32472V26.4469V26.4511Z" fill="#3CAB37"/>
<path d="M25.0461 3.11816H6.4764C4.1076 3.11816 2.19141 5.04705 2.19141 7.42008V17.6271C2.19141 20.0001 4.1076 21.929 6.4764 21.929H12.8764L15.0591 25.4822C15.0591 25.4822 15.0802 25.5287 15.1268 25.5837C15.2537 25.8037 15.4905 25.9517 15.7613 25.9517C16.032 25.9517 16.2646 25.8037 16.3915 25.588C16.4465 25.5245 16.4677 25.4822 16.4677 25.4822L18.6504 21.929H25.0461C27.4149 21.929 29.3354 20.0044 29.3354 17.6271V7.42008C29.3354 5.04705 27.4149 3.11816 25.0461 3.11816Z" fill="white"/>
<path d="M8.21877 10.5968C8.21877 10.5968 7.47852 10.5968 6.80172 11.2525V8.61719H5.14355V15.5375H6.82287V14.996C6.82287 14.996 7.22049 15.7151 8.21877 15.7151C8.21877 15.7151 10.558 15.6263 10.558 13.1264C10.558 13.1264 10.4734 10.5968 8.21877 10.5968ZM7.85076 14.2473C7.26279 14.2473 6.7848 13.7693 6.7848 13.1814C6.7848 12.5934 7.26279 12.1154 7.85076 12.1154C8.43873 12.1154 8.91672 12.5934 8.91672 13.1814C8.91672 13.7693 8.43873 14.2473 7.85076 14.2473Z" fill="#E8722D"/>
<path d="M11.0957 8.45654V10.0639C11.0957 10.0639 11.8529 10.0301 11.8529 11.4429V15.5376H13.456V11.0622C13.456 11.0622 13.5237 8.45654 11.0957 8.45654Z" fill="#E8722D"/>
<path d="M17.3686 10.6226C17.3686 10.6226 14.6234 10.6226 14.6234 13.1859C14.6234 13.1859 14.5345 15.7155 17.3686 15.7155C17.3686 15.7155 20.1774 15.7113 20.1774 13.1859C20.1774 13.1859 20.2704 10.6226 17.3686 10.6226ZM17.3686 14.2519C16.7764 14.2519 16.3027 13.7739 16.3027 13.1859C16.3027 12.598 16.7807 12.12 17.3686 12.12C17.9566 12.12 18.4346 12.598 18.4346 13.1859C18.4346 13.7739 17.9566 14.2519 17.3686 14.2519Z" fill="#E8722D"/>
<path d="M24.7624 10.7832V11.2527C24.7624 11.2527 24.2845 10.6182 23.3665 10.6182C23.3665 10.6182 21.0147 10.5167 21.0147 13.1647C21.0147 13.1647 20.9893 15.6307 23.2989 15.6307C23.2989 15.6307 24.2422 15.6688 24.7582 14.9962V15.3854C24.7582 15.3854 24.8767 16.5994 23.7007 16.5994H23.2989V18.0715H23.9461C23.9461 18.0715 26.3741 18.0968 26.3741 15.4785V10.7832H24.7582H24.7624ZM23.7684 14.2475C23.1804 14.2475 22.6982 13.7695 22.6982 13.1816C22.6982 12.5936 23.1762 12.1156 23.7684 12.1156C24.3606 12.1156 24.8344 12.5936 24.8344 13.1816C24.8344 13.7695 24.3564 14.2475 23.7684 14.2475Z" fill="#E8722D"/>
</g>
<defs>
<clipPath id="clip0_3255_6307">
<rect width="32" height="31.7547" fill="white" transform="translate(0 0.512695)"/>
</clipPath>
</defs>
</svg>
