<svg width="32" height="33" viewBox="0 0 32 33" fill="none" xmlns="http://www.w3.org/2000/svg">
<g clip-path="url(#clip0_3255_6294)">
<path d="M33.9999 26.9486C33.9999 30.2812 31.2608 32.9784 27.8764 32.9784H6.43787C3.05353 32.9784 0.314453 30.2812 0.314453 26.9486V6.08842C0.314453 2.76013 3.05792 0.0585938 6.43787 0.0585938H27.8764C31.2608 0.0585938 33.9999 2.76013 33.9999 6.08842V26.9486Z" fill="#D1262B"/>
<path d="M27.6937 4.96381C26.4983 4.78378 20.7374 4.56055 16.1575 4.56055C11.5776 4.56055 5.81672 4.78378 4.62134 4.96381C2.54021 5.29506 1.40243 6.23121 0.804741 8.65078C0.603109 9.45731 0.322266 13.9076 0.322266 15.5999V15.9743C0.322266 17.6738 0.603109 22.1169 0.804741 22.9306C1.40243 25.343 2.54021 26.2791 4.62134 26.6104C5.81672 26.7904 11.592 27.0136 16.1719 27.0136H16.1503C20.7302 27.0136 26.4983 26.7904 27.6937 26.6104C29.7749 26.2791 30.9126 25.343 31.5175 22.9306C31.7192 22.1169 32 17.6738 32 15.9743V15.5999C32 13.9076 31.7192 9.45731 31.5175 8.65078C30.9126 6.23121 29.7821 5.30226 27.6937 4.96381Z" fill="white"/>
<path d="M12.3633 11.7256L19.9533 15.6934L12.3633 19.8485V11.7256Z" fill="#D02628"/>
</g>
<defs>
<clipPath id="clip0_3255_6294">
<rect width="32" height="32" fill="white" transform="translate(0 0.390137)"/>
</clipPath>
</defs>
</svg>
