<svg width="28" height="29" viewBox="0 0 28 29" fill="none" xmlns="http://www.w3.org/2000/svg">
<g clip-path="url(#clip0_153_36972)">
<g clip-path="url(#clip1_153_36972)">
<path d="M26.2536 27.26L24.7307 23.4893H3.34659L2.20215 27.26H26.2536Z" fill="#6840FD"/>
<path d="M8.41664 8.99009C6.15968 9.55547 4.7052 11.7486 5.0654 14.0466L6.34206 23.234H13.9975V13.3535C13.9975 10.4309 11.2481 8.28336 8.41209 8.99464L8.41664 8.99009Z" fill="#6840FD"/>
<path d="M1.80537 12.3774C0.163941 13.3531 -0.460713 15.414 0.360001 17.1375L3.27809 23.2336L5.02439 12.1129C4.01673 11.7208 2.83582 11.7664 1.80081 12.3774H1.80537Z" fill="#6840FD"/>
<path d="M19.5825 8.98921C16.7465 8.28248 13.9971 10.4255 13.9971 13.3481L21.6525 23.2286L22.9292 14.0412C23.2894 11.7432 21.8349 9.55003 19.5779 8.98465L19.5825 8.98921Z" fill="#6840FD"/>
<path d="M26.1943 12.3774C25.1638 11.7664 23.9829 11.7208 22.9707 12.1129L24.717 23.2336L27.6351 17.1375C28.4604 15.4186 27.8311 13.3531 26.1897 12.3774H26.1943Z" fill="#6840FD"/>
<path d="M24.7217 13.3488H3.30566V23.2293H24.7217V13.3488Z" fill="#6840FD"/>
<path d="M14.0017 8.9L11.2002 5.38909L14.0017 0.5L16.8002 5.38909L14.0017 8.9Z" fill="#6840FD"/>
</g>
</g>
<defs>
<clipPath id="clip0_153_36972">
<rect width="28" height="28" fill="white" transform="translate(0 0.5)"/>
</clipPath>
<clipPath id="clip1_153_36972">
<rect width="28" height="26.7598" fill="white" transform="translate(0 0.5)"/>
</clipPath>
</defs>
</svg>
