<svg width="30" height="30" viewBox="0 0 30 30" fill="none" xmlns="http://www.w3.org/2000/svg">
<path d="M29.3355 0.687241C29.125 0.476296 28.875 0.30894 28.5997 0.194754C28.3244 0.0805668 28.0293 0.0217907 27.7313 0.0217907C27.4333 0.0217907 27.1382 0.0805668 26.8629 0.194754C26.5877 0.30894 26.3376 0.476296 26.1271 0.687241L15 11.7916L3.87291 0.664486C3.66224 0.453818 3.41214 0.286707 3.13689 0.172694C2.86164 0.058681 2.56663 2.21975e-09 2.2687 0C1.97077 -2.21975e-09 1.67576 0.058681 1.4005 0.172694C1.12525 0.286707 0.875154 0.453818 0.664486 0.664486C0.453818 0.875154 0.286707 1.12525 0.172694 1.4005C0.058681 1.67576 -2.21975e-09 1.97077 0 2.2687C2.21975e-09 2.56663 0.058681 2.86164 0.172694 3.13689C0.286707 3.41214 0.453818 3.66224 0.664486 3.87291L11.7916 15L0.664486 26.1271C0.453818 26.3378 0.286707 26.5879 0.172694 26.8631C0.058681 27.1384 0 27.4334 0 27.7313C0 28.0292 0.058681 28.3242 0.172694 28.5995C0.286707 28.8747 0.453818 29.1248 0.664486 29.3355C0.875154 29.5462 1.12525 29.7133 1.4005 29.8273C1.67576 29.9413 1.97077 30 2.2687 30C2.56663 30 2.86164 29.9413 3.13689 29.8273C3.41214 29.7133 3.66224 29.5462 3.87291 29.3355L15 18.2084L26.1271 29.3355C26.3378 29.5462 26.5879 29.7133 26.8631 29.8273C27.1384 29.9413 27.4334 30 27.7313 30C28.0292 30 28.3242 29.9413 28.5995 29.8273C28.8747 29.7133 29.1248 29.5462 29.3355 29.3355C29.5462 29.1248 29.7133 28.8747 29.8273 28.5995C29.9413 28.3242 30 28.0292 30 27.7313C30 27.4334 29.9413 27.1384 29.8273 26.8631C29.7133 26.5879 29.5462 26.3378 29.3355 26.1271L18.2084 15L29.3355 3.87291C30.2002 3.00823 30.2002 1.55192 29.3355 0.687241Z" fill="#373D49"/>
</svg>
