<svg width="32" height="32" viewBox="0 0 32 32" fill="none" xmlns="http://www.w3.org/2000/svg">
<g id="imagesmode">
<mask id="mask0_4792_68747" style="mask-type:alpha" maskUnits="userSpaceOnUse" x="0" y="0" width="32" height="32">
<rect id="Bounding box" width="32" height="32" fill="#D9D9D9"/>
</mask>
<g mask="url(#mask0_4792_68747)">
<path id="imagesmode_2" d="M7.07726 27.3346C6.40375 27.3346 5.83366 27.1012 5.36699 26.6346C4.90033 26.1679 4.66699 25.5978 4.66699 24.9243V7.07824C4.66699 6.40473 4.90033 5.83464 5.36699 5.36797C5.83366 4.9013 6.40375 4.66797 7.07726 4.66797H24.9233C25.5968 4.66797 26.1669 4.9013 26.6336 5.36797C27.1003 5.83464 27.3336 6.40473 27.3336 7.07824V24.9243C27.3336 25.5978 27.1003 26.1679 26.6336 26.6346C26.1669 27.1012 25.5968 27.3346 24.9233 27.3346H7.07726ZM7.07726 25.3346H24.9233C25.0259 25.3346 25.1199 25.2919 25.2054 25.2064C25.2909 25.1209 25.3336 25.0269 25.3336 24.9243V7.07824C25.3336 6.97566 25.2909 6.88163 25.2054 6.79614C25.1199 6.71067 25.0259 6.66794 24.9233 6.66794H7.07726C6.97468 6.66794 6.88065 6.71067 6.79516 6.79614C6.70969 6.88163 6.66696 6.97566 6.66696 7.07824V24.9243C6.66696 25.0269 6.70969 25.1209 6.79516 25.2064C6.88065 25.2919 6.97468 25.3346 7.07726 25.3346ZM9.00036 22.3346H23.1028L18.7182 16.4885L14.9747 21.3602L12.308 17.95L9.00036 22.3346ZM11.3336 13.0012C11.7952 13.0012 12.1883 12.8388 12.5131 12.5141C12.8379 12.1893 13.0003 11.7961 13.0003 11.3346C13.0003 10.8731 12.8379 10.4799 12.5131 10.1551C12.1883 9.83036 11.7952 9.66797 11.3336 9.66797C10.8721 9.66797 10.4789 9.83036 10.1542 10.1551C9.82938 10.4799 9.66699 10.8731 9.66699 11.3346C9.66699 11.7961 9.82938 12.1893 10.1542 12.5141C10.4789 12.8388 10.8721 13.0012 11.3336 13.0012Z" fill="#6840FD"/>
</g>
</g>
</svg>
