<svg width="21" height="20" viewBox="0 0 21 20" fill="none" xmlns="http://www.w3.org/2000/svg">
<path d="M1.67403 0.308803C1.44008 0.547909 1.30469 0.920174 1.30469 1.40227V18.5984C1.30469 19.0805 1.44008 19.4528 1.67403 19.6919L1.73177 19.7444L11.6014 10.1121V9.88469L1.73177 0.25243L1.67403 0.308803Z" fill="url(#paint0_linear_153_30933)"/>
<path d="M14.8873 13.3243L11.6011 10.112V9.88453L14.8913 6.67216L14.965 6.71395L18.8614 8.87853C19.9734 9.49282 19.9734 10.5037 18.8614 11.1218L14.965 13.2825L14.8873 13.3243Z" fill="url(#paint1_linear_153_30933)"/>
<path d="M14.9651 13.2826L11.6012 9.99834L1.67383 19.6918C2.04317 20.0709 2.64546 20.1166 3.33038 19.7375L14.9651 13.2826Z" fill="url(#paint2_linear_153_30933)"/>
<path d="M14.9651 6.71412L3.33038 0.259243C2.64546 -0.115938 2.04317 -0.0702569 1.67383 0.308813L11.6012 9.99841L14.9651 6.71412Z" fill="url(#paint3_linear_153_30933)"/>
<defs>
<linearGradient id="paint0_linear_153_30933" x1="10.7251" y1="18.7775" x2="-2.3208" y2="5.4155" gradientUnits="userSpaceOnUse">
<stop stop-color="#00A0FF"/>
<stop offset="0.0066" stop-color="#00A1FF"/>
<stop offset="0.2601" stop-color="#00BEFF"/>
<stop offset="0.5122" stop-color="#00D2FF"/>
<stop offset="0.7604" stop-color="#00DFFF"/>
<stop offset="1" stop-color="#00E3FF"/>
</linearGradient>
<linearGradient id="paint1_linear_153_30933" x1="20.3095" y1="9.99716" x2="1.03855" y2="9.99716" gradientUnits="userSpaceOnUse">
<stop stop-color="#FFE000"/>
<stop offset="0.4087" stop-color="#FFBD00"/>
<stop offset="0.7754" stop-color="#FFA500"/>
<stop offset="1" stop-color="#FF9C00"/>
</linearGradient>
<linearGradient id="paint2_linear_153_30933" x1="13.1359" y1="8.21294" x2="-4.55539" y2="-9.90704" gradientUnits="userSpaceOnUse">
<stop stop-color="#FF3A44"/>
<stop offset="1" stop-color="#C31162"/>
</linearGradient>
<linearGradient id="paint3_linear_153_30933" x1="-0.8251" y1="25.413" x2="7.07486" y2="17.3217" gradientUnits="userSpaceOnUse">
<stop stop-color="#32A071"/>
<stop offset="0.0685" stop-color="#2DA771"/>
<stop offset="0.4762" stop-color="#15CF74"/>
<stop offset="0.8009" stop-color="#06E775"/>
<stop offset="1" stop-color="#00F076"/>
</linearGradient>
</defs>
</svg>
