<svg width="24" height="24" viewBox="0 0 24 24" fill="none" xmlns="http://www.w3.org/2000/svg">
<path fill-rule="evenodd" clip-rule="evenodd" d="M19.9216 1H4.07067C1.82718 1 0 2.83489 0 5.07067V14.9235C0 17.167 1.83489 18.9942 4.07067 18.9942H9.66784L10.6315 20.6595L11.5798 22.3016C11.7494 22.6023 12.1812 22.6023 12.3585 22.3016L13.3068 20.6595L14.2705 18.9942H19.9293C22.1728 18.9942 24 17.1593 24 14.9235V5.07838C24 2.83489 22.1651 1 19.9216 1ZM13.1065 8.21611C11.8806 8.21611 10.8861 9.19523 10.8861 10.4056C10.8861 11.616 11.8806 12.5952 13.1065 12.5952C14.3323 12.5952 15.3268 11.616 15.3268 10.4056C15.3268 9.19523 14.34 8.21611 13.1065 8.21611ZM13.1065 11.4541C12.5205 11.4541 12.0425 10.9839 12.0425 10.4056C12.0425 9.82742 12.5205 9.35713 13.1065 9.35713C13.6924 9.35713 14.1704 9.82742 14.1704 10.4056C14.1704 10.9839 13.7001 11.4541 13.1065 11.4541ZM4.81083 8.71733C5.15776 8.40124 5.60492 8.21621 6.08291 8.21621C7.19309 8.21621 8.0797 9.20304 8.0797 10.4134C8.0797 11.6239 7.18538 12.603 6.08291 12.603C5.59721 12.603 5.15776 12.4102 4.81083 12.1019V12.495H3.57729V6.90557H4.81083V8.71733ZM4.81854 10.8375C4.98815 11.2307 5.38134 11.5005 5.8362 11.5005C6.45297 11.5005 6.94639 11.0148 6.94639 10.4057C6.94639 9.79668 6.45297 9.31097 5.8362 9.31097C5.38134 9.31097 4.98815 9.58081 4.81854 9.974C4.75686 10.1051 4.72602 10.2515 4.72602 10.4057C4.72602 10.5599 4.76457 10.7064 4.81854 10.8375ZM19.1738 8.3087V8.65563C18.8268 8.38579 18.3951 8.22389 17.9325 8.22389C16.7992 8.22389 15.8818 9.17217 15.8818 10.3363C15.8818 11.5005 16.7992 12.4488 17.9325 12.4488C18.4028 12.4488 18.8345 12.2869 19.1738 12.017V12.6029C19.1738 12.6029 19.0504 13.1812 18.1869 13.1812V14.2682C18.1869 14.2682 19.1198 14.3762 19.9524 13.5435C19.9524 13.5435 20.3379 13.1349 20.4227 12.5952V8.3087H19.1738ZM18.1638 11.408C17.5393 11.408 17.0382 10.9223 17.0382 10.3286C17.0382 9.73497 17.547 9.24927 18.1638 9.24927C18.6033 9.24927 18.9887 9.49598 19.1738 9.85062C19.2509 9.9971 19.2894 10.159 19.2894 10.3286C19.2894 10.4982 19.2431 10.6678 19.1738 10.8066C18.9887 11.169 18.6033 11.408 18.1638 11.408ZM8.21854 7.9155V6.79761C8.21854 6.79761 9.03576 6.68967 9.76046 7.54544C9.76046 7.54544 10.092 7.96175 10.1691 8.51684V8.54768V12.495H8.89699V8.54768C8.78905 7.99259 8.21854 7.9155 8.21854 7.9155Z" fill="#6840FD"/>
</svg>
