<svg width="25" height="24" viewBox="0 0 25 24" fill="none" xmlns="http://www.w3.org/2000/svg">
<mask id="mask0_1529_37621" style="mask-type:alpha" maskUnits="userSpaceOnUse" x="0" y="0" width="25" height="24">
<rect x="0.5" width="24" height="24" fill="#D9D9D9"/>
</mask>
<g mask="url(#mask0_1529_37621)">
<path d="M11.5 20.4307C9.62434 20.1871 8.07211 19.3609 6.84327 17.9519C5.61442 16.5429 5 14.8923 5 13C5 11.9833 5.20064 11.0093 5.60192 10.0779C6.00321 9.14649 6.56538 8.32822 7.28845 7.62309L8.35765 8.69232C7.74355 9.25257 7.28042 9.90288 6.96825 10.6433C6.65607 11.3836 6.49997 12.1692 6.49997 13C6.49997 14.4667 6.96824 15.7593 7.90477 16.8779C8.84132 17.9965 10.0397 18.6808 11.5 18.9308V20.4307ZM13.5 20.45V18.95C14.9436 18.6577 16.1378 17.958 17.0827 16.8509C18.0275 15.7439 18.5 14.4602 18.5 13C18.5 11.3333 17.9166 9.91666 16.75 8.74999C15.5833 7.58332 14.1666 6.99999 12.5 6.99999H12.1461L13.4961 8.35002L12.4423 9.40384L9.28847 6.25002L12.4423 3.09619L13.4961 4.15002L12.1461 5.50002H12.5C14.5923 5.50002 16.3653 6.22694 17.8192 7.68079C19.273 9.13462 20 10.9077 20 13C20 14.882 19.3839 16.5243 18.1519 17.9269C16.9198 19.3294 15.3692 20.1705 13.5 20.45Z" fill="#999999"/>
</g>
</svg>
