<svg width="12" height="13" viewBox="0 0 12 13" fill="none" xmlns="http://www.w3.org/2000/svg">
<mask id="mask0_5366_21249" style="mask-type:alpha" maskUnits="userSpaceOnUse" x="0" y="0" width="12" height="13">
<rect y="0.777344" width="12" height="12" fill="#D9D9D9"/>
</mask>
<g mask="url(#mask0_5366_21249)">
<path d="M7.5 10.2773L6.8 9.56484L8.5875 7.77734H3.75C3.125 7.77734 2.59375 7.55859 2.15625 7.12109C1.71875 6.68359 1.5 6.15234 1.5 5.52734C1.5 4.90234 1.71875 4.37109 2.15625 3.93359C2.59375 3.49609 3.125 3.27734 3.75 3.27734H4V4.27734H3.75C3.4 4.27734 3.10417 4.39818 2.8625 4.63984C2.62083 4.88151 2.5 5.17734 2.5 5.52734C2.5 5.87734 2.62083 6.17318 2.8625 6.41484C3.10417 6.65651 3.4 6.77734 3.75 6.77734H8.5875L6.8 4.97734L7.5 4.27734L10.5 7.27734L7.5 10.2773Z" fill="#6840FD"/>
</g>
</svg>
