<svg width="36" height="40" viewBox="0 0 36 40" fill="none" xmlns="http://www.w3.org/2000/svg">
<g clip-path="url(#clip0_3244_34678)">
<path opacity="0.5" d="M32.052 23.6922L25.7015 20.0041L32.052 16.3159C33.8965 15.2493 34.5275 12.872 33.4597 11.0238C32.3999 9.17564 30.0376 8.54059 28.2012 9.60715L21.8507 13.2953V5.91083C21.8507 3.76958 20.1275 2.0354 17.9999 2.0354C15.8722 2.0354 14.1491 3.76958 14.1491 5.91083V13.2872L7.79854 9.59901C5.95405 8.53245 3.59989 9.1675 2.54012 11.0157C1.48034 12.872 2.11135 15.2412 3.94776 16.3077L10.2983 19.9959L3.94776 23.6841C2.10326 24.7506 1.47225 27.1199 2.54012 28.9762C3.59989 30.8325 5.96214 31.4675 7.79854 30.3928L14.1491 26.7046V34.081C14.1491 36.2223 15.8722 37.9564 17.9999 37.9564C20.1275 37.9564 21.8507 36.2223 21.8507 34.081V26.7046L28.2012 30.3928C30.0457 31.4675 32.3999 30.8325 33.4597 28.9762C34.5194 27.1199 33.8884 24.7506 32.052 23.6841V23.6922Z" stroke="white" stroke-width="3" stroke-linejoin="round"/>
</g>
<defs>
<clipPath id="clip0_3244_34678">
<rect width="36" height="40" fill="white"/>
</clipPath>
</defs>
</svg>
