<svg width="207" height="32" viewBox="0 0 207 32" fill="none" xmlns="http://www.w3.org/2000/svg">
<path d="M15.2181 21.5661C15.2181 18.1715 13.2044 16.0714 9.26319 15.2372L6.35766 14.6331C3.79733 14.0865 2.47402 12.907 2.47402 10.7782C2.47402 8.44801 4.17131 6.86579 7.19192 6.86579C10.2125 6.86579 11.8811 8.44801 11.8811 10.7782V11.2097H14.3838V10.7782C14.3838 7.44114 11.8811 4.67944 7.19192 4.67944C2.47402 4.67944 0 7.44114 0 10.7782C0 14.1152 2.07127 16.0427 5.58093 16.7619L8.48647 17.366C11.4208 17.9701 12.7441 19.4948 12.7441 21.5948C12.7441 24.0401 10.8166 25.8237 7.62344 25.8237C4.37269 25.8237 2.47402 24.0401 2.47402 21.5948V20.962H0V21.5661C0 25.2196 2.73293 27.9813 7.62344 27.9813C12.4852 27.9813 15.2181 25.2196 15.2181 21.5661Z" fill="#222222"/>
<path d="M23.8244 5.05342L15.9132 27.6073H18.5311L20.3435 22.2565H30.182L31.9944 27.6073H34.5835L26.7011 5.05342H23.8244ZM29.4053 20.0702H21.0627L25.2627 7.64251L29.4053 20.0702Z" fill="#222222"/>
<path d="M50.6731 21.5661C50.6731 18.1715 48.6594 16.0714 44.7182 15.2372L41.8127 14.6331C39.2524 14.0865 37.9291 12.907 37.9291 10.7782C37.9291 8.44801 39.6264 6.86579 42.647 6.86579C45.6676 6.86579 47.3361 8.44801 47.3361 10.7782V11.2097H49.8389V10.7782C49.8389 7.44114 47.3361 4.67944 42.647 4.67944C37.9291 4.67944 35.455 7.44114 35.455 10.7782C35.455 14.1152 37.5263 16.0427 41.036 16.7619L43.9415 17.366C46.8758 17.9701 48.1991 19.4948 48.1991 21.5948C48.1991 24.0401 46.2717 25.8237 43.0785 25.8237C39.8277 25.8237 37.9291 24.0401 37.9291 21.5948V20.962H35.455V21.5661C35.455 25.2196 38.188 27.9813 43.0785 27.9813C47.9402 27.9813 50.6731 25.2196 50.6731 21.5661Z" fill="#222222"/>
<path d="M70.1174 16.3304C70.1174 9.88639 68.2763 4.67944 61.5159 4.67944C54.8418 4.67944 52.9431 9.91516 52.9431 16.3304C52.9431 22.8319 54.8705 27.9813 61.5159 27.9813C68.2187 27.9813 70.1174 22.8606 70.1174 16.3304ZM67.6434 16.3304C67.6434 22.1414 66.2625 25.7949 61.5159 25.7949C56.798 25.7949 55.4459 22.1702 55.4459 16.3304C55.4459 10.5193 56.8267 6.86579 61.5159 6.86579C66.2338 6.86579 67.6434 10.548 67.6434 16.3304Z" fill="#222222"/>
<path d="M86.1426 27.6073H88.6453V5.05342H86.1426V14.9495H75.8437V5.05342H73.3409V27.6073H75.8437V17.1646H86.1426V27.6073Z" fill="#222222"/>
<path d="M98.4709 5.05342L90.5597 27.6073H93.1776L94.99 22.2565H104.829L106.641 27.6073H109.23L101.348 5.05342H98.4709ZM104.052 20.0702H95.7092L99.9092 7.64251L104.052 20.0702Z" fill="#222222"/>
<path d="M126.833 27.6073V5.05342H124.33V23.062L113.715 5.05342H111.212V27.6073H113.715V9.59872L124.33 27.6073H126.833Z" fill="#222222"/>
<rect x="134.172" width="72.7273" height="32" rx="15.5025" fill="#222222"/>
<path fill-rule="evenodd" clip-rule="evenodd" d="M159.026 7.22481C159.275 7.22841 159.505 7.36056 159.633 7.5742L169.777 24.4813L168.543 25.2219L158.996 9.31066L148.801 25.2396L147.589 24.4636L158.409 7.55652C158.544 7.34668 158.777 7.22121 159.026 7.22481Z" fill="white"/>
<path fill-rule="evenodd" clip-rule="evenodd" d="M169.171 7.22481C169.42 7.22841 169.649 7.36056 169.777 7.5742L179.922 24.4813L178.687 25.2219L169.14 9.31066L158.946 25.2396L157.733 24.4636L168.554 7.55652C168.688 7.34668 168.921 7.22121 169.171 7.22481Z" fill="white"/>
<path fill-rule="evenodd" clip-rule="evenodd" d="M169.16 7.22473H191.477V8.66432H169.16V7.22473Z" fill="white"/>
<path fill-rule="evenodd" clip-rule="evenodd" d="M171.865 11.2827L192.154 11.2827V12.7223L171.865 12.7223V11.2827Z" fill="white"/>
<path fill-rule="evenodd" clip-rule="evenodd" d="M173.851 15.34L192.874 15.34L192.874 16.7796L173.851 16.7796L173.851 15.34Z" fill="white"/>
<path fill-rule="evenodd" clip-rule="evenodd" d="M192.873 15.34L192.873 24.895L191.433 24.895L191.433 15.34L192.873 15.34Z" fill="white"/>
<path fill-rule="evenodd" clip-rule="evenodd" d="M192.873 24.8952L178.584 24.8952L178.584 23.4556L192.873 23.4556L192.873 24.8952Z" fill="white"/>
</svg>
