<svg width="376" height="60" viewBox="0 0 376 60" fill="none" xmlns="http://www.w3.org/2000/svg">
<path d="M27.6461 40.4366C27.6461 34.0717 23.9878 30.1342 16.8281 28.5699L11.5497 27.4372C6.89847 26.4124 4.49445 24.2008 4.49445 20.2093C4.49445 15.8402 7.57786 12.8736 13.0653 12.8736C18.5527 12.8736 21.5838 15.8402 21.5838 20.2093V21.0184H26.1306V20.2093C26.1306 13.9524 21.5838 8.77417 13.0653 8.77417C4.49445 8.77417 0 13.9524 0 20.2093C0 26.4663 3.7628 30.0802 10.1387 31.4287L15.417 32.5614C20.7477 33.6942 23.1517 36.553 23.1517 40.4905C23.1517 45.0754 19.6502 48.4196 13.8492 48.4196C7.94369 48.4196 4.49445 45.0754 4.49445 40.4905V39.3039H0V40.4366C0 47.2869 4.9648 52.4651 13.8492 52.4651C22.6813 52.4651 27.6461 47.2869 27.6461 40.4366Z" fill="white"/>
<path d="M43.2808 9.47538L28.909 51.7639H33.6647L36.9572 41.7311H54.8305L58.1229 51.7639H62.8264L48.5069 9.47538H43.2808ZM53.4194 37.6317H38.2637L45.8938 14.3299L53.4194 37.6317Z" fill="white"/>
<path d="M92.0559 40.4366C92.0559 34.0717 88.3976 30.1342 81.2378 28.5699L75.9595 27.4372C71.3082 26.4124 68.9042 24.2008 68.9042 20.2093C68.9042 15.8402 71.9876 12.8736 77.475 12.8736C82.9625 12.8736 85.9936 15.8402 85.9936 20.2093V21.0184H90.5403V20.2093C90.5403 13.9524 85.9936 8.77417 77.475 8.77417C68.9042 8.77417 64.4098 13.9524 64.4098 20.2093C64.4098 26.4663 68.1726 30.0802 74.5484 31.4287L79.8268 32.5614C85.1574 33.6942 87.5614 36.553 87.5614 40.4905C87.5614 45.0754 84.0599 48.4196 78.259 48.4196C72.3535 48.4196 68.9042 45.0754 68.9042 40.4905V39.3039H64.4098V40.4366C64.4098 47.2869 69.3746 52.4651 78.259 52.4651C87.0911 52.4651 92.0559 47.2869 92.0559 40.4366Z" fill="white"/>
<path d="M127.379 30.6196C127.379 18.5372 124.035 8.77417 111.753 8.77417C99.6288 8.77417 96.1796 18.5911 96.1796 30.6196C96.1796 42.8099 99.6811 52.4651 111.753 52.4651C123.93 52.4651 127.379 42.8639 127.379 30.6196ZM122.885 30.6196C122.885 41.5154 120.377 48.3657 111.753 48.3657C103.183 48.3657 100.726 41.5693 100.726 30.6196C100.726 19.7239 103.235 12.8736 111.753 12.8736C120.324 12.8736 122.885 19.7778 122.885 30.6196Z" fill="white"/>
<path d="M156.492 51.7639H161.038V9.47538H156.492V28.0305H137.782V9.47538H133.236V51.7639H137.782V32.1839H156.492V51.7639Z" fill="white"/>
<path d="M178.888 9.47538L164.516 51.7639H169.272L172.565 41.7311H190.438L193.73 51.7639H198.434L184.114 9.47538H178.888ZM189.027 37.6317H173.871L181.501 14.3299L189.027 37.6317Z" fill="white"/>
<path d="M230.412 51.7639V9.47538H225.866V43.2414L206.581 9.47538H202.034V51.7639H206.581V17.9978L225.866 51.7639H230.412Z" fill="white"/>
<rect x="243.744" width="132.121" height="60" rx="29.0666" fill="url(#paint0_linear_3244_34660)"/>
<path fill-rule="evenodd" clip-rule="evenodd" d="M288.897 13.5463C289.349 13.553 289.766 13.8008 289.999 14.2014L308.428 45.9021L306.185 47.2909L288.842 17.4573L270.322 47.324L268.119 45.869L287.776 14.1682C288.02 13.7748 288.444 13.5395 288.897 13.5463Z" fill="white"/>
<path fill-rule="evenodd" clip-rule="evenodd" d="M307.325 13.5463C307.778 13.553 308.195 13.8008 308.428 14.2014L326.856 45.9021L324.614 47.2909L307.271 17.4573L288.751 47.324L286.548 45.869L306.205 14.1682C306.449 13.7748 306.873 13.5395 307.325 13.5463Z" fill="white"/>
<path fill-rule="evenodd" clip-rule="evenodd" d="M307.307 13.5461H347.85V16.2454H307.307V13.5461Z" fill="white"/>
<path fill-rule="evenodd" clip-rule="evenodd" d="M312.221 21.155L349.078 21.155V23.8543L312.221 23.8543V21.155Z" fill="white"/>
<path fill-rule="evenodd" clip-rule="evenodd" d="M315.828 28.7622L350.386 28.7622L350.386 31.4614L315.828 31.4614L315.828 28.7622Z" fill="white"/>
<path fill-rule="evenodd" clip-rule="evenodd" d="M350.387 28.7622L350.387 46.6778L347.771 46.6778L347.771 28.7622L350.387 28.7622Z" fill="white"/>
<path fill-rule="evenodd" clip-rule="evenodd" d="M350.386 46.6782L324.428 46.6782L324.428 43.979L350.386 43.979L350.386 46.6782Z" fill="white"/>
<defs>
<linearGradient id="paint0_linear_3244_34660" x1="357.179" y1="-3.95667e-06" x2="259.949" y2="57.2615" gradientUnits="userSpaceOnUse">
<stop stop-color="#6902FE"/>
<stop offset="1" stop-color="#F530EB"/>
</linearGradient>
</defs>
</svg>
