<svg width="280" height="43" viewBox="0 0 280 43" fill="none" xmlns="http://www.w3.org/2000/svg">
<path d="M20.5949 28.9795C20.5949 24.418 17.8697 21.5961 12.536 20.475L8.60394 19.6633C5.139 18.9288 3.34814 17.3439 3.34814 14.4833C3.34814 11.3521 5.64511 9.22598 9.73296 9.22598C13.8208 9.22598 16.0788 11.3521 16.0788 14.4833V15.0631H19.4659V14.4833C19.4659 9.99912 16.0788 6.28809 9.73296 6.28809C3.34814 6.28809 0 9.99912 0 14.4833C0 18.9674 2.80309 21.5574 7.55278 22.5238L11.4849 23.3356C15.4559 24.1474 17.2468 26.1962 17.2468 29.0181C17.2468 32.304 14.6384 34.7007 10.3169 34.7007C5.91764 34.7007 3.34814 32.304 3.34814 29.0181V28.1677H0V28.9795C0 33.8889 3.69852 37.5999 10.3169 37.5999C16.8964 37.5999 20.5949 33.8889 20.5949 28.9795Z" fill="#222222"/>
<path d="M32.2419 6.79062L21.5357 37.0974H25.0785L27.5312 29.9073H40.8459L43.2986 37.0974H46.8024L36.1351 6.79062H32.2419ZM39.7947 26.9694H28.5045L34.1885 10.2697L39.7947 26.9694Z" fill="#222222"/>
<path d="M68.5769 28.9795C68.5769 24.418 65.8517 21.5961 60.518 20.475L56.5859 19.6633C53.121 18.9288 51.3301 17.3439 51.3301 14.4833C51.3301 11.3521 53.6271 9.22598 57.7149 9.22598C61.8028 9.22598 64.0608 11.3521 64.0608 14.4833V15.0631H67.4479V14.4833C67.4479 9.99912 64.0608 6.28809 57.7149 6.28809C51.3301 6.28809 47.982 9.99912 47.982 14.4833C47.982 18.9674 50.785 21.5574 55.5347 22.5238L59.4668 23.3356C63.4379 24.1474 65.2288 26.1962 65.2288 29.0181C65.2288 32.304 62.6203 34.7007 58.2989 34.7007C53.8996 34.7007 51.3301 32.304 51.3301 29.0181V28.1677H47.982V28.9795C47.982 33.8889 51.6805 37.5999 58.2989 37.5999C64.8784 37.5999 68.5769 33.8889 68.5769 28.9795Z" fill="#222222"/>
<path d="M94.8912 21.944C94.8912 13.2849 92.3995 6.28809 83.2505 6.28809C74.2184 6.28809 71.6489 13.3236 71.6489 21.944C71.6489 30.6804 74.2573 37.5999 83.2505 37.5999C92.3217 37.5999 94.8912 30.719 94.8912 21.944ZM91.543 21.944C91.543 29.7526 89.6743 34.662 83.2505 34.662C76.8657 34.662 75.0359 29.7913 75.0359 21.944C75.0359 14.1354 76.9047 9.22598 83.2505 9.22598C89.6354 9.22598 91.543 14.174 91.543 21.944Z" fill="#222222"/>
<path d="M116.578 37.0974H119.965V6.79062H116.578V20.0885H102.641V6.79062H99.2537V37.0974H102.641V23.065H116.578V37.0974Z" fill="#222222"/>
<path d="M133.262 6.79062L122.556 37.0974H126.099L128.552 29.9073H141.866L144.319 37.0974H147.823L137.156 6.79062H133.262ZM140.815 26.9694H129.525L135.209 10.2697L140.815 26.9694Z" fill="#222222"/>
<path d="M171.645 37.0974V6.79062H168.258V30.9896L153.892 6.79062H150.505V37.0974H153.892V12.8984L168.258 37.0974H171.645Z" fill="#222222"/>
<rect x="181.577" width="98.4232" height="43" rx="21.5" fill="url(#paint0_linear_3728_48849)"/>
<path fill-rule="evenodd" clip-rule="evenodd" d="M215.214 9.70811C215.551 9.71295 215.861 9.89053 216.035 10.1776L229.763 32.8965L228.093 33.8917L215.173 12.511L201.376 33.9155L199.735 32.8727L214.379 10.1538C214.561 9.87188 214.876 9.70327 215.214 9.70811Z" fill="white"/>
<path fill-rule="evenodd" clip-rule="evenodd" d="M228.942 9.70811C229.279 9.71295 229.59 9.89053 229.763 10.1776L243.492 32.8965L241.821 33.8917L228.901 12.511L215.105 33.9155L213.464 32.8727L228.107 10.1538C228.289 9.87188 228.605 9.70327 228.942 9.70811Z" fill="white"/>
<path fill-rule="evenodd" clip-rule="evenodd" d="M228.928 9.70801H259.13V11.6425H228.928V9.70801Z" fill="white"/>
<path fill-rule="evenodd" clip-rule="evenodd" d="M232.589 15.1611L260.046 15.1611V17.0956L232.589 17.0956V15.1611Z" fill="white"/>
<path fill-rule="evenodd" clip-rule="evenodd" d="M235.276 20.6128L261.02 20.6128L261.02 22.5472L235.276 22.5472L235.276 20.6128Z" fill="white"/>
<path fill-rule="evenodd" clip-rule="evenodd" d="M261.02 20.6128L261.02 33.4523L259.071 33.4523L259.071 20.6128L261.02 20.6128Z" fill="white"/>
<path fill-rule="evenodd" clip-rule="evenodd" d="M261.02 33.4525L241.683 33.4525L241.683 31.5181L261.02 31.5181L261.02 33.4525Z" fill="white"/>
<defs>
<linearGradient id="paint0_linear_3728_48849" x1="266.08" y1="-2.83562e-06" x2="195.12" y2="43.4399" gradientUnits="userSpaceOnUse">
<stop stop-color="#6902FE"/>
<stop offset="1" stop-color="#F530EB"/>
</linearGradient>
</defs>
</svg>
