<svg width="160" height="25" viewBox="0 0 160 25" fill="none" xmlns="http://www.w3.org/2000/svg">
<path d="M11.7685 16.6775C11.7685 14.0524 10.2113 12.4284 7.16346 11.7832L4.91653 11.316C2.93657 10.8933 1.91322 9.98123 1.91322 8.33497C1.91322 6.53298 3.22578 5.30941 5.56169 5.30941C7.8976 5.30941 9.18791 6.53298 9.18791 8.33497V8.66867H11.1234V8.33497C11.1234 5.75434 9.18791 3.61865 5.56169 3.61865C1.91322 3.61865 0 5.75434 0 8.33497C0 10.9156 1.60177 12.4061 4.31587 12.9623L6.56279 13.4295C8.83196 13.8967 9.85532 15.0757 9.85532 16.6997C9.85532 18.5907 8.36478 19.97 5.89539 19.97C3.38151 19.97 1.91322 18.5907 1.91322 16.6997V16.2103H0V16.6775C0 19.5028 2.11344 21.6385 5.89539 21.6385C9.65509 21.6385 11.7685 19.5028 11.7685 16.6775Z" fill="white"/>
<path d="M18.424 3.90786L12.3061 21.3493H14.3306L15.7321 17.2114H23.3405L24.742 21.3493H26.7443L20.6486 3.90786H18.424ZM22.7398 15.5207H16.2883L19.5363 5.91007L22.7398 15.5207Z" fill="white"/>
<path d="M39.1868 16.6775C39.1868 14.0524 37.6295 12.4284 34.5817 11.7832L32.3348 11.316C30.3548 10.8933 29.3315 9.98123 29.3315 8.33497C29.3315 6.53298 30.644 5.30941 32.9799 5.30941C35.3159 5.30941 36.6062 6.53298 36.6062 8.33497V8.66867H38.5416V8.33497C38.5416 5.75434 36.6062 3.61865 32.9799 3.61865C29.3315 3.61865 27.4183 5.75434 27.4183 8.33497C27.4183 10.9156 29.02 12.4061 31.7341 12.9623L33.9811 13.4295C36.2502 13.8967 37.2736 15.0757 37.2736 16.6997C37.2736 18.5907 35.783 19.97 33.3137 19.97C30.7998 19.97 29.3315 18.5907 29.3315 16.6997V16.2103H27.4183V16.6775C27.4183 19.5028 29.5317 21.6385 33.3137 21.6385C37.0734 21.6385 39.1868 19.5028 39.1868 16.6775Z" fill="white"/>
<path d="M54.2235 12.6286C54.2235 7.64532 52.7997 3.61865 47.5717 3.61865C42.4105 3.61865 40.9422 7.66756 40.9422 12.6286C40.9422 17.6564 42.4327 21.6385 47.5717 21.6385C52.7552 21.6385 54.2235 17.6786 54.2235 12.6286ZM52.3103 12.6286C52.3103 17.1224 51.2425 19.9478 47.5717 19.9478C43.9233 19.9478 42.8777 17.1447 42.8777 12.6286C42.8777 8.13475 43.9455 5.30941 47.5717 5.30941C51.2202 5.30941 52.3103 8.15699 52.3103 12.6286Z" fill="white"/>
<path d="M66.6162 21.3493H68.5517V3.90786H66.6162V11.5607H58.6518V3.90786H56.7164V21.3493H58.6518V13.2737H66.6162V21.3493Z" fill="white"/>
<path d="M76.15 3.90786L70.0321 21.3493H72.0566L73.4581 17.2114H81.0665L82.468 21.3493H84.4703L78.3746 3.90786H76.15ZM80.4658 15.5207H74.0143L77.2623 5.91007L80.4658 15.5207Z" fill="white"/>
<path d="M98.083 21.3493V3.90786H96.1475V17.8343L87.9385 3.90786H86.003V21.3493H87.9385V7.42285L96.1475 21.3493H98.083Z" fill="white"/>
<rect x="103.758" width="56.2418" height="24.7464" rx="12.3732" fill="url(#paint0_linear_153_16536)"/>
<path fill-rule="evenodd" clip-rule="evenodd" d="M122.978 5.58697C123.171 5.58976 123.349 5.69196 123.448 5.85716L131.293 18.9318L130.338 19.5046L122.955 7.20002L115.071 19.5183L114.134 18.9181L122.502 5.84349C122.605 5.68122 122.786 5.58419 122.978 5.58697Z" fill="white"/>
<path fill-rule="evenodd" clip-rule="evenodd" d="M130.823 5.58697C131.016 5.58976 131.193 5.69196 131.292 5.85716L139.137 18.9318L138.183 19.5046L130.8 7.20002L122.916 19.5183L121.979 18.9181L130.346 5.84349C130.45 5.68122 130.631 5.58419 130.823 5.58697Z" fill="white"/>
<path fill-rule="evenodd" clip-rule="evenodd" d="M130.815 5.58691H148.074V6.70019H130.815V5.58691Z" fill="white"/>
<path fill-rule="evenodd" clip-rule="evenodd" d="M132.907 8.7251L148.597 8.7251V9.83837L132.907 9.83837V8.7251Z" fill="white"/>
<path fill-rule="evenodd" clip-rule="evenodd" d="M134.442 11.8628L149.153 11.8628L149.153 12.9761L134.442 12.9761L134.442 11.8628Z" fill="white"/>
<path fill-rule="evenodd" clip-rule="evenodd" d="M149.153 11.8628L149.153 19.2519L148.04 19.2519L148.04 11.8628L149.153 11.8628Z" fill="white"/>
<path fill-rule="evenodd" clip-rule="evenodd" d="M149.154 19.2519L138.104 19.2519L138.104 18.1387L149.154 18.1387L149.154 19.2519Z" fill="white"/>
<defs>
<linearGradient id="paint0_linear_153_16536" x1="152.045" y1="-1.63189e-06" x2="111.34" y2="24.7423" gradientUnits="userSpaceOnUse">
<stop stop-color="#6902FE"/>
<stop offset="1" stop-color="#F530EB"/>
</linearGradient>
</defs>
</svg>
