<svg width="480" height="310" viewBox="0 0 480 310" fill="none" xmlns="http://www.w3.org/2000/svg">
<g clip-path="url(#clip0_644_32505)">
<g clip-path="url(#clip1_644_32505)" filter="url(#filter0_dd_644_32505)">
<rect width="1239.22" height="40" transform="translate(-391 393.653) rotate(-30.6451)" fill="#47385F"/>
<path d="M-46.8845 213.39C-45.8624 213.115 -44.8967 213.428 -44.2848 214.46C-43.4952 215.793 -44.0518 217.158 -46.0175 218.323L-49.7268 220.52L-54.3326 212.746L-50.8454 210.68C-49.0574 209.621 -47.6105 209.784 -46.867 211.039C-46.3669 211.883 -46.4513 212.728 -46.8845 213.39ZM-50.4124 211.639L-52.6891 212.988L-51.2153 215.476L-48.9386 214.127C-47.8058 213.456 -47.4117 212.652 -47.8986 211.83C-48.3855 211.008 -49.2797 210.968 -50.4124 211.639ZM-46.5949 217.45C-45.3622 216.719 -44.9261 215.936 -45.4591 215.036C-45.992 214.137 -46.8952 214.132 -48.128 214.862L-50.6823 216.375L-49.1492 218.963L-46.5949 217.45ZM-41.0056 214.048L-36.4744 211.364L-35.902 212.33L-41.5437 215.672L-46.1495 207.898L-40.6633 204.648L-40.0909 205.614L-44.4665 208.206L-43.0519 210.594L-39.1538 208.285L-38.5945 209.229L-42.4926 211.538L-41.0056 214.048ZM-23.2917 204.859L-24.3578 205.49L-27.7246 199.833L-27.738 206.218L-28.2488 206.52L-33.8352 203.498L-30.4993 209.129L-31.5655 209.761L-36.1713 201.986L-35.2606 201.447L-28.7805 204.99L-28.8193 197.631L-27.9086 197.091L-23.2917 204.859ZM-19.7228 192.241L-19.7967 199.157L-18.2044 201.845L-19.3039 202.496L-20.9093 199.786L-26.9971 196.551L-25.8087 195.847L-20.8931 198.471L-20.8223 192.893L-19.7228 192.241ZM-11.4519 197.844L-16.0577 190.07L-14.9472 189.412L-10.9138 196.22L-6.70471 193.726L-6.13227 194.692L-11.4519 197.844ZM-1.65894 192.162C-4.04668 193.577 -6.80808 192.917 -8.15692 190.64C-9.50577 188.364 -8.75775 185.625 -6.37002 184.21C-4.00449 182.809 -1.24967 183.457 0.105753 185.745C1.46118 188.033 0.706585 190.761 -1.65894 192.162ZM-2.24453 191.174C-0.523143 190.154 0.0150352 188.125 -1.00482 186.403C-2.02468 184.682 -4.06303 184.179 -5.78442 185.199C-7.52803 186.232 -8.06621 188.261 -7.04635 189.983C-6.02649 191.704 -3.98814 192.207 -2.24453 191.174ZM4.67045 177.789L5.78103 177.131L6.97737 186.925L5.8779 187.577L-2.14848 181.829L-0.949055 181.119L5.63293 185.846L4.67045 177.789ZM11.6942 182.826L16.2254 180.141L16.7978 181.107L11.1561 184.45L6.55027 176.676L12.0365 173.425L12.6089 174.391L8.23328 176.984L9.64792 179.372L13.546 177.062L14.1053 178.006L10.2072 180.316L11.6942 182.826Z" fill="white" fill-opacity="0.2"/>
<rect x="71.9424" y="138.381" width="5.16341" height="5.16341" transform="rotate(14.3549 71.9424 138.381)" fill="white" fill-opacity="0.2"/>
<path d="M139.262 103.105C140.284 102.83 141.25 103.143 141.862 104.176C142.652 105.508 142.095 106.873 140.129 108.038L136.42 110.236L131.814 102.462L135.301 100.395C137.089 99.3362 138.536 99.4992 139.28 100.754C139.78 101.598 139.695 102.443 139.262 103.105ZM135.734 101.354L133.458 102.703L134.931 105.191L137.208 103.842C138.341 103.171 138.735 102.367 138.248 101.545C137.761 100.724 136.867 100.683 135.734 101.354ZM139.552 107.165C140.785 106.434 141.221 105.651 140.688 104.751C140.155 103.852 139.251 103.847 138.019 104.577L135.464 106.09L136.998 108.678L139.552 107.165ZM145.141 103.763L149.672 101.079L150.245 102.045L144.603 105.387L139.997 97.6133L145.483 94.363L146.056 95.3292L141.68 97.9216L143.095 100.309L146.993 97.9998L147.552 98.9438L143.654 101.253L145.141 103.763ZM153.365 100.196L149.331 93.3887L146.666 94.9678L146.093 94.0016L152.524 90.1919L153.096 91.1581L150.431 92.7373L154.464 99.5451L153.365 100.196ZM159.769 96.4021L155.736 89.5943L153.07 91.1734L152.498 90.2072L158.928 86.3975L159.501 87.3637L156.835 88.9429L160.869 95.7507L159.769 96.4021ZM165.059 91.9624L169.591 89.2778L170.163 90.244L164.521 93.5865L159.916 85.8125L165.402 82.5621L165.974 83.5283L161.599 86.1207L163.013 88.5085L166.911 86.199L167.471 87.143L163.572 89.4525L165.059 91.9624ZM178.147 85.5137L176.937 86.2309L173.845 84.8367C173.696 84.9399 173.536 85.0497 173.37 85.1484L171.448 86.2867L172.85 88.6523L171.739 89.3102L167.133 81.5362L170.165 79.7399C172.187 78.5424 174.013 78.8404 175.014 80.5285C175.724 81.7279 175.616 82.9626 174.757 83.9961L178.147 85.5137ZM172.777 84.2242C174.199 83.382 174.561 82.297 173.903 81.1864C173.245 80.0759 172.126 79.8837 170.704 80.7259L168.816 81.8444L170.889 85.3427L172.777 84.2242ZM180.28 80.754L179.734 79.8322L182.722 78.0623L183.268 78.9841L180.28 80.754ZM191.454 77.7498C190.266 78.4538 188.863 78.7449 187.899 78.5358L187.797 77.4261C188.683 77.606 189.896 77.398 190.895 76.8058C192.239 76.0097 192.507 75.1455 192.106 74.4681C190.981 72.569 186.982 76.5582 185.272 73.6707C184.561 72.4713 184.889 70.8969 186.932 69.6862C187.843 69.1467 188.932 68.8317 189.839 68.8943L189.999 69.9999C189.065 69.9682 188.18 70.2223 187.491 70.6302C186.17 71.4132 185.932 72.304 186.334 72.9815C187.459 74.8806 191.464 70.9025 193.155 73.7566C193.859 74.945 193.509 76.5325 191.454 77.7498ZM201.62 71.607L199.613 70.1701L195.482 72.6178L195.778 75.0679L194.635 75.7456L193.549 65.8858L194.649 65.2344L202.786 70.9161L201.62 71.607ZM195.344 71.499L198.698 69.5119L194.765 66.6962L195.344 71.499ZM206.042 69.1072C204.854 69.8112 203.451 70.1023 202.487 69.8933L202.384 68.7836C203.271 68.9634 204.483 68.7554 205.483 68.1632C206.826 67.3671 207.095 66.503 206.693 65.8255C205.568 63.9264 201.57 67.9157 199.859 65.0282C199.149 63.8287 199.476 62.2543 201.52 61.0436C202.43 60.5041 203.519 60.1892 204.426 60.2518L204.586 61.3574C203.652 61.3256 202.768 61.5797 202.079 61.9876C200.757 62.7706 200.52 63.6615 200.921 64.3389C202.046 66.238 206.051 62.2599 207.742 65.1141C208.446 66.3024 208.097 67.89 206.042 69.1072ZM213.961 64.4153C211.574 65.8299 208.812 65.1703 207.463 62.8936C206.115 60.617 206.863 57.8782 209.25 56.4636C211.616 55.0621 214.371 55.7105 215.726 57.9983C217.082 60.2861 216.327 63.0138 213.961 64.4153ZM213.376 63.4269C215.097 62.407 215.635 60.3777 214.616 58.6563C213.596 56.9349 211.557 56.4321 209.836 57.452C208.092 58.485 207.554 60.5143 208.574 62.2357C209.594 63.9571 211.632 64.4599 213.376 63.4269ZM220.474 49.9342L221.584 49.2762L226.19 57.0503L225.079 57.7082L223.027 54.2433L218.562 56.8883L220.615 60.3533L219.504 61.0113L214.899 53.2372L216.009 52.5793L217.99 55.9221L222.454 53.2771L220.474 49.9342ZM234.103 52.3621L232.097 50.9252L227.965 53.3729L228.261 55.823L227.118 56.5007L226.032 46.6409L227.132 45.9895L235.269 51.6712L234.103 52.3621ZM227.827 52.2541L231.181 50.267L227.248 47.4513L227.827 52.2541ZM237.176 40.0387L238.287 39.3807L242.892 47.1547L241.982 47.6943L233.883 44.6606L237.317 50.4578L236.207 51.1157L231.601 43.3417L232.512 42.8022L240.611 45.8359L237.176 40.0387Z" fill="white" fill-opacity="0.2"/>
<rect x="298.546" y="4.12744" width="5.16341" height="5.16341" transform="rotate(14.3549 298.546 4.12744)" fill="white" fill-opacity="0.2"/>
</g>
<g clip-path="url(#clip2_644_32505)" filter="url(#filter1_dd_644_32505)">
<rect width="857.368" height="27" transform="translate(-40.5957 85.2578) rotate(-15)" fill="#993B5B"/>
<rect x="1.88281" y="85.2368" width="3.57237" height="3.57237" transform="rotate(30 1.88281 85.2368)" fill="white" fill-opacity="0.2"/>
<path d="M56.4861 70.3721L57.3056 70.1525L56.905 76.732L55.9992 76.9747L53.0594 72.5939L52.7039 77.8577L51.7808 78.105L48.1442 72.6073L49.0327 72.3692L51.9784 76.8409L52.3626 71.477L53.1562 71.2643L56.1433 75.7526L56.4861 70.3721ZM59.8064 75.9546L58.1883 69.916L59.051 69.6848L60.6691 75.7234L59.8064 75.9546ZM63.5035 74.964L62.0866 69.6759L60.0162 70.2306L59.8151 69.4801L64.8099 68.1417L65.011 68.8923L62.9406 69.447L64.3575 74.7351L63.5035 74.964ZM69.9075 66.7759L70.7701 66.5447L72.3882 72.5833L71.5255 72.8145L70.8043 70.123L67.3364 71.0522L68.0576 73.7437L67.1949 73.9748L65.5769 67.9362L66.4396 67.7051L67.1353 70.3017L70.6032 69.3725L69.9075 66.7759ZM78.805 67.2673L78.9876 67.9488L77.4176 68.3694L77.8313 69.9136L77.1067 70.1078L76.693 68.5636L75.1229 68.9843L74.9403 68.3028L76.5103 67.8821L76.0943 66.3293L76.8189 66.1352L77.235 67.6879L78.805 67.2673ZM84.9382 69.2945C84.0152 69.5418 83.0261 69.474 82.4229 69.1549L82.5618 68.3965C83.119 68.6817 83.9653 68.7693 84.7417 68.5613C85.7855 68.2816 86.1255 67.7559 85.9845 67.2297C85.5892 65.7545 82.1812 67.6663 81.5802 65.4234C81.3306 64.4917 81.8425 63.5039 83.4298 63.0786C84.1372 62.889 84.9213 62.8823 85.5141 63.0933L85.4144 63.8597C84.798 63.6643 84.1612 63.6685 83.6263 63.8118C82.5997 64.0869 82.2754 64.6361 82.4164 65.1623C82.8116 66.6375 86.222 64.7344 86.816 66.9514C87.0634 67.8745 86.5341 68.8669 84.9382 69.2945ZM92.857 67.0987L91.7882 65.767L88.5791 66.6269L88.3194 68.3146L87.4309 68.5526L88.5474 61.7813L89.4015 61.5524L93.7628 66.856L92.857 67.0987ZM88.6961 65.8559L91.3014 65.1578L89.2059 62.5479L88.6961 65.8559ZM96.2694 66.2583C95.3463 66.5057 94.3573 66.4378 93.754 66.1187L93.8929 65.3603C94.4501 65.6455 95.2965 65.7331 96.0729 65.5251C97.1167 65.2454 97.4567 64.7197 97.3157 64.1935C96.9204 62.7184 93.5124 64.6301 92.9114 62.3872C92.6617 61.4555 93.1737 60.4677 94.761 60.0424C95.4684 59.8529 96.2525 59.8462 96.8453 60.0572L96.7455 60.8236C96.1292 60.6281 95.4923 60.6323 94.9575 60.7757C93.9309 61.0507 93.6065 61.5999 93.7475 62.1262C94.1428 63.6013 97.5531 61.6982 98.1472 63.9152C98.3945 64.8383 97.8653 65.8307 96.2694 66.2583ZM102.421 64.61C100.566 65.107 98.8496 64.1523 98.3757 62.3839C97.9019 60.6154 98.9112 58.9304 100.766 58.4334C102.603 57.941 104.318 58.8871 104.794 60.6641C105.27 62.4412 104.258 64.1177 102.421 64.61ZM102.215 63.8423C103.552 63.484 104.29 62.2324 103.931 60.8953C103.573 59.5582 102.309 58.8429 100.972 59.2011C99.6173 59.5641 98.8801 60.8156 99.2384 62.1527C99.5967 63.4899 100.861 64.2052 102.215 63.8423ZM109.461 56.1774L110.324 55.9462L111.942 61.9849L111.079 62.216L110.358 59.5245L106.89 60.4537L107.612 63.1452L106.749 63.3764L105.131 57.3378L105.994 57.1066L106.689 59.7032L110.157 58.774L109.461 56.1774ZM118.089 60.3379L117.02 59.0062L113.811 59.8661L113.551 61.5537L112.663 61.7918L113.779 55.0204L114.633 54.7916L118.995 60.0952L118.089 60.3379ZM113.928 59.0951L116.533 58.397L114.438 55.7871L113.928 59.0951ZM122.435 52.701L123.298 52.4699L124.916 58.5085L124.209 58.6981L119.379 55.1658L120.586 59.6689L119.723 59.9L118.105 53.8614L118.812 53.6719L123.642 57.2041L122.435 52.701Z" fill="white" fill-opacity="0.2"/>
<rect x="170.303" y="40.1089" width="3.57237" height="3.57237" transform="rotate(30 170.303 40.1089)" fill="white" fill-opacity="0.2"/>
<path d="M221.592 29.248C222.324 29.2552 222.909 29.644 223.124 30.4462C223.402 31.4814 222.776 32.287 221.249 32.6961L218.368 33.4682L216.75 27.4296L219.459 26.7038C220.848 26.3316 221.781 26.7102 222.042 27.685C222.218 28.3406 222.004 28.888 221.592 29.248ZM219.568 27.4233L217.8 27.8972L218.318 29.8295L220.086 29.3557C220.966 29.1199 221.379 28.658 221.207 28.0197C221.036 27.3813 220.448 27.1875 219.568 27.4233ZM221.028 32.0066C221.985 31.7501 222.422 31.3094 222.235 30.6107C222.047 29.9119 221.447 29.7401 220.489 29.9966L218.505 30.5283L219.043 32.5383L221.028 32.0066ZM225.386 30.7833L228.906 29.8402L229.107 30.5908L224.724 31.765L223.106 25.7264L227.368 24.5845L227.569 25.335L224.17 26.2457L224.667 28.1005L227.695 27.2891L227.892 28.0224L224.864 28.8337L225.386 30.7833ZM238.902 27.9661L238.074 28.188L236.886 23.7908L235.686 28.0419L235.289 28.1482L232.131 25.0926L233.303 29.4663L232.475 29.6882L230.857 23.6496L231.565 23.46L235.221 27.0293L236.568 22.1193L237.275 21.9298L238.902 27.9661ZM243.634 20.2261L242.294 24.8196L242.854 26.9073L242 27.1361L241.436 25.0312L237.983 21.7401L238.906 21.4928L241.692 24.1582L242.78 20.4549L243.634 20.2261ZM248.099 25.5019L246.481 19.4632L247.343 19.2321L248.76 24.5202L252.03 23.6441L252.231 24.3946L248.099 25.5019ZM255.683 23.5436C253.829 24.0405 252.112 23.0859 251.638 21.3174C251.164 19.549 252.174 17.8639 254.028 17.3669C255.866 16.8746 257.58 17.8206 258.056 19.5977C258.532 21.3748 257.521 23.0512 255.683 23.5436ZM255.478 22.7758C256.815 22.4175 257.552 21.1659 257.194 19.8288C256.835 18.4917 255.571 17.7764 254.234 18.1347C252.88 18.4976 252.142 19.7491 252.501 21.0863C252.859 22.4234 254.123 23.1387 255.478 22.7758ZM262.582 15.149L263.444 14.9178L262.414 21.6661L261.56 21.8949L257.285 16.5682L258.217 16.3186L261.72 20.6964L262.582 15.149ZM266.322 19.8147L269.841 18.8716L270.042 19.6221L265.66 20.7963L264.042 14.7577L268.304 13.6158L268.505 14.3664L265.106 15.2771L265.603 17.1318L268.631 16.3205L268.827 17.0537L265.799 17.8651L266.322 19.8147Z" fill="white" fill-opacity="0.2"/>
<rect x="314.574" y="1.45117" width="3.57237" height="3.57237" transform="rotate(30 314.574 1.45117)" fill="white" fill-opacity="0.2"/>
</g>
</g>
<defs>
<filter id="filter0_dd_644_32505" x="-413.223" y="-260.223" width="1150.04" height="729.562" filterUnits="userSpaceOnUse" color-interpolation-filters="sRGB">
<feFlood flood-opacity="0" result="BackgroundImageFix"/>
<feColorMatrix in="SourceAlpha" type="matrix" values="0 0 0 0 0 0 0 0 0 0 0 0 0 0 0 0 0 0 127 0" result="hardAlpha"/>
<feOffset dx="3.17476" dy="3.17476"/>
<feGaussianBlur stdDeviation="12.6991"/>
<feComposite in2="hardAlpha" operator="out"/>
<feColorMatrix type="matrix" values="0 0 0 0 0 0 0 0 0 0 0 0 0 0 0 0 0 0 0.12 0"/>
<feBlend mode="normal" in2="BackgroundImageFix" result="effect1_dropShadow_644_32505"/>
<feColorMatrix in="SourceAlpha" type="matrix" values="0 0 0 0 0 0 0 0 0 0 0 0 0 0 0 0 0 0 127 0" result="hardAlpha"/>
<feOffset dx="15.8738" dy="15.8738"/>
<feGaussianBlur stdDeviation="12.6991"/>
<feComposite in2="hardAlpha" operator="out"/>
<feColorMatrix type="matrix" values="0 0 0 0 0 0 0 0 0 0 0 0 0 0 0 0 0 0 0.08 0"/>
<feBlend mode="normal" in2="effect1_dropShadow_644_32505" result="effect2_dropShadow_644_32505"/>
<feBlend mode="normal" in="SourceGraphic" in2="effect2_dropShadow_644_32505" result="shape"/>
</filter>
<filter id="filter1_dd_644_32505" x="-55.9712" y="-152.021" width="879.071" height="291.913" filterUnits="userSpaceOnUse" color-interpolation-filters="sRGB">
<feFlood flood-opacity="0" result="BackgroundImageFix"/>
<feColorMatrix in="SourceAlpha" type="matrix" values="0 0 0 0 0 0 0 0 0 0 0 0 0 0 0 0 0 0 127 0" result="hardAlpha"/>
<feOffset dx="2.19649" dy="2.19649"/>
<feGaussianBlur stdDeviation="8.78598"/>
<feComposite in2="hardAlpha" operator="out"/>
<feColorMatrix type="matrix" values="0 0 0 0 0 0 0 0 0 0 0 0 0 0 0 0 0 0 0.12 0"/>
<feBlend mode="normal" in2="BackgroundImageFix" result="effect1_dropShadow_644_32505"/>
<feColorMatrix in="SourceAlpha" type="matrix" values="0 0 0 0 0 0 0 0 0 0 0 0 0 0 0 0 0 0 127 0" result="hardAlpha"/>
<feOffset dx="10.9825" dy="10.9825"/>
<feGaussianBlur stdDeviation="8.78598"/>
<feComposite in2="hardAlpha" operator="out"/>
<feColorMatrix type="matrix" values="0 0 0 0 0 0 0 0 0 0 0 0 0 0 0 0 0 0 0.08 0"/>
<feBlend mode="normal" in2="effect1_dropShadow_644_32505" result="effect2_dropShadow_644_32505"/>
<feBlend mode="normal" in="SourceGraphic" in2="effect2_dropShadow_644_32505" result="shape"/>
</filter>
<clipPath id="clip0_644_32505">
<rect width="480" height="310" fill="white"/>
</clipPath>
<clipPath id="clip1_644_32505">
<rect width="1239.22" height="40" fill="white" transform="translate(-391 393.653) rotate(-30.6451)"/>
</clipPath>
<clipPath id="clip2_644_32505">
<rect width="857.368" height="27" fill="white" transform="translate(-40.5957 85.2578) rotate(-15)"/>
</clipPath>
</defs>
</svg>
