<svg width="34" height="40" viewBox="0 0 34 40" fill="none" xmlns="http://www.w3.org/2000/svg">
<g clip-path="url(#clip0_3681_46493)">
<path d="M8.82695 39.3548L7.11227 36.3497L3.6578 36.1363C2.69126 36.0761 2.13894 35.0066 2.65109 34.1831L12.2714 18.736L20.6414 23.9503L11.0211 39.3975C10.509 40.2184 9.30395 40.1958 8.82444 39.3548H8.82695Z" fill="#6B7788"/>
<path fill-rule="evenodd" clip-rule="evenodd" d="M13.4736 19.6434C13.8252 19.8624 13.9327 20.3249 13.7137 20.6765L4.47751 35.5036C4.25851 35.8552 3.79595 35.9626 3.44437 35.7436C3.09279 35.5246 2.98532 35.0621 3.20433 34.7105L12.4405 19.8834C12.6595 19.5318 13.1221 19.4243 13.4736 19.6434Z" fill="white"/>
<path fill-rule="evenodd" clip-rule="evenodd" d="M19.3032 23.2735C19.6548 23.4925 19.7623 23.955 19.5433 24.3066L10.3071 39.1362C10.0882 39.4878 9.62561 39.5953 9.27401 39.3764C8.92241 39.1574 8.81491 38.6948 9.03389 38.3432L18.2701 23.5136C18.489 23.162 18.9516 23.0545 19.3032 23.2735Z" fill="white"/>
<path d="M24.6734 39.3548L26.388 36.3497L29.8425 36.1363C30.8091 36.0761 31.3614 35.0066 30.8492 34.1831L21.2289 18.736L12.8589 23.9503L22.4792 39.3975C22.9913 40.2184 24.1964 40.1958 24.6759 39.3548H24.6734Z" fill="#6B7788"/>
<path fill-rule="evenodd" clip-rule="evenodd" d="M20.0289 19.6433C20.3805 19.4243 20.8431 19.5319 21.062 19.8835L30.2957 34.7106C30.5147 35.0622 30.4071 35.5247 30.0555 35.7437C29.7039 35.9626 29.2414 35.8551 29.0224 35.5035L19.7888 20.6764C19.5698 20.3248 19.6773 19.8623 20.0289 19.6433Z" fill="white"/>
<path fill-rule="evenodd" clip-rule="evenodd" d="M14.1999 23.2735C14.5515 23.0545 15.014 23.1621 15.233 23.5137L24.4666 38.3433C24.6856 38.6949 24.578 39.1575 24.2264 39.3764C23.8748 39.5953 23.4122 39.4878 23.1933 39.1362L13.9596 24.3066C13.7407 23.9549 13.8482 23.4924 14.1999 23.2735Z" fill="white"/>
<path d="M20.4254 1.81759C21.4321 3.13561 23.069 3.81345 24.7133 3.59253C27.736 3.18833 30.3143 5.76663 29.9101 8.78929C29.6892 10.4337 30.367 12.0705 31.685 13.0772C34.1077 14.9275 34.1077 18.5753 31.685 20.4255C30.367 21.4322 29.6892 23.0691 29.9101 24.7135C30.3143 27.7361 27.736 30.3144 24.7133 29.9102C23.069 29.6893 21.4321 30.3671 20.4254 31.6852C18.5751 34.1078 14.9274 34.1078 13.0771 31.6852C12.0704 30.3671 10.4336 29.6893 8.78917 29.9102C5.76651 30.3144 3.18821 27.7361 3.5924 24.7135C3.81333 23.0691 3.13549 21.4322 1.81747 20.4255C-0.605173 18.5753 -0.605173 14.9275 1.81747 13.0772C3.13549 12.0705 3.81333 10.4337 3.5924 8.78929C3.18821 5.76663 5.76651 3.18833 8.78917 3.59253C10.4336 3.81345 12.0704 3.13561 13.0771 1.81759C14.9274 -0.605051 18.5751 -0.605051 20.4254 1.81759Z" fill="#B1B5B9"/>
<path d="M20.4254 1.81759C21.4321 3.13561 23.069 3.81345 24.7133 3.59253C27.736 3.18833 30.3143 5.76663 29.9101 8.78929C29.6892 10.4337 30.367 12.0705 31.685 13.0772C34.1077 14.9275 34.1077 18.5753 31.685 20.4255C30.367 21.4322 29.6892 23.0691 29.9101 24.7135C30.3143 27.7361 27.736 30.3144 24.7133 29.9102C23.069 29.6893 21.4321 30.3671 20.4254 31.6852C18.5751 34.1078 14.9274 34.1078 13.0771 31.6852C12.0704 30.3671 10.4336 29.6893 8.78917 29.9102C5.76651 30.3144 3.18821 27.7361 3.5924 24.7135C3.81333 23.0691 3.13549 21.4322 1.81747 20.4255C-0.605173 18.5753 -0.605173 14.9275 1.81747 13.0772C3.13549 12.0705 3.81333 10.4337 3.5924 8.78929C3.18821 5.76663 5.76651 3.18833 8.78917 3.59253C10.4336 3.81345 12.0704 3.13561 13.0771 1.81759C14.9274 -0.605051 18.5751 -0.605051 20.4254 1.81759Z" fill="#B1B5B9"/>
<path d="M14.4305 1.5465C15.8665 2.37999 17.6364 2.37999 19.0699 1.5465C21.7059 0.0175979 25.075 1.41344 25.8583 4.35827C26.2851 5.96249 27.5353 7.21273 29.1395 7.63951C32.0869 8.42279 33.4802 11.7919 31.9513 14.4279C31.1178 15.864 31.1178 17.6339 31.9513 19.0674C33.4802 21.7034 32.0844 25.0725 29.1395 25.8558C27.5353 26.2826 26.2851 27.5328 25.8583 29.137C25.075 32.0844 21.7059 33.4777 19.0699 31.9488C17.6339 31.1153 15.864 31.1153 14.4305 31.9488C11.7944 33.4777 8.42531 32.0819 7.64203 29.137C7.21524 27.5328 5.965 26.2826 4.36079 25.8558C1.41344 25.0775 0.0175979 21.7084 1.5465 19.0699C2.37999 17.6339 2.37999 15.864 1.5465 14.4305C0.0175979 11.7944 1.41344 8.42531 4.35827 7.64203C5.96249 7.21524 7.21273 5.965 7.63951 4.36079C8.42279 1.41344 11.7944 0.0175979 14.4305 1.5465Z" fill="#EDEDEA"/>
<path d="M16.75 27.9596C22.9408 27.9596 27.9594 22.941 27.9594 16.7501C27.9594 10.5593 22.9408 5.54071 16.75 5.54071C10.5592 5.54071 5.54053 10.5593 5.54053 16.7501C5.54053 22.941 10.5592 27.9596 16.75 27.9596Z" fill="#C1CBD7"/>
<path fill-rule="evenodd" clip-rule="evenodd" d="M16.75 6.54071C11.1114 6.54071 6.54053 11.1116 6.54053 16.7502C6.54053 22.3887 11.1114 26.9596 16.75 26.9596C22.3885 26.9596 26.9594 22.3887 26.9594 16.7502C26.9594 11.1116 22.3885 6.54071 16.75 6.54071ZM4.54053 16.7502C4.54053 10.0071 10.0069 4.54071 16.75 4.54071C23.4931 4.54071 28.9594 10.0071 28.9594 16.7502C28.9594 23.4932 23.4931 28.9596 16.75 28.9596C10.0069 28.9596 4.54053 23.4932 4.54053 16.7502Z" fill="#B1B5B9"/>
<path d="M19.9057 11.463C18.4596 11.4279 17.2194 12.3342 16.75 13.6095C16.1901 12.0831 14.5282 11.089 12.7306 11.5936C11.3373 11.9827 10.4009 13.2907 10.4009 14.7367C10.4009 17.418 11.6812 19.936 13.8478 21.5176L15.5876 22.7879C16.2805 23.2926 17.2194 23.2926 17.9123 22.7879L19.7274 21.4649C21.8463 19.9184 23.0991 17.4556 23.0991 14.8321C23.0991 13.0371 21.6957 11.5082 19.9032 11.4655L19.9057 11.463Z" fill="#EDEDEA"/>
</g>
<defs>
<clipPath id="clip0_3681_46493">
<rect width="33.5003" height="40" fill="white"/>
</clipPath>
</defs>
</svg>
