<svg width="622" height="414" viewBox="0 0 622 414" fill="none" xmlns="http://www.w3.org/2000/svg">
<path fill-rule="evenodd" clip-rule="evenodd" d="M119.512 0.00111735C123.204 0.0544594 126.606 2.0132 128.505 5.17944L278.854 255.761L260.558 266.738L119.065 30.9158L-32.029 267L-50 255.499L110.372 4.91745C112.362 1.80742 115.819 -0.0522247 119.512 0.00111735Z" fill="#FAFAFA"/>
<path fill-rule="evenodd" clip-rule="evenodd" d="M269.865 0.00111735C273.557 0.0544594 276.959 2.0132 278.859 5.17944L429.207 255.761L410.912 266.738L269.418 30.9158L118.324 267L100.354 255.499L260.725 4.91745C262.716 1.80742 266.173 -0.0522247 269.865 0.00111735Z" fill="#FAFAFA"/>
<path fill-rule="evenodd" clip-rule="evenodd" d="M269.707 0H600.474V21.3363H269.707V0Z" fill="#FAFAFA"/>
<path fill-rule="evenodd" clip-rule="evenodd" d="M309.796 60.1406L610.493 60.1406V81.4769L309.796 81.4769V60.1406Z" fill="#FAFAFA"/>
<path fill-rule="evenodd" clip-rule="evenodd" d="M339.231 120.275L621.171 120.275L621.171 141.612L339.231 141.612L339.231 120.275Z" fill="#FAFAFA"/>
<path fill-rule="evenodd" clip-rule="evenodd" d="M621.165 120.275L621.165 261.891L599.829 261.891L599.829 120.275L621.165 120.275Z" fill="#FAFAFA"/>
<path fill-rule="evenodd" clip-rule="evenodd" d="M621.166 261.892L409.388 261.892L409.388 240.556L621.166 240.556L621.166 261.892Z" fill="#FAFAFA"/>
<path d="M110.121 390.599C110.121 378.216 102.79 370.556 88.442 367.512L77.8645 365.309C68.5437 363.315 63.7262 359.012 63.7262 351.247C63.7262 342.747 69.9052 336.975 80.9016 336.975C91.8981 336.975 97.9723 342.747 97.9723 351.247V352.821H107.084V351.247C107.084 339.074 97.9723 329 80.9016 329C63.7262 329 54.7196 339.074 54.7196 351.247C54.7196 363.42 62.26 370.451 75.0369 373.074L85.6144 375.278C96.2966 377.481 101.114 383.043 101.114 390.704C101.114 399.623 94.0974 406.13 82.4725 406.13C70.6383 406.13 63.7262 399.623 63.7262 390.704V388.395H54.7196V390.599C54.7196 403.926 64.6688 414 82.4725 414C100.172 414 110.121 403.926 110.121 390.599Z" fill="#FAFAFA"/>
<path d="M141.452 330.364L112.651 412.636H122.182L128.78 393.117H164.597L171.194 412.636H180.62L151.924 330.364H141.452ZM161.769 385.142H131.398L146.688 339.809L161.769 385.142Z" fill="#FAFAFA"/>
<path d="M239.194 390.599C239.194 378.216 231.863 370.556 217.515 367.512L206.938 365.309C197.617 363.315 192.799 359.012 192.799 351.247C192.799 342.747 198.978 336.975 209.975 336.975C220.971 336.975 227.046 342.747 227.046 351.247V352.821H236.157V351.247C236.157 339.074 227.046 329 209.975 329C192.799 329 183.793 339.074 183.793 351.247C183.793 363.42 191.333 370.451 204.11 373.074L214.688 375.278C225.37 377.481 230.187 383.043 230.187 390.704C230.187 399.623 223.171 406.13 211.546 406.13C199.712 406.13 192.799 399.623 192.799 390.704V388.395H183.793V390.599C183.793 403.926 193.742 414 211.546 414C229.245 414 239.194 403.926 239.194 390.599Z" fill="#FAFAFA"/>
<path d="M309.98 371.5C309.98 347.994 303.278 329 278.667 329C254.37 329 247.458 348.099 247.458 371.5C247.458 395.216 254.474 414 278.667 414C303.068 414 309.98 395.321 309.98 371.5ZM300.974 371.5C300.974 392.698 295.947 406.025 278.667 406.025C261.491 406.025 256.569 392.802 256.569 371.5C256.569 350.302 261.596 336.975 278.667 336.975C295.842 336.975 300.974 350.407 300.974 371.5Z" fill="#FAFAFA"/>
<path d="M368.32 412.636H377.431V330.364H368.32V366.463H330.827V330.364H321.716V412.636H330.827V374.543H368.32V412.636Z" fill="#FAFAFA"/>
<path d="M413.201 330.364L384.4 412.636H393.931L400.528 393.117H436.345L442.943 412.636H452.369L423.673 330.364H413.201ZM433.518 385.142H403.147L418.437 339.809L433.518 385.142Z" fill="#FAFAFA"/>
<path d="M516.452 412.636V330.364H507.34V396.056L468.696 330.364H459.584V412.636H468.696V346.944L507.34 412.636H516.452Z" fill="#FAFAFA"/>
</svg>
