<svg width="304" height="174" viewBox="0 0 304 174" fill="none" xmlns="http://www.w3.org/2000/svg">
<g filter="url(#filter0_d_4830_39363)">
<rect x="12" y="12" width="280" height="150" rx="12" fill="white"/>
<mask id="mask0_4830_39363" style="mask-type:alpha" maskUnits="userSpaceOnUse" x="28" y="31" width="20" height="20">
<rect x="28" y="31" width="20" height="20" fill="#D9D9D9"/>
</mask>
<g mask="url(#mask0_4830_39363)">
<path d="M37.1666 48.5L34.5208 46.125C33.5208 45.2222 32.6632 44.4167 31.9479 43.7083C31.2326 43 30.6423 42.3333 30.1771 41.7083C29.7118 41.0833 29.3715 40.4792 29.1562 39.8958C28.941 39.3125 28.8333 38.7014 28.8333 38.0625C28.8333 36.7569 29.2708 35.6701 30.1458 34.8021C31.0208 33.934 32.1111 33.5 33.4166 33.5C34.1389 33.5 34.8264 33.6493 35.4791 33.9479C36.1319 34.2465 36.6944 34.6736 37.1666 35.2292C37.6389 34.6736 38.2014 34.2465 38.8541 33.9479C39.5069 33.6493 40.1944 33.5 40.9166 33.5C42.0972 33.5 43.0868 33.8576 43.8854 34.5729C44.684 35.2882 45.1805 36.125 45.375 37.0833C45.0972 36.9722 44.8055 36.9028 44.5 36.875C44.1944 36.8472 43.8819 36.8333 43.5625 36.8333C42.3819 36.8333 41.2986 37.309 40.3125 38.2604C39.3264 39.2118 38.8333 40.4028 38.8333 41.8333C38.8333 42.5 38.9791 43.1771 39.2708 43.8646C39.5625 44.5521 39.9722 45.1111 40.5 45.5417C40.2361 45.7778 39.8923 46.0799 39.4687 46.4479C39.0451 46.816 38.6805 47.1389 38.375 47.4167L37.1666 48.5ZM42.9583 44.4792L40.5833 42.125L41.7708 40.9583L42.9583 42.125L45.8958 39.1875L47.0833 40.3542L42.9583 44.4792Z" fill="#6840FD"/>
</g>
<path d="M69.4375 46.7344H56.4219V45.1406H61.8594V41.9219H63.8438V45.1406H69.4375V46.7344ZM63.9062 36.0469C63.9062 36.7396 64.1068 37.4141 64.5078 38.0703C64.9141 38.7214 65.5 39.2865 66.2656 39.7656C67.0365 40.2396 67.9427 40.5573 68.9844 40.7188L68.1406 42.375C66.9115 42.151 65.8411 41.7266 64.9297 41.1016C64.0182 40.4766 63.3229 39.7135 62.8438 38.8125C62.3646 39.7135 61.6719 40.4792 60.7656 41.1094C59.8594 41.7344 58.7969 42.1562 57.5781 42.375L56.7344 40.7188C57.7656 40.5573 58.6615 40.2396 59.4219 39.7656C60.1875 39.2865 60.7708 38.7188 61.1719 38.0625C61.5729 37.4062 61.776 36.7344 61.7812 36.0469V35.0312H63.9062V36.0469ZM82.5156 48.4375H80.5938V41.2031H79.2969V47.8125H77.4375V34.5938H79.2969V39.6094H80.5938V34.2188H82.5156V48.4375ZM76.4375 35.9688C76.4323 37.3646 76.2682 38.6354 75.9453 39.7812C75.6224 40.9219 75.0781 41.9766 74.3125 42.9453C73.5521 43.9089 72.526 44.7656 71.2344 45.5156L70.0781 44.1406C71.4948 43.3073 72.5495 42.362 73.2422 41.3047C73.9349 40.2422 74.3516 38.9948 74.4922 37.5625H70.7969V35.9688H76.4375ZM91.75 36.7969H86.8594V37.9062H91.3281V39.4531H86.8594V40.5938C88.2656 40.5938 89.388 40.5729 90.2266 40.5312C91.0703 40.4896 91.9115 40.401 92.75 40.2656L92.9531 41.8281C92.0885 41.9688 91.2135 42.0651 90.3281 42.1172C89.4479 42.1641 88.3385 42.1875 87 42.1875H86.0781H84.8594V35.2031H91.75V36.7969ZM95.9844 42.8438H93.9844V34.2344H95.9844V42.8438ZM91.1406 43.0312C92.1354 43.0312 93.0026 43.138 93.7422 43.3516C94.4818 43.5651 95.0521 43.875 95.4531 44.2812C95.8542 44.6875 96.0573 45.1719 96.0625 45.7344C96.0573 46.3021 95.8542 46.7865 95.4531 47.1875C95.0521 47.5938 94.4818 47.9036 93.7422 48.1172C93.0078 48.3307 92.1406 48.4375 91.1406 48.4375C90.1302 48.4375 89.2578 48.3307 88.5234 48.1172C87.7891 47.9089 87.2266 47.6016 86.8359 47.1953C86.4453 46.7891 86.25 46.3021 86.25 45.7344C86.25 45.1719 86.4453 44.6875 86.8359 44.2812C87.2266 43.875 87.7891 43.5651 88.5234 43.3516C89.2578 43.138 90.1302 43.0312 91.1406 43.0312ZM91.1406 44.5781C90.1875 44.5781 89.4635 44.6771 88.9688 44.875C88.4792 45.0677 88.2344 45.3542 88.2344 45.7344C88.2344 46.125 88.4792 46.4219 88.9688 46.625C89.4635 46.8229 90.1875 46.9219 91.1406 46.9219C92.0885 46.9219 92.8125 46.8229 93.3125 46.625C93.8125 46.4219 94.0625 46.125 94.0625 45.7344C94.0625 45.3542 93.8125 45.0677 93.3125 44.875C92.8177 44.6771 92.0938 44.5781 91.1406 44.5781ZM110.922 46.7812H97.9062V45.125H110.922V46.7812ZM109.828 37.0625H107.828V41.375H109.766V42.9375H98.9844V41.375H100.891V37.0625H98.9219V35.4688H109.828V37.0625ZM105.859 41.375V37.0625H102.891V41.375H105.859ZM124.75 46.8594H111.734V45.2188H117.219V43.0781H113.234V38.2969H121.281V36.7344H113.219V35.1406H123.25V39.8594H115.234V41.4531H123.578V43.0781H119.203V45.2188H124.75V46.8594ZM137.5 41.5156H135.5V34.2188H137.5V41.5156ZM137.5 45.875H129.828V46.7656H137.891V48.3438H127.859V44.4531H135.531V43.625H127.828V42.0781H137.5V45.875ZM133.906 36.6094H132.734V39.4453C133.339 39.3984 133.911 39.3438 134.453 39.2812L134.547 40.7031C132.339 41.0573 129.495 41.2344 126.016 41.2344L125.797 39.6719L127.328 39.6562V36.6094H126.172V35.0938H133.906V36.6094ZM130.812 39.5625V36.6094H129.234V39.6172L130.812 39.5625ZM151.297 48.4688H149.281V34.2188H151.297V48.4688ZM143.578 35.2188C144.292 35.2188 144.93 35.4271 145.492 35.8438C146.06 36.2604 146.505 36.8516 146.828 37.6172C147.151 38.3828 147.312 39.2708 147.312 40.2812C147.312 41.3021 147.151 42.1979 146.828 42.9688C146.505 43.7344 146.06 44.3255 145.492 44.7422C144.93 45.1536 144.292 45.3594 143.578 45.3594C142.849 45.3594 142.198 45.1536 141.625 44.7422C141.052 44.3255 140.604 43.7344 140.281 42.9688C139.964 42.1979 139.807 41.3021 139.812 40.2812C139.807 39.2708 139.964 38.3828 140.281 37.6172C140.604 36.8516 141.052 36.2604 141.625 35.8438C142.198 35.4271 142.849 35.2188 143.578 35.2188ZM143.578 37.0156C143.208 37.0156 142.883 37.1432 142.602 37.3984C142.326 37.6484 142.112 38.0182 141.961 38.5078C141.81 38.9974 141.734 39.5885 141.734 40.2812C141.734 40.9792 141.81 41.5729 141.961 42.0625C142.112 42.5521 142.326 42.9219 142.602 43.1719C142.883 43.4219 143.208 43.5469 143.578 43.5469C143.943 43.5469 144.26 43.4219 144.531 43.1719C144.802 42.9167 145.013 42.5443 145.164 42.0547C145.315 41.5651 145.391 40.974 145.391 40.2812C145.391 39.5938 145.315 39.0052 145.164 38.5156C145.013 38.0208 144.799 37.6484 144.523 37.3984C144.253 37.1432 143.938 37.0156 143.578 37.0156ZM164.5 38.3125H166.422V39.9844H164.5V44.7031H162.5V34.2344H164.5V38.3125ZM165.047 48.1875H155.328V43.8594H157.344V46.5938H165.047V48.1875ZM160.25 39.5469H155.719V41.0469C156.932 41.0417 157.974 41.0078 158.844 40.9453C159.714 40.8828 160.589 40.7708 161.469 40.6094L161.688 42.2188C160.724 42.3958 159.747 42.513 158.758 42.5703C157.773 42.6276 156.5 42.6562 154.938 42.6562H153.734V38.0469H158.312V36.6875H153.719V35.0938H160.25V39.5469ZM169.531 43.4375C169.536 42.8125 169.594 42.3073 169.703 41.9219C169.812 41.5312 169.969 41.2188 170.172 40.9844C170.38 40.75 170.656 40.526 171 40.3125C171.38 40.0625 171.672 39.8099 171.875 39.5547C172.083 39.2995 172.188 39.0052 172.188 38.6719C172.188 38.4167 172.128 38.1927 172.008 38C171.888 37.8021 171.724 37.6484 171.516 37.5391C171.307 37.4297 171.078 37.375 170.828 37.375C170.578 37.375 170.344 37.4297 170.125 37.5391C169.911 37.6484 169.737 37.8099 169.602 38.0234C169.471 38.2318 169.401 38.4844 169.391 38.7812H167.172C167.188 38.0729 167.357 37.4766 167.68 36.9922C168.008 36.5026 168.445 36.138 168.992 35.8984C169.544 35.6536 170.161 35.5312 170.844 35.5312C171.568 35.5312 172.211 35.6536 172.773 35.8984C173.336 36.1432 173.773 36.4974 174.086 36.9609C174.404 37.4193 174.562 37.9635 174.562 38.5938C174.562 39.2083 174.417 39.7344 174.125 40.1719C173.839 40.6094 173.422 40.9896 172.875 41.3125C172.568 41.5 172.323 41.6875 172.141 41.875C171.964 42.0573 171.828 42.2734 171.734 42.5234C171.646 42.7734 171.599 43.0781 171.594 43.4375V43.6094H169.531V43.4375ZM170.609 47.1406C170.37 47.1406 170.148 47.0807 169.945 46.9609C169.742 46.8411 169.581 46.6823 169.461 46.4844C169.346 46.2812 169.292 46.0625 169.297 45.8281C169.292 45.5938 169.346 45.3776 169.461 45.1797C169.581 44.9818 169.742 44.8255 169.945 44.7109C170.148 44.5911 170.37 44.5312 170.609 44.5312C170.833 44.5312 171.044 44.5911 171.242 44.7109C171.445 44.8255 171.607 44.9818 171.727 45.1797C171.846 45.3776 171.906 45.5938 171.906 45.8281C171.906 46.0625 171.846 46.2812 171.727 46.4844C171.607 46.6823 171.445 46.8411 171.242 46.9609C171.044 47.0807 170.833 47.1406 170.609 47.1406Z" fill="#6840FD"/>
<path d="M39.6211 73.5215H28.4922V72.6328H33.4688V69.6523H34.5215V72.6328H39.6211V73.5215ZM34.5488 64.7168C34.5488 65.3639 34.7721 65.986 35.2188 66.583C35.6699 67.18 36.2441 67.6859 36.9414 68.1006C37.6432 68.5107 38.3542 68.7773 39.0742 68.9004L38.5957 69.7891C37.9668 69.6615 37.3493 69.4404 36.7432 69.126C36.137 68.8115 35.5902 68.4196 35.1025 67.9502C34.6195 67.4808 34.2503 66.9635 33.9951 66.3984C33.7399 66.9635 33.3708 67.4808 32.8877 67.9502C32.4046 68.4196 31.86 68.8115 31.2539 69.126C30.6523 69.4404 30.0371 69.6615 29.4082 69.7891L28.9297 68.9004C29.6497 68.7773 30.3561 68.5107 31.0488 68.1006C31.7461 67.6859 32.3158 67.1823 32.7578 66.5898C33.2044 65.9928 33.4277 65.3685 33.4277 64.7168V63.7871H34.5488V64.7168ZM50.5487 75.1074H49.496V68.75H47.8144V74.5059H46.789V63.2812H47.8144V67.8613H49.496V62.9531H50.5487V75.1074ZM45.4081 64.5391C45.399 66.2298 45.0413 67.752 44.3349 69.1055C43.6331 70.4544 42.4596 71.5846 40.8144 72.4961L40.1855 71.7441C42.7695 70.304 44.1594 68.1986 44.3554 65.4277H40.6503V64.5391H45.4081ZM58.3866 64.7305H53.6424V66.2617H58.0448V67.1367H53.6424V68.7363C55.0233 68.7363 56.1216 68.7158 56.9373 68.6748C57.7531 68.6292 58.5689 68.5404 59.3846 68.4082L59.494 69.2832C58.6418 69.4199 57.7918 69.5111 56.9442 69.5566C56.0965 69.6022 54.964 69.625 53.5467 69.625H52.5623V63.8555H58.3866V64.7305ZM61.8866 70.5H60.8202V62.9668H61.8866V70.5ZM57.8534 70.6777C58.6919 70.6732 59.4188 70.7575 60.034 70.9307C60.6493 71.0993 61.1209 71.3499 61.4491 71.6826C61.7772 72.0107 61.9412 72.4049 61.9412 72.8652C61.9412 73.3346 61.7772 73.7334 61.4491 74.0615C61.1209 74.3942 60.6493 74.6471 60.034 74.8203C59.4233 74.9935 58.6965 75.0801 57.8534 75.0801C56.992 75.0801 56.2537 74.9935 55.6385 74.8203C55.0233 74.6517 54.5516 74.401 54.2235 74.0684C53.8999 73.7357 53.7381 73.3346 53.7381 72.8652C53.7381 72.4049 53.8999 72.0107 54.2235 71.6826C54.5516 71.3499 55.0233 71.0993 55.6385 70.9307C56.2583 70.7575 56.9966 70.6732 57.8534 70.6777ZM57.8534 71.5254C57.2199 71.5254 56.673 71.5801 56.2127 71.6895C55.757 71.7943 55.4084 71.9469 55.1668 72.1475C54.9253 72.348 54.8045 72.5872 54.8045 72.8652C54.8045 73.1523 54.9253 73.3984 55.1668 73.6035C55.4084 73.8086 55.757 73.9635 56.2127 74.0684C56.673 74.1777 57.2199 74.2324 57.8534 74.2324C58.4732 74.2324 59.0109 74.1777 59.4666 74.0684C59.9224 73.959 60.2733 73.8018 60.5194 73.5967C60.7655 73.3916 60.8885 73.1478 60.8885 72.8652C60.8885 72.5918 60.7655 72.3548 60.5194 72.1543C60.2733 71.9492 59.9201 71.7943 59.4598 71.6895C59.0041 71.5801 58.4686 71.5254 57.8534 71.5254ZM77.7536 73.5488H66.6247V72.6328H77.7536V73.5488ZM76.6872 65.0723H74.7595V69.3242H76.6598V70.1992H67.6364V69.3242H69.5368V65.0723H67.6091V64.1836H76.6872V65.0723ZM73.7067 69.3242V65.0723H70.6032V69.3242H73.7067ZM89.4332 73.6035H78.3043V72.7012H83.3082V70.4043H79.6988V66.6582H86.9723V64.7441H79.6715V63.8555H88.025V67.5332H80.7652V69.5156H88.3121V70.4043H84.3609V72.7012H89.4332V73.6035ZM100.033 69.2695H98.9527V62.9531H100.033V69.2695ZM100.033 72.7559H93.1695V74.0957H100.498V74.9707H92.1167V71.9492H98.9663V70.7188H92.0757V69.8574H100.033V72.7559ZM97.107 64.6484H95.8765V67.7588C96.4461 67.7223 97.0568 67.6654 97.7085 67.5879L97.7632 68.3809C96.6467 68.5449 95.439 68.6611 94.1402 68.7295C92.8459 68.7979 91.5744 68.832 90.3257 68.832L90.189 67.9434L91.7476 67.9297V64.6484H90.5308V63.7871H97.107V64.6484ZM92.7866 67.9092C93.7072 67.8818 94.3908 67.8545 94.8374 67.8271V64.6484H92.7866V67.9092ZM111.685 75.1348H110.605V62.9531H111.685V75.1348ZM105.218 63.8965C105.82 63.901 106.355 64.0788 106.825 64.4297C107.294 64.776 107.661 65.2682 107.925 65.9062C108.19 66.5443 108.322 67.2871 108.322 68.1348C108.322 68.9824 108.19 69.7253 107.925 70.3633C107.661 71.0013 107.294 71.4935 106.825 71.8398C106.355 72.1862 105.82 72.3594 105.218 72.3594C104.617 72.3594 104.079 72.1862 103.605 71.8398C103.136 71.4935 102.769 71.0013 102.504 70.3633C102.245 69.7253 102.115 68.9824 102.115 68.1348C102.115 67.2871 102.245 66.5443 102.504 65.9062C102.769 65.2682 103.136 64.776 103.605 64.4297C104.074 64.0788 104.612 63.901 105.218 63.8965ZM105.218 64.8535C104.813 64.8581 104.453 64.9971 104.138 65.2705C103.828 65.5394 103.587 65.9222 103.414 66.4189C103.24 66.9111 103.154 67.4831 103.154 68.1348C103.154 68.7865 103.24 69.3607 103.414 69.8574C103.587 70.3496 103.831 70.7301 104.145 70.999C104.459 71.2679 104.817 71.4023 105.218 71.4023C105.619 71.4023 105.977 71.2679 106.291 70.999C106.606 70.7301 106.85 70.3496 107.023 69.8574C107.196 69.3607 107.283 68.7865 107.283 68.1348C107.283 67.4831 107.196 66.9111 107.023 66.4189C106.85 65.9222 106.606 65.5394 106.291 65.2705C105.982 64.9971 105.624 64.8581 105.218 64.8535ZM122.845 66.6992H124.691V67.6152H122.845V71.9082H121.779V62.9668H122.845V66.6992ZM123.419 74.8477H115.312V71.2246H116.406V73.9453H123.419V74.8477ZM119.372 67.2324H114.943V69.1328H115.353C116.36 69.1328 117.262 69.1032 118.06 69.0439C118.862 68.9847 119.696 68.8822 120.562 68.7363L120.671 69.625C119.746 69.7799 118.846 69.8848 117.971 69.9395C117.096 69.9941 116.05 70.0215 114.833 70.0215H113.89V66.3848H118.32V64.6621H113.863V63.7598H119.372V67.2324ZM132.191 66.2207C132.191 66.918 132.332 67.6152 132.614 68.3125C132.897 69.0052 133.278 69.625 133.756 70.1719C134.239 70.7188 134.765 71.1335 135.335 71.416L134.679 72.2773C134.009 71.9264 133.407 71.4115 132.874 70.7324C132.346 70.0534 131.947 69.2923 131.678 68.4492C131.409 69.347 131.003 70.1582 130.461 70.8828C129.919 71.6029 129.306 72.1452 128.622 72.5098L127.939 71.6484C128.527 71.3613 129.062 70.9307 129.545 70.3564C130.033 69.7777 130.418 69.126 130.7 68.4014C130.988 67.6722 131.133 66.9453 131.138 66.2207V64.0059H132.191V66.2207ZM137.523 67.8887H139.56V68.8184H137.523V75.1074H136.456V62.9531H137.523V67.8887ZM150.925 73.5215H139.796V72.6328H144.773V69.6523H145.825V72.6328H150.925V73.5215ZM145.853 64.7168C145.853 65.3639 146.076 65.986 146.523 66.583C146.974 67.18 147.548 67.6859 148.245 68.1006C148.947 68.5107 149.658 68.7773 150.378 68.9004L149.9 69.7891C149.271 69.6615 148.653 69.4404 148.047 69.126C147.441 68.8115 146.894 68.4196 146.406 67.9502C145.923 67.4808 145.554 66.9635 145.299 66.3984C145.044 66.9635 144.675 67.4808 144.192 67.9502C143.708 68.4196 143.164 68.8115 142.558 69.126C141.956 69.4404 141.341 69.6615 140.712 69.7891L140.234 68.9004C140.954 68.7773 141.66 68.5107 142.353 68.1006C143.05 67.6859 143.62 67.1823 144.062 66.5898C144.508 65.9928 144.732 65.3685 144.732 64.7168V63.7871H145.853V64.7168ZM160.978 66.9727H162.81V67.875H160.978V72.0723H159.911V62.9668H160.978V66.9727ZM158.749 65.332H151.503V64.457H154.593V62.9668H155.659V64.457H158.749V65.332ZM155.126 66.002C155.7 66.002 156.206 66.0954 156.644 66.2822C157.086 66.4691 157.43 66.7334 157.676 67.0752C157.922 67.417 158.047 67.8158 158.052 68.2715C158.047 68.7227 157.922 69.1169 157.676 69.4541C157.43 69.7913 157.086 70.0534 156.644 70.2402C156.206 70.4225 155.7 70.5137 155.126 70.5137C154.547 70.5137 154.035 70.4225 153.588 70.2402C153.146 70.0534 152.802 69.7913 152.556 69.4541C152.314 69.1169 152.196 68.7227 152.2 68.2715C152.196 67.8158 152.314 67.417 152.556 67.0752C152.802 66.7334 153.146 66.4691 153.588 66.2822C154.035 66.0954 154.547 66.002 155.126 66.002ZM155.126 66.8496C154.748 66.8496 154.413 66.9089 154.121 67.0273C153.834 67.1413 153.611 67.3076 153.451 67.5264C153.296 67.7406 153.221 67.9889 153.226 68.2715C153.221 68.554 153.296 68.8024 153.451 69.0166C153.611 69.2262 153.834 69.388 154.121 69.502C154.413 69.6159 154.748 69.6706 155.126 69.666C155.5 69.6706 155.83 69.6159 156.117 69.502C156.409 69.388 156.634 69.2262 156.794 69.0166C156.953 68.8024 157.036 68.554 157.04 68.2715C157.036 67.9889 156.953 67.7406 156.794 67.5264C156.634 67.3076 156.409 67.1413 156.117 67.0273C155.83 66.9089 155.5 66.8496 155.126 66.8496ZM161.538 74.8477H153.376V71.3477H154.429V73.9453H161.538V74.8477ZM173.573 75.1074H172.534V62.9531H173.573V75.1074ZM171.126 74.4922H170.101V68.5859H168.535C168.499 69.3698 168.369 70.0511 168.145 70.6299C167.922 71.2041 167.619 71.6484 167.236 71.9629C166.853 72.2728 166.414 72.4277 165.917 72.4277C165.393 72.4277 164.933 72.2568 164.536 71.915C164.144 71.5687 163.841 71.0765 163.627 70.4385C163.413 69.8005 163.306 69.0553 163.306 68.2031C163.306 67.3509 163.413 66.6058 163.627 65.9678C163.841 65.3298 164.144 64.8398 164.536 64.498C164.933 64.1517 165.393 63.9785 165.917 63.9785C166.405 63.9785 166.838 64.1289 167.216 64.4297C167.594 64.7305 167.895 65.1611 168.118 65.7217C168.346 66.2822 168.483 66.9408 168.528 67.6973H170.101V63.2129H171.126V74.4922ZM165.917 64.9902C165.589 64.9902 165.304 65.1201 165.062 65.3799C164.821 65.6396 164.634 66.0133 164.502 66.501C164.374 66.984 164.313 67.5514 164.317 68.2031C164.313 68.8548 164.374 69.4222 164.502 69.9053C164.634 70.3883 164.821 70.7598 165.062 71.0195C165.309 71.2793 165.593 71.4069 165.917 71.4023C166.241 71.4069 166.523 71.2793 166.765 71.0195C167.011 70.7598 167.2 70.3883 167.332 69.9053C167.464 69.4222 167.53 68.8548 167.53 68.2031C167.53 67.5469 167.464 66.9772 167.332 66.4941C167.2 66.0111 167.013 65.6396 166.771 65.3799C166.53 65.1201 166.245 64.9902 165.917 64.9902ZM179.114 66.2207C179.114 66.9408 179.255 67.6517 179.538 68.3535C179.821 69.0553 180.203 69.6797 180.686 70.2266C181.169 70.7689 181.703 71.1745 182.286 71.4434L181.643 72.3184C180.955 71.9629 180.34 71.4411 179.798 70.7529C179.255 70.0648 178.85 69.2878 178.581 68.4219C178.307 69.3379 177.9 70.1605 177.357 70.8896C176.82 71.6188 176.207 72.168 175.518 72.5371L174.821 71.6758C175.409 71.3887 175.947 70.958 176.434 70.3838C176.922 69.805 177.307 69.151 177.59 68.4219C177.877 67.6882 178.02 66.9544 178.02 66.2207V64.0059H179.114V66.2207ZM184.911 75.1348H183.845V67.9844H180.96V67.1094H183.845V62.9531H184.911V75.1348ZM200.737 73.5215H189.608V72.6328H194.585V69.6523H195.637V72.6328H200.737V73.5215ZM195.665 64.7168C195.665 65.3639 195.888 65.986 196.335 66.583C196.786 67.18 197.36 67.6859 198.057 68.1006C198.759 68.5107 199.47 68.7773 200.19 68.9004L199.712 69.7891C199.083 69.6615 198.465 69.4404 197.859 69.126C197.253 68.8115 196.706 68.4196 196.218 67.9502C195.735 67.4808 195.366 66.9635 195.111 66.3984C194.856 66.9635 194.487 67.4808 194.004 67.9502C193.521 68.4196 192.976 68.8115 192.37 69.126C191.768 69.4404 191.153 69.6615 190.524 69.7891L190.046 68.9004C190.766 68.7773 191.472 68.5107 192.165 68.1006C192.862 67.6859 193.432 67.1823 193.874 66.5898C194.32 65.9928 194.544 65.3685 194.544 64.7168V63.7871H195.665V64.7168ZM211.665 75.1074H210.612V68.75H208.93V74.5059H207.905V63.2812H208.93V67.8613H210.612V62.9531H211.665V75.1074ZM206.524 64.5391C206.515 66.2298 206.157 67.752 205.451 69.1055C204.749 70.4544 203.575 71.5846 201.93 72.4961L201.301 71.7441C203.885 70.304 205.275 68.1986 205.471 65.4277H201.766V64.5391H206.524ZM219.503 64.7305H214.758V66.2617H219.161V67.1367H214.758V68.7363C216.139 68.7363 217.238 68.7158 218.053 68.6748C218.869 68.6292 219.685 68.5404 220.501 68.4082L220.61 69.2832C219.758 69.4199 218.908 69.5111 218.06 69.5566C217.212 69.6022 216.08 69.625 214.663 69.625H213.678V63.8555H219.503V64.7305ZM223.003 70.5H221.936V62.9668H223.003V70.5ZM218.969 70.6777C219.808 70.6732 220.535 70.7575 221.15 70.9307C221.765 71.0993 222.237 71.3499 222.565 71.6826C222.893 72.0107 223.057 72.4049 223.057 72.8652C223.057 73.3346 222.893 73.7334 222.565 74.0615C222.237 74.3942 221.765 74.6471 221.15 74.8203C220.539 74.9935 219.812 75.0801 218.969 75.0801C218.108 75.0801 217.37 74.9935 216.754 74.8203C216.139 74.6517 215.668 74.401 215.339 74.0684C215.016 73.7357 214.854 73.3346 214.854 72.8652C214.854 72.4049 215.016 72.0107 215.339 71.6826C215.668 71.3499 216.139 71.0993 216.754 70.9307C217.374 70.7575 218.113 70.6732 218.969 70.6777ZM218.969 71.5254C218.336 71.5254 217.789 71.5801 217.329 71.6895C216.873 71.7943 216.524 71.9469 216.283 72.1475C216.041 72.348 215.92 72.5872 215.92 72.8652C215.92 73.1523 216.041 73.3984 216.283 73.6035C216.524 73.8086 216.873 73.9635 217.329 74.0684C217.789 74.1777 218.336 74.2324 218.969 74.2324C219.589 74.2324 220.127 74.1777 220.583 74.0684C221.038 73.959 221.389 73.8018 221.635 73.5967C221.881 73.3916 222.004 73.1478 222.004 72.8652C222.004 72.5918 221.881 72.3548 221.635 72.1543C221.389 71.9492 221.036 71.7943 220.576 71.6895C220.12 71.5801 219.585 71.5254 218.969 71.5254ZM230.184 63.1719C231.086 63.1719 231.859 63.2539 232.501 63.418C233.144 63.5775 233.634 63.8145 233.971 64.1289C234.308 64.4388 234.477 64.8171 234.477 65.2637C234.477 65.9473 234.103 66.4714 233.356 66.8359C232.609 67.2005 231.551 67.3874 230.184 67.3965C229.282 67.3919 228.507 67.3076 227.86 67.1436C227.217 66.9795 226.725 66.7402 226.383 66.4258C226.046 66.1068 225.877 65.7194 225.877 65.2637C225.877 64.8171 226.046 64.4388 226.383 64.1289C226.725 63.8145 227.217 63.5775 227.86 63.418C228.507 63.2539 229.282 63.1719 230.184 63.1719ZM230.184 63.9785C229.514 63.9785 228.94 64.0309 228.461 64.1357C227.983 64.236 227.618 64.3841 227.368 64.5801C227.117 64.7715 226.994 64.9993 226.999 65.2637C226.994 65.6829 227.27 66.0065 227.826 66.2344C228.382 66.4622 229.168 66.5762 230.184 66.5762C231.196 66.5762 231.982 66.4622 232.542 66.2344C233.103 66.0065 233.383 65.6829 233.383 65.2637C233.383 64.9993 233.256 64.7715 233 64.5801C232.745 64.3887 232.378 64.2406 231.9 64.1357C231.421 64.0309 230.849 63.9785 230.184 63.9785ZM235.721 69.0918H224.647V68.2168H235.721V69.0918ZM234.299 72.8652H227.081V74.123H234.668V74.9707H226.014V72.0723H233.247V70.9648H225.987V70.1445H234.299V72.8652ZM243.426 63.5547C244.028 63.5501 244.563 63.6504 245.033 63.8555C245.506 64.0605 245.876 64.3522 246.14 64.7305C246.409 65.1087 246.543 65.5417 246.543 66.0293C246.543 66.5169 246.409 66.9499 246.14 67.3281C245.876 67.7064 245.506 68.0003 245.033 68.21C244.563 68.4196 244.028 68.5221 243.426 68.5176C242.825 68.5221 242.287 68.4196 241.813 68.21C241.343 68.0003 240.974 67.7064 240.705 67.3281C240.441 66.9499 240.309 66.5169 240.309 66.0293C240.309 65.5417 240.441 65.1087 240.705 64.7305C240.974 64.3522 241.343 64.0605 241.813 63.8555C242.287 63.6504 242.825 63.5501 243.426 63.5547ZM243.426 64.4297C243.025 64.4251 242.667 64.4912 242.353 64.6279C242.038 64.7601 241.792 64.9492 241.615 65.1953C241.441 65.4414 241.357 65.7194 241.362 66.0293C241.357 66.3438 241.441 66.624 241.615 66.8701C241.792 67.1117 242.038 67.3008 242.353 67.4375C242.667 67.5697 243.025 67.6335 243.426 67.6289C243.832 67.6335 244.192 67.5697 244.506 67.4375C244.825 67.3008 245.074 67.1117 245.251 66.8701C245.429 66.624 245.518 66.3438 245.518 66.0293C245.518 65.7194 245.429 65.4414 245.251 65.1953C245.074 64.9492 244.825 64.7601 244.506 64.6279C244.192 64.4912 243.832 64.4251 243.426 64.4297ZM249.442 75.1211H248.389V62.9668H249.442V75.1211ZM239.393 69.5566C240.892 69.5566 242.316 69.5293 243.665 69.4746C245.014 69.4154 246.293 69.2969 247.5 69.1191L247.569 69.9258C246.498 70.1217 245.317 70.2607 244.028 70.3428V74.7383H242.961V70.4043C242.155 70.4408 241.015 70.4635 239.543 70.4727L239.393 69.5566ZM257.17 65.9336H251.072V65.0586H253.602V63.3223H254.668V65.0586H257.17V65.9336ZM254.121 66.7539C254.627 66.7539 255.078 66.8724 255.475 67.1094C255.876 67.3418 256.188 67.6676 256.411 68.0869C256.639 68.5062 256.755 68.9824 256.76 69.5156C256.755 70.0534 256.639 70.5342 256.411 70.958C256.188 71.3773 255.876 71.7077 255.475 71.9492C255.078 72.1862 254.627 72.3047 254.121 72.3047C253.62 72.3047 253.171 72.1862 252.775 71.9492C252.378 71.7077 252.068 71.375 251.845 70.9512C251.622 70.5273 251.51 70.0488 251.51 69.5156C251.51 68.987 251.622 68.513 251.845 68.0938C252.068 67.6699 252.378 67.3418 252.775 67.1094C253.171 66.8724 253.62 66.7539 254.121 66.7539ZM254.121 67.6562C253.807 67.6608 253.522 67.7451 253.267 67.9092C253.016 68.0687 252.82 68.2897 252.679 68.5723C252.538 68.8503 252.467 69.1647 252.467 69.5156C252.467 69.8711 252.538 70.1901 252.679 70.4727C252.825 70.7552 253.023 70.9762 253.274 71.1357C253.524 71.2907 253.807 71.3659 254.121 71.3613C254.44 71.3659 254.727 71.2907 254.983 71.1357C255.238 70.9762 255.438 70.7552 255.584 70.4727C255.73 70.1901 255.803 69.8711 255.803 69.5156C255.803 69.1647 255.73 68.8503 255.584 68.5723C255.438 68.2897 255.238 68.0687 254.983 67.9092C254.727 67.7451 254.44 67.6608 254.121 67.6562ZM261.449 75.1074H260.424V68.9688H258.811V74.5059H257.799V63.2539H258.811V68.0801H260.424V62.9531H261.449V75.1074ZM32.5664 88.2207C32.5664 88.918 32.7077 89.6152 32.9902 90.3125C33.2728 91.0052 33.6533 91.625 34.1318 92.1719C34.6149 92.7188 35.1413 93.1335 35.7109 93.416L35.0547 94.2773C34.3848 93.9264 33.7832 93.4115 33.25 92.7324C32.7214 92.0534 32.3226 91.2923 32.0537 90.4492C31.7848 91.347 31.3792 92.1582 30.8369 92.8828C30.2946 93.6029 29.6816 94.1452 28.998 94.5098L28.3145 93.6484C28.9023 93.3613 29.4378 92.9307 29.9209 92.3564C30.4085 91.7777 30.7936 91.126 31.0762 90.4014C31.3633 89.6722 31.5091 88.9453 31.5137 88.2207V86.0059H32.5664V88.2207ZM37.8984 89.8887H39.9355V90.8184H37.8984V97.1074H36.832V84.9531H37.8984V89.8887ZM51.246 91.8574H40.1718V90.9688H42.9198V89.2598C42.4277 89.0684 42.0517 88.82 41.7919 88.5146C41.5321 88.2048 41.4023 87.847 41.4023 87.4414C41.4023 86.9674 41.5754 86.5618 41.9218 86.2246C42.2682 85.8874 42.7626 85.6299 43.4052 85.4521C44.0523 85.2744 44.8202 85.1855 45.7089 85.1855C46.5885 85.1855 47.3495 85.2744 47.9921 85.4521C48.6392 85.6299 49.136 85.8874 49.4823 86.2246C49.8287 86.5618 50.0019 86.9674 50.0019 87.4414C50.0019 87.8424 49.872 88.1979 49.6122 88.5078C49.357 88.8132 48.9856 89.0615 48.498 89.2529V90.9688H51.246V91.8574ZM45.7089 92.7871C46.5793 92.7871 47.3267 92.8691 47.9511 93.0332C48.5754 93.1973 49.054 93.4411 49.3866 93.7646C49.7193 94.0837 49.8879 94.4733 49.8925 94.9336C49.8879 95.3893 49.7193 95.7767 49.3866 96.0957C49.054 96.4193 48.5754 96.6631 47.9511 96.8271C47.3267 96.9958 46.5793 97.0801 45.7089 97.0801C44.8293 97.0801 44.0751 96.9958 43.4462 96.8271C42.8219 96.6631 42.3433 96.4193 42.0107 96.0957C41.678 95.7767 41.5116 95.3893 41.5116 94.9336C41.5116 94.4733 41.6757 94.0837 42.0038 93.7646C42.3365 93.4411 42.8173 93.1973 43.4462 93.0332C44.0751 92.8691 44.8293 92.7871 45.7089 92.7871ZM45.7089 93.6074C44.7245 93.6165 43.9589 93.7373 43.412 93.9697C42.8697 94.1976 42.6008 94.5189 42.6054 94.9336C42.6008 95.207 42.7216 95.4417 42.9677 95.6377C43.2138 95.8337 43.5693 95.984 44.0341 96.0889C44.5035 96.1937 45.0618 96.2461 45.7089 96.2461C46.3469 96.2461 46.8984 96.1937 47.3632 96.0889C47.8326 95.984 48.1904 95.8337 48.4364 95.6377C48.6871 95.4417 48.8124 95.207 48.8124 94.9336C48.8124 94.5189 48.5367 94.1976 47.9853 93.9697C47.4384 93.7373 46.6796 93.6165 45.7089 93.6074ZM45.7089 86.0332C45.0527 86.0332 44.483 86.0902 43.9999 86.2041C43.5168 86.318 43.1454 86.4821 42.8857 86.6963C42.6305 86.9059 42.5051 87.1543 42.5097 87.4414C42.5051 87.7331 42.6305 87.986 42.8857 88.2002C43.1454 88.4098 43.5146 88.5716 43.9931 88.6855C44.4762 88.7949 45.0481 88.8496 45.7089 88.8496C46.3652 88.8496 46.9325 88.7949 47.4111 88.6855C47.8896 88.5716 48.2587 88.4098 48.5185 88.2002C48.7782 87.986 48.9081 87.7331 48.9081 87.4414C48.9081 87.1543 48.7782 86.9059 48.5185 86.6963C48.2587 86.4821 47.8873 86.318 47.4042 86.2041C46.9257 86.0902 46.3606 86.0332 45.7089 86.0332ZM47.4316 90.9688V89.5469C46.9075 89.638 46.3333 89.6836 45.7089 89.6836C45.0846 89.6836 44.5103 89.638 43.9862 89.5469V90.9688H47.4316ZM59.0975 91.0918H56.4315V93.4844C57.7212 93.4342 58.8924 93.3477 59.9452 93.2246L60.0272 94.0312C58.8241 94.209 57.5708 94.3275 56.2674 94.3867C54.964 94.4414 53.5649 94.4688 52.0702 94.4688L51.9198 93.5664C53.2505 93.5664 54.3989 93.5527 55.3651 93.5254V91.0918H52.8495V86.1152H59.0428V86.9902H53.9022V90.2031H59.0975V91.0918ZM61.8182 97.1348H60.7518V84.9531H61.8182V97.1348ZM73.3611 89.5059H65.0349V85.4043H66.1013V88.6445H73.3611V89.5059ZM74.6463 92.0352H63.5173V91.1602H74.6463V92.0352ZM73.4295 96.8066H64.9666V93.2793H66.033V95.918H73.4295V96.8066ZM89.4332 95.5488H78.3043V94.6328H89.4332V95.5488ZM88.3668 87.0723H86.4391V91.3242H88.3395V92.1992H79.316V91.3242H81.2164V87.0723H79.2887V86.1836H88.3668V87.0723ZM85.3863 91.3242V87.0723H82.2828V91.3242H85.3863ZM101.113 95.6035H89.9839V94.7012H94.9878V92.4043H91.3784V88.6582H98.6519V86.7441H91.3511V85.8555H99.7046V89.5332H92.4448V91.5156H99.9917V92.4043H96.0405V94.7012H101.113V95.6035ZM111.712 91.2695H110.632V84.9531H111.712V91.2695ZM111.712 94.7559H104.849V96.0957H112.177V96.9707H103.796V93.9492H110.646V92.7188H103.755V91.8574H111.712V94.7559ZM108.787 86.6484H107.556V89.7588C108.126 89.7223 108.736 89.6654 109.388 89.5879L109.443 90.3809C108.326 90.5449 107.119 90.6611 105.82 90.7295C104.525 90.7979 103.254 90.832 102.005 90.832L101.869 89.9434L103.427 89.9297V86.6484H102.21V85.7871H108.787V86.6484ZM104.466 89.9092C105.387 89.8818 106.07 89.8545 106.517 89.8271V86.6484H104.466V89.9092ZM124.472 95.6035H113.343V94.7012H118.347V92.4043H114.738V88.6582H122.011V86.7441H114.71V85.8555H123.064V89.5332H115.804V91.5156H123.351V92.4043H119.4V94.7012H124.472V95.6035ZM138.083 97.1074H137.017V84.9531H138.083V97.1074ZM128.185 93.8672C129.702 93.8581 130.855 93.8421 131.644 93.8193V92.4863C131.161 92.4362 130.737 92.3132 130.372 92.1172C130.012 91.9212 129.734 91.6683 129.538 91.3584C129.342 91.0439 129.247 90.6862 129.251 90.2852C129.247 89.834 129.365 89.4398 129.607 89.1025C129.848 88.7607 130.19 88.4964 130.632 88.3096C131.074 88.1227 131.585 88.0293 132.163 88.0293C132.742 88.0293 133.252 88.1227 133.695 88.3096C134.141 88.4964 134.488 88.7607 134.734 89.1025C134.98 89.4398 135.103 89.834 135.103 90.2852C135.103 90.6816 135.005 91.0371 134.809 91.3516C134.613 91.6615 134.335 91.9144 133.975 92.1104C133.619 92.3018 133.202 92.4248 132.724 92.4795V93.7783C134.045 93.7191 135.208 93.6211 136.21 93.4844L136.292 94.3047C135.085 94.5007 133.829 94.6305 132.526 94.6943C131.222 94.7536 129.83 94.7832 128.349 94.7832L128.185 93.8672ZM135.896 87.332H128.445V86.457H131.644V84.9668H132.724V86.457H135.896V87.332ZM132.163 88.8633C131.794 88.8633 131.464 88.9225 131.172 89.041C130.88 89.1595 130.653 89.3281 130.488 89.5469C130.329 89.7611 130.249 90.0072 130.249 90.2852C130.249 90.5632 130.329 90.807 130.488 91.0166C130.653 91.2262 130.88 91.388 131.172 91.502C131.464 91.6159 131.794 91.6706 132.163 91.666C132.537 91.6706 132.867 91.6182 133.154 91.5088C133.446 91.3949 133.672 91.2331 133.831 91.0234C133.995 90.8092 134.077 90.5632 134.077 90.2852C134.077 90.0072 133.995 89.7611 133.831 89.5469C133.672 89.3281 133.446 89.1595 133.154 89.041C132.867 88.9225 132.537 88.8633 132.163 88.8633ZM149.817 94.1953H148.737V92.9375H146.222V92.1582H148.737V84.9668H149.817V94.1953ZM150.118 96.8477H141.478V93.293H142.558V95.9453H150.118V96.8477ZM139.728 90.5996C141.396 90.5905 142.845 90.5654 144.075 90.5244C145.31 90.4834 146.5 90.39 147.644 90.2441L147.712 91.0234C146.709 91.1829 145.597 91.2992 144.376 91.3721V93.7715H143.296V91.4268C142.389 91.4587 141.469 91.4746 140.534 91.4746H139.878L139.728 90.5996ZM143.72 85.459C144.308 85.459 144.827 85.5479 145.278 85.7256C145.734 85.8988 146.087 86.1471 146.338 86.4707C146.593 86.7897 146.723 87.1589 146.728 87.5781C146.723 88.0065 146.593 88.3802 146.338 88.6992C146.087 89.0137 145.734 89.2575 145.278 89.4307C144.827 89.5993 144.308 89.6836 143.72 89.6836C143.127 89.6836 142.603 89.5993 142.148 89.4307C141.692 89.2575 141.339 89.0137 141.088 88.6992C140.837 88.3802 140.712 88.0065 140.712 87.5781C140.712 87.1589 140.837 86.7897 141.088 86.4707C141.339 86.1471 141.692 85.8988 142.148 85.7256C142.603 85.5479 143.127 85.459 143.72 85.459ZM143.72 86.2793C143.328 86.2747 142.982 86.3271 142.681 86.4365C142.38 86.5459 142.145 86.7008 141.977 86.9014C141.813 87.0973 141.733 87.3229 141.737 87.5781C141.733 87.8379 141.813 88.068 141.977 88.2686C142.141 88.4645 142.373 88.6172 142.674 88.7266C142.979 88.8359 143.328 88.8906 143.72 88.8906C144.098 88.8906 144.438 88.8359 144.738 88.7266C145.039 88.6172 145.274 88.4645 145.442 88.2686C145.611 88.068 145.698 87.8379 145.702 87.5781C145.698 87.3229 145.609 87.0973 145.436 86.9014C145.267 86.7008 145.032 86.5459 144.732 86.4365C144.435 86.3271 144.098 86.2747 143.72 86.2793ZM161.497 91.8574H160.444V84.9531H161.497V91.8574ZM153.321 90.0117C154.383 90.0072 155.374 89.9639 156.295 89.8818C157.216 89.7952 158.138 89.6517 159.064 89.4512L159.228 90.3535C158.234 90.554 157.259 90.6976 156.302 90.7842C155.345 90.8708 154.319 90.9186 153.226 90.9277H152.241V85.6777H153.321V90.0117ZM161.497 96.9434H153.608V92.418H161.497V96.9434ZM154.661 96.0684H160.444V93.2793H154.661V96.0684ZM169.895 86.9355V87.127C169.886 87.8516 169.859 88.5739 169.813 89.2939C169.768 90.0094 169.677 90.832 169.54 91.7617L168.46 91.666C168.606 90.7637 168.701 89.957 168.747 89.2461C168.793 88.5306 168.815 87.8424 168.815 87.1816H163.716V86.3066H169.895V86.9355ZM166.71 93.4707C168.209 93.416 169.54 93.3203 170.702 93.1836L170.757 93.9902C169.695 94.1589 168.576 94.2751 167.4 94.3389C166.225 94.3981 165.005 94.4277 163.743 94.4277H163.169L163.032 93.5391C164.194 93.5299 165.069 93.5186 165.657 93.5049V89.7793H166.71V93.4707ZM172.534 90.0391H174.503V90.9688H172.534V97.1074H171.468V84.9531H172.534V90.0391ZM188.346 97.1074H187.307V90.668H185.612V96.4922H184.587V85.2129H185.612V89.7793H187.307V84.9531H188.346V97.1074ZM183.028 93.8398H178.38V86.375H183.028V93.8398ZM179.391 92.9785H182.016V87.2363H179.391V92.9785ZM194.024 87.4961C194.024 88.002 194.159 88.485 194.427 88.9453C194.696 89.4056 195.068 89.8089 195.542 90.1553C196.02 90.4971 196.563 90.7546 197.169 90.9277L196.663 91.7617C195.943 91.5475 195.307 91.2194 194.756 90.7773C194.209 90.3307 193.796 89.8066 193.518 89.2051C193.249 89.8704 192.842 90.4538 192.295 90.9551C191.752 91.4564 191.117 91.8301 190.387 92.0762L189.854 91.2285C190.451 91.0371 190.984 90.7546 191.454 90.3809C191.928 90.0026 192.297 89.5651 192.561 89.0684C192.826 88.5671 192.958 88.043 192.958 87.4961V87.332H190.155V86.4707H192.958V84.9531H194.038V86.4707H196.813V87.332H194.024V87.4961ZM199.643 92.418H198.577V84.9668H199.643V92.418ZM195.583 92.6777C196.426 92.6732 197.155 92.7575 197.77 92.9307C198.385 93.0993 198.857 93.3499 199.185 93.6826C199.513 94.0107 199.68 94.4049 199.684 94.8652C199.68 95.3346 199.513 95.7334 199.185 96.0615C198.857 96.3942 198.385 96.6471 197.77 96.8203C197.16 96.9935 196.43 97.0801 195.583 97.0801C194.731 97.0801 193.997 96.9935 193.382 96.8203C192.766 96.6471 192.295 96.3942 191.967 96.0615C191.643 95.7334 191.481 95.3346 191.481 94.8652C191.481 94.4049 191.645 94.0107 191.973 93.6826C192.301 93.3499 192.773 93.0993 193.388 92.9307C194.004 92.7575 194.735 92.6732 195.583 92.6777ZM195.583 93.5254C194.954 93.5254 194.412 93.5801 193.956 93.6895C193.505 93.7943 193.158 93.9469 192.917 94.1475C192.68 94.348 192.561 94.5872 192.561 94.8652C192.561 95.1523 192.68 95.3984 192.917 95.6035C193.158 95.8086 193.505 95.9635 193.956 96.0684C194.412 96.1777 194.954 96.2324 195.583 96.2324C196.207 96.2324 196.747 96.1777 197.203 96.0684C197.659 95.959 198.007 95.8018 198.249 95.5967C198.495 95.3916 198.618 95.1478 198.618 94.8652C198.618 94.5872 198.495 94.348 198.249 94.1475C198.007 93.9469 197.659 93.7943 197.203 93.6895C196.747 93.5801 196.207 93.5254 195.583 93.5254ZM211.122 86.9355V87.127C211.113 87.8516 211.085 88.5739 211.04 89.2939C210.994 90.0094 210.903 90.832 210.766 91.7617L209.686 91.666C209.832 90.7637 209.928 89.957 209.973 89.2461C210.019 88.5306 210.042 87.8424 210.042 87.1816H204.942V86.3066H211.122V86.9355ZM207.936 93.4707C209.435 93.416 210.766 93.3203 211.928 93.1836L211.983 93.9902C210.921 94.1589 209.802 94.2751 208.627 94.3389C207.451 94.3981 206.232 94.4277 204.969 94.4277H204.395L204.258 93.5391C205.42 93.5299 206.295 93.5186 206.883 93.5049V89.7793H207.936V93.4707ZM213.76 90.0391H215.729V90.9688H213.76V97.1074H212.694V84.9531H213.76V90.0391ZM226.137 92.1992H225.057V89.0137H222.61V88.125H225.057V84.9531H226.137V92.1992ZM222.104 92.582C222.947 92.582 223.674 92.6709 224.285 92.8486C224.895 93.0264 225.362 93.2839 225.686 93.6211C226.014 93.9583 226.178 94.3639 226.178 94.8379C226.178 95.3118 226.014 95.7174 225.686 96.0547C225.362 96.3965 224.895 96.6562 224.285 96.834C223.674 97.0117 222.947 97.1029 222.104 97.1074C221.261 97.1029 220.534 97.0117 219.923 96.834C219.313 96.6562 218.843 96.3965 218.515 96.0547C218.192 95.7174 218.03 95.3118 218.03 94.8379C218.03 94.3639 218.192 93.9583 218.515 93.6211C218.843 93.2839 219.313 93.0264 219.923 92.8486C220.534 92.6709 221.261 92.582 222.104 92.582ZM222.104 93.416C221.489 93.416 220.953 93.473 220.498 93.5869C220.042 93.7008 219.693 93.8649 219.452 94.0791C219.21 94.2933 219.092 94.5462 219.096 94.8379C219.092 95.125 219.21 95.3757 219.452 95.5898C219.693 95.7995 220.042 95.9613 220.498 96.0752C220.953 96.1891 221.489 96.2461 222.104 96.2461C222.719 96.2461 223.252 96.1891 223.704 96.0752C224.159 95.9613 224.508 95.7995 224.749 95.5898C224.991 95.3757 225.112 95.125 225.112 94.8379C225.112 94.5462 224.991 94.2933 224.749 94.0791C224.508 93.8649 224.159 93.7008 223.704 93.5869C223.252 93.473 222.719 93.416 222.104 93.416ZM220.286 87.1816C220.286 87.7057 220.411 88.2139 220.662 88.7061C220.912 89.1937 221.263 89.6289 221.714 90.0117C222.17 90.39 222.692 90.6816 223.28 90.8867L222.719 91.748C222.04 91.502 221.443 91.1374 220.928 90.6543C220.418 90.1712 220.033 89.613 219.773 88.9795C219.509 89.6904 219.105 90.3193 218.563 90.8662C218.025 91.4085 217.396 91.8164 216.676 92.0898L216.116 91.2285C216.713 91.0098 217.246 90.6953 217.715 90.2852C218.185 89.8704 218.549 89.3942 218.809 88.8564C219.073 88.3187 219.206 87.765 219.206 87.1953V86.7441H216.458V85.8418H223.006V86.7441H220.286V87.1816ZM233.278 85.1719C234.18 85.1719 234.953 85.2539 235.595 85.418C236.238 85.5775 236.728 85.8145 237.065 86.1289C237.402 86.4388 237.571 86.8171 237.571 87.2637C237.571 87.9473 237.197 88.4714 236.45 88.8359C235.702 89.2005 234.645 89.3874 233.278 89.3965C232.375 89.3919 231.601 89.3076 230.954 89.1436C230.311 88.9795 229.819 88.7402 229.477 88.4258C229.14 88.1068 228.971 87.7194 228.971 87.2637C228.971 86.8171 229.14 86.4388 229.477 86.1289C229.819 85.8145 230.311 85.5775 230.954 85.418C231.601 85.2539 232.375 85.1719 233.278 85.1719ZM233.278 85.9785C232.608 85.9785 232.034 86.0309 231.555 86.1357C231.077 86.236 230.712 86.3841 230.461 86.5801C230.211 86.7715 230.088 86.9993 230.092 87.2637C230.088 87.6829 230.363 88.0065 230.919 88.2344C231.475 88.4622 232.261 88.5762 233.278 88.5762C234.289 88.5762 235.076 88.4622 235.636 88.2344C236.197 88.0065 236.477 87.6829 236.477 87.2637C236.477 86.9993 236.349 86.7715 236.094 86.5801C235.839 86.3887 235.472 86.2406 234.994 86.1357C234.515 86.0309 233.943 85.9785 233.278 85.9785ZM238.815 91.0918H227.741V90.2168H238.815V91.0918ZM237.393 94.8652H230.174V96.123H237.762V96.9707H229.108V94.0723H236.34V92.9648H229.08V92.1445H237.393V94.8652ZM246.52 85.5547C247.121 85.5501 247.657 85.6504 248.126 85.8555C248.6 86.0605 248.969 86.3522 249.234 86.7305C249.503 87.1087 249.637 87.5417 249.637 88.0293C249.637 88.5169 249.503 88.9499 249.234 89.3281C248.969 89.7064 248.6 90.0003 248.126 90.21C247.657 90.4196 247.121 90.5221 246.52 90.5176C245.918 90.5221 245.38 90.4196 244.906 90.21C244.437 90.0003 244.068 89.7064 243.799 89.3281C243.535 88.9499 243.403 88.5169 243.403 88.0293C243.403 87.5417 243.535 87.1087 243.799 86.7305C244.068 86.3522 244.437 86.0605 244.906 85.8555C245.38 85.6504 245.918 85.5501 246.52 85.5547ZM246.52 86.4297C246.119 86.4251 245.761 86.4912 245.447 86.6279C245.132 86.7601 244.886 86.9492 244.708 87.1953C244.535 87.4414 244.451 87.7194 244.455 88.0293C244.451 88.3438 244.535 88.624 244.708 88.8701C244.886 89.1117 245.132 89.3008 245.447 89.4375C245.761 89.5697 246.119 89.6335 246.52 89.6289C246.925 89.6335 247.285 89.5697 247.6 89.4375C247.919 89.3008 248.167 89.1117 248.345 88.8701C248.523 88.624 248.612 88.3438 248.612 88.0293C248.612 87.7194 248.523 87.4414 248.345 87.1953C248.167 86.9492 247.919 86.7601 247.6 86.6279C247.285 86.4912 246.925 86.4251 246.52 86.4297ZM252.535 97.1211H251.483V84.9668H252.535V97.1211ZM242.487 91.5566C243.986 91.5566 245.41 91.5293 246.759 91.4746C248.108 91.4154 249.386 91.2969 250.594 91.1191L250.662 91.9258C249.591 92.1217 248.411 92.2607 247.121 92.3428V96.7383H246.055V92.4043C245.248 92.4408 244.109 92.4635 242.637 92.4727L242.487 91.5566ZM263.695 88.9727H265.527V89.875H263.695V94.0723H262.629V84.9668H263.695V88.9727ZM261.467 87.332H254.221V86.457H257.311V84.9668H258.377V86.457H261.467V87.332ZM257.844 88.002C258.418 88.002 258.924 88.0954 259.361 88.2822C259.804 88.4691 260.148 88.7334 260.394 89.0752C260.64 89.417 260.765 89.8158 260.77 90.2715C260.765 90.7227 260.64 91.1169 260.394 91.4541C260.148 91.7913 259.804 92.0534 259.361 92.2402C258.924 92.4225 258.418 92.5137 257.844 92.5137C257.265 92.5137 256.752 92.4225 256.306 92.2402C255.864 92.0534 255.52 91.7913 255.274 91.4541C255.032 91.1169 254.914 90.7227 254.918 90.2715C254.914 89.8158 255.032 89.417 255.274 89.0752C255.52 88.7334 255.864 88.4691 256.306 88.2822C256.752 88.0954 257.265 88.002 257.844 88.002ZM257.844 88.8496C257.466 88.8496 257.131 88.9089 256.839 89.0273C256.552 89.1413 256.329 89.3076 256.169 89.5264C256.014 89.7406 255.939 89.9889 255.944 90.2715C255.939 90.554 256.014 90.8024 256.169 91.0166C256.329 91.2262 256.552 91.388 256.839 91.502C257.131 91.6159 257.466 91.6706 257.844 91.666C258.218 91.6706 258.548 91.6159 258.835 91.502C259.127 91.388 259.352 91.2262 259.512 91.0166C259.671 90.8024 259.753 90.554 259.758 90.2715C259.753 89.9889 259.671 89.7406 259.512 89.5264C259.352 89.3076 259.127 89.1413 258.835 89.0273C258.548 88.9089 258.218 88.8496 257.844 88.8496ZM264.256 96.8477H256.094V93.3477H257.147V95.9453H264.256V96.8477ZM38.9102 119.107H37.8711V112.668H36.1758V118.492H35.1504V107.213H36.1758V111.779H37.8711V106.953H38.9102V119.107ZM33.5918 115.84H28.9434V108.375H33.5918V115.84ZM29.9551 114.979H32.5801V109.236H29.9551V114.979ZM50.1933 119.107H49.1269V106.953H50.1933V119.107ZM42.0175 115.047C44.0728 115.038 46.0097 114.842 47.828 114.459L47.9784 115.375C46.9439 115.589 45.9368 115.744 44.957 115.84C43.9771 115.931 42.9745 115.977 41.9491 115.977H40.9648V108.156H42.0175V115.047ZM61.9276 119.135H60.8475V112.271H58.1815V111.383H60.8475V106.953H61.9276V119.135ZM56.0623 110.562C56.0623 111.223 56.2059 111.893 56.493 112.572C56.7847 113.247 57.1766 113.853 57.6688 114.391C58.161 114.928 58.701 115.329 59.2889 115.594L58.6463 116.455C57.9582 116.118 57.3361 115.607 56.7801 114.924C56.2287 114.236 55.814 113.465 55.536 112.613C55.258 113.511 54.8387 114.327 54.2782 115.061C53.7176 115.79 53.091 116.337 52.3983 116.701L51.742 115.867C52.3254 115.58 52.8631 115.156 53.3553 114.596C53.8521 114.031 54.2463 113.395 54.5379 112.688C54.8296 111.978 54.9777 111.269 54.9823 110.562V109.1H52.2069V108.211H58.8514V109.1H56.0623V110.562ZM69.6697 113.652H64.0505V108.061H69.6697V113.652ZM65.1033 112.791H68.6306V108.936H65.1033V112.791ZM73.033 110.658H74.865V111.561H73.033V115.867H71.9666V106.953H73.033V110.658ZM73.5935 118.848H65.4314V115.02H66.4841V117.945H73.5935V118.848ZM81.6539 107.391C82.1826 107.391 82.6656 107.484 83.1031 107.671C83.5406 107.853 83.9007 108.111 84.1832 108.443H87.3004V106.953H88.3668V113.201H87.3004V111.807H84.2174C83.9348 112.153 83.5702 112.422 83.1236 112.613C82.6816 112.805 82.1917 112.9 81.6539 112.9C81.0478 112.9 80.5055 112.784 80.027 112.552C79.5484 112.319 79.1725 111.993 78.899 111.574C78.6301 111.155 78.4957 110.676 78.4957 110.139C78.4957 109.605 78.6301 109.132 78.899 108.717C79.1725 108.298 79.5484 107.972 80.027 107.739C80.5055 107.507 81.0478 107.391 81.6539 107.391ZM81.6539 108.279C81.2438 108.275 80.8769 108.352 80.5533 108.512C80.2298 108.667 79.9768 108.888 79.7945 109.175C79.6122 109.457 79.5211 109.779 79.5211 110.139C79.5211 110.503 79.6122 110.829 79.7945 111.116C79.9768 111.403 80.2298 111.629 80.5533 111.793C80.8769 111.952 81.2438 112.035 81.6539 112.039C82.0504 112.035 82.4081 111.952 82.7271 111.793C83.0507 111.629 83.3036 111.403 83.4859 111.116C83.6682 110.829 83.7594 110.503 83.7594 110.139C83.7594 109.779 83.6682 109.457 83.4859 109.175C83.3036 108.888 83.0507 108.667 82.7271 108.512C82.4081 108.352 82.0504 108.275 81.6539 108.279ZM88.3668 116.729H81.5855V118.082H88.8316V118.943H80.5191V115.908H87.3004V114.678H80.4918V113.816H88.3668V116.729ZM84.6686 109.305C84.7551 109.578 84.7984 109.856 84.7984 110.139C84.7984 110.398 84.7574 110.667 84.6754 110.945H87.3004V109.305H84.6686ZM99.4859 110.084H101.332V111H99.4859V114.213H98.4195V106.967H99.4859V110.084ZM99.4859 118.943H91.7886V114.814H99.4859V118.943ZM92.8413 118.068H98.4468V115.648H92.8413V118.068ZM96.0132 110.945H91.5835V112.668C92.7547 112.668 93.7596 112.643 94.5982 112.593C95.4413 112.543 96.3094 112.445 97.2027 112.299L97.312 113.16C96.3869 113.32 95.4868 113.429 94.6118 113.488C93.7414 113.543 92.6955 113.57 91.4741 113.57H90.5308V110.111H94.9605V108.512H90.5034V107.623H96.0132V110.945ZM111.685 119.135H110.605V106.953H111.685V119.135ZM105.218 107.896C105.82 107.901 106.355 108.079 106.825 108.43C107.294 108.776 107.661 109.268 107.925 109.906C108.19 110.544 108.322 111.287 108.322 112.135C108.322 112.982 108.19 113.725 107.925 114.363C107.661 115.001 107.294 115.493 106.825 115.84C106.355 116.186 105.82 116.359 105.218 116.359C104.617 116.359 104.079 116.186 103.605 115.84C103.136 115.493 102.769 115.001 102.504 114.363C102.245 113.725 102.115 112.982 102.115 112.135C102.115 111.287 102.245 110.544 102.504 109.906C102.769 109.268 103.136 108.776 103.605 108.43C104.074 108.079 104.612 107.901 105.218 107.896ZM105.218 108.854C104.813 108.858 104.453 108.997 104.138 109.271C103.828 109.539 103.587 109.922 103.414 110.419C103.24 110.911 103.154 111.483 103.154 112.135C103.154 112.786 103.24 113.361 103.414 113.857C103.587 114.35 103.831 114.73 104.145 114.999C104.459 115.268 104.817 115.402 105.218 115.402C105.619 115.402 105.977 115.268 106.291 114.999C106.606 114.73 106.85 114.35 107.023 113.857C107.196 113.361 107.283 112.786 107.283 112.135C107.283 111.483 107.196 110.911 107.023 110.419C106.85 109.922 106.606 109.539 106.291 109.271C105.982 108.997 105.624 108.858 105.218 108.854ZM125.843 111.902H127.812V112.805H125.843V119.107H124.777V106.953H125.843V111.902ZM122.699 108.266C122.699 110.075 122.245 111.715 121.338 113.188C120.431 114.655 119.025 115.858 117.12 116.797L116.519 115.949C118.082 115.17 119.292 114.208 120.149 113.064C121.005 111.916 121.495 110.617 121.618 109.168H117.079V108.266H122.699ZM137.933 111.246H129.634V107.199H130.7V110.357H137.933V111.246ZM139.204 113.557H128.116V112.668H139.204V113.557ZM133.654 114.65C134.524 114.65 135.271 114.737 135.896 114.91C136.52 115.079 136.999 115.329 137.331 115.662C137.664 115.99 137.833 116.387 137.837 116.852C137.833 117.316 137.664 117.713 137.331 118.041C136.999 118.374 136.52 118.624 135.896 118.793C135.271 118.966 134.524 119.053 133.654 119.053C132.779 119.053 132.027 118.966 131.398 118.793C130.769 118.624 130.288 118.374 129.955 118.041C129.623 117.713 129.456 117.316 129.456 116.852C129.456 116.387 129.623 115.99 129.955 115.662C130.288 115.329 130.769 115.079 131.398 114.91C132.027 114.737 132.779 114.65 133.654 114.65ZM133.654 115.498C132.669 115.507 131.904 115.628 131.357 115.86C130.814 116.093 130.545 116.423 130.55 116.852C130.545 117.134 130.666 117.378 130.912 117.583C131.158 117.788 131.514 117.945 131.979 118.055C132.448 118.164 133.006 118.219 133.654 118.219C134.292 118.219 134.843 118.164 135.308 118.055C135.777 117.945 136.135 117.788 136.381 117.583C136.632 117.378 136.757 117.134 136.757 116.852C136.757 116.423 136.484 116.093 135.937 115.86C135.39 115.628 134.629 115.507 133.654 115.498ZM149.202 111.971H151.239V112.859H149.202V119.107H148.136V106.953H149.202V111.971ZM146.96 109.797H139.728V108.908H142.859V107.104H143.925V108.908H146.96V109.797ZM143.405 110.809C143.975 110.809 144.485 110.927 144.937 111.164C145.388 111.401 145.741 111.731 145.996 112.155C146.251 112.579 146.381 113.06 146.386 113.598C146.381 114.135 146.251 114.616 145.996 115.04C145.741 115.464 145.388 115.794 144.937 116.031C144.485 116.268 143.975 116.387 143.405 116.387C142.831 116.387 142.316 116.268 141.86 116.031C141.409 115.794 141.056 115.464 140.801 115.04C140.546 114.616 140.42 114.135 140.425 113.598C140.42 113.06 140.546 112.579 140.801 112.155C141.056 111.731 141.409 111.401 141.86 111.164C142.316 110.927 142.831 110.809 143.405 110.809ZM143.405 111.711C143.032 111.711 142.694 111.793 142.394 111.957C142.097 112.117 141.865 112.34 141.696 112.627C141.528 112.914 141.446 113.238 141.45 113.598C141.446 113.962 141.528 114.288 141.696 114.575C141.865 114.858 142.097 115.079 142.394 115.238C142.694 115.398 143.032 115.475 143.405 115.471C143.775 115.475 144.107 115.398 144.403 115.238C144.7 115.079 144.932 114.858 145.101 114.575C145.269 114.288 145.356 113.962 145.36 113.598C145.356 113.238 145.269 112.914 145.101 112.627C144.932 112.34 144.7 112.117 144.403 111.957C144.107 111.793 143.775 111.711 143.405 111.711ZM157.505 109.879H160.485V106.953H161.552V119.135H160.485V114.117H157.505V116.031H151.968V108.17H157.505V109.879ZM153.034 115.17H156.466V109.018H153.034V115.17ZM160.485 113.229V110.768H157.505V113.229H160.485ZM177.378 117.521H166.249V116.633H171.225V113.652H172.278V116.633H177.378V117.521ZM172.306 108.717C172.306 109.364 172.529 109.986 172.975 110.583C173.427 111.18 174.001 111.686 174.698 112.101C175.4 112.511 176.111 112.777 176.831 112.9L176.352 113.789C175.724 113.661 175.106 113.44 174.5 113.126C173.894 112.812 173.347 112.42 172.859 111.95C172.376 111.481 172.007 110.964 171.752 110.398C171.497 110.964 171.127 111.481 170.644 111.95C170.161 112.42 169.617 112.812 169.011 113.126C168.409 113.44 167.794 113.661 167.165 113.789L166.686 112.9C167.406 112.777 168.113 112.511 168.806 112.101C169.503 111.686 170.072 111.182 170.515 110.59C170.961 109.993 171.184 109.368 171.184 108.717V107.787H172.306V108.717ZM188.305 119.107H187.253V112.75H185.571V118.506H184.546V107.281H185.571V111.861H187.253V106.953H188.305V119.107ZM183.165 108.539C183.156 110.23 182.798 111.752 182.092 113.105C181.39 114.454 180.216 115.585 178.571 116.496L177.942 115.744C180.526 114.304 181.916 112.199 182.112 109.428H178.407V108.539H183.165ZM196.143 108.73H191.399V110.262H195.801V111.137H191.399V112.736C192.78 112.736 193.878 112.716 194.694 112.675C195.51 112.629 196.326 112.54 197.141 112.408L197.251 113.283C196.398 113.42 195.549 113.511 194.701 113.557C193.853 113.602 192.721 113.625 191.303 113.625H190.319V107.855H196.143V108.73ZM199.643 114.5H198.577V106.967H199.643V114.5ZM195.61 114.678C196.449 114.673 197.176 114.757 197.791 114.931C198.406 115.099 198.878 115.35 199.206 115.683C199.534 116.011 199.698 116.405 199.698 116.865C199.698 117.335 199.534 117.733 199.206 118.062C198.878 118.394 198.406 118.647 197.791 118.82C197.18 118.993 196.453 119.08 195.61 119.08C194.749 119.08 194.01 118.993 193.395 118.82C192.78 118.652 192.308 118.401 191.98 118.068C191.657 117.736 191.495 117.335 191.495 116.865C191.495 116.405 191.657 116.011 191.98 115.683C192.308 115.35 192.78 115.099 193.395 114.931C194.015 114.757 194.753 114.673 195.61 114.678ZM195.61 115.525C194.977 115.525 194.43 115.58 193.969 115.689C193.514 115.794 193.165 115.947 192.924 116.147C192.682 116.348 192.561 116.587 192.561 116.865C192.561 117.152 192.682 117.398 192.924 117.604C193.165 117.809 193.514 117.964 193.969 118.068C194.43 118.178 194.977 118.232 195.61 118.232C196.23 118.232 196.768 118.178 197.223 118.068C197.679 117.959 198.03 117.802 198.276 117.597C198.522 117.392 198.645 117.148 198.645 116.865C198.645 116.592 198.522 116.355 198.276 116.154C198.03 115.949 197.677 115.794 197.217 115.689C196.761 115.58 196.225 115.525 195.61 115.525ZM208.756 109.564C208.756 110.102 208.889 110.619 209.153 111.116C209.417 111.608 209.786 112.041 210.26 112.415C210.734 112.784 211.272 113.064 211.874 113.256L211.327 114.117C210.616 113.876 209.991 113.516 209.454 113.037C208.916 112.559 208.51 111.998 208.237 111.355C207.973 112.048 207.567 112.657 207.02 113.181C206.478 113.705 205.844 114.099 205.12 114.363L204.559 113.502C205.161 113.288 205.698 112.98 206.172 112.579C206.646 112.178 207.016 111.718 207.28 111.198C207.544 110.674 207.676 110.13 207.676 109.564V108.854H204.833V107.979H211.559V108.854H208.756V109.564ZM214.417 115.881H213.35V106.967H214.417V115.881ZM214.799 118.848H206.569V115.033H207.635V117.945H214.799V118.848ZM226.383 114.65H225.358V111.164H223.731V114.213H222.719V107.199H223.731V110.275H225.358V106.953H226.383V114.65ZM222.227 109.277H215.993V108.416H218.59V107.049H219.657V108.416H222.227V109.277ZM219.124 109.934C219.634 109.934 220.085 110.02 220.477 110.193C220.874 110.362 221.181 110.604 221.4 110.918C221.619 111.228 221.73 111.592 221.735 112.012C221.73 112.422 221.619 112.784 221.4 113.099C221.181 113.409 220.874 113.65 220.477 113.823C220.085 113.992 219.634 114.076 219.124 114.076C218.618 114.076 218.166 113.992 217.77 113.823C217.374 113.65 217.066 113.409 216.847 113.099C216.628 112.784 216.521 112.422 216.526 112.012C216.521 111.597 216.628 111.232 216.847 110.918C217.066 110.604 217.371 110.362 217.763 110.193C218.16 110.02 218.613 109.934 219.124 109.934ZM219.124 110.727C218.805 110.727 218.52 110.781 218.269 110.891C218.023 110.995 217.829 111.146 217.688 111.342C217.551 111.538 217.483 111.761 217.483 112.012C217.483 112.258 217.551 112.477 217.688 112.668C217.829 112.859 218.023 113.007 218.269 113.112C218.52 113.217 218.805 113.27 219.124 113.27C219.443 113.27 219.725 113.217 219.971 113.112C220.222 113.007 220.416 112.859 220.552 112.668C220.694 112.477 220.764 112.258 220.764 112.012C220.764 111.761 220.694 111.538 220.552 111.342C220.416 111.146 220.222 110.995 219.971 110.891C219.725 110.781 219.443 110.727 219.124 110.727ZM222.364 114.855C223.216 114.855 223.947 114.94 224.558 115.108C225.169 115.272 225.636 115.514 225.959 115.833C226.288 116.152 226.452 116.537 226.452 116.988C226.452 117.426 226.288 117.802 225.959 118.116C225.636 118.431 225.166 118.67 224.551 118.834C223.941 118.998 223.211 119.08 222.364 119.08C221.516 119.08 220.785 118.998 220.169 118.834C219.559 118.67 219.092 118.431 218.768 118.116C218.444 117.802 218.285 117.426 218.29 116.988C218.285 116.537 218.444 116.152 218.768 115.833C219.092 115.514 219.559 115.272 220.169 115.108C220.78 114.94 221.512 114.855 222.364 114.855ZM222.364 115.703C221.735 115.699 221.195 115.746 220.744 115.847C220.292 115.942 219.946 116.088 219.705 116.284C219.468 116.48 219.351 116.715 219.356 116.988C219.351 117.253 219.468 117.478 219.705 117.665C219.946 117.852 220.292 117.995 220.744 118.096C221.199 118.196 221.739 118.246 222.364 118.246C222.988 118.246 223.526 118.196 223.977 118.096C224.428 117.995 224.775 117.852 225.016 117.665C225.258 117.478 225.381 117.253 225.385 116.988C225.381 116.574 225.112 116.255 224.579 116.031C224.05 115.803 223.312 115.694 222.364 115.703ZM235.155 110.221C235.15 110.941 235.296 111.656 235.592 112.367C235.888 113.074 236.289 113.702 236.795 114.254C237.301 114.805 237.853 115.215 238.45 115.484L237.793 116.332C237.101 115.99 236.472 115.482 235.907 114.808C235.346 114.129 234.922 113.358 234.635 112.497C234.353 113.413 233.929 114.233 233.364 114.958C232.798 115.678 232.16 116.218 231.45 116.578L230.766 115.676C231.363 115.398 231.914 114.976 232.42 114.411C232.926 113.841 233.329 113.19 233.63 112.456C233.931 111.718 234.084 110.973 234.088 110.221V108.006H235.155V110.221ZM240.856 119.135H239.776V106.953H240.856V119.135ZM32.5527 130.922C32.5527 131.464 32.6803 131.988 32.9355 132.494C33.1953 132.995 33.5531 133.438 34.0088 133.82C34.4691 134.203 34.9909 134.495 35.5742 134.695L34.9863 135.543C34.3164 135.297 33.7262 134.935 33.2158 134.456C32.7054 133.973 32.3158 133.415 32.0469 132.781C31.7871 133.501 31.3952 134.13 30.8711 134.668C30.347 135.206 29.7318 135.611 29.0254 135.885L28.4512 135.023C29.0527 134.796 29.5814 134.472 30.0371 134.053C30.4974 133.633 30.8551 133.148 31.1104 132.597C31.3656 132.041 31.4954 131.455 31.5 130.84V129.582H32.5527V130.922ZM37.9941 132.125H39.8262V133.027H37.9941V136.35H36.9277V128.953H37.9941V132.125ZM34.0977 136.664C34.9271 136.664 35.6426 136.751 36.2441 136.924C36.8457 137.097 37.306 137.35 37.625 137.683C37.944 138.011 38.1035 138.405 38.1035 138.865C38.1035 139.335 37.944 139.736 37.625 140.068C37.306 140.401 36.8457 140.652 36.2441 140.82C35.6471 140.993 34.9316 141.08 34.0977 141.08C33.2637 141.08 32.5436 140.993 31.9375 140.82C31.3359 140.647 30.8734 140.394 30.5498 140.062C30.2262 139.733 30.0645 139.335 30.0645 138.865C30.0645 138.405 30.2262 138.011 30.5498 137.683C30.8734 137.35 31.3382 137.097 31.9443 136.924C32.5505 136.751 33.2682 136.664 34.0977 136.664ZM34.0977 137.525C33.4915 137.525 32.9652 137.58 32.5186 137.689C32.0719 137.794 31.7301 137.949 31.4932 138.154C31.2562 138.355 31.14 138.592 31.1445 138.865C31.14 139.148 31.2562 139.392 31.4932 139.597C31.7301 139.802 32.0697 139.957 32.5117 140.062C32.9583 140.171 33.487 140.228 34.0977 140.232C35.0273 140.223 35.7542 140.1 36.2783 139.863C36.8024 139.626 37.0645 139.294 37.0645 138.865C37.0645 138.587 36.946 138.348 36.709 138.147C36.472 137.947 36.1302 137.794 35.6836 137.689C35.237 137.58 34.7083 137.525 34.0977 137.525ZM50.5624 141.107H49.537V134.736H47.746V140.479H46.7616V129.227H47.746V133.848H49.537V128.953H50.5624V141.107ZM45.1757 131.332H41.6894V137.184C42.5872 137.179 43.3482 137.154 43.9726 137.108C44.6015 137.058 45.2349 136.969 45.873 136.842L45.9687 137.744C45.276 137.885 44.5924 137.981 43.9179 138.031C43.248 138.077 42.4094 138.1 41.4023 138.1H40.623V130.443H45.1757V131.332ZM57.4569 136.596C58.2863 136.596 59.0018 136.685 59.6034 136.862C60.2049 137.035 60.6652 137.291 60.9842 137.628C61.3032 137.965 61.4627 138.368 61.4627 138.838C61.4627 139.312 61.3032 139.717 60.9842 140.055C60.6652 140.396 60.2049 140.656 59.6034 140.834C59.0064 141.012 58.2909 141.103 57.4569 141.107C56.6229 141.103 55.9028 141.012 55.2967 140.834C54.6952 140.656 54.2326 140.396 53.909 140.055C53.5855 139.717 53.4237 139.312 53.4237 138.838C53.4237 138.368 53.5855 137.965 53.909 137.628C54.2326 137.291 54.6974 137.035 55.3036 136.862C55.9097 136.685 56.6274 136.596 57.4569 136.596ZM57.4569 137.443C56.8462 137.448 56.3176 137.507 55.8709 137.621C55.4289 137.73 55.0894 137.89 54.8524 138.1C54.6154 138.305 54.4992 138.551 54.5037 138.838C54.4992 139.125 54.6154 139.373 54.8524 139.583C55.0894 139.793 55.4312 139.952 55.8778 140.062C56.3244 140.175 56.8508 140.232 57.4569 140.232C58.0676 140.232 58.5962 140.175 59.0428 140.062C59.4894 139.952 59.8312 139.793 60.0682 139.583C60.3052 139.373 60.4237 139.125 60.4237 138.838C60.4237 138.551 60.3052 138.305 60.0682 138.1C59.8312 137.89 59.4894 137.73 59.0428 137.621C58.6008 137.507 58.0721 137.448 57.4569 137.443ZM61.3534 132.016H63.1854V132.932H61.3534V136.268H60.287V128.953H61.3534V132.016ZM53.4237 131.578H56.9647V129.719H58.0311V135.324H52.3709V129.719H53.4237V131.578ZM56.9647 134.449V132.426H53.4237V134.449H56.9647ZM76.5915 141.107H75.5251V128.953H76.5915V141.107ZM66.693 137.867C68.2106 137.858 69.3636 137.842 70.152 137.819V136.486C69.669 136.436 69.2451 136.313 68.8805 136.117C68.5205 135.921 68.2425 135.668 68.0466 135.358C67.8506 135.044 67.7549 134.686 67.7595 134.285C67.7549 133.834 67.8734 133.44 68.1149 133.103C68.3565 132.761 68.6983 132.496 69.1403 132.31C69.5824 132.123 70.0928 132.029 70.6716 132.029C71.2503 132.029 71.7608 132.123 72.2028 132.31C72.6494 132.496 72.9958 132.761 73.2419 133.103C73.488 133.44 73.611 133.834 73.611 134.285C73.611 134.682 73.513 135.037 73.3171 135.352C73.1211 135.661 72.8431 135.914 72.4831 136.11C72.1276 136.302 71.7106 136.425 71.2321 136.479V137.778C72.5537 137.719 73.7158 137.621 74.7184 137.484L74.8005 138.305C73.5928 138.501 72.3373 138.631 71.0339 138.694C69.7305 138.754 68.3382 138.783 66.8571 138.783L66.693 137.867ZM74.404 131.332H66.9528V130.457H70.152V128.967H71.2321V130.457H74.404V131.332ZM70.6716 132.863C70.3024 132.863 69.972 132.923 69.6804 133.041C69.3887 133.16 69.1608 133.328 68.9968 133.547C68.8373 133.761 68.7575 134.007 68.7575 134.285C68.7575 134.563 68.8373 134.807 68.9968 135.017C69.1608 135.226 69.3887 135.388 69.6804 135.502C69.972 135.616 70.3024 135.671 70.6716 135.666C71.0453 135.671 71.3757 135.618 71.6628 135.509C71.9544 135.395 72.18 135.233 72.3395 135.023C72.5036 134.809 72.5856 134.563 72.5856 134.285C72.5856 134.007 72.5036 133.761 72.3395 133.547C72.18 133.328 71.9544 133.16 71.6628 133.041C71.3757 132.923 71.0453 132.863 70.6716 132.863ZM88.3258 138.195H87.2457V136.938H84.7301V136.158H87.2457V128.967H88.3258V138.195ZM88.6266 140.848H79.9859V137.293H81.066V139.945H88.6266V140.848ZM78.2359 134.6C79.9039 134.59 81.3531 134.565 82.5836 134.524C83.8186 134.483 85.0081 134.39 86.152 134.244L86.2203 135.023C85.2177 135.183 84.1057 135.299 82.8844 135.372V137.771H81.8043V135.427C80.8974 135.459 79.9768 135.475 79.0426 135.475H78.3863L78.2359 134.6ZM82.2281 129.459C82.816 129.459 83.3355 129.548 83.7867 129.726C84.2424 129.899 84.5956 130.147 84.8463 130.471C85.1015 130.79 85.2314 131.159 85.2359 131.578C85.2314 132.007 85.1015 132.38 84.8463 132.699C84.5956 133.014 84.2424 133.257 83.7867 133.431C83.3355 133.599 82.816 133.684 82.2281 133.684C81.6357 133.684 81.1116 133.599 80.6559 133.431C80.2001 133.257 79.8469 133.014 79.5963 132.699C79.3456 132.38 79.2203 132.007 79.2203 131.578C79.2203 131.159 79.3456 130.79 79.5963 130.471C79.8469 130.147 80.2001 129.899 80.6559 129.726C81.1116 129.548 81.6357 129.459 82.2281 129.459ZM82.2281 130.279C81.8362 130.275 81.4898 130.327 81.1891 130.437C80.8883 130.546 80.6536 130.701 80.485 130.901C80.3209 131.097 80.2411 131.323 80.2457 131.578C80.2411 131.838 80.3209 132.068 80.485 132.269C80.649 132.465 80.8814 132.617 81.1822 132.727C81.4876 132.836 81.8362 132.891 82.2281 132.891C82.6064 132.891 82.9459 132.836 83.2467 132.727C83.5475 132.617 83.7822 132.465 83.9508 132.269C84.1194 132.068 84.206 131.838 84.2105 131.578C84.206 131.323 84.1171 131.097 83.9439 130.901C83.7753 130.701 83.5406 130.546 83.2398 130.437C82.9436 130.327 82.6064 130.275 82.2281 130.279ZM100.402 141.107H99.3628V128.953H100.402V141.107ZM97.9546 140.492H96.9292V134.586H95.3638C95.3273 135.37 95.1974 136.051 94.9741 136.63C94.7508 137.204 94.4478 137.648 94.065 137.963C93.6821 138.273 93.2424 138.428 92.7456 138.428C92.2215 138.428 91.7612 138.257 91.3648 137.915C90.9728 137.569 90.6698 137.076 90.4556 136.438C90.2414 135.8 90.1343 135.055 90.1343 134.203C90.1343 133.351 90.2414 132.606 90.4556 131.968C90.6698 131.33 90.9728 130.84 91.3648 130.498C91.7612 130.152 92.2215 129.979 92.7456 129.979C93.2333 129.979 93.6662 130.129 94.0445 130.43C94.4227 130.73 94.7235 131.161 94.9468 131.722C95.1747 132.282 95.3114 132.941 95.357 133.697H96.9292V129.213H97.9546V140.492ZM92.7456 130.99C92.4175 130.99 92.1327 131.12 91.8911 131.38C91.6496 131.64 91.4627 132.013 91.3306 132.501C91.203 132.984 91.1415 133.551 91.146 134.203C91.1415 134.855 91.203 135.422 91.3306 135.905C91.4627 136.388 91.6496 136.76 91.8911 137.02C92.1372 137.279 92.4221 137.407 92.7456 137.402C93.0692 137.407 93.3517 137.279 93.5933 137.02C93.8394 136.76 94.0285 136.388 94.1607 135.905C94.2928 135.422 94.3589 134.855 94.3589 134.203C94.3589 133.547 94.2928 132.977 94.1607 132.494C94.0285 132.011 93.8417 131.64 93.6001 131.38C93.3586 131.12 93.0737 130.99 92.7456 130.99ZM112.068 141.107H111.042V128.953H112.068V141.107ZM109.511 140.492H108.486V134.818H105.909C105.134 136.304 103.933 137.525 102.306 138.482L101.677 137.703C102.976 136.938 103.97 136.021 104.658 134.955C105.35 133.884 105.747 132.699 105.847 131.4H102.197V130.512H106.914C106.904 131.751 106.702 132.895 106.305 133.943H108.486V129.281H109.511V140.492ZM127.566 139.549H116.437V138.66H121.441V136.035H117.749V129.814H118.829V132.016H125.146V129.814H126.199V136.035H122.493V138.66H127.566V139.549ZM125.146 135.16V132.891H118.829V135.16H125.146ZM131.384 129.896C131.94 129.901 132.437 130.058 132.874 130.368C133.312 130.674 133.663 131.109 133.927 131.674H137.126V128.953H138.193V141.135H137.126V136.418H134.002C133.747 137.038 133.391 137.516 132.936 137.854C132.485 138.191 131.967 138.359 131.384 138.359C130.792 138.359 130.263 138.186 129.798 137.84C129.338 137.493 128.978 137.001 128.718 136.363C128.463 135.725 128.335 134.982 128.335 134.135C128.335 133.287 128.463 132.544 128.718 131.906C128.978 131.268 129.338 130.776 129.798 130.43C130.258 130.079 130.787 129.901 131.384 129.896ZM131.384 130.854C130.988 130.858 130.634 130.997 130.324 131.271C130.019 131.539 129.782 131.922 129.613 132.419C129.445 132.911 129.361 133.483 129.361 134.135C129.361 134.786 129.445 135.361 129.613 135.857C129.782 136.35 130.019 136.73 130.324 136.999C130.634 137.268 130.988 137.402 131.384 137.402C131.776 137.402 132.125 137.268 132.43 136.999C132.74 136.73 132.979 136.35 133.148 135.857C133.321 135.361 133.407 134.786 133.407 134.135C133.407 133.483 133.321 132.911 133.148 132.419C132.979 131.922 132.742 131.539 132.437 131.271C132.131 130.997 131.78 130.858 131.384 130.854ZM134.241 132.576C134.36 133.087 134.419 133.606 134.419 134.135C134.419 134.609 134.371 135.074 134.276 135.529H137.126V132.576H134.241ZM144.144 132.686C144.144 133.355 144.292 134.023 144.588 134.688C144.884 135.349 145.283 135.939 145.784 136.459C146.29 136.974 146.842 137.361 147.439 137.621L146.837 138.469C146.122 138.141 145.477 137.646 144.902 136.985C144.328 136.32 143.9 135.57 143.617 134.736C143.335 135.63 142.906 136.438 142.332 137.163C141.762 137.883 141.131 138.419 140.439 138.77L139.796 137.922C140.37 137.644 140.906 137.225 141.402 136.664C141.904 136.104 142.305 135.472 142.606 134.771C142.906 134.064 143.059 133.369 143.064 132.686V131.1H140.192V130.211H147.042V131.1H144.144V132.686ZM149.817 141.107H148.737V128.953H149.817V141.107ZM161.306 133.506H152.98V129.404H154.046V132.645H161.306V133.506ZM162.591 136.035H151.462V135.16H162.591V136.035ZM161.374 140.807H152.911V137.279H153.978V139.918H161.374V140.807ZM177.378 139.549H166.249V138.633H177.378V139.549ZM176.311 131.072H174.384V135.324H176.284V136.199H167.261V135.324H169.161V131.072H167.233V130.184H176.311V131.072ZM173.331 135.324V131.072H170.227V135.324H173.331ZM189.057 139.604H177.929V138.701H182.932V136.404H179.323V132.658H186.596V130.744H179.296V129.855H187.649V133.533H180.389V135.516H187.936V136.404H183.985V138.701H189.057V139.604ZM199.657 135.27H198.577V128.953H199.657V135.27ZM199.657 138.756H192.794V140.096H200.122V140.971H191.741V137.949H198.591V136.719H191.7V135.857H199.657V138.756ZM196.731 130.648H195.501V133.759C196.07 133.722 196.681 133.665 197.333 133.588L197.387 134.381C196.271 134.545 195.063 134.661 193.764 134.729C192.47 134.798 191.199 134.832 189.95 134.832L189.813 133.943L191.372 133.93V130.648H190.155V129.787H196.731V130.648ZM192.411 133.909C193.331 133.882 194.015 133.854 194.462 133.827V130.648H192.411V133.909ZM211.323 135.475H210.256V128.953H211.323V135.475ZM204.514 137.566H210.256V136.09H211.323V140.943H203.448V136.09H204.514V137.566ZM210.256 140.068V138.428H204.514V140.068H210.256ZM204.76 129.555C205.371 129.55 205.918 129.664 206.401 129.896C206.884 130.129 207.262 130.459 207.536 130.888C207.809 131.312 207.946 131.797 207.946 132.344C207.946 132.886 207.809 133.369 207.536 133.793C207.262 134.217 206.884 134.547 206.401 134.784C205.918 135.017 205.371 135.133 204.76 135.133C204.15 135.133 203.603 135.017 203.12 134.784C202.637 134.547 202.258 134.217 201.985 133.793C201.712 133.369 201.575 132.886 201.575 132.344C201.575 131.797 201.712 131.312 201.985 130.888C202.258 130.459 202.637 130.129 203.12 129.896C203.603 129.664 204.15 129.55 204.76 129.555ZM204.76 130.457C204.35 130.452 203.981 130.532 203.653 130.696C203.329 130.856 203.076 131.079 202.894 131.366C202.712 131.653 202.623 131.979 202.628 132.344C202.623 132.708 202.712 133.036 202.894 133.328C203.076 133.615 203.329 133.841 203.653 134.005C203.981 134.164 204.35 134.244 204.76 134.244C205.166 134.244 205.531 134.164 205.854 134.005C206.178 133.841 206.431 133.615 206.613 133.328C206.8 133.036 206.893 132.708 206.893 132.344C206.893 131.979 206.8 131.653 206.613 131.366C206.431 131.079 206.178 130.856 205.854 130.696C205.531 130.532 205.166 130.452 204.76 130.457ZM222.989 141.107H221.922V128.953H222.989V141.107ZM214.813 137.047C216.868 137.038 218.805 136.842 220.624 136.459L220.774 137.375C219.739 137.589 218.732 137.744 217.753 137.84C216.773 137.931 215.77 137.977 214.745 137.977H213.76V130.156H214.813V137.047ZM234.053 133.766H236.09V134.668H234.053V141.135H232.987V128.953H234.053V133.766ZM230.854 131.031H226.247V137.184C227.381 137.184 228.373 137.152 229.22 137.088C230.068 137.024 230.931 136.91 231.811 136.746L231.948 137.676C231.05 137.84 230.168 137.949 229.302 138.004C228.436 138.059 227.381 138.086 226.137 138.086H225.18V130.143H230.854V131.031ZM237.612 140.082C237.452 140.082 237.304 140.043 237.167 139.966C237.035 139.884 236.928 139.774 236.846 139.638C236.769 139.501 236.732 139.353 236.737 139.193C236.732 139.038 236.769 138.895 236.846 138.763C236.928 138.626 237.035 138.519 237.167 138.441C237.304 138.359 237.452 138.318 237.612 138.318C237.767 138.318 237.91 138.359 238.042 138.441C238.179 138.519 238.286 138.626 238.364 138.763C238.446 138.895 238.487 139.038 238.487 139.193C238.487 139.353 238.446 139.501 238.364 139.638C238.286 139.774 238.179 139.884 238.042 139.966C237.91 140.043 237.767 140.082 237.612 140.082Z" fill="#666666"/>
</g>
<defs>
<filter id="filter0_d_4830_39363" x="0" y="0" width="304" height="174" filterUnits="userSpaceOnUse" color-interpolation-filters="sRGB">
<feFlood flood-opacity="0" result="BackgroundImageFix"/>
<feColorMatrix in="SourceAlpha" type="matrix" values="0 0 0 0 0 0 0 0 0 0 0 0 0 0 0 0 0 0 127 0" result="hardAlpha"/>
<feOffset/>
<feGaussianBlur stdDeviation="6"/>
<feComposite in2="hardAlpha" operator="out"/>
<feColorMatrix type="matrix" values="0 0 0 0 0 0 0 0 0 0 0 0 0 0 0 0 0 0 0.12 0"/>
<feBlend mode="normal" in2="BackgroundImageFix" result="effect1_dropShadow_4830_39363"/>
<feBlend mode="normal" in="SourceGraphic" in2="effect1_dropShadow_4830_39363" result="shape"/>
</filter>
</defs>
</svg>
