<svg width="342" height="67" viewBox="0 0 342 67" fill="none" xmlns="http://www.w3.org/2000/svg">
<path d="M0.391992 3L26.852 3C43.772 3 53.762 6.78 53.762 20.91C53.762 36.21 41.972 40.17 24.512 40.17H23.792L23.792 64.29H35.042V66H0.391992L0.391992 64.29H6.24199L6.24199 4.71L0.391992 4.71L0.391992 3ZM23.792 4.71L23.792 38.46H25.682C33.242 38.46 35.222 33.24 35.222 22.8L35.222 18.48C35.222 8.31 33.062 4.71 26.222 4.71L23.792 4.71ZM87.043 25.68C82.723 25.68 78.673 32.16 78.673 40.26L78.673 64.38H85.063V66H56.983V64.38H61.933L61.933 24.78H56.983V23.16L78.673 23.16V31.8C80.293 25.41 85.333 22.26 90.733 22.26C96.043 22.26 100.273 25.05 100.273 31.89C100.273 37.02 97.573 40.44 92.713 40.44C86.683 40.44 83.803 36.66 85.693 30.27H88.933C90.733 26.58 88.933 25.68 87.043 25.68ZM130.174 48.27V40.62C130.174 30.9 129.904 23.88 124.864 23.88C119.374 23.88 119.104 30.9 119.104 41.07L119.104 48.09C119.104 58.53 119.284 65.28 124.774 65.28C129.904 65.28 130.174 59.97 130.174 48.27ZM101.824 44.76C101.824 30 110.644 22.26 125.134 22.26C140.254 22.26 147.454 29.37 147.454 43.95C147.454 58.71 140.614 66.9 124.594 66.9C109.474 66.9 101.824 58.8 101.824 44.76ZM149.971 23.16L171.661 23.16V31.44C173.101 26.94 176.071 22.26 184.351 22.26C190.741 22.26 195.511 25.05 197.041 31.98C198.481 27.48 202.171 22.26 210.271 22.26C218.101 22.26 223.501 26.4 223.501 37.29V64.38H228.541V66L203.611 66V64.38H206.761V35.13C206.761 27.48 205.771 26.58 204.151 26.58C200.911 26.58 197.581 31.44 197.581 39V64.38H200.821V66H177.691V64.38H180.841V35.13C180.841 27.48 179.851 26.58 178.231 26.58C174.901 26.58 171.661 32.25 171.661 39.54V64.38H174.901V66H149.971V64.38H154.921V24.78H149.971V23.16ZM234.274 8.58C234.274 4.17 236.704 0.209999 243.454 0.209999C249.034 0.209999 252.364 3 252.364 8.48999C252.364 13.26 249.754 16.95 243.274 16.95C235.984 16.95 234.274 12.36 234.274 8.58ZM229.504 23.16L251.554 23.16V64.38H256.594V66H229.864V64.38H234.814V24.78L229.504 24.78V23.16ZM260.498 66.9V50.79H261.578C264.908 61.77 270.398 64.92 277.778 64.92C284.438 64.92 286.958 62.49 286.958 59.07C286.958 55.02 282.548 54.12 275.708 52.23C268.508 50.25 260.498 47.46 260.498 37.47C260.498 28.29 266.798 22.26 276.338 22.26C280.298 22.26 282.998 23.25 285.428 24.33C286.508 24.78 286.868 25.05 287.948 25.05C289.298 25.05 289.928 24.33 291.098 22.08H292.088V35.85H291.008C287.768 27.57 283.178 24.15 276.788 24.15C270.848 24.15 268.418 26.58 268.418 29.37C268.418 33.51 273.818 34.5 279.758 36.12C286.868 38.01 294.788 40.89 294.788 51.51C294.788 61.77 288.128 66.9 277.958 66.9C273.638 66.9 270.578 66 267.158 64.29C266.618 63.93 265.808 63.57 265.448 63.57C264.278 63.57 263.018 64.38 261.578 66.9H260.498ZM297.902 44.67C297.902 29.1 308.522 22.26 321.032 22.26C335.162 22.26 341.192 29.37 340.652 42.78L315.272 42.78V46.29C315.272 56.91 317.162 64.11 325.892 64.11C332.552 64.11 337.052 59.88 339.032 52.95L340.652 53.22C338.582 60.96 333.902 66.9 321.122 66.9C305.102 66.9 297.902 57.72 297.902 44.67ZM315.362 40.98H324.632V36.57C324.632 27.12 323.912 23.97 320.222 23.97C317.072 23.97 315.362 27.03 315.362 36.57V40.98Z" fill="#F8F8F8"/>
</svg>
