<svg width="40" height="40" viewBox="0 0 40 40" fill="none" xmlns="http://www.w3.org/2000/svg">
<rect width="40" height="40" rx="20" fill="#E8E7FF"/>
<mask id="mask0_4016_34238" style="mask-type:alpha" maskUnits="userSpaceOnUse" x="6" y="6" width="28" height="28">
<rect x="6" y="6" width="28" height="28" fill="#C8C6F5"/>
</mask>
<g mask="url(#mask0_4016_34238)">
<path d="M20 19.9998C18.7166 19.9998 17.618 19.5429 16.7041 18.629C15.7902 17.7151 15.3333 16.6165 15.3333 15.3332C15.3333 14.0498 15.7902 12.9512 16.7041 12.0373C17.618 11.1234 18.7166 10.6665 20 10.6665C21.2833 10.6665 22.3819 11.1234 23.2958 12.0373C24.2097 12.9512 24.6666 14.0498 24.6666 15.3332C24.6666 16.6165 24.2097 17.7151 23.2958 18.629C22.3819 19.5429 21.2833 19.9998 20 19.9998ZM10.6666 29.3332V26.0665C10.6666 25.4054 10.8368 24.7978 11.177 24.2436C11.5173 23.6894 11.9694 23.2665 12.5333 22.9748C13.7388 22.3721 14.9638 21.92 16.2083 21.6186C17.4527 21.3172 18.7166 21.1665 20 21.1665C21.2833 21.1665 22.5472 21.3172 23.7916 21.6186C25.0361 21.92 26.2611 22.3721 27.4666 22.9748C28.0305 23.2665 28.4826 23.6894 28.8229 24.2436C29.1632 24.7978 29.3333 25.4054 29.3333 26.0665V29.3332H10.6666Z" fill="#C8C6F5"/>
</g>
</svg>
