<svg width="776" height="174" viewBox="0 0 776 174" fill="none" xmlns="http://www.w3.org/2000/svg">
<path opacity="0.5" d="M106.105 172L105.283 172.569L105.581 173H106.105V172ZM79.1047 133L79.9269 132.431L79.6286 132H79.1047V133ZM49.3047 133V132H48.3047V133H49.3047ZM49.3047 172V173H50.3047V172H49.3047ZM16.9047 172H15.9047V173H16.9047V172ZM16.9047 32V31H15.9047V32H16.9047ZM109.705 38.2L109.29 39.1099L109.295 39.1122L109.705 38.2ZM130.705 109.8L129.873 109.245L129.87 109.249L130.705 109.8ZM109.505 127L109.106 126.083L107.985 126.57L108.685 127.572L109.505 127ZM140.905 172V173H142.822L141.725 171.428L140.905 172ZM97.9047 64.8L97.2606 65.5649L97.2665 65.5699L97.2726 65.5749L97.9047 64.8ZM49.3047 58.4V57.4H48.3047V58.4H49.3047ZM49.3047 107.2H48.3047V108.2H49.3047V107.2ZM97.9047 100.8L98.5488 101.565L97.9047 100.8ZM106.927 171.431L79.9269 132.431L78.2825 133.569L105.283 172.569L106.927 171.431ZM79.1047 132H77.5047V134H79.1047V132ZM77.5047 132H49.3047V134H77.5047V132ZM48.3047 133V172H50.3047V133H48.3047ZM49.3047 171H16.9047V173H49.3047V171ZM17.9047 172L17.9047 32H15.9047L15.9047 172H17.9047ZM16.9047 33H77.5047V31L16.9047 31V33ZM77.5047 33C89.7956 33 100.381 35.0486 109.29 39.1099L110.12 37.2901C100.895 33.0847 90.0138 31 77.5047 31V33ZM109.295 39.1122C118.34 43.1759 125.249 48.9236 130.066 56.3445L131.743 55.2555C126.694 47.4764 119.469 41.4907 110.115 37.2878L109.295 39.1122ZM130.066 56.3445C134.879 63.7594 137.305 72.5639 137.305 82.8H139.305C139.305 72.236 136.797 63.0406 131.743 55.2555L130.066 56.3445ZM137.305 82.8C137.305 93.0308 134.815 101.832 129.873 109.245L131.537 110.355C136.728 102.568 139.305 93.3692 139.305 82.8H137.305ZM129.87 109.249C125.056 116.535 118.151 122.15 109.106 126.083L109.903 127.917C119.259 123.85 126.486 117.999 131.539 110.351L129.87 109.249ZM108.685 127.572L140.085 172.572L141.725 171.428L110.325 126.428L108.685 127.572ZM140.905 171H106.105V173H140.905V171ZM106.505 82.8C106.505 74.7004 103.884 68.3873 98.5368 64.0251L97.2726 65.5749C102.059 69.4794 104.505 75.1663 104.505 82.8H106.505ZM98.5488 64.0351C93.2339 59.5593 85.5662 57.4 75.7047 57.4V59.4C85.3099 59.4 92.4422 61.5073 97.2606 65.5649L98.5488 64.0351ZM75.7047 57.4H49.3047V59.4H75.7047V57.4ZM48.3047 58.4V107.2H50.3047V58.4H48.3047ZM49.3047 108.2H75.7047V106.2H49.3047V108.2ZM75.7047 108.2C85.5662 108.2 93.2339 106.041 98.5488 101.565L97.2606 100.035C92.4422 104.093 85.3099 106.2 75.7047 106.2V108.2ZM98.5488 101.565C103.88 97.0755 106.505 90.7734 106.505 82.8H104.505C104.505 90.2932 102.063 95.9911 97.2606 100.035L98.5488 101.565ZM230.775 146.2L231.126 147.136L231.134 147.133L231.142 147.13L230.775 146.2ZM242.975 138.2L243.71 137.522L243.017 136.77L242.281 137.48L242.975 138.2ZM259.575 156.2L260.328 156.858L260.919 156.182L260.31 155.522L259.575 156.2ZM182.975 166.6L182.518 167.489L182.528 167.494L182.975 166.6ZM161.375 146.8L160.519 147.316L161.375 146.8ZM161.175 89.8L160.315 89.2895L160.313 89.2936L161.175 89.8ZM181.775 70L182.249 70.8805L182.254 70.8779L181.775 70ZM239.375 69.4L238.911 70.2859L238.922 70.2916L239.375 69.4ZM259.375 88.2L258.516 88.7124L258.521 88.7206L258.526 88.7287L259.375 88.2ZM266.975 117.2L267.165 118.182L267.975 118.025V117.2H266.975ZM187.375 132.6L187.185 131.618L185.971 131.853L186.455 132.991L187.375 132.6ZM197.975 144.6L197.489 145.474L197.499 145.48L197.975 144.6ZM192.175 94L192.891 94.6976L192.175 94ZM184.375 115L183.375 114.97L183.338 116.221L184.566 115.982L184.375 115ZM236.775 104.8L236.966 105.782L238.012 105.578L237.742 104.547L236.775 104.8ZM227.775 91.4L227.183 92.2056L227.775 91.4ZM215.975 149.6C221.668 149.6 226.725 148.787 231.126 147.136L230.424 145.264C226.292 146.813 221.482 147.6 215.975 147.6V149.6ZM231.142 147.13C235.675 145.345 239.851 142.602 243.669 138.92L242.281 137.48C238.633 140.998 234.675 143.589 230.408 145.27L231.142 147.13ZM242.24 138.878L258.84 156.878L260.31 155.522L243.71 137.522L242.24 138.878ZM258.822 155.542C248.926 166.87 234.435 172.6 215.175 172.6V174.6C234.848 174.6 249.957 168.73 260.328 156.858L258.822 155.542ZM215.175 172.6C203.172 172.6 192.596 170.292 183.422 165.706L182.528 167.494C192.021 172.241 202.912 174.6 215.175 174.6V172.6ZM183.432 165.711C174.252 160.989 167.195 154.513 162.231 146.284L160.519 147.316C165.688 155.887 173.031 162.611 182.518 167.489L183.432 165.711ZM162.231 146.284C157.267 138.053 154.775 128.701 154.775 118.2H152.775C152.775 129.032 155.35 138.747 160.519 147.316L162.231 146.284ZM154.775 118.2C154.775 107.83 157.201 98.5405 162.037 90.3064L160.313 89.2936C155.282 97.8595 152.775 107.504 152.775 118.2H154.775ZM162.035 90.3105C167.01 81.9319 173.744 75.4604 182.249 70.8805L181.301 69.1195C172.473 73.873 165.474 80.6015 160.315 89.2895L162.035 90.3105ZM182.254 70.8779C190.894 66.1651 200.593 63.8 211.375 63.8V61.8C200.29 61.8 190.256 64.2348 181.296 69.1221L182.254 70.8779ZM211.375 63.8C221.494 63.8 230.666 65.9669 238.911 70.2858L239.839 68.5142C231.284 64.0331 221.79 61.8 211.375 61.8V63.8ZM238.922 70.2916C247.15 74.4708 253.678 80.6042 258.516 88.7124L260.234 87.6875C255.206 79.2624 248.4 72.8625 239.828 68.5084L238.922 70.2916ZM258.526 88.7287C263.478 96.6782 265.975 106.155 265.975 117.2H267.975C267.975 105.845 265.405 95.9884 260.224 87.6712L258.526 88.7287ZM266.785 116.218L187.185 131.618L187.565 133.582L267.165 118.182L266.785 116.218ZM186.455 132.991C188.803 138.517 192.483 142.693 197.489 145.474L198.461 143.726C193.867 141.174 190.48 137.349 188.295 132.209L186.455 132.991ZM197.499 145.48C202.612 148.243 208.785 149.6 215.975 149.6V147.6C209.032 147.6 203.205 146.29 198.451 143.72L197.499 145.48ZM211.375 85.4C203.272 85.4 196.602 88.0197 191.459 93.3024L192.891 94.6976C197.615 89.8469 203.745 87.4 211.375 87.4V85.4ZM191.459 93.3024C186.308 98.5921 183.648 105.855 183.375 114.97L185.375 115.03C185.636 106.278 188.175 99.5412 192.891 94.6976L191.459 93.3024ZM184.566 115.982L236.966 105.782L236.584 103.818L184.184 114.018L184.566 115.982ZM237.742 104.547C236.219 98.7319 233.091 94.0676 228.367 90.5943L227.183 92.2056C231.526 95.3991 234.397 99.668 235.808 105.053L237.742 104.547ZM228.367 90.5943C223.639 87.1178 217.958 85.4 211.375 85.4V87.4C217.592 87.4 222.844 89.0155 227.183 92.2056L228.367 90.5943ZM392.794 64.4L393.715 64.7887L394.301 63.4H392.794V64.4ZM347.394 172V173H348.057L348.315 172.389L347.394 172ZM315.194 172L314.272 172.387L314.529 173H315.194V172ZM269.994 64.4V63.4H268.489L269.072 64.7873L269.994 64.4ZM302.194 64.4L303.12 64.0229L302.866 63.4H302.194V64.4ZM331.994 137.6L331.068 137.977L331.979 140.215L332.915 137.988L331.994 137.6ZM362.794 64.4V63.4H362.13L361.872 64.0122L362.794 64.4ZM391.872 64.0112L346.472 171.611L348.315 172.389L393.715 64.7887L391.872 64.0112ZM347.394 171H315.194V173H347.394V171ZM316.116 171.613L270.916 64.0127L269.072 64.7873L314.272 172.387L316.116 171.613ZM269.994 65.4H302.194V63.4H269.994V65.4ZM301.268 64.777L331.068 137.977L332.92 137.223L303.12 64.0229L301.268 64.777ZM332.915 137.988L363.715 64.7878L361.872 64.0122L331.072 137.212L332.915 137.988ZM362.794 65.4H392.794V63.4L362.794 63.4V65.4ZM405.525 64.4V63.4H404.525V64.4H405.525ZM436.725 64.4H437.725V63.4H436.725V64.4ZM436.725 172V173H437.725V172H436.725ZM405.525 172H404.525V173H405.525V172ZM407.125 44.4L406.446 45.1338L407.125 44.4ZM407.125 19.6L407.804 20.3338L407.125 19.6ZM435.125 19.4L434.461 20.1474V20.1474L435.125 19.4ZM435.125 44.4L435.804 45.1338L435.812 45.1271L435.819 45.1203L435.125 44.4ZM405.525 65.4H436.725V63.4H405.525V65.4ZM435.725 64.4V172H437.725V64.4H435.725ZM436.725 171H405.525V173H436.725V171ZM406.525 172V64.4H404.525V172H406.525ZM421.125 48.4C415.598 48.4 411.189 46.7999 407.804 43.6662L406.446 45.1338C410.261 48.6667 415.185 50.4 421.125 50.4V48.4ZM407.804 43.6662C404.41 40.5233 402.725 36.6565 402.725 32H400.725C400.725 37.2101 402.64 41.61 406.446 45.1338L407.804 43.6662ZM402.725 32C402.725 27.3435 404.41 23.4766 407.804 20.3338L406.446 18.8662C402.64 22.39 400.725 26.7898 400.725 32H402.725ZM407.804 20.3338C411.189 17.2 415.598 15.6 421.125 15.6V13.6C415.185 13.6 410.261 15.3333 406.446 18.8662L407.804 20.3338ZM421.125 15.6C426.663 15.6 431.077 17.14 434.461 20.1474L435.789 18.6526C431.973 15.2599 427.054 13.6 421.125 13.6V15.6ZM434.461 20.1474C437.848 23.1584 439.525 26.8868 439.525 31.4H441.525C441.525 26.3132 439.602 22.0416 435.789 18.6526L434.461 20.1474ZM439.525 31.4C439.525 36.3406 437.827 40.4099 434.431 43.6797L435.819 45.1203C439.623 41.4568 441.525 36.8594 441.525 31.4H439.525ZM434.446 43.6662C431.061 46.7999 426.652 48.4 421.125 48.4V50.4C427.065 50.4 431.989 48.6667 435.804 45.1338L434.446 43.6662ZM534.681 146.2L535.032 147.136L535.04 147.133L535.048 147.13L534.681 146.2ZM546.881 138.2L547.616 137.522L546.923 136.77L546.187 137.48L546.881 138.2ZM563.481 156.2L564.234 156.858L564.825 156.182L564.216 155.522L563.481 156.2ZM486.881 166.6L486.424 167.489L486.434 167.494L486.881 166.6ZM465.281 146.8L464.425 147.316L465.281 146.8ZM465.081 89.8L464.221 89.2895L464.219 89.2936L465.081 89.8ZM485.681 70L486.155 70.8805L486.16 70.8779L485.681 70ZM543.281 69.4L542.817 70.2859L542.828 70.2916L543.281 69.4ZM563.281 88.2L562.423 88.7124L562.427 88.7206L562.432 88.7287L563.281 88.2ZM570.881 117.2L571.071 118.182L571.881 118.025V117.2H570.881ZM491.281 132.6L491.091 131.618L489.877 131.853L490.361 132.991L491.281 132.6ZM501.881 144.6L501.396 145.474L501.406 145.48L501.881 144.6ZM496.081 94L496.798 94.6976L496.081 94ZM488.281 115L487.282 114.97L487.244 116.221L488.472 115.982L488.281 115ZM540.681 104.8L540.872 105.782L541.919 105.578L541.649 104.547L540.681 104.8ZM531.681 91.4L531.089 92.2056L531.681 91.4ZM519.881 149.6C525.575 149.6 530.631 148.787 535.032 147.136L534.33 145.264C530.198 146.813 525.388 147.6 519.881 147.6V149.6ZM535.048 147.13C539.581 145.345 543.757 142.602 547.575 138.92L546.187 137.48C542.539 140.998 538.581 143.589 534.315 145.27L535.048 147.13ZM546.146 138.878L562.746 156.878L564.216 155.522L547.616 137.522L546.146 138.878ZM562.728 155.542C552.833 166.87 538.341 172.6 519.081 172.6V174.6C538.755 174.6 553.863 168.73 564.234 156.858L562.728 155.542ZM519.081 172.6C507.078 172.6 496.502 170.292 487.328 165.706L486.434 167.494C495.927 172.241 506.818 174.6 519.081 174.6V172.6ZM487.339 165.711C478.158 160.989 471.102 154.513 466.138 146.284L464.425 147.316C469.594 155.887 476.938 162.611 486.424 167.489L487.339 165.711ZM466.138 146.284C461.173 138.053 458.681 128.701 458.681 118.2H456.681C456.681 129.032 459.256 138.747 464.425 147.316L466.138 146.284ZM458.681 118.2C458.681 107.83 461.108 98.5405 465.944 90.3064L464.219 89.2936C459.188 97.8595 456.681 107.504 456.681 118.2H458.681ZM465.941 90.3105C470.916 81.9319 477.65 75.4604 486.155 70.8805L485.207 69.1195C476.379 73.873 469.38 80.6015 464.221 89.2895L465.941 90.3105ZM486.16 70.8779C494.8 66.1651 504.5 63.8 515.281 63.8V61.8C504.196 61.8 494.162 64.2348 485.202 69.1221L486.16 70.8779ZM515.281 63.8C525.4 63.8 534.572 65.9669 542.817 70.2858L543.745 68.5142C535.19 64.0331 525.696 61.8 515.281 61.8V63.8ZM542.828 70.2916C551.056 74.4708 557.584 80.6042 562.423 88.7124L564.14 87.6875C559.112 79.2624 552.306 72.8625 543.734 68.5084L542.828 70.2916ZM562.432 88.7287C567.385 96.6782 569.881 106.155 569.881 117.2H571.881C571.881 105.845 569.311 95.9884 564.13 87.6712L562.432 88.7287ZM570.691 116.218L491.091 131.618L491.471 133.582L571.071 118.182L570.691 116.218ZM490.361 132.991C492.71 138.517 496.39 142.693 501.396 145.474L502.367 143.726C497.773 141.174 494.386 137.349 492.202 132.209L490.361 132.991ZM501.406 145.48C506.518 148.243 512.691 149.6 519.881 149.6V147.6C512.938 147.6 507.111 146.29 502.357 143.72L501.406 145.48ZM515.281 85.4C507.178 85.4 500.508 88.0197 495.365 93.3024L496.798 94.6976C501.521 89.8469 507.651 87.4 515.281 87.4V85.4ZM495.365 93.3024C490.214 98.5921 487.554 105.855 487.282 114.97L489.281 115.03C489.542 106.278 492.082 99.5412 496.798 94.6976L495.365 93.3024ZM488.472 115.982L540.872 105.782L540.49 103.818L488.09 114.018L488.472 115.982ZM541.649 104.547C540.126 98.7319 536.997 94.0676 532.274 90.5943L531.089 92.2056C535.432 95.3991 538.303 99.668 539.714 105.053L541.649 104.547ZM532.274 90.5943C527.546 87.1178 521.864 85.4 515.281 85.4V87.4C521.499 87.4 526.75 89.0155 531.089 92.2056L532.274 90.5943ZM762.053 64.4H763.053V63.4H762.053V64.4ZM749.053 160.6L749.76 161.307L749.053 160.6ZM691.453 170L691.074 170.926L691.082 170.928L691.453 170ZM676.653 158.4L677.453 157.8L676.653 156.733L675.853 157.8L676.653 158.4ZM661.853 170L661.474 169.074L661.853 170ZM604.053 160.6L603.341 161.302L604.053 160.6ZM591.253 64.4V63.4H590.253V64.4H591.253ZM622.453 64.4H623.453V63.4H622.453V64.4ZM627.053 141.2L626.241 141.784L626.246 141.79L626.25 141.796L627.053 141.2ZM656.253 141L657.053 141.6L656.253 141ZM661.053 64.4V63.4H660.053V64.4H661.053ZM692.253 64.4H693.253V63.4H692.253V64.4ZM697.053 141L697.853 140.4L697.053 141ZM726.253 141.2L727.056 141.796L727.061 141.79L727.065 141.784L726.253 141.2ZM730.853 64.4V63.4H729.853V64.4H730.853ZM761.053 64.4V123.8H763.053V64.4H761.053ZM761.053 123.8C761.053 139.483 756.774 151.464 748.346 159.893L749.76 161.307C758.665 152.402 763.053 139.85 763.053 123.8H761.053ZM748.346 159.893C739.919 168.32 727.872 172.6 712.053 172.6V174.6C728.234 174.6 740.854 170.214 749.76 161.307L748.346 159.893ZM712.053 172.6C704.423 172.6 697.686 171.416 691.825 169.072L691.082 170.928C697.221 173.384 704.217 174.6 712.053 174.6V172.6ZM691.832 169.074C686.141 166.746 681.351 162.997 677.453 157.8L675.853 159C679.956 164.47 685.032 168.454 691.075 170.926L691.832 169.074ZM675.853 157.8C671.956 162.997 667.165 166.746 661.474 169.074L662.232 170.926C668.275 168.454 673.351 164.47 677.453 159L675.853 157.8ZM661.474 169.074C655.755 171.414 648.956 172.6 641.053 172.6V174.6C649.15 174.6 656.218 173.386 662.232 170.926L661.474 169.074ZM641.053 172.6C625.097 172.6 613.056 168.318 604.766 159.898L603.341 161.302C612.117 170.215 624.743 174.6 641.053 174.6V172.6ZM604.766 159.898C596.468 151.471 592.253 139.487 592.253 123.8H590.253C590.253 139.846 594.572 152.396 603.341 161.302L604.766 159.898ZM592.253 123.8V64.4H590.253V123.8H592.253ZM591.253 65.4H622.453V63.4H591.253V65.4ZM621.453 64.4V121.4H623.453V64.4H621.453ZM621.453 121.4C621.453 130.411 622.993 137.264 626.241 141.784L627.865 140.616C624.98 136.602 623.453 130.256 623.453 121.4H621.453ZM626.25 141.796C629.555 146.251 634.698 148.4 641.453 148.4V146.4C635.142 146.4 630.684 144.416 627.856 140.604L626.25 141.796ZM641.453 148.4C648.347 148.4 653.617 146.181 657.053 141.6L655.453 140.4C652.489 144.352 647.892 146.4 641.453 146.4V148.4ZM657.053 141.6C660.443 137.08 662.053 130.288 662.053 121.4H660.053C660.053 130.112 658.463 136.387 655.453 140.4L657.053 141.6ZM662.053 121.4V64.4H660.053V121.4H662.053ZM661.053 65.4H692.253V63.4H661.053V65.4ZM691.253 64.4V121.4H693.253V64.4H691.253ZM691.253 121.4C691.253 130.288 692.863 137.08 696.253 141.6L697.853 140.4C694.843 136.387 693.253 130.112 693.253 121.4H691.253ZM696.253 141.6C699.689 146.181 704.959 148.4 711.853 148.4V146.4C705.414 146.4 700.817 144.352 697.853 140.4L696.253 141.6ZM711.853 148.4C718.609 148.4 723.751 146.251 727.056 141.796L725.45 140.604C722.622 144.416 718.164 146.4 711.853 146.4V148.4ZM727.065 141.784C730.313 137.264 731.853 130.411 731.853 121.4H729.853C729.853 130.256 728.326 136.602 725.441 140.616L727.065 141.784ZM731.853 121.4V64.4H729.853V121.4H731.853ZM730.853 65.4H762.053V63.4H730.853V65.4Z" fill="#DDDDDD"/>
</svg>
