<svg width="152" height="16" viewBox="0 0 152 16" fill="none" xmlns="http://www.w3.org/2000/svg">
<path d="M6.26 15.24C5.15333 15.24 4.08 15.0933 3.04 14.8C2.01333 14.4933 1.18667 14.1 0.56 13.62L1.66 11.18C2.26 11.62 2.97333 11.9733 3.8 12.24C4.62667 12.5067 5.45333 12.64 6.28 12.64C7.2 12.64 7.88 12.5067 8.32 12.24C8.76 11.96 8.98 11.5933 8.98 11.14C8.98 10.8067 8.84667 10.5333 8.58 10.32C8.32667 10.0933 7.99333 9.91333 7.58 9.78C7.18 9.64667 6.63333 9.5 5.94 9.34C4.87333 9.08667 4 8.83333 3.32 8.58C2.64 8.32667 2.05333 7.92 1.56 7.36C1.08 6.8 0.84 6.05333 0.84 5.12C0.84 4.30667 1.06 3.57333 1.5 2.92C1.94 2.25333 2.6 1.72667 3.48 1.34C4.37333 0.953333 5.46 0.76 6.74 0.76C7.63333 0.76 8.50667 0.866666 9.36 1.08C10.2133 1.29333 10.96 1.6 11.6 2L10.6 4.46C9.30667 3.72667 8.01333 3.36 6.72 3.36C5.81333 3.36 5.14 3.50667 4.7 3.8C4.27333 4.09333 4.06 4.48 4.06 4.96C4.06 5.44 4.30667 5.8 4.8 6.04C5.30667 6.26667 6.07333 6.49333 7.1 6.72C8.16667 6.97333 9.04 7.22667 9.72 7.48C10.4 7.73333 10.98 8.13333 11.46 8.68C11.9533 9.22667 12.2 9.96667 12.2 10.9C12.2 11.7 11.9733 12.4333 11.52 13.1C11.08 13.7533 10.4133 14.2733 9.52 14.66C8.62667 15.0467 7.54 15.24 6.26 15.24ZM25.1139 4.24V15H22.1339V13.76C21.3606 14.6933 20.2406 15.16 18.7739 15.16C17.7606 15.16 16.8406 14.9333 16.0139 14.48C15.2006 14.0267 14.5606 13.38 14.0939 12.54C13.6272 11.7 13.3939 10.7267 13.3939 9.62C13.3939 8.51333 13.6272 7.54 14.0939 6.7C14.5606 5.86 15.2006 5.21333 16.0139 4.76C16.8406 4.30667 17.7606 4.08 18.7739 4.08C20.1472 4.08 21.2206 4.51333 21.9939 5.38V4.24H25.1139ZM19.3139 12.6C20.1006 12.6 20.7539 12.3333 21.2739 11.8C21.7939 11.2533 22.0539 10.5267 22.0539 9.62C22.0539 8.71333 21.7939 7.99333 21.2739 7.46C20.7539 6.91333 20.1006 6.64 19.3139 6.64C18.5139 6.64 17.8539 6.91333 17.3339 7.46C16.8139 7.99333 16.5539 8.71333 16.5539 9.62C16.5539 10.5267 16.8139 11.2533 17.3339 11.8C17.8539 12.3333 18.5139 12.6 19.3139 12.6ZM31.6225 15.16C30.7292 15.16 29.8558 15.0533 29.0025 14.84C28.1492 14.6133 27.4692 14.3333 26.9625 14L28.0025 11.76C28.4825 12.0667 29.0625 12.32 29.7425 12.52C30.4225 12.7067 31.0892 12.8 31.7425 12.8C33.0625 12.8 33.7225 12.4733 33.7225 11.82C33.7225 11.5133 33.5425 11.2933 33.1825 11.16C32.8225 11.0267 32.2692 10.9133 31.5225 10.82C30.6425 10.6867 29.9158 10.5333 29.3425 10.36C28.7692 10.1867 28.2692 9.88 27.8425 9.44C27.4292 9 27.2225 8.37333 27.2225 7.56C27.2225 6.88 27.4158 6.28 27.8025 5.76C28.2025 5.22667 28.7758 4.81333 29.5225 4.52C30.2825 4.22667 31.1758 4.08 32.2025 4.08C32.9625 4.08 33.7158 4.16667 34.4625 4.34C35.2225 4.5 35.8492 4.72667 36.3425 5.02L35.3025 7.24C34.3558 6.70667 33.3225 6.44 32.2025 6.44C31.5358 6.44 31.0358 6.53333 30.7025 6.72C30.3692 6.90667 30.2025 7.14667 30.2025 7.44C30.2025 7.77333 30.3825 8.00667 30.7425 8.14C31.1025 8.27333 31.6758 8.4 32.4625 8.52C33.3425 8.66667 34.0625 8.82667 34.6225 9C35.1825 9.16 35.6692 9.46 36.0825 9.9C36.4958 10.34 36.7025 10.9533 36.7025 11.74C36.7025 12.4067 36.5025 13 36.1025 13.52C35.7025 14.04 35.1158 14.4467 34.3425 14.74C33.5825 15.02 32.6758 15.16 31.6225 15.16ZM43.7475 15.16C42.6142 15.16 41.5942 14.9267 40.6875 14.46C39.7942 13.98 39.0942 13.32 38.5875 12.48C38.0808 11.64 37.8275 10.6867 37.8275 9.62C37.8275 8.55333 38.0808 7.6 38.5875 6.76C39.0942 5.92 39.7942 5.26667 40.6875 4.8C41.5942 4.32 42.6142 4.08 43.7475 4.08C44.8808 4.08 45.8942 4.32 46.7875 4.8C47.6808 5.26667 48.3808 5.92 48.8875 6.76C49.3942 7.6 49.6475 8.55333 49.6475 9.62C49.6475 10.6867 49.3942 11.64 48.8875 12.48C48.3808 13.32 47.6808 13.98 46.7875 14.46C45.8942 14.9267 44.8808 15.16 43.7475 15.16ZM43.7475 12.6C44.5475 12.6 45.2008 12.3333 45.7075 11.8C46.2275 11.2533 46.4875 10.5267 46.4875 9.62C46.4875 8.71333 46.2275 7.99333 45.7075 7.46C45.2008 6.91333 44.5475 6.64 43.7475 6.64C42.9475 6.64 42.2875 6.91333 41.7675 7.46C41.2475 7.99333 40.9875 8.71333 40.9875 9.62C40.9875 10.5267 41.2475 11.2533 41.7675 11.8C42.2875 12.3333 42.9475 12.6 43.7475 12.6ZM58.273 4.08C59.6063 4.08 60.6796 4.48 61.493 5.28C62.3196 6.08 62.733 7.26667 62.733 8.84V15H59.613V9.32C59.613 8.46667 59.4263 7.83333 59.053 7.42C58.6796 6.99333 58.1396 6.78 57.433 6.78C56.6463 6.78 56.0196 7.02667 55.553 7.52C55.0863 8 54.853 8.72 54.853 9.68V15H51.733V0.159999H54.853V5.36C55.2663 4.94667 55.7663 4.63333 56.353 4.42C56.9396 4.19333 57.5796 4.08 58.273 4.08ZM76.5983 4.24V15H73.6183V13.76C72.8449 14.6933 71.7249 15.16 70.2583 15.16C69.2449 15.16 68.3249 14.9333 67.4983 14.48C66.6849 14.0267 66.0449 13.38 65.5783 12.54C65.1116 11.7 64.8783 10.7267 64.8783 9.62C64.8783 8.51333 65.1116 7.54 65.5783 6.7C66.0449 5.86 66.6849 5.21333 67.4983 4.76C68.3249 4.30667 69.2449 4.08 70.2583 4.08C71.6316 4.08 72.7049 4.51333 73.4783 5.38V4.24H76.5983ZM70.7983 12.6C71.5849 12.6 72.2383 12.3333 72.7583 11.8C73.2783 11.2533 73.5383 10.5267 73.5383 9.62C73.5383 8.71333 73.2783 7.99333 72.7583 7.46C72.2383 6.91333 71.5849 6.64 70.7983 6.64C69.9983 6.64 69.3383 6.91333 68.8183 7.46C68.2983 7.99333 68.0383 8.71333 68.0383 9.62C68.0383 10.5267 68.2983 11.2533 68.8183 11.8C69.3383 12.3333 69.9983 12.6 70.7983 12.6ZM86.0269 4.08C87.3602 4.08 88.4335 4.48 89.2469 5.28C90.0735 6.08 90.4869 7.26667 90.4869 8.84V15H87.3669V9.32C87.3669 8.46667 87.1802 7.83333 86.8069 7.42C86.4335 6.99333 85.8935 6.78 85.1869 6.78C84.4002 6.78 83.7735 7.02667 83.3069 7.52C82.8402 8 82.6069 8.72 82.6069 9.68V15H79.4869V4.24H82.4669V5.5C82.8802 5.04667 83.3935 4.7 84.0069 4.46C84.6202 4.20667 85.2935 4.08 86.0269 4.08ZM94.4369 -1.19209e-06C94.9969 -1.19209e-06 95.4569 0.179999 95.8169 0.539999C96.1769 0.886666 96.3569 1.34667 96.3569 1.92C96.3569 2.18667 96.3235 2.45333 96.2569 2.72C96.1902 2.98667 96.0502 3.38667 95.8369 3.92L94.6769 6.8H92.6969L93.5569 3.64C93.2235 3.49333 92.9635 3.27333 92.7769 2.98C92.5902 2.68667 92.4969 2.33333 92.4969 1.92C92.4969 1.34667 92.6769 0.886666 93.0369 0.539999C93.4102 0.179999 93.8769 -1.19209e-06 94.4369 -1.19209e-06ZM101.74 15.16C100.846 15.16 99.973 15.0533 99.1197 14.84C98.2664 14.6133 97.5864 14.3333 97.0797 14L98.1197 11.76C98.5997 12.0667 99.1797 12.32 99.8597 12.52C100.54 12.7067 101.206 12.8 101.86 12.8C103.18 12.8 103.84 12.4733 103.84 11.82C103.84 11.5133 103.66 11.2933 103.3 11.16C102.94 11.0267 102.386 10.9133 101.64 10.82C100.76 10.6867 100.033 10.5333 99.4597 10.36C98.8864 10.1867 98.3864 9.88 97.9597 9.44C97.5464 9 97.3397 8.37333 97.3397 7.56C97.3397 6.88 97.533 6.28 97.9197 5.76C98.3197 5.22667 98.893 4.81333 99.6397 4.52C100.4 4.22667 101.293 4.08 102.32 4.08C103.08 4.08 103.833 4.16667 104.58 4.34C105.34 4.5 105.966 4.72667 106.46 5.02L105.42 7.24C104.473 6.70667 103.44 6.44 102.32 6.44C101.653 6.44 101.153 6.53333 100.82 6.72C100.486 6.90667 100.32 7.14667 100.32 7.44C100.32 7.77333 100.5 8.00667 100.86 8.14C101.22 8.27333 101.793 8.4 102.58 8.52C103.46 8.66667 104.18 8.82667 104.74 9C105.3 9.16 105.786 9.46 106.2 9.9C106.613 10.34 106.82 10.9533 106.82 11.74C106.82 12.4067 106.62 13 106.22 13.52C105.82 14.04 105.233 14.4467 104.46 14.74C103.7 15.02 102.793 15.16 101.74 15.16ZM128.089 0.999999L122.029 15H118.829L112.789 0.999999H116.289L120.549 11L124.869 0.999999H128.089ZM134.351 3.6V12.4H136.771V15H128.671V12.4H131.111V3.6H128.671V0.999999H136.771V3.6H134.351ZM145.279 0.999999C146.519 0.999999 147.592 1.20667 148.499 1.62C149.419 2.03333 150.125 2.62 150.619 3.38C151.112 4.14 151.359 5.04 151.359 6.08C151.359 7.10667 151.112 8.00667 150.619 8.78C150.125 9.54 149.419 10.1267 148.499 10.54C147.592 10.94 146.519 11.14 145.279 11.14H142.459V15H139.219V0.999999H145.279ZM145.099 8.5C146.072 8.5 146.812 8.29333 147.319 7.88C147.825 7.45333 148.079 6.85333 148.079 6.08C148.079 5.29333 147.825 4.69333 147.319 4.28C146.812 3.85333 146.072 3.64 145.099 3.64H142.459V8.5H145.099Z" fill="#6840FD"/>
</svg>
