<svg width="347" height="442" viewBox="0 0 347 442" fill="none" xmlns="http://www.w3.org/2000/svg">
<g clip-path="url(#clip0_153_21719)">
<circle opacity="0.2" cx="191.405" cy="250.595" r="168.48" stroke="url(#paint0_linear_153_21719)" stroke-width="45.8507"/>
<mask id="mask0_153_21719" style="mask-type:alpha" maskUnits="userSpaceOnUse" x="27" y="-70" width="429" height="442">
<g clip-path="url(#clip1_153_21719)">
<rect x="27.1978" y="80.1584" width="300.317" height="3.00317" transform="rotate(-30 27.1978 80.1584)" fill="white"/>
<rect x="31.7021" y="87.9608" width="300.317" height="3.00317" transform="rotate(-30 31.7021 87.9608)" fill="white"/>
<rect x="36.207" y="95.7633" width="300.317" height="3.00317" transform="rotate(-30 36.207 95.7633)" fill="white"/>
<rect x="40.7119" y="103.566" width="300.317" height="3.00317" transform="rotate(-30 40.7119 103.566)" fill="white"/>
<rect x="45.2168" y="111.368" width="300.317" height="3.00317" transform="rotate(-30 45.2168 111.368)" fill="white"/>
<rect x="49.7212" y="119.171" width="300.317" height="3.00317" transform="rotate(-30 49.7212 119.171)" fill="white"/>
<rect x="54.2261" y="126.973" width="300.317" height="3.00317" transform="rotate(-30 54.2261 126.973)" fill="white"/>
<rect x="58.731" y="134.776" width="300.317" height="3.00317" transform="rotate(-30 58.731 134.776)" fill="white"/>
<rect x="63.2358" y="142.578" width="300.317" height="3.00317" transform="rotate(-30 63.2358 142.578)" fill="white"/>
<rect x="67.7402" y="150.38" width="300.317" height="3.00317" transform="rotate(-30 67.7402 150.38)" fill="white"/>
<rect x="72.2451" y="158.183" width="300.317" height="3.00317" transform="rotate(-30 72.2451 158.183)" fill="white"/>
<rect x="76.75" y="165.985" width="300.317" height="3.00317" transform="rotate(-30 76.75 165.985)" fill="white"/>
<rect x="81.2549" y="173.788" width="300.317" height="3.00317" transform="rotate(-30 81.2549 173.788)" fill="white"/>
<rect x="85.7598" y="181.59" width="300.317" height="3.00317" transform="rotate(-30 85.7598 181.59)" fill="white"/>
<rect x="90.2642" y="189.393" width="300.317" height="3.00317" transform="rotate(-30 90.2642 189.393)" fill="white"/>
<rect x="94.769" y="197.195" width="300.317" height="3.00317" transform="rotate(-30 94.769 197.195)" fill="white"/>
<rect x="99.2739" y="204.998" width="300.317" height="3.00317" transform="rotate(-30 99.2739 204.998)" fill="white"/>
<rect x="103.778" y="212.8" width="300.317" height="3.00317" transform="rotate(-30 103.778 212.8)" fill="white"/>
<rect x="108.283" y="220.603" width="300.317" height="3.00317" transform="rotate(-30 108.283 220.603)" fill="white"/>
<rect x="112.788" y="228.405" width="300.317" height="3.00317" transform="rotate(-30 112.788 228.405)" fill="white"/>
<rect x="117.292" y="236.208" width="300.317" height="3.00317" transform="rotate(-30 117.292 236.208)" fill="white"/>
<rect x="121.797" y="244.01" width="300.317" height="3.00317" transform="rotate(-30 121.797 244.01)" fill="white"/>
<rect x="126.302" y="251.813" width="300.317" height="3.00317" transform="rotate(-30 126.302 251.813)" fill="white"/>
<rect x="130.807" y="259.615" width="300.317" height="3.00317" transform="rotate(-30 130.807 259.615)" fill="white"/>
<rect x="135.312" y="267.417" width="300.317" height="3.00317" transform="rotate(-30 135.312 267.417)" fill="white"/>
<rect x="139.817" y="275.22" width="300.317" height="3.00317" transform="rotate(-30 139.817 275.22)" fill="white"/>
<rect x="144.321" y="283.022" width="300.317" height="3.00317" transform="rotate(-30 144.321 283.022)" fill="white"/>
<rect x="148.826" y="290.825" width="300.317" height="3.00317" transform="rotate(-30 148.826 290.825)" fill="white"/>
<rect x="153.331" y="298.627" width="300.317" height="3.00317" transform="rotate(-30 153.331 298.627)" fill="white"/>
<rect x="157.835" y="306.43" width="300.317" height="3.00317" transform="rotate(-30 157.835 306.43)" fill="white"/>
<rect x="162.34" y="314.232" width="300.317" height="3.00317" transform="rotate(-30 162.34 314.232)" fill="white"/>
<rect x="166.845" y="322.035" width="300.317" height="3.00317" transform="rotate(-30 166.845 322.035)" fill="white"/>
<rect x="171.35" y="329.837" width="300.317" height="3.00317" transform="rotate(-30 171.35 329.837)" fill="white"/>
<rect x="175.854" y="337.64" width="300.317" height="3.00317" transform="rotate(-30 175.854 337.64)" fill="white"/>
<rect x="180.359" y="345.442" width="300.317" height="3.00317" transform="rotate(-30 180.359 345.442)" fill="white"/>
<rect x="184.864" y="353.244" width="300.317" height="3.00317" transform="rotate(-30 184.864 353.244)" fill="white"/>
<rect x="189.369" y="361.047" width="300.317" height="3.00317" transform="rotate(-30 189.369 361.047)" fill="white"/>
<rect x="193.874" y="368.849" width="300.317" height="3.00317" transform="rotate(-30 193.874 368.849)" fill="white"/>
</g>
</mask>
<g mask="url(#mask0_153_21719)">
<circle cx="239.826" cy="148.124" r="138.897" transform="rotate(-30 239.826 148.124)" fill="url(#paint1_linear_153_21719)"/>
</g>
</g>
<defs>
<linearGradient id="paint0_linear_153_21719" x1="191.405" y1="59.1899" x2="463.384" y2="519.174" gradientUnits="userSpaceOnUse">
<stop stop-color="#DDDDDD"/>
<stop offset="1" stop-color="#DDDDDD" stop-opacity="0"/>
</linearGradient>
<linearGradient id="paint1_linear_153_21719" x1="239.826" y1="9.22778" x2="239.826" y2="287.021" gradientUnits="userSpaceOnUse">
<stop stop-color="white"/>
<stop offset="1" stop-color="white" stop-opacity="0"/>
</linearGradient>
<clipPath id="clip0_153_21719">
<rect width="347" height="442" fill="white"/>
</clipPath>
<clipPath id="clip1_153_21719">
<rect width="300.317" height="336.355" fill="white" transform="translate(27.1978 80.1584) rotate(-30)"/>
</clipPath>
</defs>
</svg>
