<svg width="410" height="580" viewBox="0 0 410 580" fill="none" xmlns="http://www.w3.org/2000/svg">
<g clip-path="url(#clip0_725_3922)">
<circle opacity="0.2" cx="163.471" cy="326.529" r="220.471" stroke="url(#paint0_linear_725_3922)" stroke-width="60"/>
<mask id="mask0_725_3922" style="mask-type:alpha" maskUnits="userSpaceOnUse" x="-52" y="-93" width="562" height="578">
<g clip-path="url(#clip1_725_3922)">
<rect x="-51.4092" y="103.496" width="392.993" height="3.92993" transform="rotate(-30 -51.4092 103.496)" fill="white"/>
<rect x="-45.5146" y="113.707" width="392.993" height="3.92993" transform="rotate(-30 -45.5146 113.707)" fill="white"/>
<rect x="-39.6191" y="123.917" width="392.993" height="3.92993" transform="rotate(-30 -39.6191 123.917)" fill="white"/>
<rect x="-33.7246" y="134.127" width="392.993" height="3.92993" transform="rotate(-30 -33.7246 134.127)" fill="white"/>
<rect x="-27.8301" y="144.337" width="392.993" height="3.92993" transform="rotate(-30 -27.8301 144.337)" fill="white"/>
<rect x="-21.9346" y="154.548" width="392.993" height="3.92993" transform="rotate(-30 -21.9346 154.548)" fill="white"/>
<rect x="-16.04" y="164.758" width="392.993" height="3.92993" transform="rotate(-30 -16.04 164.758)" fill="white"/>
<rect x="-10.1445" y="174.968" width="392.993" height="3.92993" transform="rotate(-30 -10.1445 174.968)" fill="white"/>
<rect x="-4.25" y="185.178" width="392.993" height="3.92993" transform="rotate(-30 -4.25 185.178)" fill="white"/>
<rect x="1.64453" y="195.389" width="392.993" height="3.92993" transform="rotate(-30 1.64453 195.389)" fill="white"/>
<rect x="7.54004" y="205.599" width="392.993" height="3.92993" transform="rotate(-30 7.54004 205.599)" fill="white"/>
<rect x="13.4346" y="215.809" width="392.993" height="3.92993" transform="rotate(-30 13.4346 215.809)" fill="white"/>
<rect x="19.3291" y="226.019" width="392.993" height="3.92993" transform="rotate(-30 19.3291 226.019)" fill="white"/>
<rect x="25.2246" y="236.23" width="392.993" height="3.92993" transform="rotate(-30 25.2246 236.23)" fill="white"/>
<rect x="31.1191" y="246.44" width="392.993" height="3.92993" transform="rotate(-30 31.1191 246.44)" fill="white"/>
<rect x="37.0146" y="256.65" width="392.993" height="3.92993" transform="rotate(-30 37.0146 256.65)" fill="white"/>
<rect x="42.9092" y="266.86" width="392.993" height="3.92993" transform="rotate(-30 42.9092 266.86)" fill="white"/>
<rect x="48.8037" y="277.071" width="392.993" height="3.92993" transform="rotate(-30 48.8037 277.071)" fill="white"/>
<rect x="54.6992" y="287.281" width="392.993" height="3.92993" transform="rotate(-30 54.6992 287.281)" fill="white"/>
<rect x="60.5938" y="297.491" width="392.993" height="3.92993" transform="rotate(-30 60.5938 297.491)" fill="white"/>
<rect x="66.4883" y="307.701" width="392.993" height="3.92993" transform="rotate(-30 66.4883 307.701)" fill="white"/>
<rect x="72.3838" y="317.912" width="392.993" height="3.92993" transform="rotate(-30 72.3838 317.912)" fill="white"/>
<rect x="78.2783" y="328.122" width="392.993" height="3.92993" transform="rotate(-30 78.2783 328.122)" fill="white"/>
<rect x="84.1729" y="338.332" width="392.993" height="3.92993" transform="rotate(-30 84.1729 338.332)" fill="white"/>
<rect x="90.0684" y="348.542" width="392.993" height="3.92993" transform="rotate(-30 90.0684 348.542)" fill="white"/>
<rect x="95.9629" y="358.753" width="392.993" height="3.92993" transform="rotate(-30 95.9629 358.753)" fill="white"/>
<rect x="101.858" y="368.963" width="392.993" height="3.92993" transform="rotate(-30 101.858 368.963)" fill="white"/>
<rect x="107.753" y="379.173" width="392.993" height="3.92993" transform="rotate(-30 107.753 379.173)" fill="white"/>
<rect x="113.648" y="389.383" width="392.993" height="3.92993" transform="rotate(-30 113.648 389.383)" fill="white"/>
<rect x="119.543" y="399.594" width="392.993" height="3.92993" transform="rotate(-30 119.543 399.594)" fill="white"/>
<rect x="125.438" y="409.804" width="392.993" height="3.92993" transform="rotate(-30 125.438 409.804)" fill="white"/>
<rect x="131.333" y="420.014" width="392.993" height="3.92993" transform="rotate(-30 131.333 420.014)" fill="white"/>
<rect x="137.228" y="430.224" width="392.993" height="3.92993" transform="rotate(-30 137.228 430.224)" fill="white"/>
<rect x="143.122" y="440.435" width="392.993" height="3.92993" transform="rotate(-30 143.122 440.435)" fill="white"/>
<rect x="149.018" y="450.645" width="392.993" height="3.92993" transform="rotate(-30 149.018 450.645)" fill="white"/>
<rect x="154.912" y="460.855" width="392.993" height="3.92993" transform="rotate(-30 154.912 460.855)" fill="white"/>
<rect x="160.807" y="471.065" width="392.993" height="3.92993" transform="rotate(-30 160.807 471.065)" fill="white"/>
<rect x="166.702" y="481.276" width="392.993" height="3.92993" transform="rotate(-30 166.702 481.276)" fill="white"/>
</g>
</mask>
<g mask="url(#mask0_725_3922)">
<circle cx="226.834" cy="192.436" r="181.759" transform="rotate(-30 226.834 192.436)" fill="url(#paint1_linear_725_3922)"/>
</g>
</g>
<defs>
<linearGradient id="paint0_linear_725_3922" x1="163.471" y1="76.0571" x2="519.381" y2="677.989" gradientUnits="userSpaceOnUse">
<stop stop-color="#DDDDDD"/>
<stop offset="1" stop-color="#DDDDDD" stop-opacity="0"/>
</linearGradient>
<linearGradient id="paint1_linear_725_3922" x1="226.834" y1="10.677" x2="226.834" y2="374.195" gradientUnits="userSpaceOnUse">
<stop stop-color="white"/>
<stop offset="1" stop-color="white" stop-opacity="0"/>
</linearGradient>
<clipPath id="clip0_725_3922">
<rect width="410" height="580" fill="white"/>
</clipPath>
<clipPath id="clip1_725_3922">
<rect width="392.993" height="440.152" fill="white" transform="translate(-51.4092 103.496) rotate(-30)"/>
</clipPath>
</defs>
</svg>
