<svg width="411" height="313" viewBox="0 0 411 313" fill="none" xmlns="http://www.w3.org/2000/svg">
<g opacity="0.24">
<mask id="mask0_2959_12811" style="mask-type:alpha" maskUnits="userSpaceOnUse" x="0" y="-161" width="460" height="474">
<g clip-path="url(#clip0_2959_12811)">
<rect x="0.325684" y="0.410645" width="392.993" height="3.92993" transform="rotate(-30 0.325684 0.410645)" fill="white"/>
<rect x="6.22058" y="10.6208" width="392.993" height="3.92993" transform="rotate(-30 6.22058 10.6208)" fill="white"/>
<rect x="12.1155" y="20.8312" width="392.993" height="3.92993" transform="rotate(-30 12.1155 20.8312)" fill="white"/>
<rect x="18.0105" y="31.0416" width="392.993" height="3.92993" transform="rotate(-30 18.0105 31.0416)" fill="white"/>
<rect x="23.9053" y="41.2516" width="392.993" height="3.92993" transform="rotate(-30 23.9053 41.2516)" fill="white"/>
<rect x="29.8002" y="51.4619" width="392.993" height="3.92993" transform="rotate(-30 29.8002 51.4619)" fill="white"/>
<rect x="35.6951" y="61.6721" width="392.993" height="3.92993" transform="rotate(-30 35.6951 61.6721)" fill="white"/>
<rect x="41.59" y="71.8824" width="392.993" height="3.92993" transform="rotate(-30 41.59 71.8824)" fill="white"/>
<rect x="47.4849" y="82.0927" width="392.993" height="3.92993" transform="rotate(-30 47.4849 82.0927)" fill="white"/>
<rect x="53.3796" y="92.3029" width="392.993" height="3.92993" transform="rotate(-30 53.3796 92.3029)" fill="white"/>
<rect x="59.2747" y="102.513" width="392.993" height="3.92993" transform="rotate(-30 59.2747 102.513)" fill="white"/>
<rect x="65.1694" y="112.723" width="392.993" height="3.92993" transform="rotate(-30 65.1694 112.723)" fill="white"/>
<rect x="71.0643" y="122.934" width="392.993" height="3.92993" transform="rotate(-30 71.0643 122.934)" fill="white"/>
<rect x="76.9594" y="133.144" width="392.993" height="3.92993" transform="rotate(-30 76.9594 133.144)" fill="white"/>
<rect x="82.8541" y="143.354" width="392.993" height="3.92993" transform="rotate(-30 82.8541 143.354)" fill="white"/>
<rect x="88.749" y="153.564" width="392.993" height="3.92993" transform="rotate(-30 88.749 153.564)" fill="white"/>
<rect x="94.644" y="163.775" width="392.993" height="3.92993" transform="rotate(-30 94.644 163.775)" fill="white"/>
<rect x="100.539" y="173.985" width="392.993" height="3.92993" transform="rotate(-30 100.539 173.985)" fill="white"/>
<rect x="106.434" y="184.195" width="392.993" height="3.92993" transform="rotate(-30 106.434 184.195)" fill="white"/>
<rect x="112.329" y="194.406" width="392.993" height="3.92993" transform="rotate(-30 112.329 194.406)" fill="white"/>
<rect x="118.224" y="204.616" width="392.993" height="3.92993" transform="rotate(-30 118.224 204.616)" fill="white"/>
<rect x="124.118" y="214.826" width="392.993" height="3.92993" transform="rotate(-30 124.118 214.826)" fill="white"/>
<rect x="130.013" y="225.036" width="392.993" height="3.92993" transform="rotate(-30 130.013 225.036)" fill="white"/>
<rect x="135.908" y="235.246" width="392.993" height="3.92993" transform="rotate(-30 135.908 235.246)" fill="white"/>
<rect x="141.803" y="245.457" width="392.993" height="3.92993" transform="rotate(-30 141.803 245.457)" fill="white"/>
<rect x="147.698" y="255.667" width="392.993" height="3.92993" transform="rotate(-30 147.698 255.667)" fill="white"/>
<rect x="153.593" y="265.877" width="392.993" height="3.92993" transform="rotate(-30 153.593 265.877)" fill="white"/>
<rect x="159.488" y="276.087" width="392.993" height="3.92993" transform="rotate(-30 159.488 276.087)" fill="white"/>
<rect x="165.383" y="286.298" width="392.993" height="3.92993" transform="rotate(-30 165.383 286.298)" fill="white"/>
<rect x="171.278" y="296.508" width="392.993" height="3.92993" transform="rotate(-30 171.278 296.508)" fill="white"/>
<rect x="177.172" y="306.718" width="392.993" height="3.92993" transform="rotate(-30 177.172 306.718)" fill="white"/>
<rect x="183.068" y="316.928" width="392.993" height="3.92993" transform="rotate(-30 183.068 316.928)" fill="white"/>
<rect x="188.962" y="327.139" width="392.993" height="3.92993" transform="rotate(-30 188.962 327.139)" fill="white"/>
<rect x="194.857" y="337.349" width="392.993" height="3.92993" transform="rotate(-30 194.857 337.349)" fill="white"/>
<rect x="200.752" y="347.559" width="392.993" height="3.92993" transform="rotate(-30 200.752 347.559)" fill="white"/>
<rect x="206.647" y="357.769" width="392.993" height="3.92993" transform="rotate(-30 206.647 357.769)" fill="white"/>
<rect x="212.542" y="367.98" width="392.993" height="3.92993" transform="rotate(-30 212.542 367.98)" fill="white"/>
<rect x="218.437" y="378.19" width="392.993" height="3.92993" transform="rotate(-30 218.437 378.19)" fill="white"/>
</g>
</mask>
<g mask="url(#mask0_2959_12811)">
<circle cx="228.445" cy="73.3282" r="149.016" transform="rotate(-30 228.445 73.3282)" fill="url(#paint0_linear_2959_12811)"/>
</g>
</g>
<defs>
<linearGradient id="paint0_linear_2959_12811" x1="228.445" y1="-75.6879" x2="228.445" y2="222.344" gradientUnits="userSpaceOnUse">
<stop stop-color="white"/>
<stop offset="1" stop-color="white" stop-opacity="0"/>
</linearGradient>
<clipPath id="clip0_2959_12811">
<rect width="322.197" height="360.861" fill="white" transform="translate(0.325684 0.410645) rotate(-30)"/>
</clipPath>
</defs>
</svg>
